<svg xmlns="http://www.w3.org/2000/svg" width="579" height="310" viewBox="0 0 579 310" fill="none"><g filter="url(#filter0_dii_420_4865)"><rect x="35" y="18" width="80" height="80" rx="10" fill="#F2F2F2"></rect></g><path d="M47.1048 37.0827C51.6709 37.0639 56.2424 36.9081 60.8004 37.08C63.2017 37.1686 65.6727 37.5474 67.9531 38.286C72.2479 39.6801 76.2285 45.1462 76.2151 50.1101C76.199 55.6004 74.3725 59.6537 69.9568 62.5734C67.5422 64.1689 64.8213 65.0634 61.8103 64.8807C59.7207 64.7545 57.6202 64.8566 55.2217 64.8566V78.4534C52.337 78.2493 49.6698 78.0613 47 77.8732C47.0188 77.1265 47.0537 76.3798 47.0537 75.6331C47.0725 62.7829 47.0886 49.9301 47.1048 37.08V37.0827ZM55.6971 57.0939C55.8072 57.2362 55.9174 57.3786 56.0248 57.5236C59.1512 58.3268 62.0386 57.435 64.8589 56.2263C67.3998 55.1384 67.9262 52.8499 67.8376 50.4673C67.749 48.0875 66.6316 45.9306 64.2331 45.3504C61.3618 44.6574 58.3455 44.5553 55.6944 44.2357V57.0939H55.6971Z" fill="#53A0D8"></path><path d="M95.1813 68.7057C92.3288 67.5024 90.1398 66.342 87.8137 65.6517C84.5637 64.6874 79.9358 58.8989 80.1856 55.6971C80.4918 51.7943 83.9486 47.6228 88.1522 46.9916C91.1174 46.5484 94.2197 47.0426 97.2629 47.0964C97.5772 47.1017 97.8941 46.8922 98.211 46.8922C100.223 46.8842 100.961 47.6497 100.967 49.7072C100.972 51.3403 100.978 52.9708 100.972 54.6039C100.972 54.7275 100.881 54.8483 100.8 55.0552C98.8584 54.6012 96.9245 53.9216 94.9449 53.7444C92.9331 53.5644 90.8784 53.8733 88.7699 53.9727V56.7823C90.497 57.5532 92.2966 58.2865 94.029 59.146C96.2261 60.2366 98.4958 61.2546 100.483 62.6567C101.453 63.3417 102.108 64.7572 102.474 65.9713C103.916 70.774 101.805 75.4424 97.2092 77.3817C93.8061 78.8188 90.2526 79.6192 86.511 78.4991C84.929 78.0237 83.261 77.8437 81.679 77.3737C81.1015 77.2017 80.2528 76.6135 80.2205 76.1622C80.0728 74.1343 80.1534 72.0875 80.2125 70.0515C80.2205 69.7936 80.5805 69.5438 80.6449 69.4632C83.4625 70.2126 86.0786 71.1232 88.7699 71.5395C90.2553 71.7705 91.8991 71.2897 93.4059 70.8895C93.9296 70.7498 94.2573 69.8822 95.1786 68.703L95.1813 68.7057Z" fill="#53A0D8"></path><g filter="url(#filter1_dii_420_4865)"><rect x="149" y="52" width="80" height="80" rx="10" fill="#F2F2F2"></rect></g><path d="M176.98 72.9121C179.634 72.9121 182.68 72.9658 185.723 72.8906C187.34 72.8503 187.335 74.1423 187.662 75.0636C191.78 86.6459 195.855 98.2416 199.937 109.835C200.34 110.979 200.738 112.123 201.275 113.665C198.299 113.665 195.495 113.713 192.699 113.603C192.344 113.59 191.893 112.795 191.705 112.284C190.864 110.001 190.158 107.67 189.271 105.408C189.062 104.874 188.35 104.183 187.856 104.172C183.456 104.076 179.054 104.116 174.55 104.116C173.652 106.88 172.726 109.545 171.936 112.247C171.608 113.361 171.042 113.775 169.911 113.746C167.757 113.689 165.603 113.729 163 113.729C167.69 100.041 172.267 86.6781 176.983 72.9121H176.98ZM181.616 80.4357C179.967 85.9153 178.436 90.9973 176.902 96.0847H186.467C184.858 90.8952 183.306 85.8884 181.616 80.4357Z" fill="#F3971B"></path><path d="M213.816 83.114V113.899C211.27 113.899 208.782 113.974 206.309 113.818C205.935 113.794 205.347 112.696 205.339 112.089C205.269 105.578 205.296 99.0665 205.296 92.5528C205.296 89.4477 205.296 86.3453 205.296 83.1113H213.819L213.816 83.114Z" fill="#F3981B"></path><path d="M209.748 79.7215C206.866 79.7323 204.924 77.8198 204.883 74.9323C204.843 72.2086 206.962 70.041 209.705 70.0007C212.493 69.9577 214.555 72.0206 214.553 74.8463C214.553 77.6882 212.554 79.7135 209.748 79.7215Z" fill="#F1961B"></path><g filter="url(#filter2_dii_420_4865)"><rect x="53" y="139" width="80" height="80" rx="10" fill="#F2F2F2"></rect></g><path d="M105.89 168.805V157H114.716C114.759 157.607 114.835 158.198 114.838 158.786C114.881 171.706 114.933 184.629 114.917 197.549C114.917 198.199 114.479 199.246 113.982 199.44C108.237 201.658 102.328 202.475 96.2695 200.834C84.1721 197.557 83.0506 182.045 89.8827 175.08C91.5229 173.406 93.6681 172.219 95.5825 170.806C95.854 170.685 96.1228 170.562 96.3944 170.441L96.4025 170.438C96.818 170.304 97.2335 170.172 97.6517 170.038C97.7874 170.022 97.9259 170.003 98.0617 169.987C98.4853 169.872 98.9089 169.753 99.3325 169.638C99.5959 169.616 99.8593 169.592 100.125 169.571L100.324 169.606L100.519 169.552C100.823 169.504 101.127 169.458 101.432 169.41C101.717 169.356 102.002 169.302 102.287 169.248C103.207 169.254 104.128 169.259 105.051 169.265C105.334 169.111 105.616 168.958 105.899 168.808L105.89 168.805ZM105.89 177.379C105.76 177.221 105.63 177.065 105.502 176.906C98.9877 175.195 93.3721 180.96 94.9362 187.75C96.1066 192.829 101.065 195.54 105.814 193.694C105.839 193.565 105.863 193.436 105.888 193.308C105.888 187.997 105.888 182.687 105.89 177.376V177.379Z" fill="#E63B67"></path><path d="M71 160.269H79.5863C79.6406 161.058 79.7357 161.778 79.7384 162.501C79.7465 174.658 79.7058 186.815 79.7872 198.975C79.7981 200.796 79.2577 201.363 77.4574 201.236C75.3583 201.091 73.2403 201.201 71.0027 201.201V160.269H71Z" fill="#E53A66"></path><g filter="url(#filter3_dii_420_4865)"><rect x="270" y="43" width="80" height="80" rx="10" fill="#F2F2F2"></rect></g><path d="M287.604 63.3677C290.244 68.3439 292.885 73.3173 295.654 78.5379C296.154 77.7231 296.578 77.1146 296.919 76.4627C299.036 72.4345 301.098 68.3765 303.279 64.3836C303.556 63.8757 304.405 63.4302 305.006 63.4058C307.604 63.2998 310.209 63.3596 313.209 63.3596C311.482 66.3176 309.906 69.0528 308.294 71.7636C306.223 75.2486 304.163 78.7389 302.009 82.1696C301.423 83.104 301.399 83.7613 301.977 84.7065C305.971 91.25 309.903 97.8314 313.988 104.627C313.25 104.899 312.656 105.29 312.052 105.309C309.656 105.383 307.222 105.565 304.869 105.233C303.862 105.092 302.691 103.967 302.151 102.979C299.763 98.592 297.58 94.0912 295.17 89.3296C293.653 92.1925 292.28 94.7811 290.905 97.3697C289.812 99.4313 288.67 101.468 287.636 103.56C286.978 104.894 286.057 105.456 284.558 105.391C282.238 105.288 279.906 105.364 277 105.364C277.868 103.617 278.485 102.126 279.307 100.76C282.396 95.6258 285.595 90.56 288.633 85.3965C288.993 84.7853 288.91 83.5657 288.542 82.9084C284.991 76.5578 281.332 70.2697 277.736 63.9436C277.677 63.8376 278.002 63.509 278.147 63.2862C281.298 63.3134 284.448 63.3433 287.601 63.3704L287.604 63.3677Z" fill="#BF74AE"></path><path d="M287.605 63.3677C284.454 63.3406 281.304 63.3107 278.15 63.2835C278.175 63.2183 278.18 63.126 278.226 63.0961C279.638 62.121 286.334 62.3193 287.605 63.3677Z" fill="#411236"></path><path d="M334.557 60.0625C337.417 60.0407 340.278 60.0217 343.141 60C343.149 72.5137 343.152 85.0275 343.179 97.5412C343.179 98.4865 343.385 99.4317 343.493 100.374C343.646 103.164 342.8 104.009 339.069 104.745C336.622 105.228 334.175 106.021 331.718 106.065C329.392 106.108 327.012 105.505 324.731 104.897C323.34 104.525 322.062 103.661 320.788 102.919C314.984 99.5404 313.617 91.8805 314.56 86.8338C316.255 77.7697 322.513 72.8261 331.61 72.9103C332.451 72.9185 333.292 72.6821 334.132 72.5599C334.267 71.927 334.511 71.2941 334.516 70.6585C334.559 67.1247 334.546 63.5909 334.551 60.057L334.557 60.0625ZM334.154 80.7793C332.341 79.5081 327.329 80.6353 325.449 82.7404C323.117 85.348 322.701 90.593 324.552 94.0101C326.085 96.8404 329.923 98.5136 333.539 97.859C333.888 97.7965 334.165 97.3239 334.473 97.0387C334.495 91.981 334.527 86.9234 334.524 81.863C334.524 81.5018 334.283 81.1405 334.154 80.7793Z" fill="#BF74AE"></path><path d="M343.496 100.374C343.386 99.429 343.182 98.4837 343.182 97.5412C343.153 85.0275 343.153 72.5137 343.145 60C343.271 60.0136 343.4 60.0272 343.529 60.0407C343.545 61.8443 343.574 63.6452 343.58 65.4488C343.607 77.0988 343.631 88.7487 343.655 100.399L343.502 100.377L343.496 100.374Z" fill="#9B3A8E"></path><path d="M343.648 100.396C343.624 88.7461 343.599 77.0961 343.573 65.4461C343.567 63.6425 343.54 61.8417 343.521 60.0381C343.675 60.6818 343.965 61.3229 343.965 61.9666C343.992 74.1816 343.989 86.3965 343.97 98.6087C343.97 99.2036 343.758 99.7985 343.645 100.393L343.648 100.396Z" fill="#3A0E2D"></path><path d="M334.556 60.0625C334.551 63.5963 334.564 67.1301 334.521 70.664C334.513 71.2996 334.272 71.9325 334.137 72.5653C334.129 68.9745 334.1 65.3809 334.132 61.79C334.137 61.2142 334.409 60.6383 334.556 60.0625Z" fill="#320D25"></path><path d="M334.47 97.0387C334.349 96.3787 334.129 95.7214 334.126 95.0613C334.11 90.2997 334.137 85.5409 334.153 80.7793C334.282 81.1406 334.524 81.5018 334.524 81.8631C334.524 86.9207 334.494 91.9784 334.473 97.0387H334.47Z" fill="#320D25"></path><g filter="url(#filter4_dii_420_4865)"><rect x="382" y="30" width="80" height="80" rx="10" fill="#F2F2F2"></rect></g><path d="M400.567 49.0217C403.661 49.0217 406.844 48.9375 410.013 49.1005C410.569 49.1304 411.316 50.1137 411.566 50.8063C415.401 61.5083 419.167 72.2348 422.946 82.9558C423.73 85.1831 424.496 87.4186 425.412 90.056C422.361 90.056 419.618 90.1185 416.884 89.9908C416.462 89.9718 415.925 89.1298 415.713 88.5621C414.848 86.2723 414.16 83.9092 413.242 81.6438C413.013 81.0788 412.178 80.4106 411.606 80.3971C407.338 80.2911 403.067 80.34 398.673 80.34C397.932 82.6325 396.981 84.8381 396.535 87.1442C396.06 89.6106 394.642 90.4798 392.431 90.5341C390.747 90.5775 389.06 90.5422 387 90.5422C387.282 89.358 387.43 88.3883 387.744 87.4756C391.529 76.464 395.356 65.4659 399.124 54.4488C399.694 52.7865 400.035 51.0453 400.567 49.0163V49.0217ZM405.646 56.7277C404.083 62.0108 402.57 67.1228 401.074 72.175H410.4C408.77 66.8756 407.236 61.894 405.646 56.7277Z" fill="#9092C8"></path><path d="M429.438 64.6181V58.8624C431.565 58.8624 433.797 58.7049 435.98 58.9602C436.614 59.0335 437.111 60.2966 437.767 61.1386C440.152 59.4301 442.98 58.3545 446.222 58.4061C451.696 58.493 456.053 62.1165 456.273 67.6277C456.566 75.0132 456.345 82.4204 456.345 90.2432C453.74 90.3871 451.164 90.5311 448.298 90.6913C448.164 89.6239 447.96 88.7248 447.954 87.8203C447.922 82.5399 447.936 77.2568 447.938 71.9764C447.938 69.6595 447.468 67.3615 445.174 66.4815C442.838 65.5878 440.377 65.8323 438.417 67.7961C438.285 68.1547 438.041 68.5132 438.041 68.8718C438.041 75.6787 438.073 82.4856 438.097 89.2952C437.256 89.6619 436.426 90.3083 435.572 90.3409C433.542 90.4197 431.498 90.2078 429.462 90.1155C429.456 81.6137 429.448 73.1145 429.443 64.6127L429.438 64.6181Z" fill="#9092C8"></path><path d="M429.438 64.6181C429.443 73.12 429.451 81.6191 429.457 90.1209C429.339 89.6021 429.116 89.086 429.116 88.5672C429.094 81.1057 429.094 73.6442 429.116 66.1827C429.116 65.6612 429.328 65.1396 429.441 64.6181H429.438Z" fill="#1E1F42"></path><path d="M438.095 89.3008C438.071 82.4939 438.042 75.687 438.039 68.8774C438.039 68.5188 438.283 68.1603 438.415 67.8018C438.434 74.5217 438.458 81.2417 438.455 87.959C438.455 88.4072 438.222 88.8526 438.095 89.3008Z" fill="#1E2145"></path><g filter="url(#filter5_dii_420_4865)"><rect x="464" y="100" width="80" height="80" rx="10" fill="#F2F2F2"></rect></g><path d="M538.049 146.961H518.756C519.519 151.809 522.807 154.159 528.14 153.74C530.601 153.547 533.042 153.088 535.66 152.724C535.66 154.525 535.717 156.446 535.621 158.358C535.597 158.86 535.206 159.61 534.791 159.787C529.512 162.011 518.807 162.742 513.414 156.443C507.34 149.345 508.524 134.998 517.708 130.204C522.563 127.67 527.633 127.74 532.341 130.533C536.879 133.222 538.302 137.725 538.296 142.764C538.296 144.068 538.147 145.369 538.049 146.961ZM529.794 139.431C528.705 136.487 527.404 135.542 524.466 135.561C521.363 135.582 519.717 137.057 518.748 140.692C518.978 140.811 519.212 140.931 519.443 141.047C519.874 141.047 520.309 141.047 520.741 141.047H529.876C529.843 140.382 529.819 139.907 529.794 139.431Z" fill="#9092C8"></path><path d="M493.255 119.011C495.248 124.424 497.263 129.83 499.226 135.257C501.892 142.631 504.521 150.022 507.158 157.408C507.454 158.233 507.685 159.084 508.046 160.246C505.042 160.246 502.3 160.306 499.568 160.186C499.123 160.167 498.528 159.412 498.319 158.874C497.303 156.261 496.394 153.61 495.446 150.97C495.212 150.859 494.976 150.65 494.743 150.65C490.316 150.631 485.893 150.631 481.467 150.65C481.26 150.65 481.057 150.9 480.853 151.033C479.987 153.632 479.088 156.223 478.265 158.839C477.888 160.04 477.304 160.648 475.919 160.572C473.738 160.45 471.544 160.54 469 160.54C469.508 158.989 469.888 157.772 470.303 156.568C474.116 145.543 477.947 134.523 481.738 123.487C482.241 122.029 482.531 120.497 482.919 119C486.365 119.003 489.809 119.005 493.255 119.008V119.011ZM492.986 142.683C491.313 137.272 489.708 132.087 488.052 126.733C486.431 132.133 484.866 137.354 483.267 142.683H492.986Z" fill="#9092C8"></path><path d="M480.852 151.035C481.055 150.902 481.259 150.652 481.465 150.652C485.891 150.63 490.315 150.63 494.741 150.652C494.977 150.652 495.211 150.861 495.444 150.973C490.578 150.994 485.715 151.016 480.852 151.038V151.035Z" fill="#1D1F41"></path><g filter="url(#filter6_dii_420_4865)"><rect x="259" y="148" width="80" height="80" rx="10" fill="#F2F2F2"></rect></g><path d="M317.997 168.295V170.737C317.536 172.608 316.854 174.362 315.508 175.805C313.827 177.608 311.726 178.531 309.317 178.842C308.507 178.852 307.695 178.864 306.883 178.873C304.412 178.848 301.94 178.822 299.471 178.799C299.398 178.753 299.327 178.708 299.254 178.661C299.274 178.598 299.28 178.534 299.268 178.469C299.268 172.363 299.272 166.259 299.272 160.153C302.8 160.153 306.325 160.153 309.853 160.153C309.973 160.266 310.098 160.482 310.216 160.479C312.559 160.41 314.079 161.896 315.581 163.354C316.964 164.696 317.587 166.452 317.993 168.295H317.997Z" fill="#EE7265"></path><path d="M289.101 160.155C292.423 160.155 295.748 160.155 299.071 160.155C299.071 166.261 299.071 172.365 299.071 178.471C296.176 178.471 293.281 178.465 290.386 178.479C290.031 178.479 289.676 178.584 289.321 178.639C289.256 178.665 289.191 178.692 289.124 178.718C287.027 178.574 285.269 177.675 283.736 176.284C282.031 174.738 281.187 172.742 280.756 170.532C280.756 169.854 280.756 169.176 280.756 168.496C280.831 168.142 280.884 167.779 280.986 167.432C281.99 164.083 283.86 161.574 287.463 160.727C288.022 160.595 288.555 160.348 289.099 160.153L289.101 160.155Z" fill="#E95025"></path><path d="M280.758 189.256C280.758 188.509 280.758 187.764 280.758 187.017C280.807 186.934 280.894 186.854 280.902 186.767C281.199 182.943 285.234 179.114 289.093 178.855L289.132 178.907C289.485 178.964 289.836 179.07 290.188 179.072C293.151 179.086 296.111 179.08 299.073 179.08C299.073 185.117 299.073 191.154 299.073 197.193C296.178 197.193 293.283 197.187 290.388 197.201C290.033 197.201 289.678 197.304 289.321 197.357C289.24 197.377 289.162 197.396 289.081 197.416C284.981 196.773 282.338 194.442 281.083 190.51C280.951 190.1 280.864 189.674 280.756 189.256H280.758Z" fill="#765FA6"></path><path d="M299.245 208.176C298.923 211.79 295.494 215.293 292.006 215.923C291.779 215.965 291.562 216.053 291.339 216.12H288.695C288.551 216.055 288.415 215.957 288.263 215.931C285.837 215.525 283.959 214.189 282.626 212.226C281.804 211.014 281.367 209.539 280.758 208.183C280.758 207.302 280.758 206.419 280.758 205.538C281.174 203.881 281.68 202.257 282.845 200.944C284.416 199.172 286.247 197.842 288.702 197.627C289.024 197.686 289.343 197.796 289.664 197.798C292.804 197.81 295.941 197.802 299.081 197.8H299.079C299.079 200.936 299.071 204.074 299.083 207.212C299.083 207.533 299.189 207.854 299.247 208.176H299.245Z" fill="#4CB37D"></path><path d="M306.888 178.875C307.698 178.865 308.51 178.854 309.32 178.844C312.071 179.104 314.277 180.298 316.023 182.48C317.068 183.785 317.533 185.285 318 186.816V189.461C317.552 191.196 316.924 192.837 315.729 194.223C312.661 197.779 307.42 198.504 303.626 195.948C301.232 194.335 299.836 192.069 299.375 189.225C299.371 188.488 299.367 187.75 299.363 187.013C299.519 186.43 299.623 185.825 299.84 185.267C301.082 182.09 303.09 179.76 306.669 179.198C306.756 179.185 306.815 178.988 306.886 178.875H306.888Z" fill="#46B7EA"></path><path d="M299.072 178.472C299.072 172.366 299.072 166.261 299.072 160.155H299.275C299.275 166.261 299.271 172.366 299.271 178.472C299.204 178.472 299.139 178.472 299.072 178.472Z" fill="#E94F21"></path><path d="M289.098 197.562C289.098 197.513 289.094 197.466 289.082 197.418C289.163 197.399 289.242 197.379 289.322 197.359C292.647 197.371 295.974 197.383 299.299 197.395C299.346 197.655 299.437 197.913 299.437 198.173C299.447 201.011 299.447 203.85 299.437 206.688C299.437 206.983 299.356 207.281 299.313 207.577C299.301 204.668 299.293 201.758 299.266 198.849C299.262 198.498 299.141 198.148 299.074 197.799L299.076 197.801C298.726 197.734 298.377 197.614 298.026 197.61C295.05 197.582 292.072 197.576 289.096 197.562H289.098Z" fill="#58AFB3"></path><path d="M299.362 187.014C299.366 187.751 299.37 188.488 299.374 189.225C299.346 191.882 299.319 194.539 299.291 197.196C299.218 197.196 299.145 197.196 299.072 197.196C299.072 191.159 299.072 185.122 299.072 179.083C299.072 179.025 299.072 178.968 299.072 178.911C299.153 178.911 299.236 178.911 299.317 178.911C299.332 181.613 299.346 184.313 299.362 187.016V187.014Z" fill="#6F58A1"></path><path d="M299.077 197.796C299.144 198.147 299.264 198.496 299.268 198.846C299.296 201.756 299.301 204.665 299.315 207.574C299.292 207.773 299.268 207.974 299.244 208.173C299.187 207.852 299.083 207.53 299.081 207.209C299.069 204.071 299.077 200.934 299.077 197.796Z" fill="#4CB377"></path><path d="M299.074 197.193C299.147 197.193 299.22 197.193 299.293 197.193C299.295 197.26 299.299 197.327 299.301 197.394C295.976 197.383 292.649 197.371 289.324 197.359C289.679 197.304 290.034 197.203 290.39 197.203C293.286 197.189 296.181 197.195 299.076 197.195L299.074 197.193Z" fill="#765AA3"></path><path d="M299.472 178.798C299.435 178.856 299.384 178.891 299.317 178.909C299.236 178.909 299.153 178.909 299.072 178.909C295.757 178.909 292.444 178.909 289.129 178.907L289.09 178.856C289.096 178.808 289.106 178.763 289.125 178.718C289.19 178.692 289.257 178.664 289.322 178.639C292.633 178.647 295.947 178.655 299.258 178.662C299.33 178.708 299.401 178.753 299.474 178.8L299.472 178.798Z" fill="#DD567F"></path><path d="M299.259 178.663C295.948 178.655 292.635 178.647 289.324 178.639C289.679 178.584 290.034 178.482 290.388 178.48C293.284 178.466 296.179 178.472 299.074 178.472C299.141 178.472 299.206 178.472 299.273 178.472C299.285 178.537 299.279 178.6 299.259 178.663Z" fill="#E9501A"></path><path d="M289.131 178.907C292.446 178.907 295.759 178.907 299.074 178.909C299.074 178.966 299.074 179.024 299.074 179.081C296.112 179.081 293.151 179.087 290.189 179.073C289.836 179.073 289.484 178.964 289.133 178.907H289.131Z" fill="#725EA5"></path><path d="M289.099 197.562C292.075 197.576 295.053 197.582 298.029 197.61C298.38 197.614 298.731 197.734 299.08 197.801C295.94 197.801 292.803 197.809 289.663 197.797C289.342 197.797 289.022 197.687 288.701 197.626C288.833 197.604 288.965 197.582 289.097 197.562H289.099Z" fill="#4EB379"></path><g filter="url(#filter7_dii_420_4865)"><rect x="366" y="148" width="80" height="80" rx="10" fill="#F2F2F2"></rect></g><path d="M376.004 186.632C376.042 186.375 376.098 186.12 376.114 185.863C376.264 183.339 376.731 180.879 377.524 178.481C379.285 173.166 382.304 168.692 386.564 165.062C390.095 162.054 394.122 159.993 398.626 158.867C400.051 158.512 401.5 158.275 402.963 158.132C404.432 157.989 405.902 157.966 407.368 158.045C412.122 158.302 416.567 159.622 420.677 162.027C425.213 164.682 428.809 168.287 431.462 172.824C433.181 175.763 434.338 178.912 434.968 182.26C435.337 184.216 435.467 186.187 435.438 188.176C435.337 195.238 432.973 201.465 428.445 206.851C424.442 211.614 419.398 214.789 413.391 216.421C411.822 216.848 410.227 217.134 408.604 217.275C408.112 217.317 407.621 217.353 407.129 217.398C407.044 217.404 406.961 217.431 406.877 217.449H404.671C404.327 217.411 403.982 217.36 403.636 217.337C402.206 217.246 400.793 217.04 399.394 216.729C394.875 215.728 390.801 213.786 387.199 210.881C382.521 207.108 379.254 202.352 377.419 196.626C376.682 194.324 376.25 191.964 376.11 189.55C376.094 189.293 376.038 189.036 376 188.782C376 188.066 376 187.349 376 186.634L376.004 186.632ZM405.739 216.063C421.43 216.072 434.068 203.3 434.115 187.794C434.162 172.283 421.618 159.464 405.971 159.35C390.299 159.236 377.428 171.912 377.406 187.662C377.383 203.409 390.182 216.052 405.739 216.063Z" fill="#26596F"></path><path d="M422.86 168.864C422.648 168.879 422.449 168.888 422.252 168.906C420.98 169.029 419.986 169.639 419.246 170.663C418.515 171.68 418.249 172.822 418.399 174.067C418.518 175.052 418.868 175.96 419.342 176.818C419.791 177.629 420.279 178.42 420.755 179.216C421.548 180.55 422.225 181.934 422.603 183.451C423.045 185.237 423.07 187.025 422.688 188.824C422.337 190.48 421.812 192.087 421.322 193.705C420.411 196.718 419.508 199.735 418.6 202.75C418.573 202.839 418.542 202.928 418.513 203.013C418.489 203.013 418.477 203.016 418.468 203.013C418.462 203.011 418.453 203.002 418.451 202.993C415.413 193.966 412.374 184.94 409.337 175.913C409.326 175.877 409.326 175.839 409.319 175.781C409.397 175.765 409.471 175.743 409.545 175.736C410.334 175.671 411.125 175.609 411.914 175.544C412.039 175.533 412.164 175.515 412.287 175.492C412.839 175.392 413.194 174.925 413.15 174.362C413.105 173.81 412.696 173.414 412.139 173.396C411.996 173.392 411.851 173.418 411.706 173.427C410.731 173.49 409.757 173.564 408.783 173.608C407.576 173.662 406.367 173.725 405.158 173.718C403.873 173.711 402.588 173.635 401.303 173.573C400.386 173.528 399.47 173.454 398.554 173.398C397.568 173.338 397.213 174.306 397.499 174.943C397.64 175.258 397.888 175.452 398.232 175.49C399.019 175.577 399.81 175.647 400.596 175.723C400.672 175.729 400.751 175.734 400.829 175.734C400.974 175.732 401.052 175.799 401.102 175.939C401.253 176.377 401.417 176.811 401.578 177.247C402.682 180.268 403.781 183.292 404.89 186.312C404.97 186.533 404.974 186.727 404.899 186.951C403.113 192.292 401.332 197.634 399.551 202.978C399.521 203.067 399.483 203.156 399.396 203.253C396.321 194.107 393.246 184.96 390.164 175.79C390.254 175.77 390.323 175.745 390.397 175.741C391.186 175.676 391.977 175.613 392.766 175.548C392.891 175.537 393.016 175.519 393.139 175.499C393.727 175.396 394.064 174.938 394.008 174.326C393.959 173.776 393.512 173.385 392.935 173.403C392.627 173.412 392.319 173.443 392.01 173.465C390.111 173.606 388.209 173.707 386.302 173.729C385.771 173.736 385.239 173.711 384.707 173.7C384.651 173.7 384.595 173.687 384.492 173.673C386.059 171.313 387.929 169.288 390.14 167.576C393.651 164.856 397.602 163.153 401.995 162.501C410.888 161.178 418.547 164.731 422.86 168.864Z" fill="#26596F"></path><path d="M406.243 190.042C408.882 197.272 411.521 204.502 414.176 211.768C409.038 213.522 403.849 213.658 398.57 212.157C401.114 204.766 403.648 197.399 406.182 190.035C406.202 190.035 406.222 190.037 406.243 190.04V190.042Z" fill="#26596F"></path><path d="M394.62 210.612C381.47 204.185 377.195 188.838 382.494 177.386C386.537 188.462 390.568 199.507 394.62 210.612Z" fill="#26596F"></path><path d="M418.598 209.696C418.846 208.978 419.076 208.312 419.304 207.648C421.642 200.892 423.972 194.136 426.319 187.382C426.703 186.278 427.13 185.19 427.448 184.063C428.073 181.833 428.382 179.562 428.288 177.242C428.272 176.856 428.23 176.471 428.201 176.087C428.19 175.955 428.181 175.821 428.167 175.646C434.181 186.108 431.564 202.142 418.598 209.696Z" fill="#26596F"></path><g filter="url(#filter8_dii_420_4865)"><rect x="149" y="178" width="80" height="80" rx="10" fill="#F2F2F2"></rect></g><path d="M175.463 196.295C175.463 195.916 175.309 195.54 175.224 195.162C175.224 195.162 175.224 195.159 175.224 195.156C174.899 195.105 174.575 195.011 174.25 195.011C171.925 194.998 169.601 194.995 167.276 195.011C166.918 195.011 166.559 195.129 166.201 195.191C166.133 195.583 166.011 195.975 166.008 196.365C165.997 210.778 165.997 225.194 166.008 239.608C166.008 240 166.133 240.389 166.201 240.782C167.347 240.843 168.493 240.962 169.639 240.959C171.502 240.954 173.364 240.87 175.224 240.819C175.309 240.44 175.463 240.059 175.463 239.68C175.477 225.219 175.477 210.754 175.463 196.292V196.295ZM166.247 195.25L166.234 216.959C166.231 211.581 166.228 206.201 166.225 200.824C166.225 198.965 166.239 197.109 166.247 195.25ZM175.249 240.712L175.222 195.266C175.222 195.266 175.241 195.266 175.249 195.266V240.712Z" fill="#8B0038" stroke="#8B0038" stroke-width="4.14" stroke-miterlimit="10"></path><path d="M185.792 195.011C194.229 195.003 202.663 195.003 211.1 195.011C211.496 195.011 211.893 195.126 212.289 195.191C212.349 195.693 212.458 196.195 212.463 196.698C212.482 198.876 212.482 201.052 212.46 203.23V204.111L212.219 204.125C212.219 201.167 212.219 198.207 212.221 195.25L212.216 204.125L184.744 204.119C193.9 204.119 203.057 204.122 212.216 204.125C212.216 204.05 212.216 204.2 212.216 204.125C203.057 204.119 193.897 204.34 184.741 204.332C184.659 204.141 184.507 203.95 184.507 203.759C184.491 201.095 184.494 198.43 184.507 195.768C184.507 195.564 184.632 195.36 184.7 195.153L185.792 195.008V195.011Z" fill="#8B0038"></path><path d="M212.216 204.125L212.221 195.25C212.219 198.207 212.219 201.167 212.219 204.125L212.46 204.111V203.23C212.482 201.052 212.482 198.876 212.463 196.698C212.458 196.195 212.349 195.693 212.289 195.191C211.893 195.126 211.496 195.011 211.1 195.011C202.663 195.003 194.229 195.003 185.792 195.011V195.008L184.7 195.153C184.632 195.36 184.507 195.564 184.507 195.768C184.494 198.43 184.491 201.095 184.507 203.759C184.507 203.95 184.659 204.141 184.741 204.332C193.897 204.34 203.057 204.119 212.216 204.125ZM212.216 204.125L184.744 204.119C193.9 204.119 203.057 204.122 212.216 204.125ZM212.216 204.125C212.216 204.05 212.216 204.2 212.216 204.125Z" stroke="#8B0038" stroke-width="1.03" stroke-miterlimit="10"></path><path d="M185.792 213.499C194.229 213.491 202.663 213.491 211.1 213.499C211.496 213.499 211.893 213.615 212.289 213.679C212.349 214.181 212.458 214.684 212.463 215.186C212.482 217.364 212.482 219.54 212.46 221.719V222.6L212.219 222.613C212.219 219.656 212.219 216.696 212.221 213.738L212.216 222.613L184.744 222.608C193.9 222.608 203.057 222.61 212.216 222.613C212.216 222.538 212.216 222.688 212.216 222.613C203.057 222.608 193.897 222.828 184.741 222.82C184.659 222.629 184.507 222.438 184.507 222.248C184.491 219.583 184.494 216.919 184.507 214.257C184.507 214.053 184.632 213.848 184.7 213.642L185.792 213.497V213.499Z" fill="#8B0038"></path><path d="M212.216 222.613L212.221 213.738C212.219 216.696 212.219 219.656 212.219 222.613L212.46 222.6V221.719C212.482 219.54 212.482 217.364 212.463 215.186C212.458 214.684 212.349 214.181 212.289 213.679C211.893 213.615 211.496 213.499 211.1 213.499C202.663 213.491 194.229 213.491 185.792 213.499V213.497L184.7 213.642C184.632 213.848 184.507 214.053 184.507 214.257C184.494 216.919 184.491 219.583 184.507 222.248C184.507 222.438 184.659 222.629 184.741 222.82C193.897 222.828 203.057 222.608 212.216 222.613ZM212.216 222.613L184.744 222.608C193.9 222.608 203.057 222.61 212.216 222.613ZM212.216 222.613C212.216 222.538 212.216 222.688 212.216 222.613Z" stroke="#8B0038" stroke-width="1.03" stroke-miterlimit="10"></path><path d="M185.792 231.515C194.229 231.507 202.663 231.507 211.1 231.515C211.496 231.515 211.893 231.63 212.289 231.695C212.349 232.197 212.458 232.699 212.463 233.202C212.482 235.38 212.482 237.556 212.46 239.734V240.615L212.219 240.629C212.219 237.671 212.219 234.711 212.221 231.754L212.216 240.629L184.744 240.623C193.9 240.623 203.057 240.626 212.216 240.629C212.216 240.553 212.216 240.704 212.216 240.629C203.057 240.623 193.897 240.844 184.741 240.835C184.659 240.645 184.507 240.454 184.507 240.263C184.491 237.599 184.494 234.934 184.507 232.272C184.507 232.068 184.632 231.864 184.7 231.657L185.792 231.512V231.515Z" fill="#8B0038"></path><path d="M212.216 240.629L212.221 231.754C212.219 234.711 212.219 237.671 212.219 240.629L212.46 240.615V239.734C212.482 237.556 212.482 235.38 212.463 233.202C212.458 232.699 212.349 232.197 212.289 231.695C211.893 231.63 211.496 231.515 211.1 231.515C202.663 231.507 194.229 231.507 185.792 231.515V231.512L184.7 231.657C184.632 231.864 184.507 232.068 184.507 232.272C184.494 234.934 184.491 237.599 184.507 240.263C184.507 240.454 184.659 240.645 184.741 240.835C193.897 240.844 203.057 240.623 212.216 240.629ZM212.216 240.629L184.744 240.623C193.9 240.623 203.057 240.626 212.216 240.629ZM212.216 240.629C212.216 240.553 212.216 240.704 212.216 240.629Z" stroke="#8B0038" stroke-width="1.03" stroke-miterlimit="10"></path><defs><filter id="filter0_dii_420_4865" x="0.333332" y="0.666666" width="149.333" height="149.333" filterUnits="userSpaceOnUse" color-interpolation-filters="sRGB"><feGaussianBlur stdDeviation="17.3333"></feGaussianBlur><feGaussianBlur stdDeviation="1.94519"></feGaussianBlur><feGaussianBlur stdDeviation="1.94519"></feGaussianBlur></filter><filter id="filter1_dii_420_4865" x="114.333" y="34.6667" width="149.333" height="149.333" filterUnits="userSpaceOnUse" color-interpolation-filters="sRGB"><feGaussianBlur stdDeviation="17.3333"></feGaussianBlur><feGaussianBlur stdDeviation="1.94519"></feGaussianBlur><feGaussianBlur stdDeviation="1.94519"></feGaussianBlur></filter><filter id="filter2_dii_420_4865" x="18.3333" y="121.667" width="149.333" height="149.333" filterUnits="userSpaceOnUse" color-interpolation-filters="sRGB"><feGaussianBlur stdDeviation="17.3333"></feGaussianBlur><feGaussianBlur stdDeviation="1.94519"></feGaussianBlur><feGaussianBlur stdDeviation="1.94519"></feGaussianBlur></filter><filter id="filter3_dii_420_4865" x="235.333" y="25.6667" width="149.333" height="149.333" filterUnits="userSpaceOnUse" color-interpolation-filters="sRGB"><feGaussianBlur stdDeviation="17.3333"></feGaussianBlur><feGaussianBlur stdDeviation="1.94519"></feGaussianBlur><feGaussianBlur stdDeviation="1.94519"></feGaussianBlur></filter><filter id="filter4_dii_420_4865" x="347.333" y="12.6667" width="149.333" height="149.333" filterUnits="userSpaceOnUse" color-interpolation-filters="sRGB"><feGaussianBlur stdDeviation="17.3333"></feGaussianBlur><feGaussianBlur stdDeviation="1.94519"></feGaussianBlur><feGaussianBlur stdDeviation="1.94519"></feGaussianBlur></filter><filter id="filter5_dii_420_4865" x="429.333" y="82.6667" width="149.333" height="149.333" filterUnits="userSpaceOnUse" color-interpolation-filters="sRGB"><feGaussianBlur stdDeviation="17.3333"></feGaussianBlur><feGaussianBlur stdDeviation="1.94519"></feGaussianBlur><feGaussianBlur stdDeviation="1.94519"></feGaussianBlur></filter><filter id="filter6_dii_420_4865" x="224.333" y="130.667" width="149.333" height="149.333" filterUnits="userSpaceOnUse" color-interpolation-filters="sRGB"><feGaussianBlur stdDeviation="17.3333"></feGaussianBlur><feGaussianBlur stdDeviation="1.94519"></feGaussianBlur><feGaussianBlur stdDeviation="1.94519"></feGaussianBlur></filter><filter id="filter7_dii_420_4865" x="331.333" y="130.667" width="149.333" height="149.333" filterUnits="userSpaceOnUse" color-interpolation-filters="sRGB"><feGaussianBlur stdDeviation="17.3333"></feGaussianBlur><feGaussianBlur stdDeviation="1.94519"></feGaussianBlur><feGaussianBlur stdDeviation="1.94519"></feGaussianBlur></filter><filter id="filter8_dii_420_4865" x="114.333" y="160.667" width="149.333" height="149.333" filterUnits="userSpaceOnUse" color-interpolation-filters="sRGB"><feGaussianBlur stdDeviation="17.3333"></feGaussianBlur><feGaussianBlur stdDeviation="1.94519"></feGaussianBlur><feGaussianBlur stdDeviation="1.94519"></feGaussianBlur></filter></defs></svg>