<svg xmlns="http://www.w3.org/2000/svg" width="138" height="58" viewBox="0 0 138 58" fill="none"><path d="M5.38991 49.322H6.4324V53.3338C6.4324 55.0072 5.44365 55.9297 3.79931 55.9297C2.07973 55.9297 1.11247 55.0179 1.11247 53.3446V49.322H2.14422V53.2051C2.14422 54.4172 2.75681 55.0179 3.83155 55.0179C4.80956 55.0179 5.38991 54.3958 5.38991 53.2695V49.322Z" fill="#242424"></path><path d="M9.73436 49.322H10.7768V55.8225H9.73436V49.322Z" fill="#242424"></path><path d="M17.174 56.8951L20.4411 48.8715H21.2042L17.9263 56.8951H17.174Z" fill="#242424"></path><path d="M31.9287 49.322H32.9712V53.3338C32.9712 55.0072 31.9824 55.9297 30.3381 55.9297C28.6185 55.9297 27.6513 55.0179 27.6513 53.3446V49.322H28.683V53.2051C28.683 54.4172 29.2956 55.0179 30.3703 55.0179C31.3484 55.0179 31.9287 54.3958 31.9287 53.2695V49.322Z" fill="#242424"></path><path d="M41.7435 55.8225H40.4646L38.6806 53.2909H38.5946L36.789 55.8225H35.5853L38.0035 52.4971L35.7465 49.322H37.047L38.6268 51.6712H38.7235L40.3679 49.322H41.5823L39.3147 52.4328L41.7435 55.8225Z" fill="#242424"></path><path d="M50.6843 50.2552H49.2872V54.8892H50.4586C51.931 54.8892 52.8553 53.9453 52.8553 52.4757C52.8553 51.0705 52.0278 50.2552 50.6843 50.2552ZM50.4586 55.8225H48.2447V49.322H50.7918C52.7156 49.322 53.9408 50.3839 53.9408 52.4113C53.9408 53.4304 53.6291 54.2563 53.0058 54.8785C52.3717 55.5114 51.5226 55.8225 50.4586 55.8225Z" fill="#242424"></path><path d="M58.872 55.9297C57.4104 55.9297 56.5614 55.0608 56.5614 53.5269C56.5614 52.7868 56.7763 52.1968 57.217 51.7355C57.6576 51.285 58.2379 51.0597 58.958 51.0597C60.3444 51.0597 61.1505 51.8643 61.1505 53.2802C61.1505 53.3553 61.1397 53.484 61.129 53.6664L57.6146 53.6771C57.6683 54.621 58.1197 55.093 58.9473 55.093C59.5706 55.093 59.9575 54.8356 60.0972 54.31L61.0645 54.4065C60.8388 55.4256 60.108 55.9297 58.872 55.9297ZM58.9473 51.8643C58.2379 51.8643 57.8081 52.2397 57.6576 52.9798H60.0972C60.065 52.2611 59.6459 51.8643 58.9473 51.8643Z" fill="#242424"></path><path d="M67.7206 52.5615L66.7211 52.6259C66.7104 52.1002 66.388 51.8428 65.7539 51.8428C65.2057 51.8428 64.9048 52.0788 64.9048 52.3899C64.9478 52.6688 64.9908 52.7868 65.2917 52.9048C65.5067 52.9906 65.5497 52.9906 65.8936 53.0764C65.9258 53.0871 65.9581 53.0871 65.9796 53.0978C66.2268 53.1622 66.4095 53.2051 66.5062 53.2266C66.6029 53.2587 66.7534 53.3124 66.9576 53.3875C67.1618 53.4733 67.3015 53.5591 67.3875 53.6449C67.5594 53.8165 67.7529 54.1383 67.7529 54.5352C67.7529 55.4363 66.9683 55.9297 65.8506 55.9297C64.5502 55.9297 63.7549 55.4577 63.7441 54.3958L64.7544 54.3636C64.8403 54.8785 65.195 55.1359 65.8184 55.1359C66.345 55.1359 66.7104 54.9321 66.7104 54.5352C66.7104 54.1491 66.4417 54.0203 65.7109 53.838C65.0768 53.6878 64.6576 53.5591 64.4534 53.4411C64.0558 53.1944 63.8623 52.8511 63.8516 52.3899C63.8516 51.6175 64.5932 51.0597 65.7431 51.0597C66.9898 51.0597 67.7099 51.6068 67.7206 52.5615Z" fill="#242424"></path><path d="M71.82 50.1158C71.5728 50.3625 71.0569 50.3625 70.8097 50.1158C70.6915 49.9978 70.627 49.8369 70.627 49.6331C70.627 49.2469 70.885 48.9895 71.3149 48.9895C71.7448 48.9895 72.0027 49.2469 72.0027 49.6331C72.0027 49.8369 71.9382 49.9978 71.82 50.1158ZM70.799 55.8225V51.1563H71.82V55.8225H70.799Z" fill="#242424"></path><path d="M76.0165 52.6473C76.0165 53.1944 76.4249 53.5376 77.0805 53.5376C77.7361 53.5376 78.1445 53.1944 78.1445 52.6366C78.1445 52.1217 77.7576 51.757 77.0805 51.757C76.4034 51.757 76.0165 52.1217 76.0165 52.6473ZM79.7028 56.3373C79.7028 57.3778 78.6496 58 76.93 58C75.6081 58 74.7161 57.5817 74.7161 56.7771C74.7161 56.2086 75.0707 55.8439 75.7908 55.683C75.3609 55.5436 75.146 55.2754 75.146 54.8785C75.146 54.4387 75.4146 54.1491 75.9413 54.0203C75.3394 53.8165 74.974 53.2909 74.974 52.6795C74.974 51.6819 75.823 51.0597 77.1127 51.0597C77.5964 51.0597 78.3916 51.1563 78.9613 51.1563H79.7673V51.9179C79.4341 51.9286 79.0902 51.9072 78.7248 51.8643C79.015 52.0466 79.1655 52.347 79.1655 52.7439C79.1655 53.72 78.3164 54.2671 77.0697 54.2671H76.7688C76.3174 54.2671 76.0917 54.3958 76.0917 54.6532C76.1347 54.9643 76.4034 55.0072 76.8978 54.9965H77.7038C79.0365 54.9965 79.7028 55.447 79.7028 56.3373ZM77.0267 57.2598C78.0262 57.2598 78.6388 56.981 78.6388 56.4768C78.6388 56.0692 78.2842 55.8654 77.5641 55.8654H76.844C76.1132 55.8654 75.7478 56.155 75.7478 56.5841C75.7478 57.0131 76.2422 57.2598 77.0267 57.2598Z" fill="#242424"></path><path d="M84.6369 51.9715C84.1102 51.9715 83.7341 52.2826 83.4977 52.9048V55.8225H82.4767V51.1563H83.4332V51.6175C83.4332 51.7141 83.4224 51.8428 83.4117 52.0144C83.7233 51.3815 84.2285 51.0597 84.927 51.0597C86.0555 51.0597 86.6251 51.6926 86.6251 52.9584V55.8225H85.6041V53.248C85.6041 52.4006 85.2817 51.9715 84.6369 51.9715Z" fill="#242424"></path><path d="M91.8131 55.9297C90.3514 55.9297 89.5024 55.0608 89.5024 53.5269C89.5024 52.7868 89.7173 52.1968 90.158 51.7355C90.5986 51.285 91.179 51.0597 91.899 51.0597C93.2854 51.0597 94.0915 51.8643 94.0915 53.2802C94.0915 53.3553 94.0807 53.484 94.07 53.6664L90.5556 53.6771C90.6094 54.621 91.0607 55.093 91.8883 55.093C92.5116 55.093 92.8985 54.8356 93.0383 54.31L94.0055 54.4065C93.7798 55.4256 93.049 55.9297 91.8131 55.9297ZM91.8883 51.8643C91.179 51.8643 90.7491 52.2397 90.5986 52.9798H93.0383C93.006 52.2611 92.5869 51.8643 91.8883 51.8643Z" fill="#242424"></path><path d="M98.0823 53.0013V55.8225H97.0613V51.1563H98.0178V51.6175C98.0178 51.8428 98.0071 52.0466 97.9748 52.229C98.3187 51.4137 98.7379 51.0705 99.3505 51.0705C99.4902 51.0705 99.6192 51.0812 99.7374 51.1134L99.6084 52.1753C99.5009 52.1432 99.3827 52.1324 99.2537 52.1324C98.7164 52.1324 98.3295 52.422 98.0823 53.0013Z" fill="#242424"></path><path d="M14.7998 6.79128L12.2778 6.92238C12.0413 4.14294 10.5176 2.75322 7.73283 2.75322C4.60655 2.75322 2.74129 5.03446 2.74129 8.78409C2.74129 12.691 4.65909 14.815 7.83792 14.815C10.1761 14.815 11.8312 13.4515 12.2252 11.144L14.7998 11.3013C14.4057 14.8936 11.7523 16.9913 7.7591 16.9913C2.92519 16.9913 0.0878906 13.9497 0.0878906 8.91519C0.0878906 6.3193 0.797215 4.27405 2.21586 2.77944C3.63451 1.31106 5.52605 0.576864 7.86419 0.576864C9.86081 0.576864 11.5159 1.10129 12.8295 2.15013C14.143 3.2252 14.7998 4.77225 14.7998 6.79128Z" fill="#242424"></path><path d="M27.1699 16.9913C25.9089 16.9913 25.0156 16.362 25.0156 14.815C24.2538 16.2571 22.9665 16.9913 21.1275 16.9913C18.8419 16.9913 17.1343 15.9162 17.1343 13.7923C17.1343 11.38 18.8419 10.1738 22.2572 10.1738H24.7792V9.22985C24.7792 7.84013 23.886 7.10593 22.3885 7.10593C20.8385 7.10593 19.9716 7.76146 19.7877 9.09874L17.4758 8.94141C17.791 6.4504 19.6563 5.0869 22.4936 5.0869C25.6724 5.0869 27.2487 6.4504 27.2487 9.15118V13.871C27.2487 14.5265 27.4589 14.8674 27.8792 14.8674C28.0631 14.8674 28.2207 14.8412 28.3258 14.7625L28.6411 16.598C28.1945 16.8602 27.7216 16.9913 27.1699 16.9913ZM24.8055 11.7733H22.5724C20.6809 11.7733 19.7351 12.3502 19.7351 13.4777C19.7351 14.5265 20.5233 15.0772 21.7055 15.0509C23.3868 15.0247 24.8055 13.9759 24.8055 11.7733Z" fill="#242424"></path><path d="M33.5899 9.83293V16.7291H31.0942V5.32289H33.4323V6.4504C33.4323 7.00105 33.406 7.49925 33.3272 7.94501C34.1679 5.9522 35.1925 5.11312 36.6899 5.11312C37.0315 5.11312 37.3467 5.13935 37.6357 5.21801L37.3204 7.8139C37.0577 7.73524 36.7688 7.70902 36.4535 7.70902C35.1399 7.70902 34.1942 8.41699 33.5899 9.83293Z" fill="#242424"></path><path d="M39.9552 0H42.4509V16.7291H39.9552V0Z" fill="#242424"></path><path d="M55.5726 16.9913C54.3116 16.9913 53.4184 16.362 53.4184 14.815C52.6565 16.2571 51.3692 16.9913 49.5302 16.9913C47.2446 16.9913 45.537 15.9162 45.537 13.7923C45.537 11.38 47.2446 10.1738 50.6599 10.1738H53.1819V9.22985C53.1819 7.84013 52.2887 7.10593 50.7913 7.10593C49.2412 7.10593 48.3743 7.76146 48.1904 9.09874L45.8785 8.94141C46.1938 6.4504 48.059 5.0869 50.8963 5.0869C54.0752 5.0869 55.6514 6.4504 55.6514 9.15118V13.871C55.6514 14.5265 55.8616 14.8674 56.282 14.8674C56.4659 14.8674 56.6235 14.8412 56.7286 14.7625L57.0438 16.598C56.5972 16.8602 56.1243 16.9913 55.5726 16.9913ZM53.2082 11.7733H50.9752C49.0836 11.7733 48.1379 12.3502 48.1379 13.4777C48.1379 14.5265 48.926 15.0772 50.1082 15.0509C51.7896 15.0247 53.2082 13.9759 53.2082 11.7733Z" fill="#242424"></path><path d="M7.99555 40.3281H1.00739V24.4381H7.62775C11.1744 24.4381 12.9608 25.723 12.9608 28.2664C12.9608 30.233 11.7523 31.6227 9.44047 31.9111V31.9898C11.8837 32.016 13.4337 33.4844 13.4337 35.7132C13.4337 38.5451 11.4634 40.3281 7.99555 40.3281ZM7.47012 26.5882H3.58197V31.0721H6.86588C9.07267 31.0721 10.2549 30.1281 10.2549 28.6859C10.2549 27.4011 9.25657 26.5882 7.47012 26.5882ZM3.58197 33.196V38.178H7.31249C9.49301 38.178 10.6489 37.1816 10.6489 35.6083C10.6489 34.1399 9.49301 33.196 7.62775 33.196H3.58197Z" fill="#242424"></path><path d="M24.3995 26.9029H24.1368L21.7198 33.7729H26.8165L24.3995 26.9029ZM31.9131 40.3281H29.1021L27.5783 36.0016H20.9317L19.408 40.3281H16.702L22.5868 24.4381H26.1071L31.9131 40.3281Z" fill="#242424"></path><path d="M49.6996 30.3903L47.1775 30.5214C46.9411 27.742 45.4173 26.3523 42.6326 26.3523C39.5063 26.3523 37.641 28.6335 37.641 32.3831C37.641 36.2901 39.5588 38.414 42.7377 38.414C45.0758 38.414 46.7309 37.0505 47.125 34.743L49.6996 34.9004C49.3055 38.4927 46.6521 40.5903 42.6589 40.5903C37.8249 40.5903 34.9876 37.5487 34.9876 32.5142C34.9876 29.9183 35.697 27.8731 37.1156 26.3785C38.5343 24.9101 40.4258 24.1759 42.7639 24.1759C44.7606 24.1759 46.4156 24.7003 47.7292 25.7492C49.0428 26.8242 49.6996 28.3713 49.6996 30.3903Z" fill="#242424"></path><path d="M68.3485 40.3281H65.8002V33.5369H57.4196V40.3281H54.8713V24.4381H57.4196V31.2032H65.8002V24.4381H68.3485V40.3281Z" fill="#242424"></path><path d="M85.4369 40.3281H74.2453V24.4381H85.3844V26.6931H76.7937V31.2032H83.9657V33.432H76.7937V38.0993H85.4369V40.3281Z" fill="#242424"></path><path d="M100.525 40.3281H90.4894V24.4381H93.0377V38.0207H100.525V40.3281Z" fill="#242424"></path><path d="M104.276 32.3307C104.276 29.8397 105.012 27.8469 106.483 26.3785C107.954 24.9101 109.951 24.1759 112.447 24.1759C114.838 24.1759 116.755 24.9101 118.174 26.3523C119.593 27.8206 120.302 29.7872 120.302 32.2782C120.302 34.8217 119.566 36.8407 118.095 38.3353C116.624 39.8299 114.627 40.5903 112.132 40.5903C109.688 40.5903 107.771 39.8562 106.378 38.3615C104.986 36.8932 104.276 34.8741 104.276 32.3307ZM108.401 27.9255C107.429 29.0006 106.93 30.4952 106.93 32.3569C106.93 34.2186 107.403 35.7132 108.349 36.7883C109.294 37.8896 110.555 38.4402 112.158 38.4402C115.547 38.4402 117.649 36.0803 117.649 32.3045C117.649 28.6073 115.652 26.326 112.421 26.326C110.713 26.326 109.373 26.8505 108.401 27.9255Z" fill="#242424"></path><path d="M123.558 26.7456V24.4381H137.088V26.7456H131.597V40.3281H129.049V26.7456H123.558Z" fill="#242424"></path></svg>