<svg xmlns="http://www.w3.org/2000/svg" width="934" height="934" viewBox="0 0 934 934" fill="none"><rect width="660.438" height="660.438" rx="64" transform="matrix(-0.707107 0.707107 0.707107 0.707107 467 0)" fill="#F3F3F2"></rect><path d="M466.058 631.027C615.089 631.027 735.903 510.213 735.903 361.182C735.903 212.15 615.089 91.3367 466.058 91.3367C317.027 91.3367 196.213 212.15 196.213 361.182C196.213 510.213 317.027 631.027 466.058 631.027Z" fill="#B3AD97"></path><path d="M752.721 359.089C752.581 361.741 755.442 360.764 756 361.183C755.163 356.717 751.953 359.229 752.721 359.089Z" fill="#B3AD97"></path><path d="M742.323 316.452L743.579 317.08L739.741 311.288L742.323 316.452Z" fill="#B3AD97"></path><path d="M733.461 277.375C729.762 282.399 737.857 291.192 737.997 298.589L737.159 299.984L741.904 302.217C739.113 293.843 733.81 283.655 733.461 277.375Z" fill="#B3AD97"></path><path d="M736.112 253.299C734.787 255.323 732.902 249.392 737.299 258.393C737.299 257.835 737.368 257.696 737.438 257.347C737.089 256.509 736.671 255.323 736.112 253.299Z" fill="#B3AD97"></path><path d="M737.508 257.347C739.182 261.394 738.066 254.067 737.508 257.347Z" fill="#B3AD97"></path><path d="M728.575 239.133L732.623 243.599C733.181 242.064 731.157 237.249 732.762 238.644C729.343 233.62 728.855 235.295 728.575 239.133Z" fill="#B3AD97"></path><path d="M722.993 235.854L724.947 238.227C725.157 237.529 724.947 236.761 722.993 235.854Z" fill="#B3AD97"></path><path d="M728.994 243.182L724.877 238.157C724.528 239.274 723.063 239.972 726.622 240.53C725.087 240.669 726.901 241.228 728.994 243.182Z" fill="#B3AD97"></path><path d="M729.902 246.669C730.39 249.948 731.088 254.066 727.39 249.46C731.856 259.299 734.786 256.508 729.902 246.669Z" fill="#B3AD97"></path><path d="M727.878 277.026C727.878 278.421 727.878 279.887 727.738 281.352L730.25 284.283C729.134 282.748 729.483 276.258 727.878 277.026Z" fill="#B3AD97"></path><path d="M713.712 206.336C712.596 206.615 712.317 209.476 711.409 210.593L714.619 213.593C714.131 211.36 712.526 207.453 713.712 206.406V206.336Z" fill="#B3AD97"></path><path d="M711.34 210.521L706.525 206.125C709.247 211.01 710.503 211.429 711.34 210.521Z" fill="#B3AD97"></path><path d="M717.55 237.391L725.435 244.927L716.643 235.646L717.55 237.391Z" fill="#B3AD97"></path><path d="M699.895 186.099L704.082 187.565L697.244 184.564L699.895 186.099Z" fill="#B3AD97"></path><path d="M689.638 173.469C692.987 174.166 689.777 168.514 692.639 169.84C689.359 166.77 685.451 165.095 682.032 163.629C685.102 165.723 687.544 168.723 689.638 173.538V173.469Z" fill="#B3AD97"></path><path d="M676.588 160.979C678.124 161.956 680.008 162.723 682.101 163.63C680.496 162.514 678.682 161.607 676.588 160.979Z" fill="#B3AD97"></path><path d="M701.012 196.916C701.222 196.149 702.059 194.474 700.524 191.194L699.617 194.963C700.035 195.591 700.524 196.288 701.082 196.986L701.012 196.916Z" fill="#B3AD97"></path><path d="M699.546 195.032V194.892C698.011 192.659 696.965 191.194 696.476 190.496C696.825 191.054 697.802 192.45 699.546 195.032Z" fill="#B3AD97"></path><path d="M701.43 197.476C701.43 197.476 701.221 197.127 701.081 196.987C701.012 197.336 701.012 197.545 701.43 197.476Z" fill="#B3AD97"></path><path d="M712.457 221.759C709.107 219.456 703.664 213.943 705.269 221.48C708.339 222.666 707.432 218.339 712.457 221.759Z" fill="#B3AD97"></path><path d="M700.175 202.011C701.291 203.895 702.129 205.988 703.106 207.942C703.734 207.384 704.013 205.779 705.688 206.826C703.803 205.221 702.129 203.476 700.175 201.941V202.011Z" fill="#B3AD97"></path><path d="M697.453 199.987L700.175 202.01L698.919 199.917L697.453 199.987Z" fill="#B3AD97"></path><path d="M682.31 171.377C679.38 170.121 677.216 167.818 674.635 165.306C676.798 168.516 679.17 171.656 681.682 174.447C682.729 174.238 685.102 174.378 682.31 171.377Z" fill="#B3AD97"></path><path d="M690.824 182.819C690.824 182.819 690.475 182.54 690.335 182.4C690.335 182.889 690.475 183.168 690.824 182.819Z" fill="#B3AD97"></path><path d="M649.234 141.161L649.304 141.929L649.792 141.65L649.234 141.161Z" fill="#B3AD97"></path><path d="M681.683 175.285C683.148 177.797 684.893 178.564 686.637 179.192C684.963 177.797 683.288 176.262 681.683 174.447C681.194 174.517 680.985 174.726 681.683 175.285Z" fill="#B3AD97"></path><path d="M668.703 154.767C669.471 156.232 670.239 157.837 671.076 159.442C670.797 157.628 669.68 154.558 668.703 154.767Z" fill="#B3AD97"></path><path d="M690.335 181.075L690.684 181.355C690.684 180.168 690.475 180.517 690.335 181.075Z" fill="#B3AD97"></path><path d="M690.336 181.075C689.08 180.168 687.824 179.679 686.638 179.191C687.894 180.447 689.08 181.493 690.266 182.401C690.266 181.982 690.266 181.493 690.266 181.075H690.336Z" fill="#B3AD97"></path><path d="M629.137 149.812C631.091 147.998 638.767 149.882 641.279 156.511C647.071 159.024 650.281 149.603 649.374 141.927C648.397 142.764 647.839 143.392 641.628 140.811C642.745 143.113 650.281 152.813 644.629 151.068C637.511 146.533 639.884 146.044 637.581 142.276C638.209 147.021 625.927 139.834 624.462 145.067L631.3 147.928C630.952 148.626 628.091 148.068 629.207 149.812H629.137Z" fill="#B3AD97"></path><path d="M658.446 150.58L660.679 152.115C658.725 149.673 657.818 147.37 656.213 142.974C651.956 140.95 650.63 141.09 649.793 141.578L659.423 150.859L658.446 150.51V150.58Z" fill="#B3AD97"></path><path d="M669.54 160.49C666.051 160.909 660.259 157.699 660.957 162.584C666.679 167.817 666.47 164.747 670.657 167.189C661.585 158.327 674.355 168.724 669.331 160.769C671.425 162.305 673.03 163.84 674.565 165.375C673.239 163.421 672.122 161.467 671.076 159.513C671.076 159.653 671.076 159.723 671.076 159.862C671.215 160.56 671.076 160.839 670.866 160.211C670.866 160.211 670.727 160.072 670.657 160.072C670.308 160.281 669.889 160.351 669.471 160.42C667.377 157.211 669.61 159.444 670.657 160.072C670.796 160.002 670.936 160.002 671.076 159.862C667.866 156.931 664.028 154.698 660.608 152.116C662.283 154.28 665.005 156.373 669.471 160.42L669.54 160.49Z" fill="#B3AD97"></path><path d="M696.337 219.107C696.337 218.618 696.546 218.549 696.755 218.409C696.058 217.921 695.639 217.781 696.337 219.107Z" fill="#B3AD97"></path><path d="M695.221 213.871C696.058 214.43 697.454 214.43 698.71 217.081C699.268 219.733 697.454 217.849 696.686 218.477C698.291 219.524 701.71 222.594 700.105 217.151L699.338 216.593C697.663 211.848 697.384 204.241 698.221 204.73C696.756 207.521 695.849 209.684 695.29 213.941L695.221 213.871Z" fill="#B3AD97"></path><path d="M683.148 187.007C680.776 184.425 677.985 182.262 675.263 180.029L676.798 185.612L677.845 184.425C681.125 189.31 681.683 187.217 683.148 187.007Z" fill="#B3AD97"></path><path d="M649.304 139.206L652.375 137.74C649.932 137.391 647.211 137.461 644.629 137.322L649.234 139.206H649.304Z" fill="#B3AD97"></path><path d="M637.86 131.043L639.954 129.159L635.976 128.251L637.86 131.043Z" fill="#B3AD97"></path><path d="M248.34 490.069L250.433 492.023C249.526 491.046 248.898 490.418 248.34 490.069Z" fill="#B3AD97"></path><path d="M238.92 472.273L237.454 472.412C238.501 472.901 239.199 473.04 238.92 472.273Z" fill="#B3AD97"></path><path d="M315.051 117.225C309.748 117.434 303.049 116.806 305.282 119.109L308.143 120.924C310.585 118.76 312.888 117.783 315.051 117.225Z" fill="#B3AD97"></path><path d="M202.144 308.286L203.26 307.239C202.493 305.983 201.795 304.866 201.167 303.82C201.516 305.215 201.655 306.681 202.214 308.286H202.144Z" fill="#B3AD97"></path><path d="M214.007 313.591L211.286 318.616C212.123 317.499 213.03 315.894 214.007 313.591Z" fill="#B3AD97"></path><path d="M324.681 567.387C326.146 567.177 327.542 566.968 329.007 566.619C324.89 563.898 325.867 566.27 324.681 567.387Z" fill="#B3AD97"></path><path d="M506.741 78.009C502.973 76.2644 499.902 75.2875 497.181 74.7292C501.786 77.1716 505.136 80.3118 506.741 78.009Z" fill="#B3AD97"></path><path d="M216.1 498.79C217.566 500.185 218.543 500.534 219.101 500.185C217.636 498.79 216.519 498.092 216.1 498.79Z" fill="#B3AD97"></path><path d="M485.736 73.9615C486.434 74.3104 487.062 74.5197 487.76 74.7988C490.691 74.5197 493.691 74.0312 497.181 74.7988C493.831 72.9845 489.714 72.2169 485.736 74.0312V73.9615Z" fill="#B3AD97"></path><path d="M675.402 502.421C675.402 502.421 675.89 502.002 676.169 501.862C675.89 501.583 675.681 501.862 675.402 502.421Z" fill="#B3AD97"></path><path d="M746.37 398.863C746.37 400.188 746.021 402.212 745.812 404.166C746.161 403.259 746.37 401.654 746.37 398.863Z" fill="#B3AD97"></path><path d="M590.409 100.825C593.2 101.942 590.967 100.755 590.409 100.825Z" fill="#B3AD97"></path><path d="M597.736 117.645C597.038 117.645 596.41 117.854 595.991 118.412C596.55 117.854 597.108 117.645 597.736 117.645Z" fill="#B3AD97"></path><path d="M456.777 92.3147C456.777 92.3147 456.637 92.3147 456.567 92.3147C457.405 92.8729 457.265 92.7334 456.777 92.3147Z" fill="#B3AD97"></path><path d="M593.828 103.967C592.99 103.13 591.943 102.292 590.827 101.525C591.246 102.013 592.223 102.781 593.828 103.967Z" fill="#B3AD97"></path><path d="M593.898 102.431C594.805 102.989 595.433 103.408 596.131 103.827C596.689 103.547 596.549 103.129 593.898 102.431Z" fill="#B3AD97"></path><path d="M586.57 99.1531C588.105 99.8509 589.501 100.688 590.757 101.526C590.338 101.107 590.199 100.828 590.338 100.828C589.501 100.479 588.384 99.9905 586.5 99.1531H586.57Z" fill="#B3AD97"></path><path d="M500.25 619.374C500.25 619.374 500.669 619.443 500.879 619.583C503.391 617.908 502.274 618.327 500.25 619.374Z" fill="#B3AD97"></path><path d="M278.765 187.424C278.765 187.424 278.765 187.215 278.835 187.075C278.695 187.075 278.625 187.215 278.486 187.284L278.765 187.424Z" fill="#B3AD97"></path><path d="M274.089 195.939C273.949 190.496 275.903 189.03 278.485 187.356L269.902 183.797C271.227 187.914 272.623 191.961 274.089 195.939Z" fill="#B3AD97"></path><path d="M277.438 528.448L275.066 521.818C283.789 524.679 286.231 529.773 285.114 522.795C281.416 525.517 276.601 521.33 272.693 516.445C268.786 511.56 264.808 506.676 260.691 509.048L259.714 504.443C260.412 505.489 260.97 505.35 261.598 506.327C260.272 497.116 252.317 505.141 247.572 495.022C246.176 491.324 246.037 488.393 248.34 490.068L241.85 483.997C240.803 481.764 242.478 481.554 243.594 483.718C241.222 480.089 239.338 476.251 237.174 472.483H237.454C235.29 471.436 231.383 468.575 229.568 467.11C229.359 463.551 231.243 468.226 231.941 466.97C230.196 465.086 228.382 463.272 226.777 461.318C227.405 459.434 228.801 459.713 230.196 461.039C231.732 462.295 233.406 464.528 234.313 466.83C237.174 461.876 235.988 460.829 233.965 459.085C232.15 457.27 229.499 454.549 229.638 446.873L233.057 452.735C236.616 446.803 233.057 442.616 233.685 434.731C232.569 436.755 230.824 451.479 226.009 445.059C226.009 442.756 225.172 440.034 222.032 436.545C225.242 435.499 223.428 431.8 222.032 426.915L226.428 426.078C223.846 421.124 221.753 422.101 218.962 419.449C217.845 413.378 220.846 411.424 223.567 409.47C222.799 399.77 219.101 417.216 216.589 405.911C216.798 401.724 216.24 398.305 215.124 394.746C214.007 391.187 212.123 387.489 210.727 382.604C211.983 376.673 213.519 383.372 214.705 381.209L210.867 376.324C210.867 375.068 211.983 375.417 212.542 375.556C210.937 371.3 208.076 375.486 206.54 368.578C204.098 367.741 205.494 364.042 207.308 359.716C209.262 355.32 211.146 350.295 208.564 345.899C209.96 343.875 211.216 347.085 213.03 346.527C209.96 334.734 210.658 336.479 207.308 326.36L211.425 318.684C207.238 324.127 204.447 315.893 202.284 308.357C200.33 310.241 198.655 311.846 197.818 313.032C197.608 309.124 197.329 305.217 197.608 301.448C198.655 300.262 199.841 301.727 201.237 303.891C201.097 303.053 200.888 302.286 200.679 301.658C203.261 298.099 205.284 300.75 207.029 304.03L203.33 307.31C205.563 310.59 208.145 313.59 210.797 313.521C210.378 312.753 210.169 311.287 210.169 309.822C210.797 310.659 211.355 311.218 211.844 311.008C212.402 310.729 211.425 309.403 210.867 307.519L216.31 306.193L214.495 305.216L220.985 292.516C220.427 289.795 219.59 287.073 218.892 284.212C218.403 281.491 217.915 278.63 217.566 275.559C217.008 269.558 216.659 262.58 219.031 254.555C220.636 259.719 224.125 257.695 228.033 259.579C222.102 261.882 225.521 271.931 221.823 279.258C223.776 275.35 225.381 276.955 225.661 278.211L226.777 262.999C229.917 264.673 230.266 261.045 233.336 258.254C225.661 258.044 233.895 246.46 234.593 240.041C236.826 240.808 238.361 243.181 234.662 249.461C242.897 244.716 231.592 236.133 239.896 231.457C238.989 232.993 238.221 233.69 238.849 234.877C239.198 230.271 246.037 222.246 246.455 225.456L245.548 226.991C247.293 224.549 249.316 221.409 251.27 217.99C253.434 214.64 255.876 211.291 257.83 207.871C261.877 201.172 264.319 194.752 262.784 192.31C263.412 192.729 267.25 198.032 267.809 199.358C267.181 189.868 267.181 180.168 267.46 169.91C269.902 174.795 283.44 178.005 278.904 187.216C281.416 185.751 283.998 183.518 287.068 178.284C285.114 178.982 278.346 176.33 279.951 174.167C289.301 173.329 285.882 172.911 295.721 170.468C292.86 171.585 289.86 163.49 293.558 160.49C293.837 161.885 299.001 166.212 298.303 167.956C299.35 163.42 300.466 158.815 302.002 154.628C300.536 157.489 305.77 160.141 309.119 160.35C307.235 159.862 317.005 154.698 318.889 152.255L314.004 153.651C324.75 146.882 318.121 137.252 329.635 130.623C329.077 132.856 331.519 141.16 337.52 138.648C337.799 136.206 338.079 130.065 339.893 123.924C341.707 117.853 344.847 111.224 349.662 107.177L352.733 108.293C355.175 106.2 357.548 103.897 360.199 102.152C358.525 105.781 355.524 112.62 352.314 119.179C349.174 125.808 345.894 132.158 343.452 136.206C348.546 135.647 345.894 138.02 352.174 134.74C355.384 135.578 350.221 139.276 348.406 140.323L363.549 134.601C362.223 132.647 364.596 130.204 366.968 127.832C369.48 125.738 372.132 123.785 371.085 122.04C365.921 125.32 361.316 129.786 356.64 133.763C355.315 131.809 356.152 127.692 358.943 123.436C361.595 118.97 366.41 115.132 372.341 113.457C375.9 114.155 373.179 122.04 374.016 123.436C374.853 121.412 383.437 116.667 384.832 117.434L380.994 121.552C384.344 121.272 386.298 118.9 388.6 116.737C390.903 114.643 393.694 113.248 398.091 114.364C400.812 113.945 407.372 118.202 407.162 115.411C401.719 111.294 396.486 95.523 398.649 90.8477C399.207 90.8477 403.255 91.1966 407.581 91.6851C411.907 92.034 416.583 93.5692 418.467 94.5461C423.77 97.9654 413.373 105.432 417.978 108.363C417.909 107.107 420.072 105.153 421.049 104.525C424.119 105.153 420.56 108.642 426.631 107.107C426.98 102.222 439.262 105.572 429.004 102.711C434.935 100.547 435.563 102.362 442.751 101.734C440.099 98.8028 448.473 90.9872 454.963 89.3125C454.614 90.5686 456.149 92.034 456.847 92.7318C460.126 92.7318 462.987 92.7318 465.639 92.8713C468.291 93.1505 470.803 93.7087 473.176 94.0576C478.06 94.895 482.736 95.6626 488.737 96.0115C489.784 97.1978 495.366 98.9423 492.714 100.826C494.459 100.198 496.203 98.8726 499.902 99.2913C506.392 104.455 491.737 98.6632 496.483 104.385C497.25 101.734 506.252 102.013 511.765 101.106C510.858 96.6396 499.762 98.4539 494.459 99.361C495.017 93.4994 504.926 88.7542 518.534 88.1262C529.071 88.5449 522.162 92.8016 524.116 92.2433C533.397 95.1741 538.003 93.7087 542.259 92.5224C546.516 91.3362 550.424 90.3592 557.472 95.3835C562.356 101.175 555.308 102.501 555.727 105.572C551.61 104.874 548.819 103.129 546.307 101.524C543.794 100.059 541.561 98.5934 538.77 97.9654L544.981 101.385C542.05 101.943 536.467 101.454 533.816 99.6402C538.142 103.687 564.589 109.27 576.452 118.621C579.313 118.621 583.919 119.388 582.663 117.086L578.267 115.55C575.615 110.945 588.036 115.55 583.221 111.712C586.571 112.131 590.199 112.41 593.967 113.248C595.851 113.666 597.805 114.224 599.689 115.062C601.504 116.039 603.318 117.225 605.063 118.83L604.365 123.436C604.853 122.249 600.597 118.132 597.805 117.993C602.062 118.272 606.598 130.065 613.018 127.413L609.18 121.621C615.669 123.226 625.509 123.226 631.161 129.507C630.603 123.854 629.416 128.739 627.463 121.203C628.37 128.948 609.529 109.968 613.087 119.667C610.854 111.782 605.691 111.922 600.876 104.176C600.457 105.502 602.132 107.805 596.2 104.176C595.712 104.385 594.805 104.525 594.247 104.595C594.107 104.455 594.037 104.385 593.898 104.316L594.177 104.664C593.828 104.664 593.758 104.734 594.247 104.804C595.433 106.06 596.34 107.316 596.48 108.223C591.944 109.619 582.244 104.804 578.267 104.804C574.917 102.431 580.43 104.036 579.034 101.734C577.08 101.734 575.057 101.734 573.033 101.873C573.801 98.8028 564.799 93.29 574.568 94.9648L566.404 91.8246C562.147 88.4751 555.657 85.1954 551.122 85.1256C547.284 83.4508 540.026 85.8234 544.213 84.358L530.466 82.8228V82.0552C524.046 79.892 516.859 80.4502 509.741 79.9618C502.554 79.6129 495.436 78.0777 487.899 75.1468C483.294 75.7051 478.619 76.4029 471.012 75.1468L469.547 72.3556C463.755 72.9138 451.822 70.3319 449.38 73.1232C447.705 71.3786 445.054 70.5413 441.844 70.1924C438.634 69.7737 434.866 70.0528 431.097 70.8902C423.491 72.3556 415.536 74.7282 410.302 74.8677L410.582 78.4266C403.534 79.4733 397.184 82.5437 389.089 85.963L390.415 88.824C383.855 92.7318 371.504 92.5224 360.339 96.8489C360.618 95.4533 363.619 94.6857 365.852 94.6159C361.874 94.1972 358.245 94.9648 354.756 96.2906C351.407 97.8258 348.336 100.198 345.336 102.431C339.404 107.107 333.682 111.363 326.983 112.48C324.82 115.132 322.657 115.969 320.284 116.458C320.563 116.318 320.703 116.109 320.912 115.899C320.633 116.039 320.214 116.318 319.796 116.527C318.33 116.806 316.725 117.016 315.12 117.434C316.656 117.434 318.121 117.225 319.238 116.876C317.144 118.202 314.144 120.505 311.422 123.087L308.212 121.063C308.212 121.063 307.793 121.412 307.514 121.621C303.746 122.459 305.909 124.482 308.98 125.529C307.654 126.855 306.747 128.53 306.188 129.925C300.745 127.204 299.629 137.113 293 134.81C292.86 136.694 289.511 139.834 286.51 143.254C283.719 146.952 281.346 150.93 282.602 153.791C281.974 153.302 280.997 153.791 282.393 152.395C278.974 154.558 275.554 156.791 274.019 160.42L269.762 158.466C268.855 161.746 268.157 165.165 267.599 168.724C262.156 170.817 259.505 171.515 260.761 165.235C255.806 178.214 254.969 174.306 251.689 185.681L249.875 183.518C247.572 186.727 246.804 193.915 243.594 194.403C233.406 197.893 218.822 229.434 205.633 248.135C210.309 247.786 208.285 249.74 205.982 252.322C203.819 254.974 201.167 258.184 203.958 259.719C201.725 260.277 199.632 262.859 199.283 258.812C197.19 270.396 190.002 274.303 193.352 283.654C191.188 284.422 191.258 280.444 189.863 281.281C190.002 282.328 190.56 285.329 189.165 286.236C187.769 287.073 188.048 284.142 187.699 282.119C184.978 293.912 190.491 296.424 195.654 298.517C193.631 301.03 192.514 303.123 192.235 305.077C192.165 307.101 192.863 309.054 194.329 311.497C192.235 313.172 189.863 316.242 190.281 308.985C189.444 312.892 183.722 333.408 188.397 334.246C187.211 335.432 187.769 339.898 188.258 341.014C187.56 350.086 187.071 350.854 187.071 359.855L187.909 357.413C192.933 360.972 189.095 364.74 190.072 371.928L189.514 371.718C187.979 380.022 188.537 381.837 189.025 383.511C189.723 385.256 189.444 386.931 188.676 395.235L191.886 393.979C199.283 394.467 189.793 408.702 194.05 417.704L195.375 414.006C198.446 418.472 189.235 430.056 189.583 435.638C189.235 436.894 188.188 434.103 187.281 432.638C186.722 447.361 191.956 433.266 195.515 442.965C193.84 445.477 188.955 442.337 190.63 449.176C190.351 451.13 193.91 455.386 197.399 460.271C201.028 465.156 204.028 470.948 204.168 476.042C204.935 473.39 205.703 470.878 209.053 474.576C212.821 480.647 211.216 495.65 219.659 498.581C219.659 499.628 219.45 500.186 219.101 500.395C223.288 504.443 230.615 514.631 234.941 515.747C231.452 521.121 238.012 527.261 243.943 532.774C249.735 538.357 255.876 542.543 251.829 546.032L263.831 558.384L262.715 558.802C269.832 567.316 274.857 567.665 279.253 568.432C280.648 570.665 278.625 570.177 278.066 570.456C288.255 583.017 290.627 583.156 304.235 586.924L303.327 590.553C305.351 590.832 309.119 595.508 314.841 600.043C317.633 602.416 320.843 604.928 324.332 607.161C327.821 609.394 331.519 611.348 335.566 612.046C335.218 612.325 334.659 612.813 333.264 612.674C342.265 614.558 350.5 621.815 358.734 626.351C366.968 630.817 374.435 633.818 379.389 628.933C383.297 629.421 387.414 629.072 391.392 629.142C377.366 624.537 395.02 624.467 389.717 620.908C395.369 621.606 403.045 628.235 396.067 627.119L395.16 626.211C390.973 631.794 412.326 633.19 411.14 637.167C440.099 642.54 469.128 646.657 497.18 644.424C495.924 642.889 494.738 641.424 493.482 639.749C496.692 639.54 499.832 639.051 503.042 638.702C505.694 639.47 506.95 642.122 500.041 642.959C504.089 645.262 511.276 638.772 511.206 637.656C524.953 637.656 506.95 644.355 511.067 643.796L516.649 642.54L515.254 642.122C519.441 639.191 519.51 637.586 527.535 635.632C532.839 635.353 530.885 638.005 532.909 637.725C532.978 638.074 533.676 638.074 536.049 637.097L548.121 634.446L542.259 631.794C546.935 628.584 553.355 629.003 546.656 626.142C551.54 628.444 562.426 624.886 572.754 621.187C582.872 616.931 591.944 611.488 594.735 611.488C596.131 610.022 597.526 608.696 599.061 607.51C600.527 606.184 601.992 604.998 603.597 603.812C606.807 601.509 610.366 599.415 614.413 597.182C612.041 597.671 608.482 594.461 615.39 590.902C616.646 595.508 620.484 594.74 624.741 592.437C628.998 590.134 633.952 586.855 638.628 587.552C634.929 587.552 639.325 583.854 643.233 580.295C647.141 576.736 650.002 572.689 644.698 573.317C650.072 569.479 647.28 575.69 652.444 574.015C654.817 570.665 657.678 567.665 660.888 564.734C662.563 563.338 664.237 561.873 665.912 560.407C667.587 558.872 669.262 557.337 670.936 555.732C677.705 549.452 685.66 543.311 690.824 534.798C690.056 533.821 686.567 535.286 687.684 530.82L698.849 526.145C700.593 522.516 695.43 519.446 702.617 515.747C701.222 516.026 699.198 516.445 700.175 514.003C712.945 499.488 721.319 481.345 727.669 462.783C730.739 453.432 734.368 444.291 737.089 434.871C738.624 430.195 740.369 425.59 742.323 420.984C744.347 416.378 745.812 411.633 748.045 407.028C744.905 411.912 745.184 408.354 745.742 404.306C744.765 406.818 742.742 403.748 741.067 404.027C743.3 398.933 745.882 393.769 747.905 388.466C743.439 385.116 748.464 370.881 744.137 369.067L744.695 374.23C739.811 367.392 732.693 383.023 726.064 381.348C727.459 383.232 727.529 385.326 727.041 387.628C726.413 389.861 724.947 392.234 723.621 394.676C720.97 399.631 718.597 405.004 721.877 411.564C720.132 413.866 720.063 408.982 718.388 410.028C720.9 413.517 720.411 417.076 717.55 423.217L717.062 422.31C714.968 431.312 713.294 437.732 709.805 443.803C708.2 446.873 706.525 449.943 704.711 453.502C702.896 456.991 701.082 460.899 698.221 465.226H701.919C699.547 468.994 698.221 469.412 696.616 470.948C698.919 477.716 702.268 459.852 705.339 466.272C700.942 467.598 697.523 474.646 694.104 481.415C690.545 488.114 686.079 494.115 681.962 493.836C678.403 499.558 686.218 494.115 682.66 499.977L680.008 500.395L681.334 503.326C678.682 506.955 674.914 507.094 673.448 506.257C674.286 505.489 674.844 503.536 675.402 502.559C669.959 505.699 666.47 515.887 664.656 517.003L669.541 512.607C667.098 516.515 664.516 520.702 661.376 524.54C658.027 528.238 654.607 532.076 651.258 535.844C649.583 537.728 647.908 539.682 646.234 541.566C644.419 543.311 642.675 545.056 640.93 546.87C637.511 550.429 634.441 554.127 631.789 557.965L633.813 558.244C625.02 569.409 623.973 563.687 612.808 574.015L613.018 573.387C611.552 576.597 608.412 579.248 604.784 581.272C607.086 577.783 596.759 581.97 599.969 577.713C588.804 587.971 595.154 583.784 589.152 593.623L585.873 592.367C583.849 595.926 584.198 597.182 577.499 601.09C582.244 596.345 571.428 599.625 576.522 593.903C572.335 594.321 569.125 595.508 566.473 596.973C563.752 598.299 561.449 599.694 559.356 601.02C555.239 603.672 551.889 605.765 547.214 603.044C542.608 612.325 561.449 602.067 558.1 604.928C562.217 605.905 554.192 612.046 549.098 613.162C544.143 615.046 537.933 606.882 525.861 610.301C527.117 610.022 527.047 609.464 528.233 609.185C525.721 608.906 523.628 610.092 521.395 611.139C519.162 612.325 516.649 613.162 513.509 612.046C511.067 616.791 506.043 612.953 505.973 618.535L517.417 615.535C511.206 617.907 505.833 625.304 494.319 623.909C495.087 622.653 498.157 620.699 500.251 619.582C496.832 618.396 494.25 621.815 490.761 620.28C491.179 615.046 504.787 617 511.067 611.906C507.369 610.092 498.506 617.838 501.158 611.418C499.204 615.605 496.064 615.814 492.505 615.884C488.876 615.674 484.899 615.116 480.782 618.256L481.131 614.907C479.805 615.465 477.083 617.21 474.571 617.21L478.898 612.674C472.129 616.651 465.709 610.441 459.219 611.767C466.058 612.116 466.825 613.092 466.616 614.349C466.407 615.674 465.151 617.349 468.151 618.396C450.776 622.304 458.452 609.394 439.68 610.022C442.193 609.883 449.101 612.534 444.984 613.86C441.425 613.162 436.819 611.208 434.866 609.045C422.444 607.859 436.331 612.744 430.748 613.93C427.05 609.255 424.398 614.628 418.537 615.046L419.095 611.697C415.606 610.72 413.582 610.441 412.326 610.58C411 610.79 410.442 611.488 409.814 612.255C408.697 613.721 407.721 615.186 401.58 612.255L408.069 609.115L401.231 608.557L403.534 605.207C395.788 605.975 393.485 605.207 387.135 601.648C387.972 604.509 384.344 607.161 378.203 604.998C374.714 601.579 381.622 602.835 372.83 600.183C375.551 598.927 378.552 597.182 381.204 601.509C381.971 600.602 383.785 600.183 384.553 599.346C380.994 595.577 373.807 594.88 370.736 593.763C371.853 594.321 373.179 594.949 373.737 595.717C371.434 595.717 369.062 595.717 366.759 595.577L359.85 594.81C358.525 592.786 360.409 592.577 362.293 592.367C359.781 591.53 357.478 592.158 353.779 590.693C355.873 588.669 356.92 586.017 362.363 587.204L349.941 584.622C349.732 583.226 345.824 578.969 347.708 578.76C342.893 573.806 330.682 574.852 324.262 567.944C323.564 568.083 322.517 567.944 320.773 567.107C317.493 564.245 314.911 561.036 311.771 558.174C310.236 556.709 308.491 555.453 306.607 554.197C304.793 552.801 302.769 551.615 300.257 550.638L299.35 543.171C292.721 538.705 300.955 553.011 289.86 545.404C281.765 540.101 290.139 540.101 288.813 536.821C283.998 535.216 274.717 532.425 271.856 523.423C274.508 524.958 275.415 527.052 277.508 528.796L277.438 528.448ZM226.009 445.128C227.335 446.733 230.685 449.525 229.289 451.548C224.963 450.851 226.079 448.618 226.009 445.128ZM212.193 294.959C212.891 296.633 211.774 298.727 209.89 300.89C210.099 299.006 210.727 296.982 212.193 294.959ZM559.286 90.9872C559.286 90.9872 559.077 90.9872 559.007 91.057C554.89 88.196 556.355 89.2427 559.286 90.9872ZM568.148 95.8022C569.265 95.7324 569.334 95.2439 569.125 94.6857C568.148 95.2439 566.055 94.5461 563.752 93.4296C564.101 94.4763 565.078 95.523 568.148 95.8022ZM533.816 636.051L531.722 635.702C535.7 633.678 534.723 634.864 533.816 636.051Z" fill="#B3AD97"></path><path d="M212.681 312.893C212.053 313.312 211.425 313.382 210.727 313.382C211.146 314.219 211.844 314.358 212.681 312.893Z" fill="#B3AD97"></path><path d="M323.913 567.524L324.122 567.733C324.122 567.733 324.541 567.524 324.68 567.384L323.913 567.524Z" fill="#B3AD97"></path><path d="M421.817 109.201C419.933 108.992 418.816 108.573 417.979 108.015C417.979 108.853 419.025 109.411 421.817 109.201Z" fill="#B3AD97"></path><path d="M618.251 114.294L612.25 111.712C615.042 113.177 615.6 114.433 616.646 115.689C616.926 114.922 616.437 113.317 618.251 114.364V114.294Z" fill="#B3AD97"></path><path d="M648.886 163.559C649.793 163.838 650.281 164.815 651.258 165.094L652.165 163.768C649.304 161.326 646.513 160.489 648.955 163.559H648.886Z" fill="#B3AD97"></path><path d="M617.344 126.787C616.158 129.508 620.205 130.415 623.904 132.718C623.695 132.578 623.485 132.439 623.276 132.23C626.625 129.717 622.09 127.973 617.344 126.787Z" fill="#B3AD97"></path><path d="M624.741 133.206C625.858 133.904 627.044 134.671 628.021 135.578C629.347 134.601 626.904 134.322 624.741 133.206Z" fill="#B3AD97"></path><path d="M580.64 98.6627C582.245 100.268 583.291 95.9413 583.919 97.4765C587.548 95.1039 569.265 95.4528 580.64 98.6627Z" fill="#B3AD97"></path><path d="M615.181 136.417L615.809 132.719L612.25 133.835L615.181 136.417Z" fill="#B3AD97"></path><path d="M587.338 117.575L593.06 121.413C593.269 120.855 594.176 120.925 595.293 121.134C591.595 119.18 587.687 116.598 587.408 117.575H587.338Z" fill="#B3AD97"></path><path d="M595.293 121.134C597.177 122.18 598.991 123.297 600.317 123.436C599.271 122.878 597.107 121.552 595.293 121.134Z" fill="#B3AD97"></path><path d="M606.737 132.506L605.411 130.831L601.504 128.18L606.737 132.506Z" fill="#B3AD97"></path><path d="M518.395 93.2209L510.858 93.0813C509.951 94.128 511.765 95.1747 514.557 95.105C516.441 94.5467 519.302 94.5467 518.395 93.2209Z" fill="#B3AD97"></path><path d="M537.654 107.805C535.979 106.618 536.049 105.851 535.281 104.455L533.956 108.572L537.654 107.805Z" fill="#B3AD97"></path><path d="M517.138 103.757C516.161 104.803 506.322 105.571 515.254 106.687C516.161 105.501 523.418 105.92 517.138 103.757Z" fill="#B3AD97"></path><path d="M408.627 99.5696L410.442 99.0114L408.697 92.103L408.627 99.5696Z" fill="#B3AD97"></path><path d="M328.797 151.208C336.683 148.417 328.1 146.532 335.566 144.439C336.334 141.997 329.495 146.114 330.402 143.881C327.053 147.998 324.331 148.486 328.797 151.208Z" fill="#B3AD97"></path><path d="M330.403 143.882C330.961 143.254 331.519 142.486 332.008 141.649C330.961 142.765 330.612 143.393 330.403 143.882Z" fill="#B3AD97"></path><path d="M752.162 377.651L753.906 371.72L751.324 375.488L752.162 377.651Z" fill="#B3AD97"></path><path d="M747.417 366.066L752.023 364.741L748.115 361.182C748.254 362.507 748.533 365.089 747.417 366.066Z" fill="#B3AD97"></path><path d="M230.196 428.591H229.08C228.173 429.638 228.382 430.824 228.801 433.196L230.266 428.591H230.196Z" fill="#B3AD97"></path><path d="M255.527 493.418L254.969 492.301L252.666 496.418L255.527 493.418Z" fill="#B3AD97"></path><path d="M296.07 535.496C294.396 533.891 291.883 532.426 290.418 530.542C294.256 533.961 293 539.543 296.07 535.496Z" fill="#B3AD97"></path><path d="M669.332 373.323C669.332 373.812 670.03 373.602 670.169 373.672C669.96 372.835 669.192 373.323 669.332 373.323Z" fill="white"></path><path d="M667.168 365.09L667.517 365.23L666.68 364.043L667.168 365.09Z" fill="white"></path><path d="M666.75 357.277C665.563 358.114 667.098 360.068 666.75 361.463L666.47 361.743L667.517 362.301C667.238 360.626 666.47 358.463 666.75 357.277Z" fill="white"></path><path d="M669.192 352.949C668.704 353.228 668.704 352.112 669.122 353.926C669.122 353.856 669.192 353.786 669.262 353.717C669.262 353.577 669.262 353.298 669.262 352.949H669.192Z" fill="white"></path><path d="M669.192 353.716C669.541 353.158 669.262 354.553 669.192 353.716Z" fill="white"></path><path d="M668.704 349.949L669.193 350.996C669.193 350.996 669.472 349.809 669.681 350.089C669.402 348.972 669.123 349.251 668.704 349.949Z" fill="white"></path><path d="M667.657 349.041L667.867 349.599C667.867 349.599 668.006 349.32 667.657 349.041Z" fill="white"></path><path d="M668.354 350.715L667.866 349.528C667.866 349.528 667.308 349.738 668.006 350.087C667.657 350.087 668.006 350.226 668.285 350.715H668.354Z" fill="white"></path><path d="M668.215 351.413C668.006 352.041 667.866 352.808 667.378 351.761C667.657 353.785 668.564 353.436 668.215 351.413Z" fill="white"></path><path d="M665.424 356.997L665.075 357.834L665.564 358.532C665.564 358.532 665.773 356.927 665.424 357.067V356.997Z" fill="white"></path><path d="M668.634 343.181C668.634 343.181 667.936 343.599 667.657 343.739L668.076 344.507C668.216 344.088 668.285 343.32 668.704 343.181H668.634Z" fill="white"></path><path d="M667.657 343.738L667.099 342.622C667.099 343.668 667.378 343.878 667.657 343.738Z" fill="white"></path><path d="M666.261 348.971L667.378 350.855C667.029 350.087 666.61 349.32 666.191 348.622V348.971H666.261Z" fill="white"></path><path d="M668.216 338.643L668.844 339.202L667.797 338.155L668.216 338.643Z" fill="white"></path><path d="M667.727 335.571C668.285 335.99 668.495 334.804 668.844 335.292C668.634 334.455 668.146 333.827 667.727 333.269C668.006 333.897 668.006 334.664 667.727 335.641V335.571Z" fill="white"></path><path d="M667.099 332.294C667.099 332.294 667.517 332.922 667.796 333.271C667.657 332.922 667.448 332.574 667.099 332.294Z" fill="white"></path><path d="M666.959 340.527C666.959 340.527 667.518 340.178 667.588 339.48L666.89 340.038C666.89 340.038 666.89 340.317 666.89 340.527H666.959Z" fill="white"></path><path d="M666.959 340.666V340.526C666.959 340.526 666.889 340.596 666.959 340.666Z" fill="white"></path><path d="M666.61 345.761C666.122 345.133 665.494 343.667 665.005 345.133C665.564 345.551 665.843 344.714 666.61 345.761Z" fill="white"></path><path d="M666.121 341.366V342.622C666.121 342.622 666.54 342.343 666.749 342.622L666.121 341.296V341.366Z" fill="white"></path><path d="M665.843 340.738L666.122 341.366V340.877L665.843 340.738Z" fill="white"></path><path d="M666.611 334.526C666.262 334.038 666.122 333.41 665.983 332.782C665.983 333.549 665.983 334.247 665.983 335.015C666.192 335.085 666.68 335.364 666.541 334.596L666.611 334.526Z" fill="white"></path><path d="M666.68 337.248V337.109C666.68 337.109 666.54 337.248 666.68 337.248Z" fill="white"></path><path d="M665.285 326.083L665.145 326.222H665.285V326.083Z" fill="white"></path><path d="M665.913 335.085C665.843 335.643 666.052 335.922 666.332 336.201C666.192 335.782 666.122 335.364 666.052 334.945C665.913 334.945 665.843 334.945 665.913 335.085Z" fill="white"></path><path d="M666.54 330.478C666.54 330.478 666.331 331.106 666.261 331.455C666.47 331.176 666.749 330.548 666.54 330.478Z" fill="white"></path><path d="M666.819 336.9C666.819 336.9 666.47 336.411 666.261 336.202C666.331 336.551 666.47 336.83 666.61 337.109C666.61 337.04 666.749 336.97 666.819 336.9Z" fill="white"></path><path d="M660.191 324.759C660.889 324.759 661.726 326.084 661.168 327.41C661.796 328.527 664.029 327.41 665.076 326.224C664.796 326.224 664.517 326.224 663.889 325.108C663.61 325.596 663.471 327.969 662.633 326.992C662.005 325.387 662.633 325.596 662.912 324.759C662.145 325.526 661.377 322.875 660.121 323.363L660.749 324.759C660.749 324.759 660.191 324.34 660.051 324.759H660.191Z" fill="white"></path><path d="M665.354 328.595L665.494 329.084C665.494 328.456 665.773 328.037 666.262 327.2C665.843 326.362 665.494 326.223 665.285 326.223C665.424 327.06 665.424 327.897 665.494 328.735L665.354 328.595Z" fill="white"></path><path d="M665.773 331.457C665.005 331.178 664.517 329.922 663.819 330.829C664.028 332.294 664.586 331.806 665.005 332.643C664.586 330.201 665.494 333.271 665.703 331.457C665.912 331.945 665.982 332.364 666.052 332.783C666.052 332.364 666.191 331.875 666.261 331.457V331.527C666.261 331.527 666.122 331.666 666.191 331.527C666.191 331.527 665.982 331.457 665.912 331.387C665.982 330.689 666.122 331.247 666.191 331.457H666.331L665.633 329.084C665.633 329.642 665.633 330.271 665.912 331.387L665.773 331.457Z" fill="white"></path><path d="M663.331 344.017L663.471 343.947C663.331 343.807 663.261 343.737 663.331 344.017Z" fill="white"></path><path d="M663.68 342.969C663.68 342.969 664.099 343.248 664.099 343.806C663.959 344.295 663.75 343.806 663.47 343.876C663.68 344.225 664.168 345.062 664.378 343.876L664.238 343.737C664.378 342.76 665.215 341.364 665.285 341.573C664.657 341.922 664.168 342.201 663.61 342.969H663.68Z" fill="white"></path><path d="M664.517 337.178L663.959 335.225L663.401 336.341H663.75C663.75 337.388 664.169 337.109 664.517 337.248V337.178Z" fill="white"></path><path d="M665.634 325.802L666.471 326.012L665.145 324.965L665.634 325.802Z" fill="white"></path><path d="M665.075 323.222H665.843L665.285 322.594L665.075 323.222Z" fill="white"></path><path d="M602.9 190.707L602.342 190.427C602.342 190.427 602.76 190.707 602.9 190.707Z" fill="white"></path><path d="M605.691 193.917L606.04 193.777C606.04 193.777 605.622 193.777 605.691 193.917Z" fill="white"></path><path d="M650.491 259.51C650.84 258.464 651.468 257.208 650.77 257.557L650.142 258.045C650.491 258.603 650.561 259.092 650.491 259.51Z" fill="white"></path><path d="M628.58 220.432V220.781C628.58 220.781 629.138 220.921 629.417 220.921C629.138 220.781 628.859 220.572 628.58 220.432Z" fill="white"></path><path d="M625.579 221.411L625.439 220.225C625.439 220.225 625.439 220.922 625.579 221.411Z" fill="white"></path><path d="M585.943 175.426L584.966 175.565C585.804 176.263 585.664 175.635 585.943 175.426Z" fill="white"></path><path d="M660.19 296.427C660.33 295.66 660.33 295.032 660.19 294.473C659.981 295.45 659.492 296.288 660.19 296.427Z" fill="white"></path><path d="M610.087 186.66C609.739 186.45 609.529 186.45 609.39 186.59C609.739 186.799 610.018 186.869 610.087 186.66Z" fill="white"></path><path d="M659.772 292.309C659.772 292.309 659.772 292.588 659.702 292.728C659.911 293.216 660.121 293.775 660.26 294.473C660.47 293.775 660.47 292.937 659.842 292.309H659.772Z" fill="white"></path><path d="M511.068 143.325C511.068 143.325 510.998 143.325 510.858 143.186C510.858 143.256 510.858 143.325 511.068 143.325Z" fill="white"></path><path d="M486.504 135.09C486.504 135.09 487.132 135.02 487.551 134.95C487.341 134.95 487.062 134.95 486.504 135.09Z" fill="white"></path><path d="M663.819 312.546C663.958 313.104 663.889 312.615 663.819 312.546Z" fill="white"></path><path d="M661.237 315.756C661.237 315.756 661.028 315.547 660.819 315.616C661.028 315.616 661.098 315.686 661.237 315.756Z" fill="white"></path><path d="M663.609 313.453C663.609 313.453 663.679 312.964 663.749 312.685C663.749 312.825 663.679 313.034 663.609 313.453Z" fill="white"></path><path d="M663.958 313.312C663.958 313.312 663.958 313.661 663.958 313.801C664.098 313.801 664.168 313.8 663.958 313.312Z" fill="white"></path><path d="M663.61 311.779C663.61 311.779 663.68 312.407 663.61 312.686C663.61 312.547 663.61 312.547 663.68 312.547C663.68 312.407 663.61 312.128 663.54 311.779H663.61Z" fill="white"></path><path d="M554.611 152.886C554.611 152.886 554.611 152.886 554.541 152.747C553.913 152.747 554.122 152.886 554.611 152.886Z" fill="white"></path><path d="M638.14 248.485L638.21 248.554V248.485H638.14Z" fill="white"></path><path d="M636.884 246.88C638.07 247.299 638.14 247.787 638.209 248.485L640.024 247.089L636.953 246.95L636.884 246.88Z" fill="white"></path><path d="M595.852 183.589L596.34 184.985C594.386 184.636 593.828 183.519 594.037 185.124C595.852 183.589 598.015 188.613 599.759 187.148L599.969 188.194C599.969 188.194 599.69 188.055 599.55 187.846C599.899 189.939 601.644 187.636 602.969 189.59C603.388 190.288 603.458 190.916 602.969 190.707L604.574 191.614C604.853 192.032 604.505 192.172 604.156 191.823L606.11 193.707C606.668 193.777 607.715 194.056 608.133 194.265C608.273 195.033 607.715 194.126 607.575 194.475L608.901 195.312C608.761 196.15 607.575 195.591 607.017 194.684C606.04 197.266 608.203 195.312 608.971 198.522L607.854 197.615C607.366 199.15 608.412 199.708 608.691 201.453C608.831 200.895 608.412 197.685 609.878 198.592C610.017 199.08 610.296 199.569 611.204 199.988C610.506 200.476 611.204 201.034 611.901 201.872L610.994 202.5C611.971 203.198 612.32 202.779 613.157 203.058C613.855 204.174 613.297 204.872 612.878 205.5C613.855 207.315 613.227 203.546 614.762 205.431C615.39 207.105 616.367 207.873 618.112 209.199C618.461 210.385 617.414 209.408 617.414 209.966L618.74 210.385C618.74 210.385 618.6 210.664 618.461 210.734C619.228 211.292 619.438 210.176 620.485 211.222C621.741 210.873 620.624 214.572 622.648 215.339C622.648 215.898 621.95 215.479 621.671 215.828C623.625 217.433 623.276 217.293 625.299 218.41L625.509 220.224C625.648 218.759 627.253 219.596 628.649 220.434C628.789 219.875 628.928 219.317 628.928 219.038L630.533 220.713C630.533 220.713 630.045 220.992 629.486 220.922L629.905 221.131C629.905 222.039 629.137 221.969 628.37 221.759C628.37 221.41 628.509 221.062 628.579 220.713C627.742 220.573 626.835 220.503 626.276 220.922C626.486 220.922 626.695 221.201 626.904 221.41C626.695 221.41 626.486 221.41 626.416 221.48C626.416 221.62 626.695 221.69 627.114 221.829L626.276 222.876L626.765 222.736L627.532 225.597C629.696 226.784 631.998 227.621 633.952 230.412C632.766 230.063 632.557 230.901 631.58 231.319C632.208 229.994 630.045 229.226 629.486 227.621C629.765 228.458 629.207 228.528 628.928 228.389L631.161 230.691C630.324 231.04 630.812 231.599 630.882 232.436C632.208 231.11 632.906 233.971 633.952 234.878C633.464 235.227 632.766 235.157 632.278 233.762C631.789 235.785 635.069 234.809 634.79 236.762C634.65 236.414 634.58 236.204 634.301 236.204C635.139 236.762 635.697 238.856 634.999 238.577L634.86 238.228C635.836 240.461 637.651 245.136 639.256 244.857C639.116 244.927 637.511 245.206 637.162 245.206L643.443 247.439C642.117 247.579 639.814 250.021 638.418 248.416C638.418 249.044 638.558 249.742 639.395 250.719C639.395 250.3 640.721 249.114 641.07 249.602C640.302 251.486 640.721 250.858 640.302 252.952C640.302 252.324 642.466 252.184 642.745 253.091C642.396 253.091 640.931 253.859 640.582 253.58C641.489 254.068 642.396 254.557 643.233 255.115C642.745 254.696 641.628 255.603 641.279 256.231C641.559 255.883 641.907 258.185 642.256 258.674L642.396 257.557C642.954 260.139 645.815 259.162 646.583 261.744C646.094 261.535 644.001 261.744 644.14 263.14C645.257 263.419 649.583 264.256 651.049 266.28L650.63 266.908L651.816 268.443C650.002 267.815 645.955 265.722 644.28 264.535C644.14 265.582 643.722 265.024 644.28 266.42C643.931 267.048 643.233 265.931 643.094 265.512L643.861 268.862C644.908 268.373 645.815 271.025 646.722 270.606L644.35 267.397C645.397 266.908 648.258 268.443 648.746 270.886C648.467 271.653 646.653 271.025 646.234 271.165C646.722 271.374 647.56 273.188 647.35 273.467L646.513 272.63C646.443 274.096 648.606 274.375 647.909 276.259C647.978 276.817 646.862 278.282 647.56 278.213C648.606 276.957 652.584 275.701 653.701 276.049C653.701 276.259 653.212 279.329 652.793 280.097C652.026 281.283 650.002 279.399 649.374 280.376C649.723 280.376 650.211 280.725 650.421 280.934C650.281 281.562 649.374 280.934 649.863 282.19C651.049 282.12 650.421 284.772 650.979 282.539C651.607 283.656 651.119 283.935 651.537 285.33C652.165 284.702 654.398 286.028 655.096 287.145C654.747 287.145 654.468 287.494 654.329 287.703C654.747 290.285 654.538 291.82 655.026 294.193C654.817 294.472 654.678 295.728 654.119 295.309C654.398 295.588 654.887 295.867 655.026 296.565C654.329 298.17 654.538 294.96 653.561 296.286C654.259 296.286 654.887 297.961 655.515 298.938C656.492 298.379 655.236 296.495 654.538 295.518C656.003 295.17 657.887 296.705 659.074 299.077C659.841 301.031 658.306 300.124 658.585 300.403C659.074 304.171 661.795 303.125 661.376 306.474C660.679 307.87 659.562 306.893 658.934 307.242C658.306 305.707 659.004 304.66 658.795 303.543L658.655 305.009C658.236 304.52 657.818 303.543 657.957 302.845C657.399 304.032 659.074 309.196 658.655 312.266C659.074 312.754 659.492 313.592 659.841 313.103L659.562 312.196C660.19 311.219 660.888 313.731 661.028 312.545C661.725 313.662 662.772 314.987 662.633 316.802L661.656 317.29C661.656 317.29 662.074 316.034 661.656 315.616C662.214 316.244 660.609 318.477 662.144 319.105L662.702 317.779C663.4 318.965 664.796 320.291 664.726 321.896C665.633 321.058 664.517 321.547 665.633 320.291C664.238 321.477 665.075 316.313 663.749 318.058C665.005 316.732 664.028 316.034 665.005 314.359C664.656 314.429 664.447 314.988 664.377 313.662C664.238 313.662 664.098 313.522 664.028 313.452C663.958 313.801 663.749 314.08 663.609 314.22C662.702 313.731 662.423 311.638 661.865 311.01C661.865 310.242 662.284 311.289 662.633 310.801L661.865 309.893C662.633 309.684 662.842 307.591 663.54 309.335L663.33 307.66C663.61 306.614 663.54 305.288 663.051 304.52C663.051 303.753 661.795 302.706 662.563 303.264L661.586 300.822H661.795C661.377 298.24 659.423 295.867 660.26 292.657C659.911 291.82 659.492 291.052 659.423 289.587L660.051 289.168C659.632 288.122 660.051 285.749 659.213 285.47C660.679 283.865 658.236 280.097 658.027 278.143L657.12 278.282C656.841 276.957 656.213 275.77 655.445 274.235L654.747 274.514C653.77 273.328 654.329 270.746 653.631 268.583C653.98 268.583 654.049 269.211 653.98 269.699C654.887 266.559 650.979 264.605 651.468 261.884C650.979 261.395 650.979 260.907 650.979 260.488V260.628V260.418C650.979 260.139 651.049 259.79 651.119 259.441C651.049 259.721 650.979 260 650.979 260.279C650.839 259.86 650.491 259.162 650.072 258.604L650.77 258.046C650.77 258.046 650.77 257.976 650.7 257.906C650.77 257.139 650.142 257.488 649.653 258.046C649.444 257.767 649.165 257.488 648.886 257.348C650.002 256.371 647.909 255.743 649.025 254.557C648.258 254.347 647.35 251.347 645.815 251.556C645.955 251.486 646.025 251.207 646.164 251.556C646.025 250.789 645.885 249.951 645.257 249.463L646.164 248.765L644.21 247.718C644.42 246.532 644.629 245.974 645.745 246.602C643.652 244.718 644.559 244.857 642.605 243.392L643.303 243.252C643.024 242.554 641.698 241.787 642.047 241.159C642.745 238.995 638.767 233.413 638 228.947C636.534 230.622 638 226.714 636.464 227.272C636.813 226.853 636.744 226.156 637.441 226.574C636.046 224.76 636.674 223.155 634.72 222.457C634.999 222.039 635.557 222.527 635.697 222.248C635.488 222.108 634.999 221.829 635.139 221.48C635.278 221.131 635.627 221.55 636.046 221.759C634.86 219.806 633.394 220.294 632.138 220.852C632.138 219.526 631.789 219.038 630.603 218.759C630.812 218.201 630.882 217.363 631.719 218.549C631.37 217.852 629.905 213.944 628.928 214.432C629.068 214.083 628.44 213.455 628.23 213.316C627.393 211.711 627.393 211.571 626.346 210.176L626.486 210.664C624.951 210.804 625.439 209.617 624.532 208.501H624.671C623.695 205.221 623.485 207.524 622.648 204.244L622.02 204.872C620.345 205.64 621.322 201.872 619.717 200.755V201.593C618.67 201.104 619.996 197.894 619.508 196.917C619.508 196.638 619.926 197.057 620.205 197.196C619.438 194.405 619.089 197.545 617.693 196.15C617.972 195.522 619.159 195.591 618.461 194.475C618.461 193.637 614.553 192.521 614.344 190.358C614.274 190.986 614.134 191.544 613.297 191.056C612.32 190.009 612.041 187.008 610.157 187.008C610.157 186.799 610.157 186.659 610.227 186.59C609.25 186.031 607.435 184.357 606.389 184.426C607.924 181.635 600.806 180.519 602.62 178.704L600.108 176.471L600.387 176.332C598.992 174.727 597.945 174.657 597.038 174.587C596.829 174.099 597.247 174.168 597.387 174.099C595.503 171.586 595.014 171.517 592.223 170.819L592.572 169.982C591.665 169.982 589.99 165.934 586.85 164.957C586.92 164.957 587.059 164.818 587.338 164.818C583.919 163.631 581.965 157.979 579.104 159.863L576.732 159.305C579.104 161.049 575.615 160.212 576.383 161.329C575.336 160.91 574.359 158.956 575.685 159.584V159.863C577.08 158.747 572.963 157.491 573.661 156.583C571.219 155.048 568.846 153.583 566.334 152.048C563.962 150.512 561.589 149.047 559.077 147.931V149.326L557.402 148.489C557.053 148 557.193 147.303 558.379 147.931C558.03 146.954 556.076 147.582 555.937 147.791C553.704 146.256 557.472 146.814 556.774 146.465L555.727 146.116L555.867 146.326C554.82 146.465 554.541 146.884 553.076 146.256C552.238 145.628 552.866 145.349 552.517 145.139C552.517 145.07 552.448 145 551.959 144.86L549.726 143.953L550.284 145.209C549.098 145.279 548.191 144.372 548.819 145.837C547.982 143.534 540.654 142.348 539.817 141.58C538.212 141.86 536.817 141.371 535.072 140.883C535.421 141.162 535.421 142.348 533.955 141.86C535.072 139.766 531.443 140.185 530.606 138.231C531.443 139.557 526.21 137.533 527.605 139.487C526.349 139.068 527.675 138.65 526.838 137.882C523.628 138.091 520.209 135.998 516.301 135.789C516.231 136.068 516.789 136.626 515.882 136.975L514.068 135.161C513.3 135.23 513.161 136.835 511.905 135.649C512.044 135.928 512.323 136.347 511.835 136.417C504.438 134.114 496.553 136.556 488.807 134.184C489.854 134.742 489.156 134.812 488.388 134.881C488.946 135.021 488.388 135.649 488.528 136.068L485.248 135.161C484.76 136.347 481.829 135.579 481.55 136.696L482.526 136.347C481.34 137.812 484.69 138.999 484.62 140.743C485.946 139.138 488.528 142.627 490.831 140.394C491.389 140.743 490.412 140.952 490.691 141.301C491.249 140.534 492.017 140.394 493.343 140.673L493.203 140.883C496.971 140.603 498.646 141.371 502.833 141.999L502.554 141.162C503.461 141.301 503.67 141.58 504.089 141.86C505.205 140.673 501.507 141.65 502.554 140.324C503.67 142.069 509.043 140.743 509.671 142.767C511.067 142.906 509.323 141.79 510.718 141.929L511.067 142.488L511.486 141.86C512.393 142.069 512.812 142.767 512.742 143.185C512.533 143.116 512.114 143.185 511.835 143.255C512.951 143.953 515.184 143.465 515.533 143.674L514.277 143.185C518.115 143.185 522.581 144.651 526.419 144.372L526.21 143.953C529.141 143.744 528.303 144.86 531.443 145.279H531.304C532.002 145.139 532.839 145.139 533.676 145.349C532.769 145.628 534.863 146.535 533.746 146.814C536.886 146.814 535.351 146.605 537.724 145.767L538.003 146.535C538.84 146.186 538.98 145.907 540.515 146.186C539.119 146.326 541.143 147.442 539.608 147.721C542.259 149.954 544.702 147.861 545.4 150.303C547.423 149.117 543.097 148.349 544.004 148.279C543.516 147.512 545.609 147.442 546.516 148C547.493 148.419 547.423 150.792 549.866 151.629C549.656 151.559 549.587 151.629 549.307 151.559C550.075 152.327 551.331 151.629 552.168 152.815C553.215 152.117 553.564 153.513 554.262 152.327L551.959 151.629C553.355 151.838 555.169 150.861 556.914 152.536C556.634 152.745 555.867 152.745 555.378 152.745C555.797 153.374 556.634 153.025 557.123 153.653C556.355 154.839 554.332 152.745 552.587 153.094C553.006 153.932 555.518 153.304 554.262 154.35C556.006 153.025 556.495 155.607 558.728 154.978L558.239 155.676C558.239 155.676 559.286 155.537 559.705 155.816L558.379 156.374C560.054 156.165 560.472 158.328 561.868 158.537C559.356 157.211 561.729 157.351 560.961 156.235C564.59 156.932 561.798 159.096 565.427 160.561C564.869 160.421 563.892 159.165 564.799 159.235C565.357 159.724 566.125 160.491 566.334 161.049C568.637 162.236 566.404 160.073 567.59 160.212C567.869 161.538 568.916 160.561 570.033 160.84L569.614 161.538C571.847 163.562 571.219 160.421 573.173 162.445L571.568 162.864L572.894 163.352L572.126 163.98C573.801 164.19 574.15 164.608 575.266 165.585C575.266 164.887 576.243 164.399 577.36 165.167C577.848 166.144 576.522 165.515 578.127 166.562C577.499 166.772 576.732 167.051 576.522 165.934C576.313 166.144 575.894 166.144 575.685 166.283C576.173 167.33 577.569 167.818 578.127 168.167C577.918 167.958 577.708 167.749 577.639 167.609L580.5 168.237C580.639 168.725 580.221 168.725 579.802 168.725C580.29 169.005 580.849 168.865 581.546 169.284C580.988 169.702 580.57 170.33 579.453 169.912L581.965 170.819C581.965 170.819 582.523 172.215 582.105 172.215C583.012 173.401 585.594 173.401 586.78 175.006C586.92 175.006 587.199 175.006 587.548 175.145C588.804 176.401 589.502 178.006 591.665 178.704V180.449C593.06 181.426 591.595 178.146 593.898 179.751C595.573 180.798 593.688 181.007 593.898 181.775C595.014 181.984 597.108 182.263 597.736 184.217C597.178 183.938 596.968 183.519 596.48 183.17L595.852 183.589ZM609.878 198.592C609.529 198.383 608.552 198.103 608.761 197.545C609.808 197.336 609.668 197.894 609.878 198.592ZM628.719 223.853C628.3 223.713 628.23 223.225 628.23 222.667C628.509 222.946 628.649 223.364 628.719 223.853ZM662.214 306.544C662.353 305.916 662.353 305.567 662.214 306.544ZM662.214 308.498C662.214 308.498 662.493 308.637 662.563 308.498C662.353 308.428 662.284 308.009 662.214 307.521C662.005 307.66 661.935 307.94 662.214 308.498ZM551.401 145.349L551.68 145.698C550.773 145.628 551.122 145.488 551.401 145.349Z" fill="white"></path><path d="M625.928 221.272C625.928 221.272 626.137 220.993 626.277 220.923C626.068 220.923 625.928 220.923 625.928 221.272Z" fill="white"></path><path d="M586.152 175.424V175.354L585.943 175.424H586.152Z" fill="white"></path><path d="M648.885 281.423C648.885 281.004 649.025 280.795 649.095 280.585C648.885 280.585 648.746 280.865 648.885 281.423Z" fill="white"></path><path d="M665.075 318.267L664.656 317.081C664.796 317.639 664.656 317.918 664.586 318.197C664.796 318.197 665.005 317.848 665.075 318.197V318.267Z" fill="white"></path><path d="M661.447 329.434C661.447 329.434 661.447 329.783 661.586 329.992H661.935C661.795 329.155 661.446 328.666 661.377 329.434H661.447Z" fill="white"></path><path d="M662.493 319.803C661.795 320.013 662.144 320.71 662.423 321.548V321.408C663.4 321.548 662.981 320.641 662.493 319.803Z" fill="white"></path><path d="M662.494 321.755C662.494 321.755 662.633 322.244 662.633 322.523C663.052 322.523 662.633 322.174 662.494 321.755Z" fill="white"></path><path d="M662.912 310.801C662.772 311.22 663.819 310.871 663.61 311.15C664.587 311.429 662.144 308.638 662.912 310.801Z" fill="white"></path><path d="M660.26 320.85L661.097 320.431L660.33 320.082L660.26 320.85Z" fill="white"></path><path d="M659.911 314.151V315.546C659.911 315.546 660.121 315.686 660.26 315.826C660.191 314.988 660.26 314.081 659.911 314.151Z" fill="white"></path><path d="M660.19 315.823C660.19 316.242 660.33 316.661 660.469 316.87C660.469 316.661 660.33 316.172 660.19 315.823Z" fill="white"></path><path d="M659.702 319.034L659.842 318.615L659.772 317.708L659.702 319.034Z" fill="white"></path><path d="M657.469 299.774L656.91 298.378C656.91 298.378 656.492 298.727 656.701 299.215C656.98 299.494 657.189 300.053 657.469 299.774Z" fill="white"></path><path d="M656.004 304.591C656.073 304.172 656.283 304.102 656.492 303.823L655.445 303.963L656.004 304.591Z" fill="white"></path><path d="M654.887 300.403C654.887 300.403 653.631 298.519 654.049 300.264C654.398 300.333 654.887 301.729 654.887 300.403Z" fill="white"></path><path d="M651.189 278.493L651.329 278.842L653.003 278.354L651.189 278.493Z" fill="white"></path><path d="M641.489 261.116C641.629 262.861 642.675 261.116 642.606 262.791C643.164 263.07 642.606 261.465 643.094 261.744C642.326 260.907 642.396 260.279 641.489 261.116Z" fill="white"></path><path d="M643.164 261.743C643.164 261.743 643.443 262.022 643.583 262.162C643.373 261.882 643.234 261.813 643.164 261.743Z" fill="white"></path><path d="M482.178 134.461L480.922 134.251L481.759 134.74L482.178 134.461Z" fill="white"></path><path d="M480.084 136.066L479.666 134.95L479.038 136.066C479.038 136.066 479.875 135.787 480.084 136.066Z" fill="white"></path><path d="M609.948 202.361H610.227C610.366 201.942 610.227 201.733 609.948 201.314V202.361Z" fill="white"></path><path d="M601.155 190.427L601.365 190.637L601.783 189.59L601.155 190.427Z" fill="white"></path><path d="M591.595 182.543C591.944 182.892 592.502 183.171 592.851 183.52C591.944 182.892 592.363 181.496 591.595 182.543Z" fill="white"></path><path d="M462 164.965L430.033 262.604C430.033 262.604 381.212 241.682 324.253 241.101C218.473 240.519 161.514 315.492 161.514 386.978C161.514 450.327 206.849 510.771 305.654 511.933C387.605 512.514 441.658 478.224 441.658 478.224C448.051 486.361 452.119 496.822 452.119 507.865C452.119 542.736 412.597 584 307.979 584C181.857 584 97 495.66 97 370.705C97 247.494 188.831 133 320.185 133C405.623 133 462 164.965 462 164.965Z" fill="#242424"></path><path d="M555.929 757.319C453.707 749.749 459.515 696.174 476.939 661.234C481.005 666.475 489.136 671.134 500.753 675.21C487.975 628.624 498.429 497.599 496.687 414.908C487.975 415.49 479.263 416.073 471.712 417.237L463 319.406C463 319.406 507.141 313 563.48 313C660.475 313 792.899 332.217 792.899 438.201C792.899 500.511 740.626 529.045 652.924 537.78V540.109C735.98 541.856 808 563.403 808 640.853C808 734.026 689.515 767.219 555.929 757.319ZM728.429 460.912C728.429 424.225 648.859 411.414 571.03 411.414C568.126 441.695 565.222 477.8 563.48 513.322C609.944 510.993 728.429 498.181 728.429 460.912ZM567.545 686.275C647.116 693.263 753.985 679.287 753.985 635.612C753.985 597.76 654.086 580.29 559.995 586.114C559.414 630.953 561.157 669.387 567.545 686.275Z" fill="#242424"></path></svg>