<svg xmlns="http://www.w3.org/2000/svg" width="858" height="866" viewBox="0 0 858 866" fill="none"><path d="M420.832 844.781C645.24 844.781 827.158 662.862 827.158 438.454C827.158 214.047 645.24 32.1282 420.832 32.1282C196.424 32.1282 14.5056 214.047 14.5056 438.454C14.5056 662.862 196.424 844.781 420.832 844.781Z" fill="#B3AD97"></path><path d="M852.482 435.304C852.272 439.297 856.58 437.826 857.42 438.456C856.159 431.731 851.326 435.514 852.482 435.304Z" fill="#B3AD97"></path><path d="M836.826 371.102L838.717 372.047L832.938 363.326L836.826 371.102Z" fill="#B3AD97"></path><path d="M823.481 312.26C817.912 319.826 830.1 333.065 830.311 344.203L829.05 346.305L836.195 349.667C831.992 337.058 824.006 321.717 823.481 312.26Z" fill="#B3AD97"></path><path d="M827.474 276.008C825.477 279.055 822.64 270.123 829.26 283.678C829.26 282.838 829.365 282.627 829.47 282.102C828.945 280.841 828.314 279.055 827.474 276.008Z" fill="#B3AD97"></path><path d="M829.574 282.102C832.096 288.196 830.415 277.163 829.574 282.102Z" fill="#B3AD97"></path><path d="M816.125 254.676L822.219 261.401C823.06 259.089 820.012 251.839 822.429 253.941C817.28 246.375 816.545 248.897 816.125 254.676Z" fill="#B3AD97"></path><path d="M807.719 249.739L810.661 253.312C810.977 252.261 810.661 251.105 807.719 249.739Z" fill="#B3AD97"></path><path d="M816.755 260.773L810.556 253.207C810.031 254.888 807.824 255.939 813.183 256.78C810.871 256.99 813.603 257.831 816.755 260.773Z" fill="#B3AD97"></path><path d="M818.122 266.023C818.857 270.962 819.908 277.161 814.339 270.226C821.064 285.042 825.477 280.839 818.122 266.023Z" fill="#B3AD97"></path><path d="M815.074 311.735C815.074 313.836 815.074 316.043 814.864 318.249L818.647 322.662C816.966 320.351 817.491 310.579 815.074 311.735Z" fill="#B3AD97"></path><path d="M793.744 205.292C792.063 205.712 791.642 210.02 790.276 211.701L795.11 216.22C794.374 212.857 791.958 206.973 793.744 205.397V205.292Z" fill="#B3AD97"></path><path d="M790.172 211.594L782.922 204.974C787.02 212.329 788.911 212.96 790.172 211.594Z" fill="#B3AD97"></path><path d="M799.523 252.053L811.397 263.402L798.157 249.427L799.523 252.053Z" fill="#B3AD97"></path><path d="M772.939 174.819L779.243 177.026L768.946 172.508L772.939 174.819Z" fill="#B3AD97"></path><path d="M757.493 155.8C762.537 156.851 757.703 148.34 762.011 150.337C757.073 145.713 751.189 143.191 746.04 140.985C750.663 144.137 754.341 148.655 757.493 155.906V155.8Z" fill="#B3AD97"></path><path d="M737.844 136.993C740.155 138.464 742.992 139.62 746.145 140.986C743.728 139.305 740.996 137.939 737.844 136.993Z" fill="#B3AD97"></path><path d="M774.621 191.108C774.936 189.952 776.197 187.43 773.885 182.491L772.519 188.166C773.149 189.111 773.885 190.162 774.726 191.213L774.621 191.108Z" fill="#B3AD97"></path><path d="M772.413 188.27V188.059C770.102 184.697 768.526 182.49 767.79 181.44C768.315 182.28 769.786 184.382 772.413 188.27Z" fill="#B3AD97"></path><path d="M775.25 191.949C775.25 191.949 774.935 191.424 774.725 191.214C774.62 191.739 774.62 192.054 775.25 191.949Z" fill="#B3AD97"></path><path d="M791.853 228.515C786.81 225.047 778.614 216.746 781.03 228.094C785.654 229.881 784.288 223.366 791.853 228.515Z" fill="#B3AD97"></path><path d="M773.359 198.778C775.041 201.615 776.301 204.768 777.773 207.71C778.718 206.869 779.139 204.452 781.66 206.029C778.823 203.612 776.301 200.985 773.359 198.673V198.778Z" fill="#B3AD97"></path><path d="M769.261 195.731L773.359 198.778L771.468 195.626L769.261 195.731Z" fill="#B3AD97"></path><path d="M746.46 152.651C742.047 150.759 738.789 147.292 734.902 143.509C738.159 148.343 741.732 153.071 745.514 157.274C747.09 156.959 750.663 157.169 746.46 152.651Z" fill="#B3AD97"></path><path d="M759.279 169.88C759.279 169.88 758.754 169.46 758.544 169.25C758.544 169.985 758.754 170.405 759.279 169.88Z" fill="#B3AD97"></path><path d="M696.654 107.153L696.759 108.309L697.495 107.889L696.654 107.153Z" fill="#B3AD97"></path><path d="M745.515 158.535C747.721 162.318 750.348 163.474 752.975 164.419C750.453 162.318 747.932 160.006 745.515 157.274C744.779 157.379 744.464 157.694 745.515 158.535Z" fill="#B3AD97"></path><path d="M725.971 127.64C727.127 129.847 728.282 132.263 729.543 134.68C729.123 131.948 727.442 127.325 725.971 127.64Z" fill="#B3AD97"></path><path d="M758.544 167.255L759.069 167.675C759.069 165.889 758.754 166.414 758.544 167.255Z" fill="#B3AD97"></path><path d="M758.545 167.254C756.653 165.888 754.762 165.152 752.976 164.417C754.867 166.308 756.653 167.884 758.44 169.25C758.44 168.62 758.44 167.884 758.44 167.254H758.545Z" fill="#B3AD97"></path><path d="M666.393 120.179C669.335 117.448 680.893 120.285 684.676 130.267C693.397 134.049 698.231 119.864 696.865 108.306C695.394 109.567 694.553 110.513 685.202 106.625C686.883 110.092 698.231 124.698 689.72 122.071C679.002 115.241 682.575 114.505 679.107 108.831C680.053 115.976 661.56 105.154 659.353 113.034L669.65 117.342C669.125 118.393 664.817 117.553 666.498 120.179H666.393Z" fill="#B3AD97"></path><path d="M710.525 121.335L713.887 123.647C710.945 119.969 709.579 116.502 707.162 109.882C700.753 106.835 698.756 107.045 697.495 107.78L711.996 121.755L710.525 121.23V121.335Z" fill="#B3AD97"></path><path d="M727.231 136.258C721.977 136.888 713.256 132.055 714.307 139.41C722.923 147.291 722.608 142.668 728.912 146.345C715.252 133.001 734.481 148.657 726.916 136.678C730.068 138.99 732.485 141.302 734.796 143.613C732.8 140.671 731.119 137.729 729.543 134.787C729.543 134.997 729.543 135.102 729.543 135.312C729.753 136.363 729.542 136.783 729.227 135.838C729.227 135.838 729.017 135.628 728.912 135.628C728.387 135.943 727.756 136.048 727.126 136.153C723.974 131.319 727.336 134.682 728.912 135.628C729.122 135.522 729.332 135.522 729.543 135.312C724.709 130.899 718.93 127.537 713.781 123.649C716.303 126.906 720.401 130.059 727.126 136.153L727.231 136.258Z" fill="#B3AD97"></path><path d="M767.58 224.522C767.58 223.786 767.895 223.681 768.21 223.471C767.16 222.735 766.529 222.525 767.58 224.522Z" fill="#B3AD97"></path><path d="M765.9 216.638C767.161 217.479 769.262 217.479 771.154 221.471C771.994 225.464 769.262 222.627 768.106 223.573C770.523 225.149 775.672 229.772 773.255 221.577L772.099 220.736C769.578 213.591 769.157 202.138 770.418 202.873C768.212 207.076 766.846 210.333 766.005 216.743L765.9 216.638Z" fill="#B3AD97"></path><path d="M747.722 176.186C744.149 172.299 739.946 169.041 735.848 165.679L738.16 174.085L739.736 172.299C744.675 179.654 745.515 176.502 747.722 176.186Z" fill="#B3AD97"></path><path d="M696.76 104.208L701.383 102.002C697.706 101.476 693.608 101.581 689.72 101.371L696.655 104.208H696.76Z" fill="#B3AD97"></path><path d="M679.528 91.9166L682.68 89.0796L676.691 87.7136L679.528 91.9166Z" fill="#B3AD97"></path><path d="M92.9968 632.53L96.1491 635.472C94.7831 634.001 93.8374 633.055 92.9968 632.53Z" fill="#B3AD97"></path><path d="M78.8123 605.732L76.6057 605.943C78.1818 606.678 79.2326 606.888 78.8123 605.732Z" fill="#B3AD97"></path><path d="M193.449 71.1104C185.463 71.4256 175.376 70.4799 178.739 73.9474L183.047 76.6793C186.724 73.422 190.192 71.951 193.449 71.1104Z" fill="#B3AD97"></path><path d="M23.4366 358.805L25.1178 357.229C23.962 355.337 22.9113 353.656 21.9656 352.08C22.491 354.181 22.7011 356.388 23.5417 358.805H23.4366Z" fill="#B3AD97"></path><path d="M41.3001 366.794L37.2021 374.359C38.4631 372.678 39.829 370.261 41.3001 366.794Z" fill="#B3AD97"></path><path d="M207.95 748.953C210.156 748.638 212.258 748.322 214.464 747.797C208.265 743.699 209.736 747.272 207.95 748.953Z" fill="#B3AD97"></path><path d="M482.091 12.0596C476.417 9.43275 471.794 7.9617 467.696 7.12109C474.631 10.7987 479.674 15.5271 482.091 12.0596Z" fill="#B3AD97"></path><path d="M44.4517 645.661C46.6582 647.763 48.1293 648.288 48.9699 647.763C46.7633 645.661 45.0821 644.61 44.4517 645.661Z" fill="#B3AD97"></path><path d="M450.463 5.96511C451.514 6.49049 452.46 6.80571 453.51 7.22602C457.923 6.80571 462.442 6.07019 467.696 7.22602C462.652 4.49406 456.452 3.33823 450.463 6.07019V5.96511Z" fill="#B3AD97"></path><path d="M736.057 651.129C736.057 651.129 736.793 650.499 737.213 650.288C736.793 649.868 736.477 650.288 736.057 651.129Z" fill="#B3AD97"></path><path d="M842.92 495.193C842.92 497.19 842.394 500.237 842.079 503.179C842.604 501.813 842.92 499.396 842.92 495.193Z" fill="#B3AD97"></path><path d="M608.076 46.4159C612.279 48.0971 608.917 46.3108 608.076 46.4159Z" fill="#B3AD97"></path><path d="M619.11 71.7419C618.059 71.7419 617.113 72.0572 616.483 72.8978C617.324 72.0572 618.164 71.7419 619.11 71.7419Z" fill="#B3AD97"></path><path d="M406.857 33.6008C406.857 33.6008 406.646 33.6008 406.541 33.6008C407.802 34.4414 407.592 34.2313 406.857 33.6008Z" fill="#B3AD97"></path><path d="M613.224 51.1466C611.963 49.8857 610.387 48.6248 608.706 47.469C609.337 48.2045 610.808 49.3603 613.224 51.1466Z" fill="#B3AD97"></path><path d="M613.33 48.8337C614.696 49.6743 615.642 50.3048 616.692 50.9353C617.533 50.5149 617.323 49.8845 613.33 48.8337Z" fill="#B3AD97"></path><path d="M602.296 43.8979C604.608 44.9487 606.709 46.2096 608.601 47.4705C607.97 46.8401 607.76 46.4198 607.97 46.4198C606.709 45.8944 605.028 45.1589 602.191 43.8979H602.296Z" fill="#B3AD97"></path><path d="M472.318 827.234C472.318 827.234 472.949 827.339 473.264 827.549C477.047 825.027 475.365 825.658 472.318 827.234Z" fill="#B3AD97"></path><path d="M138.81 176.814C138.81 176.814 138.81 176.499 138.915 176.289C138.705 176.289 138.6 176.499 138.39 176.604L138.81 176.814Z" fill="#B3AD97"></path><path d="M131.769 189.636C131.559 181.44 134.501 179.233 138.389 176.711L125.464 171.353C127.461 177.552 129.562 183.646 131.769 189.636Z" fill="#B3AD97"></path><path d="M136.813 690.319L133.241 680.337C146.375 684.645 150.053 692.316 148.371 681.808C142.802 685.906 135.552 679.602 129.668 672.247C123.784 664.891 117.794 657.536 111.595 661.109L110.124 654.174C111.175 655.75 112.015 655.54 112.961 657.011C110.965 643.141 98.9859 655.224 91.8408 639.988C89.7393 634.419 89.5292 630.006 92.9966 632.528L83.2246 623.386C81.6485 620.024 84.1703 619.709 85.8515 622.966C82.279 617.502 79.4419 611.723 76.1846 606.049H76.6049C73.3476 604.473 67.4633 600.165 64.7314 597.958C64.4162 592.599 67.2532 599.639 68.3039 597.748C65.6771 594.911 62.9451 592.179 60.5284 589.237C61.474 586.4 63.5756 586.82 65.6771 588.817C67.9887 590.708 70.5105 594.07 71.8765 597.538C76.1846 590.078 74.3983 588.501 71.3511 585.875C68.6192 583.143 64.6263 579.045 64.8365 567.486L69.9851 576.313C75.344 567.381 69.9851 561.077 70.9308 549.203C69.2496 552.25 66.6227 574.421 59.3725 564.754C59.3725 561.287 58.1116 557.189 53.3832 551.935C58.2167 550.359 55.4847 544.79 53.3832 537.435L60.003 536.174C56.1152 528.714 52.9629 530.185 48.7599 526.192C47.0787 517.05 51.597 514.108 55.6949 511.166C54.5391 496.561 48.9701 522.829 45.1874 505.807C45.5026 499.503 44.662 494.354 42.9808 488.995C41.2996 483.636 38.4625 478.067 36.361 470.712C38.2524 461.781 40.5641 471.868 42.3503 468.611L36.5712 461.255C36.5712 459.364 38.2524 459.889 39.093 460.099C36.6763 453.69 32.3682 459.994 30.0565 449.592C26.3789 448.331 28.4804 442.762 31.2123 436.247C34.1545 429.628 36.9915 422.062 33.1037 415.442C35.2052 412.395 37.0966 417.229 39.8285 416.388C35.2052 398.63 36.256 401.257 31.2123 386.021L37.4118 374.463C31.1073 382.659 26.9043 370.26 23.6469 358.912C20.7048 361.749 18.183 364.166 16.9221 365.952C16.6069 360.068 16.1866 354.183 16.6069 348.509C18.183 346.723 19.9693 348.93 22.0708 352.187C21.8606 350.926 21.5454 349.77 21.2302 348.825C25.118 343.466 28.1652 347.459 30.792 352.397L25.2231 357.336C28.5855 362.274 32.4732 366.792 36.4661 366.687C35.8357 365.532 35.5204 363.325 35.5204 361.118C36.4661 362.379 37.3067 363.22 38.0422 362.905C38.8828 362.484 37.4118 360.488 36.5712 357.651L44.7671 355.655L42.0351 354.183L51.8071 335.06C50.9665 330.962 49.7056 326.864 48.6549 322.556C47.9193 318.458 47.1838 314.15 46.6584 309.526C45.8178 300.49 45.2924 289.982 48.865 277.899C51.2817 285.674 56.5355 282.627 62.4197 285.464C53.4883 288.932 58.637 304.062 53.068 315.095C56.0101 309.211 58.4269 311.628 58.8472 313.519L60.5284 290.613C65.2568 293.135 65.7821 287.671 70.4054 283.468C58.8472 283.152 71.246 265.71 72.2968 256.043C75.6592 257.199 77.9709 260.771 72.4019 270.228C84.8008 263.083 67.7786 250.159 80.2825 243.119C78.9166 245.43 77.7607 246.481 78.7064 248.267C79.2318 241.332 89.5292 229.249 90.1596 234.082L88.7936 236.394C91.4205 232.716 94.4677 227.988 97.4098 222.839C100.667 217.796 104.345 212.752 107.287 207.603C113.381 197.516 117.059 187.849 114.747 184.172C115.693 184.802 121.472 192.788 122.313 194.784C121.367 180.494 121.367 165.888 121.787 150.442C125.465 157.798 145.85 162.631 139.02 176.501C142.802 174.294 146.69 170.932 151.313 163.051C148.371 164.102 138.179 160.109 140.596 156.852C154.676 155.591 149.527 154.961 164.343 151.283C160.035 152.964 155.516 140.775 161.085 136.257C161.506 138.359 169.281 144.873 168.231 147.5C169.807 140.67 171.488 133.735 173.8 127.431C171.593 131.739 179.474 135.732 184.517 136.047C181.68 135.311 196.391 127.536 199.228 123.858L191.873 125.96C208.054 115.767 198.072 101.267 215.409 91.2849C214.569 94.6473 218.246 107.151 227.283 103.369C227.703 99.6909 228.124 90.4443 230.856 81.1977C233.587 72.0561 238.316 62.074 245.566 55.9796L250.189 57.6608C253.867 54.5085 257.44 51.041 261.432 48.4142C258.911 53.8781 254.392 64.1755 249.559 74.0525C244.831 84.0347 239.892 93.5966 236.214 99.6909C243.885 98.8503 239.892 102.423 249.349 97.4843C254.182 98.7453 246.407 104.314 243.675 105.89L266.476 97.2742C264.48 94.3321 268.052 90.6545 271.625 87.0819C275.407 83.9296 279.4 80.9875 277.824 78.3606C270.049 83.2992 263.114 90.024 256.074 96.0133C254.077 93.0712 255.338 86.8717 259.541 80.4621C263.534 73.7373 270.784 67.9582 279.716 65.4364C285.074 66.4871 280.976 78.3606 282.237 80.4621C283.498 77.415 296.423 70.2698 298.524 71.4257L292.745 77.6251C297.789 77.2048 300.731 73.6322 304.198 70.3749C307.666 67.2226 311.869 65.1211 318.488 66.8023C322.586 66.1719 332.463 72.5815 332.148 68.3785C323.952 62.179 316.072 38.432 319.329 31.392C320.17 31.392 326.264 31.9173 332.779 32.6529C339.293 33.1782 346.333 35.4899 349.17 36.9609C357.156 42.1096 341.5 53.3527 348.435 57.7659C348.33 55.8745 351.587 52.9324 353.058 51.9867C357.681 52.9324 352.323 58.1862 361.464 55.8745C361.99 48.5192 380.483 53.5629 365.037 49.2548C373.968 45.9974 374.914 48.7294 385.737 47.7837C381.744 43.3705 394.353 31.6021 404.125 29.0803C403.599 30.9717 405.911 33.1782 406.962 34.229C411.9 34.229 416.208 34.229 420.201 34.4391C424.194 34.8594 427.977 35.7 431.549 36.2254C438.905 37.4863 445.945 38.6422 454.981 39.1675C456.557 40.9538 464.963 43.5807 460.971 46.4177C463.597 45.472 466.224 43.4756 471.793 44.1061C481.565 51.8816 459.499 43.1604 466.645 51.7766C467.8 47.7837 481.355 48.204 489.656 46.838C488.29 40.1132 471.583 42.8452 463.597 44.2111C464.438 35.3848 479.359 28.2397 499.848 27.294C515.715 27.9245 505.312 34.3341 508.254 33.4935C522.229 37.9066 529.164 35.7 535.574 33.9138C541.984 32.1275 547.868 30.6564 558.48 38.2219C565.836 46.9431 555.223 48.9395 555.854 53.5629C549.654 52.5121 545.451 49.8852 541.668 47.4685C537.886 45.2619 534.523 43.0553 530.32 42.1096L539.672 47.2583C535.259 48.0989 526.853 47.3634 522.86 44.6315C529.375 50.7258 569.198 59.1318 587.061 73.2119C591.369 73.2119 598.304 74.3678 596.413 70.9003L589.793 68.5886C585.8 61.6537 604.503 68.5886 597.253 62.8095C602.297 63.4399 607.761 63.8602 613.435 65.1211C616.272 65.7516 619.214 66.5922 622.051 67.8531C624.783 69.3242 627.515 71.1104 630.142 73.5272L629.091 80.4621C629.827 78.6759 623.417 72.4764 619.214 72.2663C625.624 72.6866 632.454 90.4443 642.12 86.4514L636.341 77.7302C646.113 80.1469 660.929 80.1469 669.44 89.6037C668.599 81.0926 666.813 88.4479 663.871 77.0997C665.237 88.7631 636.867 60.1826 642.225 74.7881C638.863 62.9146 631.088 63.1247 623.837 51.4613C623.207 53.4578 625.729 56.9253 616.797 51.4613C616.062 51.7766 614.696 51.9867 613.855 52.0918C613.645 51.8817 613.54 51.7766 613.33 51.6715L613.75 52.1969C613.225 52.1969 613.12 52.3019 613.855 52.407C615.641 54.2984 617.007 56.1897 617.218 57.5557C610.388 59.6572 595.782 52.407 589.793 52.407C584.749 48.8345 593.05 51.2512 590.949 47.7837C588.007 47.7837 584.959 47.7837 581.912 47.9939C583.068 43.3705 569.513 35.0696 584.224 37.5914L571.93 32.863C565.521 27.8194 555.749 22.8808 548.919 22.7758C543.139 20.254 532.212 23.8265 538.516 21.6199L517.816 19.3083V18.1525C508.149 14.8951 497.327 15.7357 486.609 15.0002C475.786 14.4748 465.068 12.1632 453.72 7.75C446.785 8.5906 439.745 9.64136 428.292 7.75L426.086 3.54698C417.364 4.38759 399.396 0.4998 395.719 4.70281C393.197 2.07593 389.204 0.815026 384.371 0.289649C379.537 -0.340803 373.863 0.0794987 368.189 1.3404C356.736 3.54699 344.757 7.11955 336.877 7.3297L337.297 12.6885C326.684 14.2647 317.122 18.888 304.934 24.0367L306.93 28.3448C297.053 34.229 278.455 33.9138 261.643 40.4284C262.063 38.3269 266.581 37.1711 269.944 37.066C263.954 36.4356 258.49 37.5914 253.237 39.5878C248.193 41.8995 243.57 45.472 239.051 48.8345C230.12 55.8745 221.504 62.2841 211.417 63.9653C208.159 67.9582 204.902 69.2191 201.329 69.9546C201.75 69.7445 201.96 69.4292 202.275 69.114C201.855 69.3242 201.224 69.7445 200.594 70.0597C198.387 70.48 195.97 70.7952 193.554 71.4257C195.865 71.4257 198.072 71.1104 199.753 70.5851C196.601 72.5815 192.083 76.049 187.985 79.9368L183.151 76.8896C183.151 76.8896 182.521 77.415 182.101 77.7302C176.426 78.9911 179.684 82.0383 184.307 83.6144C182.311 85.6108 180.945 88.1326 180.104 90.2342C171.908 86.1362 170.227 101.057 160.245 97.5894C160.035 100.426 154.991 105.155 150.473 110.304C146.27 115.873 142.697 121.862 144.589 126.17C143.643 125.434 142.172 126.17 144.273 124.068C139.125 127.326 133.976 130.688 131.664 136.152L125.255 133.21C123.889 138.149 122.838 143.297 121.997 148.656C113.802 151.808 109.809 152.859 111.7 143.402C104.24 162.946 102.979 157.062 98.0403 174.189L95.3083 170.932C91.8408 175.765 90.685 186.588 85.8515 187.324C70.5105 192.578 48.5498 240.072 28.6905 268.232C35.7306 267.706 32.6834 270.649 29.2159 274.536C25.9586 278.529 21.9657 283.363 26.1687 285.674C22.8063 286.515 19.6541 290.403 19.1287 284.308C15.9764 301.751 5.15366 307.635 10.1973 321.715C6.93994 322.871 7.04501 316.882 4.94351 318.143C5.15366 319.719 5.99426 324.237 3.89275 325.603C1.79125 326.864 2.21155 322.451 1.68617 319.403C-2.41177 337.161 5.88918 340.944 13.6648 344.096C10.6176 347.879 8.93637 351.031 8.51607 353.973C8.41099 357.02 9.46175 359.963 11.6683 363.64C8.51607 366.162 4.94351 370.785 5.57396 359.858C4.31305 365.742 -4.30312 396.634 2.73692 397.895C0.950644 399.681 1.79125 406.406 2.52677 408.087C1.47602 421.747 0.740493 422.903 0.740493 436.457L2.0014 432.78C9.56682 438.139 3.78768 443.813 5.25873 454.635L4.41813 454.32C2.10647 466.824 2.94708 469.556 3.6826 472.078C4.73336 474.705 4.31305 477.227 3.15723 489.731L7.99069 487.839C19.1287 488.575 4.83843 510.01 11.248 523.565L13.2445 517.996C17.8678 524.721 3.99783 542.163 4.52321 550.569C3.99783 552.461 2.4217 548.258 1.05572 546.051C0.215117 568.222 8.09577 546.997 13.4546 561.602C10.9328 565.385 3.57753 560.656 6.09934 570.954C5.67903 573.896 11.0379 580.306 16.2916 587.661C21.7556 595.016 26.2738 603.737 26.484 611.408C27.6398 607.415 28.7956 603.632 33.8392 609.201C39.5133 618.343 37.0966 640.934 49.8107 645.347C49.8107 646.923 49.4955 647.764 48.9701 648.079C55.2746 654.174 66.3075 669.515 72.8222 671.196C67.5684 679.287 77.4455 688.533 86.3769 696.834C95.0982 705.24 104.345 711.545 98.2504 716.798L116.323 735.397L114.642 736.027C125.36 748.846 132.925 749.372 139.545 750.528C141.647 753.89 138.599 753.154 137.759 753.575C153.1 772.488 156.672 772.698 177.162 778.373L175.796 783.837C178.843 784.257 184.517 791.297 193.133 798.127C197.336 801.699 202.17 805.482 207.424 808.844C212.677 812.207 218.246 815.149 224.341 816.2C223.815 816.62 222.975 817.356 220.873 817.145C234.428 819.982 246.827 830.91 259.226 837.74C271.625 844.465 282.868 848.983 290.328 841.628C296.212 842.363 302.412 841.838 308.401 841.943C287.281 835.008 313.865 834.903 305.879 829.544C314.39 830.595 325.949 840.577 315.441 838.896L314.075 837.53C307.771 845.936 339.924 848.038 338.137 854.027C381.744 862.118 425.455 868.317 467.695 864.955C465.804 862.643 464.018 860.436 462.126 857.915C466.96 857.599 471.688 856.864 476.522 856.339C480.515 857.494 482.406 861.487 472.003 862.748C478.098 866.216 488.921 856.444 488.816 854.762C509.515 854.762 482.406 864.85 488.605 864.009L497.011 862.118L494.91 861.487C501.214 857.074 501.319 854.657 513.403 851.715C521.389 851.295 518.447 855.288 521.494 854.867C521.599 855.393 522.65 855.393 526.222 853.922L544.4 849.929L535.574 845.936C542.614 841.103 552.281 841.733 542.194 837.425C549.549 840.892 565.941 835.534 581.492 829.965C596.728 823.555 610.388 815.359 614.591 815.359C616.692 813.153 618.794 811.156 621.105 809.37C623.312 807.373 625.519 805.587 627.935 803.801C632.769 800.333 638.128 797.181 644.222 793.819C640.649 794.554 635.291 789.721 645.693 784.362C647.584 791.297 653.363 790.141 659.773 786.674C666.183 783.206 673.643 778.268 680.683 779.318C675.114 779.318 681.734 773.749 687.618 768.39C693.502 763.032 697.81 756.937 689.825 757.883C697.915 752.104 693.712 761.455 701.488 758.934C705.061 753.89 709.369 749.372 714.202 744.959C716.724 742.857 719.246 740.651 721.767 738.444C724.289 736.132 726.811 733.821 729.333 731.404C739.525 721.947 751.504 712.701 759.279 699.881C758.124 698.41 752.87 700.617 754.551 693.892L771.363 686.852C773.99 681.388 766.214 676.765 777.037 671.196C774.936 671.616 771.888 672.247 773.36 668.569C792.588 646.713 805.197 619.394 814.759 591.444C819.382 577.363 824.846 563.599 828.944 549.413C831.256 542.373 833.883 535.438 836.825 528.503C839.872 521.568 842.079 514.423 845.441 507.488C840.713 514.844 841.133 509.485 841.974 503.39C840.503 507.173 837.455 502.55 834.934 502.97C838.296 495.3 842.184 487.524 845.231 479.538C838.506 474.495 846.072 453.059 839.557 450.327L840.398 458.103C833.042 447.806 822.325 471.342 812.342 468.821C814.444 471.658 814.549 474.81 813.814 478.277C812.868 481.64 810.661 485.212 808.665 488.89C804.672 496.35 801.099 504.441 806.038 514.318C803.411 517.786 803.306 510.43 800.784 512.007C804.567 517.26 803.831 522.619 799.523 531.866L798.788 530.5C795.635 544.055 793.114 553.722 787.86 562.863C785.443 567.486 782.921 572.11 780.189 577.469C777.457 582.722 774.726 588.607 770.417 595.121H775.986C772.414 600.795 770.417 601.426 768.001 603.737C771.468 613.93 776.512 587.03 781.135 596.697C774.515 598.694 769.367 609.306 764.218 619.499C758.859 629.586 752.134 638.622 745.935 638.202C740.576 646.818 752.344 638.622 746.986 647.449L742.993 648.079L744.989 652.492C740.996 657.956 735.322 658.166 733.116 656.906C734.377 655.75 735.217 652.808 736.058 651.337C727.862 656.065 722.608 671.406 719.876 673.087L727.231 666.467C723.554 672.352 719.666 678.656 714.938 684.435C709.894 690.004 704.745 695.783 699.702 701.457C697.18 704.294 694.658 707.237 692.136 710.074C689.404 712.7 686.777 715.327 684.15 718.059C679.002 723.418 674.379 728.987 670.386 734.766L673.433 735.187C660.193 751.999 658.617 743.382 641.805 758.934L642.12 757.988C639.914 762.821 635.185 766.814 629.722 769.861C633.189 764.608 617.638 770.912 622.471 764.503C605.659 779.949 615.221 773.644 606.185 788.46L601.246 786.569C598.199 791.927 598.724 793.819 588.637 799.703C595.782 792.558 579.496 797.496 587.166 788.88C580.862 789.511 576.028 791.297 572.035 793.503C567.937 795.5 564.47 797.601 561.318 799.598C555.118 803.591 550.074 806.743 543.034 802.645C536.099 816.62 564.47 801.174 559.426 805.482C565.626 806.953 553.542 816.2 545.871 817.881C538.411 820.718 529.059 808.424 510.881 813.573C512.773 813.153 512.668 812.312 514.454 811.892C510.671 811.471 507.519 813.258 504.156 814.834C500.794 816.62 497.011 817.881 492.283 816.2C488.605 823.345 481.04 817.566 480.935 825.972L498.167 821.454C488.815 825.026 480.725 836.164 463.387 834.063C464.543 832.171 469.166 829.229 472.319 827.548C467.17 825.762 463.282 830.91 458.028 828.599C458.659 820.718 479.149 823.66 488.605 815.99C483.036 813.258 469.692 824.921 473.685 815.254C470.743 821.559 466.014 821.874 460.655 821.979C455.191 821.664 449.202 820.823 443.003 825.551L443.528 820.508C441.532 821.348 437.434 823.975 433.651 823.975L440.166 817.145C429.973 823.135 420.306 813.783 410.534 815.779C420.832 816.305 421.988 817.776 421.672 819.667C421.357 821.664 419.466 824.185 423.984 825.762C397.82 831.646 409.379 812.207 381.113 813.153C384.896 812.942 395.298 816.935 389.099 818.932C383.74 817.881 376.805 814.939 373.863 811.682C355.16 809.895 376.07 817.25 367.664 819.037C362.095 811.997 358.102 820.088 349.275 820.718L350.116 815.674C344.862 814.203 341.815 813.783 339.924 813.993C337.927 814.308 337.087 815.359 336.141 816.515C334.46 818.722 332.989 820.928 323.742 816.515L333.514 811.787L323.217 810.946L326.684 805.902C315.021 807.058 311.553 805.902 301.992 800.543C303.252 804.852 297.789 808.844 288.542 805.587C283.288 800.438 293.691 802.33 280.451 798.337C284.549 796.446 289.067 793.819 293.06 800.333C294.216 798.967 296.948 798.337 298.104 797.076C292.745 791.402 281.922 790.351 277.299 788.67C278.98 789.511 280.976 790.456 281.817 791.612C278.35 791.612 274.777 791.612 271.31 791.402L260.907 790.246C258.911 787.199 261.748 786.884 264.585 786.569C260.802 785.308 257.335 786.253 251.766 784.047C254.918 780.999 256.494 777.007 264.69 778.793L245.986 774.905C245.671 772.804 239.787 766.394 242.624 766.079C235.374 758.618 216.986 760.195 207.319 749.792C206.268 750.002 204.692 749.792 202.065 748.531C197.126 744.223 193.239 739.39 188.51 735.082C186.198 732.875 183.572 730.984 180.735 729.092C178.003 726.991 174.955 725.204 171.173 723.733L169.807 712.49C159.825 705.766 172.223 727.306 155.516 715.853C143.328 707.867 155.937 707.867 153.94 702.928C146.69 700.512 132.715 696.309 128.407 682.754C132.4 685.066 133.766 688.218 136.918 690.845L136.813 690.319ZM59.3725 564.86C61.369 567.276 66.4126 571.479 64.3111 574.526C57.7964 573.476 59.4776 570.113 59.3725 564.86ZM38.5676 338.737C39.6184 341.259 37.9372 344.411 35.1001 347.669C35.4154 344.832 36.361 341.785 38.5676 338.737ZM561.212 31.6021C561.212 31.6021 560.897 31.6021 560.792 31.7072C554.593 27.3991 556.799 28.9752 561.212 31.6021ZM574.557 38.8523C576.238 38.7472 576.343 38.0117 576.028 37.1711C574.557 38.0117 571.405 36.9609 567.937 35.2797C568.463 36.8559 569.934 38.432 574.557 38.8523ZM522.86 852.346L519.708 851.82C525.697 848.773 524.226 850.559 522.86 852.346Z" fill="#B3AD97"></path><path d="M39.3027 365.743C38.357 366.373 37.4113 366.478 36.3606 366.478C36.991 367.739 38.0418 367.949 39.3027 365.743Z" fill="#B3AD97"></path><path d="M206.793 749.159L207.108 749.475C207.108 749.475 207.739 749.159 207.949 748.949L206.793 749.159Z" fill="#B3AD97"></path><path d="M354.214 59.0285C351.377 58.7132 349.696 58.0828 348.435 57.2422C348.435 58.5031 350.011 59.3437 354.214 59.0285Z" fill="#B3AD97"></path><path d="M650.001 66.6966L640.965 62.8088C645.168 65.0154 646.008 66.9068 647.584 68.7981C648.005 67.6423 647.269 65.2256 650.001 66.8017V66.6966Z" fill="#B3AD97"></path><path d="M696.13 140.879C697.496 141.299 698.231 142.77 699.702 143.191L701.068 141.194C696.76 137.517 692.557 136.256 696.235 140.879H696.13Z" fill="#B3AD97"></path><path d="M648.636 85.5078C646.849 89.6058 652.944 90.9717 658.513 94.4392C658.197 94.2291 657.882 94.0189 657.567 93.7037C662.611 89.921 655.781 87.2941 648.636 85.5078Z" fill="#B3AD97"></path><path d="M659.773 95.1738C661.455 96.2246 663.241 97.3804 664.712 98.7464C666.708 97.2753 663.031 96.855 659.773 95.1738Z" fill="#B3AD97"></path><path d="M593.366 43.1595C595.783 45.5762 597.359 39.0616 598.305 41.3732C603.769 37.8007 576.239 38.326 593.366 43.1595Z" fill="#B3AD97"></path><path d="M645.378 100.009L646.323 94.4399L640.965 96.1211L645.378 100.009Z" fill="#B3AD97"></path><path d="M603.452 71.6377L612.069 77.4168C612.384 76.5762 613.75 76.6813 615.431 76.9965C609.862 74.0544 603.978 70.1666 603.557 71.6377H603.452Z" fill="#B3AD97"></path><path d="M615.431 76.9956C618.268 78.5717 621 80.2529 622.997 80.4631C621.42 79.6225 618.163 77.6261 615.431 76.9956Z" fill="#B3AD97"></path><path d="M632.663 94.1201L630.667 91.5983L624.783 87.6055L632.663 94.1201Z" fill="#B3AD97"></path><path d="M499.639 34.9653L488.291 34.7551C486.925 36.3313 489.657 37.9074 493.86 37.8023C496.697 36.9617 501.005 36.9617 499.639 34.9653Z" fill="#B3AD97"></path><path d="M528.639 56.9252C526.118 55.1389 526.223 53.9831 525.067 51.8816L523.07 58.081L528.639 56.9252Z" fill="#B3AD97"></path><path d="M497.747 50.8298C496.276 52.406 481.46 53.5618 494.91 55.243C496.276 53.4567 507.204 54.0872 497.747 50.8298Z" fill="#B3AD97"></path><path d="M334.354 44.525L337.086 43.6844L334.46 33.282L334.354 44.525Z" fill="#B3AD97"></path><path d="M214.148 122.281C226.022 118.078 213.098 115.241 224.341 112.088C225.496 108.411 215.199 114.61 216.565 111.248C211.521 117.447 207.424 118.183 214.148 122.281Z" fill="#B3AD97"></path><path d="M216.565 111.249C217.406 110.303 218.246 109.148 218.982 107.887C217.406 109.568 216.88 110.514 216.565 111.249Z" fill="#B3AD97"></path><path d="M851.64 463.254L854.267 454.322L850.379 459.996L851.64 463.254Z" fill="#B3AD97"></path><path d="M844.496 445.81L851.431 443.813L845.546 438.454C845.756 440.451 846.177 444.339 844.496 445.81Z" fill="#B3AD97"></path><path d="M65.6769 539.958H63.9957C62.6297 541.534 62.945 543.32 63.5754 546.892L65.782 539.958H65.6769Z" fill="#B3AD97"></path><path d="M103.82 637.572L102.979 635.891L99.5115 642.09L103.82 637.572Z" fill="#B3AD97"></path><path d="M164.869 700.933C162.347 698.516 158.564 696.31 156.357 693.473C162.137 698.621 160.245 707.027 164.869 700.933Z" fill="#B3AD97"></path><path d="M438 151.965L406.033 249.604C406.033 249.604 357.212 228.682 300.253 228.101C194.473 227.519 137.514 302.492 137.514 373.978C137.514 437.327 182.849 497.771 281.654 498.933C363.605 499.514 417.658 465.224 417.658 465.224C424.051 473.361 428.119 483.822 428.119 494.865C428.119 529.736 388.597 571 283.979 571C157.857 571 73 482.66 73 357.705C73 234.494 164.831 120 296.185 120C381.623 120 438 151.965 438 151.965Z" fill="#242424"></path><path d="M531.929 744.319C429.707 736.749 435.515 683.174 452.939 648.234C457.005 653.475 465.136 658.134 476.753 662.21C463.975 615.624 474.429 484.599 472.687 401.908C463.975 402.49 455.263 403.073 447.712 404.237L439 306.406C439 306.406 483.141 300 539.48 300C636.475 300 768.899 319.217 768.899 425.201C768.899 487.511 716.626 516.045 628.924 524.78V527.109C711.98 528.856 784 550.403 784 627.853C784 721.026 665.515 754.219 531.929 744.319ZM704.429 447.912C704.429 411.225 624.859 398.414 547.03 398.414C544.126 428.695 541.222 464.8 539.48 500.322C585.944 497.993 704.429 485.181 704.429 447.912ZM543.545 673.275C623.116 680.263 729.985 666.287 729.985 622.612C729.985 584.76 630.086 567.29 535.995 573.114C535.414 617.953 537.157 656.387 543.545 673.275Z" fill="#242424"></path></svg>