<svg xmlns="http://www.w3.org/2000/svg" width="80" height="81" viewBox="0 0 80 81" fill="none"><path d="M39.2627 78.82C60.2005 78.82 77.1739 61.8466 77.1739 40.9088C77.1739 19.9711 60.2005 2.99765 39.2627 2.99765C18.325 2.99765 1.35156 19.9711 1.35156 40.9088C1.35156 61.8466 18.325 78.82 39.2627 78.82Z" fill="#B3AD97"></path><path d="M79.54 40.6148C79.5204 40.9874 79.9223 40.8501 80.0007 40.909C79.8831 40.2815 79.4321 40.6345 79.54 40.6148Z" fill="#B3AD97"></path><path d="M78.0776 34.6246L78.2541 34.7129L77.7148 33.8992L78.0776 34.6246Z" fill="#B3AD97"></path><path d="M76.8311 29.1346C76.3115 29.8405 77.4488 31.0758 77.4684 32.115L77.3507 32.311L78.0174 32.6248C77.6252 31.4483 76.8802 30.017 76.8311 29.1346Z" fill="#B3AD97"></path><path d="M77.2036 25.7521C77.0173 26.0364 76.7526 25.2031 77.3703 26.4678C77.3703 26.3894 77.3801 26.3698 77.3899 26.3208C77.3409 26.2031 77.282 26.0364 77.2036 25.7521Z" fill="#B3AD97"></path><path d="M77.4023 26.3207C77.6376 26.8893 77.4808 25.8599 77.4023 26.3207Z" fill="#B3AD97"></path><path d="M76.1484 23.7618L76.7171 24.3893C76.7955 24.1736 76.5112 23.4971 76.7367 23.6932C76.2563 22.9874 76.1877 23.2226 76.1484 23.7618Z" fill="#B3AD97"></path><path d="M75.3633 23.3013L75.6378 23.6346C75.6672 23.5366 75.6378 23.4287 75.3633 23.3013Z" fill="#B3AD97"></path><path d="M76.205 24.3307L75.6266 23.6248C75.5775 23.7816 75.3717 23.8797 75.8717 23.9581C75.656 23.9777 75.9109 24.0562 76.205 24.3307Z" fill="#B3AD97"></path><path d="M76.3334 24.8206C76.402 25.2813 76.5001 25.8598 75.9805 25.2127C76.6079 26.595 77.0197 26.2029 76.3334 24.8206Z" fill="#B3AD97"></path><path d="M76.0509 29.0855C76.0509 29.2816 76.0509 29.4875 76.0312 29.6934L76.3842 30.1051C76.2273 29.8894 76.2763 28.9777 76.0509 29.0855Z" fill="#B3AD97"></path><path d="M74.0579 19.1542C73.901 19.1934 73.8618 19.5953 73.7344 19.7522L74.1853 20.1738C74.1167 19.86 73.8912 19.311 74.0579 19.164V19.1542Z" fill="#B3AD97"></path><path d="M73.7233 19.7422L73.0469 19.1246C73.4292 19.8108 73.6057 19.8697 73.7233 19.7422Z" fill="#B3AD97"></path><path d="M74.5962 23.5172L75.704 24.576L74.4688 23.2721L74.5962 23.5172Z" fill="#B3AD97"></path><path d="M72.1147 16.3111L72.703 16.5169L71.7422 16.0954L72.1147 16.3111Z" fill="#B3AD97"></path><path d="M70.678 14.5365C71.1486 14.6345 70.6976 13.8404 71.0995 14.0267C70.6388 13.5953 70.0898 13.3601 69.6094 13.1542C70.0407 13.4483 70.3839 13.8699 70.678 14.5463V14.5365Z" fill="#B3AD97"></path><path d="M68.8438 12.7818C69.0594 12.9191 69.3241 13.0269 69.6182 13.1543C69.3928 12.9975 69.1379 12.87 68.8438 12.7818Z" fill="#B3AD97"></path><path d="M72.2742 17.8308C72.3036 17.723 72.4213 17.4877 72.2056 17.0269L72.0781 17.5563C72.1369 17.6445 72.2056 17.7426 72.284 17.8406L72.2742 17.8308Z" fill="#B3AD97"></path><path d="M72.0681 17.566V17.5464C71.8524 17.2327 71.7053 17.0268 71.6367 16.9287C71.6857 17.0072 71.823 17.2032 72.0681 17.566Z" fill="#B3AD97"></path><path d="M72.3351 17.9093C72.3351 17.9093 72.3057 17.8603 72.2861 17.8407C72.2763 17.8897 72.2763 17.9191 72.3351 17.9093Z" fill="#B3AD97"></path><path d="M73.8825 21.321C73.4119 20.9974 72.6472 20.2229 72.8727 21.2817C73.3041 21.4484 73.1766 20.8406 73.8825 21.321Z" fill="#B3AD97"></path><path d="M72.1562 18.5465C72.3131 18.8112 72.4308 19.1053 72.568 19.3798C72.6562 19.3014 72.6955 19.0759 72.9307 19.2229C72.666 18.9975 72.4308 18.7524 72.1562 18.5367V18.5465Z" fill="#B3AD97"></path><path d="M71.7734 18.2621L72.1558 18.5464L71.9793 18.2523L71.7734 18.2621Z" fill="#B3AD97"></path><path d="M69.6487 14.2427C69.237 14.0662 68.9331 13.7427 68.5703 13.3898C68.8742 13.8407 69.2076 14.2819 69.5605 14.6741C69.7076 14.6447 70.0409 14.6643 69.6487 14.2427Z" fill="#B3AD97"></path><path d="M70.8421 15.8502C70.8421 15.8502 70.793 15.811 70.7734 15.7914C70.7734 15.86 70.793 15.8992 70.8421 15.8502Z" fill="#B3AD97"></path><path d="M65 9.99759L65.0098 10.1054L65.0784 10.0662L65 9.99759Z" fill="#B3AD97"></path><path d="M69.5591 14.7917C69.765 15.1447 70.01 15.2525 70.2551 15.3407C70.0198 15.1447 69.7846 14.929 69.5591 14.6741C69.4904 14.6839 69.461 14.7133 69.5591 14.7917Z" fill="#B3AD97"></path><path d="M67.7344 11.9091C67.8422 12.115 67.9501 12.3404 68.0677 12.5659C68.0285 12.311 67.8716 11.8797 67.7344 11.9091Z" fill="#B3AD97"></path><path d="M70.7734 15.6053L70.8225 15.6445C70.8225 15.4778 70.793 15.5268 70.7734 15.6053Z" fill="#B3AD97"></path><path d="M70.7774 15.6051C70.6009 15.4777 70.4245 15.409 70.2578 15.3404C70.4343 15.5169 70.6009 15.6639 70.7676 15.7914C70.7676 15.7326 70.7676 15.6639 70.7676 15.6051H70.7774Z" fill="#B3AD97"></path><path d="M62.1764 11.213C62.4509 10.9581 63.5293 11.2228 63.8822 12.1542C64.696 12.5071 65.1469 11.1836 65.0195 10.1052C64.8822 10.2228 64.8038 10.3111 63.9313 9.94833C64.0881 10.2719 65.1469 11.6346 64.3528 11.3895C63.3528 10.7522 63.6862 10.6836 63.3626 10.1542C63.4509 10.8209 61.7254 9.81108 61.5195 10.5464L62.4803 10.9483C62.4313 11.0464 62.0293 10.9679 62.1862 11.213H62.1764Z" fill="#B3AD97"></path><path d="M66.2938 11.3208L66.6075 11.5365C66.333 11.1934 66.2056 10.8698 65.9801 10.2522C65.382 9.9679 65.1958 9.98751 65.0781 10.0561L66.431 11.36L66.2938 11.311V11.3208Z" fill="#B3AD97"></path><path d="M67.8525 12.7132C67.3623 12.772 66.5486 12.321 66.6467 13.0073C67.4506 13.7426 67.4212 13.3112 68.0094 13.6544C66.7349 12.4093 68.529 13.87 67.8231 12.7524C68.1172 12.9681 68.3427 13.1838 68.5584 13.3995C68.3721 13.125 68.2153 12.8504 68.0682 12.5759C68.0682 12.5956 68.0682 12.6054 68.0682 12.625C68.0878 12.723 68.0682 12.7622 68.0388 12.674C68.0388 12.674 68.0192 12.6544 68.0094 12.6544C67.9604 12.6838 67.9016 12.6936 67.8427 12.7034C67.5486 12.2524 67.8623 12.5661 68.0094 12.6544C68.029 12.6446 68.0486 12.6446 68.0682 12.625C67.6172 12.2132 67.078 11.8995 66.5977 11.5367C66.8329 11.8407 67.2153 12.1348 67.8427 12.7034L67.8525 12.7132Z" fill="#B3AD97"></path><path d="M71.6168 20.9484C71.6168 20.8798 71.6462 20.87 71.6756 20.8504C71.5776 20.7817 71.5188 20.7621 71.6168 20.9484Z" fill="#B3AD97"></path><path d="M71.4609 20.2128C71.5786 20.2912 71.7747 20.2912 71.9511 20.6638C72.0296 21.0363 71.7747 20.7716 71.6668 20.8598C71.8923 21.0069 72.3727 21.4383 72.1472 20.6736L72.0394 20.5951C71.8041 19.9285 71.7649 18.8599 71.8825 18.9285C71.6766 19.3207 71.5492 19.6246 71.4707 20.2226L71.4609 20.2128Z" fill="#B3AD97"></path><path d="M69.7641 16.4386C69.4307 16.0759 69.0386 15.7719 68.6562 15.4582L68.8719 16.2425L69.019 16.0759C69.4798 16.7621 69.5582 16.468 69.7641 16.4386Z" fill="#B3AD97"></path><path d="M65.0084 9.72286L65.4398 9.51698C65.0966 9.46796 64.7143 9.47777 64.3516 9.45816L64.9986 9.72286H65.0084Z" fill="#B3AD97"></path><path d="M63.4014 8.57605L63.6955 8.31135L63.1367 8.1839L63.4014 8.57605Z" fill="#B3AD97"></path><path d="M8.67969 59.0165L8.9738 59.291C8.84635 59.1538 8.75812 59.0656 8.67969 59.0165Z" fill="#B3AD97"></path><path d="M7.35432 56.5162L7.14844 56.5358C7.29549 56.6044 7.39353 56.624 7.35432 56.5162Z" fill="#B3AD97"></path><path d="M18.0517 6.63477C17.3066 6.66418 16.3655 6.57594 16.6792 6.89947L17.0812 7.15437C17.4243 6.85045 17.7478 6.7132 18.0517 6.63477Z" fill="#B3AD97"></path><path d="M2.18413 33.4773L2.34099 33.3302C2.23315 33.1538 2.13511 32.9969 2.04688 32.8499C2.09589 33.0459 2.1155 33.2518 2.19393 33.4773H2.18413Z" fill="#B3AD97"></path><path d="M3.8511 34.2227L3.46875 34.9286C3.5864 34.7717 3.71384 34.5462 3.8511 34.2227Z" fill="#B3AD97"></path><path d="M19.4023 69.879C19.6082 69.8496 19.8043 69.8202 20.0102 69.7712C19.4318 69.3888 19.569 69.7222 19.4023 69.879Z" fill="#B3AD97"></path><path d="M44.9798 1.12521C44.4504 0.880112 44.0191 0.742859 43.6367 0.664429C44.2838 1.00756 44.7543 1.44873 44.9798 1.12521Z" fill="#B3AD97"></path><path d="M4.14844 60.2416C4.35432 60.4377 4.49157 60.4867 4.57 60.4377C4.36412 60.2416 4.20726 60.1436 4.14844 60.2416Z" fill="#B3AD97"></path><path d="M42.0312 0.556541C42.1293 0.605559 42.2175 0.634971 42.3156 0.674186C42.7273 0.634971 43.1489 0.566344 43.6391 0.674186C43.1685 0.419288 42.5901 0.311446 42.0312 0.566344V0.556541Z" fill="#B3AD97"></path><path d="M68.6758 60.7518C68.6758 60.7518 68.7444 60.693 68.7836 60.6734C68.7444 60.6342 68.715 60.6734 68.6758 60.7518Z" fill="#B3AD97"></path><path d="M78.6487 46.2027C78.6487 46.389 78.5997 46.6733 78.5703 46.9478C78.6193 46.8203 78.6487 46.5948 78.6487 46.2027Z" fill="#B3AD97"></path><path d="M56.7344 4.33071C57.1265 4.48757 56.8128 4.32091 56.7344 4.33071Z" fill="#B3AD97"></path><path d="M57.7646 6.69366C57.6666 6.69366 57.5784 6.72308 57.5195 6.80151C57.598 6.72308 57.6764 6.69366 57.7646 6.69366Z" fill="#B3AD97"></path><path d="M37.9591 3.13504C37.9591 3.13504 37.9395 3.13504 37.9297 3.13504C38.0473 3.21347 38.0277 3.19386 37.9591 3.13504Z" fill="#B3AD97"></path><path d="M57.2184 4.77212C57.1008 4.65447 56.9537 4.53683 56.7969 4.42899C56.8557 4.49761 56.993 4.60545 57.2184 4.77212Z" fill="#B3AD97"></path><path d="M57.2266 4.5563C57.354 4.63474 57.4422 4.69356 57.5403 4.75238C57.6187 4.71317 57.5991 4.65434 57.2266 4.5563Z" fill="#B3AD97"></path><path d="M56.1973 4.09579C56.413 4.19383 56.6091 4.31148 56.7855 4.42912C56.7267 4.3703 56.7071 4.33108 56.7267 4.33108C56.6091 4.28207 56.4522 4.21344 56.1875 4.09579H56.1973Z" fill="#B3AD97"></path><path d="M44.0703 77.1828C44.0703 77.1828 44.1291 77.1926 44.1585 77.2122C44.5115 76.9769 44.3546 77.0358 44.0703 77.1828Z" fill="#B3AD97"></path><path d="M12.9533 16.4971C12.9533 16.4971 12.9533 16.4677 12.9631 16.4481C12.9435 16.4481 12.9337 16.4677 12.9141 16.4775L12.9533 16.4971Z" fill="#B3AD97"></path><path d="M12.2953 17.6934C12.2757 16.9287 12.5502 16.7229 12.9129 16.4876L11.707 15.9876C11.8933 16.566 12.0894 17.1346 12.2953 17.6934Z" fill="#B3AD97"></path><path d="M12.765 64.4084L12.4316 63.477C13.6571 63.879 14.0002 64.5947 13.8434 63.6143C13.3238 63.9966 12.6473 63.4084 12.0983 62.7221C11.5493 62.0359 10.9905 61.3496 10.4121 61.6829L10.2748 61.0359C10.3729 61.1829 10.4513 61.1633 10.5395 61.3006C10.3532 60.0065 9.23561 61.1339 8.56896 59.7124C8.37288 59.1928 8.35327 58.781 8.6768 59.0163L7.76505 58.1634C7.61799 57.8497 7.85328 57.8203 8.01014 58.1242C7.67681 57.6144 7.41211 57.0752 7.1082 56.5458H7.14741C6.84349 56.3987 6.29448 55.9967 6.03959 55.7909C6.01017 55.2909 6.27488 55.9477 6.37291 55.7713C6.12782 55.5066 5.87292 55.2517 5.64743 54.9772C5.73567 54.7125 5.93174 54.7517 6.12782 54.9379C6.3435 55.1144 6.57879 55.4281 6.70624 55.7517C7.1082 55.0556 6.94153 54.9085 6.65722 54.6634C6.40233 54.4085 6.02978 54.0262 6.04939 52.9478L6.52977 53.7713C7.02977 52.938 6.52977 52.3497 6.61801 51.2419C6.46115 51.5262 6.21605 53.5948 5.53959 52.6929C5.53959 52.3694 5.42195 51.987 4.98078 51.4968C5.43175 51.3498 5.17685 50.8302 4.98078 50.1439L5.59842 50.0263C5.23568 49.3302 4.94156 49.4674 4.54941 49.0949C4.39255 48.242 4.81411 47.9675 5.19646 47.693C5.08862 46.3302 4.56902 48.7812 4.21608 47.193C4.2455 46.6047 4.16707 46.1244 4.01021 45.6244C3.85334 45.1244 3.58864 44.6048 3.39257 43.9185C3.56904 43.0852 3.78472 44.0263 3.95138 43.7224L3.41218 43.0362C3.41218 42.8597 3.56904 42.9087 3.64747 42.9283C3.42198 42.3303 3.02002 42.9185 2.80434 41.9479C2.46121 41.8303 2.65728 41.3107 2.91218 40.7029C3.18669 40.0852 3.45139 39.3794 3.08865 38.7617C3.28473 38.4774 3.46119 38.9284 3.71609 38.85C3.28473 37.1931 3.38276 37.4382 2.91218 36.0167L3.49061 34.9383C2.90238 35.7029 2.51023 34.5461 2.20631 33.4873C1.93181 33.752 1.69652 33.9775 1.57887 34.1441C1.54946 33.5951 1.51024 33.0461 1.54946 32.5167C1.69652 32.3501 1.86318 32.5559 2.05925 32.8599C2.03965 32.7422 2.01024 32.6344 1.98082 32.5461C2.34356 32.0461 2.62787 32.4187 2.87297 32.8795L2.35337 33.3402C2.66709 33.801 3.02983 34.2226 3.40237 34.2128C3.34355 34.1049 3.31414 33.8991 3.31414 33.6932C3.40237 33.8108 3.4808 33.8892 3.54943 33.8598C3.62786 33.8206 3.49061 33.6344 3.41218 33.3696L4.17687 33.1834L3.92197 33.0461L4.83372 31.2618C4.75529 30.8795 4.63765 30.4971 4.53961 30.0952C4.47098 29.7128 4.40236 29.3109 4.35334 28.8795C4.27491 28.0364 4.22589 27.056 4.55922 25.9286C4.7847 26.6541 5.27489 26.3698 5.8239 26.6345C4.99058 26.958 5.47097 28.3697 4.95137 29.3991C5.22587 28.8501 5.45136 29.0756 5.49057 29.2521L5.64743 27.1148C6.0886 27.3501 6.13762 26.8403 6.56899 26.4482C5.49057 26.4188 6.64742 24.7913 6.74546 23.8894C7.05918 23.9972 7.27486 24.3306 6.75526 25.2129C7.91211 24.5463 6.32389 23.3404 7.49054 22.6835C7.36309 22.8992 7.25525 22.9973 7.34349 23.1639C7.39251 22.5169 8.35328 21.3894 8.4121 21.8404L8.28465 22.0561C8.52974 21.713 8.81405 21.2718 9.08856 20.7914C9.39247 20.3208 9.73561 19.8502 10.0101 19.3699C10.5787 18.4287 10.9219 17.5268 10.7062 17.1836C10.7944 17.2424 11.3336 17.9875 11.4121 18.1738C11.3238 16.8405 11.3238 15.4778 11.363 14.0366C11.7062 14.7229 13.6081 15.1738 12.9709 16.4679C13.3238 16.2621 13.6865 15.9483 14.1179 15.2131C13.8434 15.3111 12.8924 14.9386 13.1179 14.6346C14.4316 14.517 13.9512 14.4582 15.3336 14.115C14.9316 14.2719 14.51 13.1347 15.0296 12.7131C15.0689 12.9092 15.7943 13.517 15.6963 13.7621C15.8434 13.1249 16.0002 12.4778 16.2159 11.8896C16.01 12.2915 16.7453 12.6641 17.2159 12.6935C16.9512 12.6249 18.3237 11.8994 18.5884 11.5563L17.9021 11.7523C19.4119 10.8014 18.4806 9.44845 20.0982 8.51709C20.0198 8.83081 20.3629 9.99746 21.206 9.64452C21.2452 9.30139 21.2844 8.43866 21.5393 7.57593C21.7942 6.723 22.2354 5.79164 22.9119 5.22302L23.3432 5.37988C23.6864 5.08577 24.0197 4.76225 24.3922 4.51715C24.157 5.02695 23.7354 5.98772 23.2844 6.90927C22.8432 7.84063 22.3825 8.73277 22.0393 9.30139C22.755 9.22296 22.3825 9.55629 23.2648 9.09551C23.7158 9.21316 22.9903 9.73276 22.7354 9.87981L24.8628 9.07591C24.6766 8.8014 25.0099 8.45827 25.3432 8.12494C25.6961 7.83083 26.0687 7.55632 25.9216 7.31123C25.1962 7.772 24.5491 8.39944 23.8923 8.95826C23.706 8.68375 23.8236 8.10533 24.2158 7.5073C24.5883 6.87986 25.2648 6.34065 26.0981 6.10536C26.5981 6.2034 26.2157 7.31123 26.3334 7.5073C26.451 7.22299 27.6569 6.55634 27.853 6.66418L27.3138 7.2426C27.7843 7.20338 28.0589 6.87006 28.3824 6.56614C28.7059 6.27203 29.0981 6.07595 29.7157 6.23281C30.098 6.17399 31.0196 6.77202 30.9902 6.37987C30.2255 5.80145 29.4902 3.58579 29.7941 2.92894C29.8726 2.92894 30.4412 2.97796 31.049 3.04659C31.6568 3.09561 32.3137 3.31129 32.5784 3.44854C33.3235 3.92893 31.8627 4.97793 32.5098 5.38969C32.5 5.21322 32.8039 4.93871 32.9411 4.85048C33.3725 4.93871 32.8725 5.4289 33.7254 5.21322C33.7745 4.52696 35.4999 4.99754 34.0588 4.59558C34.8921 4.29166 34.9803 4.54656 35.9901 4.45833C35.6176 4.04657 36.794 2.94855 37.7058 2.71326C37.6567 2.88973 37.8724 3.0956 37.9705 3.19364C38.4312 3.19364 38.8332 3.19364 39.2057 3.21325C39.5783 3.25247 39.9312 3.3309 40.2645 3.37991C40.9508 3.49756 41.6077 3.6054 42.4508 3.65442C42.5978 3.82108 43.3821 4.06618 43.0096 4.33088C43.2547 4.24265 43.4998 4.05637 44.0194 4.1152C44.9311 4.84068 42.8723 4.02696 43.539 4.83087C43.6468 4.45833 44.9115 4.49754 45.686 4.3701C45.5586 3.74265 43.9998 3.99755 43.2547 4.125C43.3331 3.30148 44.7253 2.63483 46.637 2.54659C48.1174 2.60542 47.1468 3.20345 47.4213 3.12502C48.7252 3.53677 49.3722 3.3309 49.9703 3.16423C50.5683 2.99757 51.1173 2.86031 52.1075 3.56619C52.7938 4.3799 51.8036 4.56617 51.8624 4.99754C51.284 4.8995 50.8918 4.6544 50.5389 4.42892C50.186 4.22304 49.8722 4.01716 49.4801 3.92893L50.3526 4.40931C49.9409 4.48774 49.1566 4.41911 48.784 4.16422C49.3919 4.73283 53.1075 5.51714 54.7741 6.83084C55.1761 6.83084 55.8231 6.93868 55.6467 6.61516L55.029 6.39948C54.6565 5.75243 56.4016 6.39948 55.7251 5.86027C56.1957 5.91909 56.7055 5.95831 57.2349 6.07595C57.4996 6.13477 57.7741 6.2132 58.0388 6.33085C58.2937 6.4681 58.5486 6.63477 58.7937 6.86025L58.6956 7.5073C58.7643 7.34064 58.1662 6.76222 57.7741 6.74261C58.3721 6.78182 59.0094 8.43866 59.9113 8.06612L59.3721 7.2524C60.2838 7.47789 61.6662 7.47789 62.4603 8.36023C62.3819 7.56612 62.2152 8.25239 61.9407 7.19358C62.0681 8.2818 59.4211 5.61517 59.9211 6.9779C59.6074 5.87007 58.8819 5.88968 58.2054 4.80146C58.1466 4.98773 58.3819 5.31126 57.5486 4.80146C57.48 4.83087 57.3525 4.85048 57.2741 4.86028C57.2545 4.84068 57.2447 4.83087 57.2251 4.82107L57.2643 4.87009C57.2153 4.87009 57.2055 4.87989 57.2741 4.8897C57.4408 5.06616 57.5682 5.24263 57.5878 5.37008C56.9506 5.56616 55.5878 4.8897 55.029 4.8897C54.5584 4.55637 55.3329 4.78185 55.1369 4.45833C54.8624 4.45833 54.5781 4.45833 54.2937 4.47794C54.4016 4.04657 53.1369 3.27207 54.5094 3.50736L53.3624 3.06619C52.7644 2.59561 51.8526 2.13484 51.2154 2.12503C50.6762 1.88974 49.6566 2.22307 50.2448 2.01719L48.3134 1.80151V1.69367C47.4115 1.38975 46.4017 1.46818 45.4017 1.39955C44.3919 1.35053 43.3919 1.13485 42.3331 0.723093C41.6861 0.801523 41.0292 0.899561 39.9606 0.723093L39.7547 0.330942C38.941 0.409372 37.2646 0.0466325 36.9215 0.438783C36.6862 0.193689 36.3136 0.0760438 35.8627 0.0270249C35.4117 -0.0317977 34.8823 0.00741741 34.3529 0.125063C33.2843 0.330942 32.1666 0.66427 31.4314 0.683878L31.4706 1.18387C30.4804 1.33093 29.5882 1.76229 28.451 2.24268L28.6373 2.64463C27.7157 3.19364 25.9805 3.16423 24.4118 3.77207C24.4511 3.57599 24.8726 3.46815 25.1863 3.45834C24.6275 3.39952 24.1177 3.50736 23.6275 3.69363C23.157 3.90932 22.7256 4.24265 22.304 4.55637C21.4707 5.21322 20.6668 5.81125 19.7256 5.96811C19.4217 6.34065 19.1178 6.4583 18.7845 6.52692C18.8237 6.50732 18.8433 6.47791 18.8727 6.44849C18.8335 6.4681 18.7747 6.50732 18.7159 6.53673C18.51 6.57594 18.2845 6.60535 18.059 6.66418C18.2747 6.66418 18.4806 6.63477 18.6374 6.58575C18.3433 6.77202 17.9218 7.09554 17.5394 7.45828L17.0884 7.17397C17.0884 7.17397 17.0296 7.22299 16.9904 7.2524C16.461 7.37005 16.7649 7.65436 17.1963 7.80142C17.01 7.98769 16.8826 8.22298 16.8041 8.41905C16.0394 8.03671 15.8826 9.42884 14.9512 9.10532C14.9316 9.37002 14.461 9.81119 14.0395 10.2916C13.6473 10.8112 13.314 11.37 13.4904 11.7719C13.4022 11.7033 13.265 11.7719 13.461 11.5759C12.9807 11.8798 12.5003 12.1935 12.2846 12.7033L11.6866 12.4288C11.5591 12.8896 11.4611 13.37 11.3826 13.8699C10.6179 14.1641 10.2454 14.2621 10.4219 13.3798C9.7258 15.2033 9.60816 14.6542 9.14738 16.2523L8.89248 15.9483C8.56896 16.3993 8.46112 17.4091 8.01014 17.4777C6.57879 17.9679 4.5298 22.3992 2.67689 25.0266C3.33374 24.9776 3.04944 25.2521 2.72591 25.6149C2.42199 25.9874 2.04945 26.4384 2.4416 26.6541C2.12788 26.7325 1.83377 27.0952 1.78475 26.5266C1.49064 28.154 0.480848 28.7031 0.951429 30.0168C0.647512 30.1246 0.657316 29.5658 0.461241 29.6834C0.480848 29.8305 0.559278 30.252 0.363203 30.3795C0.167127 30.4971 0.206342 30.0854 0.157324 29.8011C-0.225023 31.4579 0.549474 31.8108 1.27495 32.105C0.990644 32.4579 0.833784 32.752 0.794569 33.0265C0.784765 33.3108 0.882802 33.5853 1.08868 33.9285C0.794568 34.1638 0.46124 34.5951 0.520063 33.5755C0.402418 34.1245 -0.401491 37.0068 0.255361 37.1245C0.0886972 37.2912 0.167127 37.9186 0.235754 38.0755C0.137716 39.3499 0.0690896 39.4578 0.0690896 40.7225L0.186735 40.3793C0.892606 40.8793 0.353399 41.4087 0.490652 42.4185L0.412222 42.3891C0.196539 43.5558 0.274969 43.8107 0.343595 44.046C0.441633 44.291 0.402418 44.5263 0.294576 45.693L0.74555 45.5165C1.78475 45.5851 0.451437 47.5851 1.04947 48.8498L1.23574 48.3302C1.6671 48.9576 0.373007 50.5851 0.422025 51.3694C0.373007 51.5458 0.22595 51.1537 0.098501 50.9478C0.0200709 53.0164 0.755354 51.036 1.25535 52.3988C1.02006 52.7517 0.333791 52.3105 0.569082 53.2713C0.529867 53.5458 1.02986 54.1438 1.52005 54.8301C2.02984 55.5164 2.45141 56.3301 2.47101 57.0458C2.57885 56.6732 2.6867 56.3203 3.15728 56.8399C3.68668 57.6928 3.46119 59.8006 4.64745 60.2124C4.64745 60.3594 4.61804 60.4379 4.56902 60.4673C5.15725 61.0359 6.18664 62.4672 6.79448 62.6241C6.30429 63.379 7.22584 64.2417 8.05916 65.0162C8.87287 65.8005 9.73561 66.3887 9.16699 66.8789L10.8532 68.6142L10.6964 68.673C11.6964 69.8691 12.4022 69.9181 13.0199 70.0259C13.2159 70.3397 12.9316 70.271 12.8532 70.3102C14.2846 72.0749 14.6179 72.0945 16.5296 72.6239L16.4022 73.1337C16.6865 73.173 17.2159 73.8298 18.0198 74.4671C18.4119 74.8004 18.8629 75.1533 19.3531 75.467C19.8433 75.7808 20.3629 76.0553 20.9315 76.1533C20.8825 76.1925 20.8041 76.2611 20.608 76.2415C21.8727 76.5062 23.0295 77.5258 24.1864 78.1631C25.3432 78.7905 26.3922 79.2121 27.0883 78.5258C27.6373 78.5944 28.2157 78.5454 28.7745 78.5552C26.804 77.9082 29.2843 77.8984 28.5392 77.3984C29.3333 77.4964 30.4118 78.4278 29.4314 78.2709L29.3039 78.1435C28.7157 78.9278 31.7157 79.1238 31.549 79.6827C35.6176 80.4375 39.6959 81.016 43.637 80.7022C43.4606 80.4866 43.2939 80.2807 43.1174 80.0454C43.5684 80.016 44.0096 79.9474 44.4606 79.8983C44.8331 80.0062 45.0096 80.3787 44.039 80.4964C44.6076 80.8199 45.6174 79.9081 45.6076 79.7513C47.5389 79.7513 45.0096 80.6924 45.588 80.614L46.3723 80.4375L46.1762 80.3787C46.7644 79.967 46.7742 79.7415 47.9017 79.467C48.6468 79.4278 48.3723 79.8003 48.6566 79.7611C48.6664 79.8101 48.7644 79.8101 49.0977 79.6729L50.7938 79.3003L49.9703 78.9278C50.6271 78.4768 51.5291 78.5356 50.5879 78.1337C51.2742 78.4572 52.8036 77.9572 54.2545 77.4376C55.6761 76.8396 56.9506 76.0749 57.3427 76.0749C57.5388 75.869 57.7349 75.6827 57.9505 75.5161C58.1564 75.3298 58.3623 75.1631 58.5878 74.9965C59.0388 74.6729 59.5388 74.3788 60.1074 74.0651C59.774 74.1337 59.2741 73.6827 60.2446 73.1828C60.4211 73.8298 60.9603 73.722 61.5583 73.3984C62.1564 73.0749 62.8524 72.6141 63.5093 72.7122C62.9897 72.7122 63.6073 72.1926 64.1563 71.6926C64.7053 71.1926 65.1073 70.624 64.3622 70.7122C65.1171 70.173 64.7249 71.0455 65.4504 70.8102C65.7838 70.3397 66.1857 69.9181 66.6367 69.5063C66.872 69.3103 67.1073 69.1044 67.3426 68.8985C67.5778 68.6828 67.8131 68.4671 68.0484 68.2417C68.9994 67.3593 70.117 66.4966 70.8425 65.3005C70.7347 65.1633 70.2445 65.3691 70.4013 64.7417L71.9699 64.0849C72.215 63.5751 71.4895 63.1437 72.4993 62.6241C72.3033 62.6633 72.019 62.7221 72.1562 62.379C73.9503 60.3398 75.1267 57.7908 76.0189 55.183C76.4503 53.8693 76.9601 52.585 77.3424 51.2615C77.5581 50.6047 77.8032 49.9576 78.0777 49.3106C78.362 48.6635 78.5679 47.9969 78.8816 47.3498C78.4404 48.0361 78.4796 47.5361 78.5581 46.9675C78.4208 47.3204 78.1365 46.889 77.9012 46.9283C78.2149 46.2126 78.5777 45.4871 78.862 44.742C78.2345 44.2714 78.9404 42.2715 78.3326 42.0166L78.411 42.7421C77.7247 41.7813 76.7248 43.9773 75.7934 43.742C75.9895 44.0067 75.9993 44.3009 75.9307 44.6244C75.8424 44.9381 75.6365 45.2714 75.4503 45.6146C75.0777 46.3106 74.7444 47.0655 75.2052 47.9871C74.9601 48.3106 74.9503 47.6243 74.715 47.7714C75.0679 48.2616 74.9993 48.7616 74.5973 49.6243L74.5287 49.4969C74.2346 50.7615 73.9993 51.6635 73.5091 52.5164C73.2836 52.9478 73.0484 53.3791 72.7935 53.8791C72.5386 54.3693 72.2837 54.9183 71.8817 55.5262H72.4013C72.068 56.0556 71.8817 56.1144 71.6562 56.3301C71.9797 57.281 72.4503 54.7713 72.8817 55.6732C72.264 55.8595 71.7837 56.8497 71.3033 57.8006C70.8033 58.7418 70.1758 59.5849 69.5974 59.5457C69.0974 60.3496 70.1955 59.5849 69.6955 60.4084L69.3229 60.4673L69.5092 60.879C69.1366 61.3888 68.6072 61.4084 68.4014 61.2908C68.519 61.1829 68.5974 60.9084 68.6759 60.7712C67.9112 61.2124 67.421 62.6437 67.1661 62.8006L67.8524 62.1829C67.5092 62.7319 67.1465 63.3202 66.7053 63.8594C66.2347 64.379 65.7543 64.9182 65.2838 65.4476C65.0485 65.7123 64.8132 65.9868 64.5779 66.2515C64.323 66.4966 64.0779 66.7417 63.8328 66.9966C63.3524 67.4966 62.9211 68.0162 62.5485 68.5554L62.8328 68.5946C61.5975 70.1632 61.4505 69.3593 59.8819 70.8102L59.9113 70.722C59.7054 71.173 59.2643 71.5455 58.7545 71.8298C59.078 71.3396 57.627 71.9279 58.078 71.3298C56.5094 72.771 57.4015 72.1828 56.5584 73.5651L56.0976 73.3886C55.8133 73.8886 55.8623 74.0651 54.9212 74.6141C55.5878 73.9475 54.0683 74.4082 54.7839 73.6043C54.1957 73.6631 53.7447 73.8298 53.3722 74.0357C52.9898 74.222 52.6663 74.418 52.3722 74.6043C51.7938 74.9768 51.3232 75.271 50.6663 74.8886C50.0193 76.1925 52.6663 74.7514 52.1957 75.1533C52.7742 75.2906 51.6467 76.1533 50.931 76.3102C50.235 76.5749 49.3624 75.4278 47.6664 75.9082C47.8429 75.869 47.8331 75.7906 47.9997 75.7513C47.6468 75.7121 47.3527 75.8788 47.0389 76.0258C46.7252 76.1925 46.3723 76.3102 45.9311 76.1533C45.588 76.82 44.8821 76.2808 44.8723 77.0651L46.4801 76.6435C45.6076 76.9768 44.8527 78.016 43.2351 77.8199C43.3429 77.6435 43.7743 77.369 44.0684 77.2121C43.588 77.0454 43.2253 77.5258 42.7351 77.3101C42.7939 76.5749 44.7057 76.8494 45.588 76.1337C45.0684 75.8788 43.8233 76.967 44.1959 76.0651C43.9214 76.6533 43.4802 76.6827 42.9802 76.6925C42.4704 76.6631 41.9116 76.5847 41.3332 77.0258L41.3822 76.5553C41.1959 76.6337 40.8136 76.8788 40.4606 76.8788L41.0685 76.2415C40.1175 76.8003 39.2155 75.9278 38.3038 76.1141C39.2646 76.1631 39.3724 76.3004 39.343 76.4768C39.3136 76.6631 39.1371 76.8984 39.5587 77.0454C37.1175 77.5945 38.196 75.7808 35.5587 75.869C35.9117 75.8494 36.8822 76.2219 36.3038 76.4082C35.8038 76.3102 35.1568 76.0357 34.8823 75.7317C33.1372 75.5651 35.0882 76.2513 34.3039 76.418C33.7843 75.7611 33.4117 76.516 32.5882 76.5749L32.6666 76.1043C32.1764 75.967 31.8921 75.9278 31.7157 75.9474C31.5294 75.9768 31.451 76.0749 31.3627 76.1827C31.2059 76.3886 31.0686 76.5945 30.2059 76.1827L31.1176 75.7415L30.1569 75.6631L30.4804 75.1925C29.3922 75.3004 29.0686 75.1925 28.1765 74.6925C28.2941 75.0945 27.7843 75.467 26.9216 75.1631C26.4314 74.6827 27.402 74.8592 26.1667 74.4867C26.5491 74.3102 26.9706 74.0651 27.3432 74.6729C27.451 74.5455 27.7059 74.4867 27.8138 74.369C27.3138 73.8396 26.304 73.7416 25.8726 73.5847C26.0295 73.6631 26.2157 73.7514 26.2942 73.8592C25.9706 73.8592 25.6373 73.8592 25.3138 73.8396L24.3432 73.7318C24.157 73.4475 24.4217 73.418 24.6864 73.3886C24.3334 73.271 24.0099 73.3592 23.4903 73.1533C23.7844 72.869 23.9315 72.4965 24.6962 72.6632L22.9511 72.3004C22.9217 72.1043 22.3727 71.5063 22.6374 71.4769C21.9609 70.7808 20.2452 70.9279 19.3433 69.9573C19.2453 69.9769 19.0982 69.9573 18.8531 69.8397C18.3923 69.4377 18.0296 68.9867 17.5884 68.5848C17.3727 68.3789 17.1276 68.2024 16.8629 68.026C16.6081 67.8299 16.3237 67.6632 15.9708 67.526L15.8434 66.477C14.912 65.8495 16.0688 67.8593 14.51 66.7907C13.3728 66.0456 14.5493 66.0456 14.363 65.5848C13.6865 65.3593 12.3826 64.9672 11.9807 63.7025C12.3532 63.9182 12.4807 64.2123 12.7748 64.4574L12.765 64.4084ZM5.53959 52.7027C5.72586 52.9282 6.19645 53.3203 6.00037 53.6046C5.39254 53.5066 5.5494 53.1929 5.53959 52.7027ZM3.59845 31.605C3.69648 31.8403 3.53962 32.1344 3.27492 32.4383C3.30433 32.1736 3.39257 31.8893 3.59845 31.605ZM52.3624 2.94855C52.3624 2.94855 52.333 2.94855 52.3232 2.95835C51.7448 2.5564 51.9506 2.70345 52.3624 2.94855ZM53.6075 3.62501C53.7643 3.6152 53.7741 3.54658 53.7447 3.46815C53.6075 3.54658 53.3134 3.44854 52.9898 3.29168C53.0389 3.43874 53.1761 3.58579 53.6075 3.62501ZM48.784 79.5258L48.4899 79.4768C49.0487 79.1925 48.9115 79.3591 48.784 79.5258Z" fill="#B3AD97"></path><path d="M3.66513 34.1246C3.5769 34.1835 3.48866 34.1933 3.39062 34.1933C3.44945 34.3109 3.54749 34.3305 3.66513 34.1246Z" fill="#B3AD97"></path><path d="M19.2969 69.8983L19.3263 69.9277C19.3263 69.9277 19.3851 69.8983 19.4047 69.8787L19.2969 69.8983Z" fill="#B3AD97"></path><path d="M33.047 5.50748C32.7823 5.47807 32.6255 5.41925 32.5078 5.34082C32.5078 5.45847 32.6549 5.5369 33.047 5.50748Z" fill="#B3AD97"></path><path d="M60.6478 6.22291L59.8047 5.86017C60.1968 6.06605 60.2753 6.24252 60.4223 6.41898C60.4615 6.31114 60.3929 6.08565 60.6478 6.23271V6.22291Z" fill="#B3AD97"></path><path d="M64.9497 13.1443C65.0772 13.1835 65.1458 13.3208 65.2831 13.36L65.4105 13.1737C65.0086 12.8306 64.6164 12.7129 64.9595 13.1443H64.9497Z" fill="#B3AD97"></path><path d="M60.5218 7.97809C60.3551 8.36044 60.9237 8.48788 61.4433 8.81141C61.4139 8.7918 61.3845 8.77219 61.3551 8.74278C61.8257 8.38985 61.1884 8.14475 60.5218 7.97809Z" fill="#B3AD97"></path><path d="M61.5586 8.87991C61.7155 8.97795 61.8821 9.08579 62.0194 9.21324C62.2056 9.07599 61.8625 9.03677 61.5586 8.87991Z" fill="#B3AD97"></path><path d="M55.3628 4.0269C55.5883 4.25239 55.7354 3.64456 55.8236 3.86024C56.3334 3.52691 53.7648 3.57593 55.3628 4.0269Z" fill="#B3AD97"></path><path d="M60.2164 9.33103L60.3047 8.81143L59.8047 8.96829L60.2164 9.33103Z" fill="#B3AD97"></path><path d="M56.3047 6.68399L57.1086 7.2232C57.138 7.14477 57.2655 7.15457 57.4223 7.18398C56.9027 6.90948 56.3537 6.54674 56.3145 6.68399H56.3047Z" fill="#B3AD97"></path><path d="M57.4219 7.1839C57.6866 7.33096 57.9415 7.48782 58.1277 7.50742C57.9807 7.42899 57.6768 7.24272 57.4219 7.1839Z" fill="#B3AD97"></path><path d="M59.0322 8.7816L58.8459 8.54631L58.2969 8.17377L59.0322 8.7816Z" fill="#B3AD97"></path><path d="M46.6153 3.26238L45.5565 3.24277C45.4291 3.38982 45.684 3.53688 46.0761 3.52708C46.3408 3.44865 46.7428 3.44865 46.6153 3.26238Z" fill="#B3AD97"></path><path d="M49.3243 5.31125C49.089 5.14458 49.0988 5.03674 48.991 4.84067L48.8047 5.41909L49.3243 5.31125Z" fill="#B3AD97"></path><path d="M46.4434 4.74252C46.3061 4.88958 44.9238 4.99742 46.1787 5.15428C46.3061 4.98762 47.3257 5.04644 46.4434 4.74252Z" fill="#B3AD97"></path><path d="M31.1953 4.15432L31.4502 4.07589L31.2051 3.10532L31.1953 4.15432Z" fill="#B3AD97"></path><path d="M19.9808 11.4091C21.0886 11.0169 19.8828 10.7522 20.9318 10.4581C21.0396 10.115 20.0788 10.6934 20.2063 10.3797C19.7357 10.9581 19.3534 11.0267 19.9808 11.4091Z" fill="#B3AD97"></path><path d="M20.207 10.3798C20.2855 10.2916 20.3639 10.1837 20.4325 10.0661C20.2855 10.2229 20.2364 10.3112 20.207 10.3798Z" fill="#B3AD97"></path><path d="M79.4614 43.2226L79.7065 42.3893L79.3438 42.9187L79.4614 43.2226Z" fill="#B3AD97"></path><path d="M78.7969 41.5951L79.4439 41.4088L78.8949 40.9088C78.9145 41.0951 78.9537 41.4578 78.7969 41.5951Z" fill="#B3AD97"></path><path d="M6.12918 50.3793H5.97232C5.84487 50.5264 5.87428 50.693 5.93311 51.0264L6.13898 50.3793H6.12918Z" fill="#B3AD97"></path><path d="M9.68711 59.4869L9.60868 59.3301L9.28516 59.9085L9.68711 59.4869Z" fill="#B3AD97"></path><path d="M15.38 65.3986C15.1448 65.1732 14.7918 64.9673 14.5859 64.7026C15.1251 65.183 14.9487 65.9673 15.38 65.3986Z" fill="#B3AD97"></path><path d="M40.8678 14.1787L37.8853 23.2887C37.8853 23.2887 33.3301 21.3366 28.0157 21.2823C18.1462 21.2281 12.8318 28.2233 12.8318 34.8931C12.8318 40.8037 17.0616 46.4432 26.2804 46.5516C33.9266 46.6059 38.9698 43.4065 38.9698 43.4065C39.5663 44.1657 39.9459 45.1418 39.9459 46.1721C39.9459 49.4256 36.2584 53.2756 26.4973 53.2756C14.7298 53.2756 6.8125 45.0333 6.8125 33.3747C6.8125 21.8788 15.3806 11.1963 27.6361 11.1963C35.6077 11.1963 40.8678 14.1787 40.8678 14.1787Z" fill="#242424"></path><path d="M49.6315 69.4467C40.0939 68.7404 40.6358 63.7418 42.2615 60.4818C42.6408 60.9708 43.3995 61.4054 44.4833 61.7858C43.2911 57.4391 44.2666 45.2142 44.104 37.499C43.2911 37.5533 42.4783 37.6076 41.7738 37.7163L40.9609 28.5884C40.9609 28.5884 45.0794 27.9907 50.3359 27.9907C59.3858 27.9907 71.7413 29.7837 71.7413 39.6723C71.7413 45.4859 66.8641 48.1482 58.6813 48.9632V49.1805C66.4306 49.3435 73.1502 51.3539 73.1502 58.5801C73.1502 67.2734 62.0953 70.3704 49.6315 69.4467ZM65.7261 41.7913C65.7261 38.3683 58.302 37.173 51.0404 37.173C50.7695 39.9983 50.4985 43.3669 50.3359 46.6812C54.6712 46.4639 65.7261 45.2686 65.7261 41.7913ZM50.7153 62.8181C58.1394 63.4701 68.1105 62.1661 68.1105 58.0911C68.1105 54.5595 58.7897 52.9295 50.0108 53.4728C49.9566 57.6565 50.1192 61.2424 50.7153 62.8181Z" fill="#242424"></path></svg>