<svg xmlns="http://www.w3.org/2000/svg" width="40" height="41" viewBox="0 0 40 41" fill="none"><path d="M19.6315 39.4104C30.1005 39.4104 38.5873 30.9236 38.5873 20.4546C38.5873 9.98562 30.1005 1.49884 19.6315 1.49884C9.16256 1.49884 0.675781 9.98562 0.675781 20.4546C0.675781 30.9236 9.16256 39.4104 19.6315 39.4104Z" fill="#B3AD97"></path><path d="M39.77 20.3076C39.7602 20.4939 39.9612 20.4253 40.0004 20.4547C39.9415 20.1409 39.7161 20.3174 39.77 20.3076Z" fill="#B3AD97"></path><path d="M39.0388 17.3125L39.127 17.3566L38.8574 16.9497L39.0388 17.3125Z" fill="#B3AD97"></path><path d="M38.4156 14.5674C38.1558 14.9204 38.7244 15.538 38.7342 16.0576L38.6754 16.1557L39.0087 16.3125C38.8126 15.7243 38.4401 15.0086 38.4156 14.5674Z" fill="#B3AD97"></path><path d="M38.6018 12.8762C38.5087 13.0183 38.3763 12.6017 38.6851 13.234C38.6851 13.1948 38.69 13.185 38.6949 13.1605C38.6704 13.1017 38.641 13.0183 38.6018 12.8762Z" fill="#B3AD97"></path><path d="M38.7012 13.1605C38.8188 13.4448 38.7404 12.9301 38.7012 13.1605Z" fill="#B3AD97"></path><path d="M38.0742 11.881L38.3585 12.1948C38.3977 12.0869 38.2556 11.7487 38.3683 11.8467C38.1281 11.4938 38.0938 11.6114 38.0742 11.881Z" fill="#B3AD97"></path><path d="M37.6816 11.6508L37.8189 11.8174C37.8336 11.7684 37.8189 11.7145 37.6816 11.6508Z" fill="#B3AD97"></path><path d="M38.1025 12.1654L37.8133 11.8125C37.7888 11.8909 37.6858 11.94 37.9358 11.9792C37.828 11.989 37.9554 12.0282 38.1025 12.1654Z" fill="#B3AD97"></path><path d="M38.1667 12.4104C38.201 12.6408 38.25 12.93 37.9902 12.6065C38.304 13.2976 38.5098 13.1016 38.1667 12.4104Z" fill="#B3AD97"></path><path d="M38.0254 14.5429C38.0254 14.6409 38.0254 14.7439 38.0156 14.8468L38.1921 15.0527C38.1137 14.9449 38.1382 14.489 38.0254 14.5429Z" fill="#B3AD97"></path><path d="M37.0289 9.57718C36.9505 9.59679 36.9309 9.79777 36.8672 9.8762L37.0927 10.087C37.0584 9.93012 36.9456 9.65561 37.0289 9.58208V9.57718Z" fill="#B3AD97"></path><path d="M36.8617 9.8712L36.5234 9.56238C36.7146 9.90551 36.8028 9.93493 36.8617 9.8712Z" fill="#B3AD97"></path><path d="M37.2981 11.7587L37.852 12.2881L37.2344 11.6361L37.2981 11.7587Z" fill="#B3AD97"></path><path d="M36.0574 8.1556L36.3515 8.25854L35.8711 8.04776L36.0574 8.1556Z" fill="#B3AD97"></path><path d="M35.339 7.26832C35.5743 7.31734 35.3488 6.92028 35.5498 7.01342C35.3194 6.79773 35.0449 6.68009 34.8047 6.57715C35.0204 6.72421 35.1919 6.93499 35.339 7.27322V7.26832Z" fill="#B3AD97"></path><path d="M34.4219 6.39096C34.5297 6.45959 34.6621 6.51351 34.8091 6.57723C34.6964 6.4988 34.5689 6.43508 34.4219 6.39096Z" fill="#B3AD97"></path><path d="M36.1371 8.91548C36.1518 8.86156 36.2106 8.74391 36.1028 8.51352L36.0391 8.77822C36.0685 8.82234 36.1028 8.87136 36.142 8.92038L36.1371 8.91548Z" fill="#B3AD97"></path><path d="M36.034 8.78307V8.77327C35.9262 8.61641 35.8527 8.51347 35.8184 8.46445C35.8429 8.50366 35.9115 8.6017 36.034 8.78307Z" fill="#B3AD97"></path><path d="M36.1676 8.95472C36.1676 8.95472 36.1529 8.93021 36.1431 8.92041C36.1382 8.94492 36.1382 8.95963 36.1676 8.95472Z" fill="#B3AD97"></path><path d="M36.9412 10.6606C36.7059 10.4988 36.3236 10.1116 36.4363 10.641C36.652 10.7243 36.5883 10.4204 36.9412 10.6606Z" fill="#B3AD97"></path><path d="M36.0781 9.27333C36.1566 9.40569 36.2154 9.55274 36.284 9.69C36.3281 9.65078 36.3477 9.53804 36.4654 9.61157C36.333 9.49882 36.2154 9.37628 36.0781 9.26843V9.27333Z" fill="#B3AD97"></path><path d="M35.8867 9.13115L36.0779 9.27331L35.9897 9.12625L35.8867 9.13115Z" fill="#B3AD97"></path><path d="M34.8244 7.12141C34.6185 7.03318 34.4665 6.87142 34.2852 6.69495C34.4371 6.92044 34.6038 7.14102 34.7803 7.3371C34.8538 7.32239 35.0204 7.3322 34.8244 7.12141Z" fill="#B3AD97"></path><path d="M35.421 7.92516C35.421 7.92516 35.3965 7.90556 35.3867 7.89575C35.3867 7.93007 35.3965 7.94967 35.421 7.92516Z" fill="#B3AD97"></path><path d="M32.5 4.99884L32.5049 5.05276L32.5392 5.03315L32.5 4.99884Z" fill="#B3AD97"></path><path d="M34.7795 7.39592C34.8825 7.57239 35.005 7.62631 35.1276 7.67043C35.0099 7.57239 34.8923 7.46455 34.7795 7.3371C34.7452 7.342 34.7305 7.3567 34.7795 7.39592Z" fill="#B3AD97"></path><path d="M33.8672 5.9546C33.9211 6.05754 33.975 6.17029 34.0339 6.28303C34.0142 6.15558 33.9358 5.9399 33.8672 5.9546Z" fill="#B3AD97"></path><path d="M35.3867 7.80271L35.4112 7.82232C35.4112 7.73899 35.3965 7.7635 35.3867 7.80271Z" fill="#B3AD97"></path><path d="M35.3887 7.80264C35.3005 7.73892 35.2122 7.7046 35.1289 7.67029C35.2171 7.75852 35.3005 7.83205 35.3838 7.89578C35.3838 7.86637 35.3838 7.83205 35.3838 7.80264H35.3887Z" fill="#B3AD97"></path><path d="M31.0882 5.60656C31.2254 5.47911 31.7647 5.61146 31.9411 6.07715C32.348 6.25362 32.5735 5.59186 32.5098 5.05264C32.4411 5.11147 32.4019 5.15558 31.9656 4.97421C32.0441 5.13598 32.5735 5.81734 32.1764 5.6948C31.6764 5.37617 31.8431 5.34186 31.6813 5.07715C31.7254 5.41048 30.8627 4.90559 30.7598 5.27323L31.2402 5.47421C31.2156 5.52323 31.0147 5.48401 31.0931 5.60656H31.0882Z" fill="#B3AD97"></path><path d="M33.1469 5.66046L33.3038 5.7683C33.1665 5.59674 33.1028 5.43497 32.99 5.12615C32.691 4.984 32.5979 4.9938 32.5391 5.02811L33.2155 5.68007L33.1469 5.65556V5.66046Z" fill="#B3AD97"></path><path d="M33.9263 6.35666C33.6812 6.38608 33.2743 6.16059 33.3233 6.50372C33.7253 6.87137 33.7106 6.65568 34.0047 6.82725C33.3675 6.2047 34.2645 6.93509 33.9116 6.37627C34.0586 6.48411 34.1714 6.59196 34.2792 6.6998C34.1861 6.56255 34.1076 6.42529 34.0341 6.28804C34.0341 6.29784 34.0341 6.30274 34.0341 6.31255C34.0439 6.36157 34.0341 6.38117 34.0194 6.33706C34.0194 6.33706 34.0096 6.32725 34.0047 6.32725C33.9802 6.34196 33.9508 6.34686 33.9214 6.35176C33.7743 6.12627 33.9312 6.28314 34.0047 6.32725C34.0145 6.32235 34.0243 6.32235 34.0341 6.31255C33.8086 6.10667 33.539 5.9498 33.2988 5.76843C33.4165 5.92039 33.6076 6.06745 33.9214 6.35176L33.9263 6.35666Z" fill="#B3AD97"></path><path d="M35.8084 10.4743C35.8084 10.44 35.8231 10.4351 35.8378 10.4253C35.7888 10.391 35.7594 10.3812 35.8084 10.4743Z" fill="#B3AD97"></path><path d="M35.7305 10.1065C35.7893 10.1457 35.8873 10.1457 35.9756 10.332C36.0148 10.5183 35.8873 10.3859 35.8334 10.43C35.9462 10.5036 36.1863 10.7192 36.0736 10.3369L36.0197 10.2977C35.902 9.96434 35.8824 9.43003 35.9413 9.46434C35.8383 9.66042 35.7746 9.81238 35.7354 10.1114L35.7305 10.1065Z" fill="#B3AD97"></path><path d="M34.882 8.21938C34.7154 8.03801 34.5193 7.88605 34.3281 7.72919L34.436 8.12134L34.5095 8.03801C34.7399 8.38114 34.7791 8.23409 34.882 8.21938Z" fill="#B3AD97"></path><path d="M32.5042 4.86148L32.7199 4.75854C32.5483 4.73403 32.3572 4.73893 32.1758 4.72913L32.4993 4.86148H32.5042Z" fill="#B3AD97"></path><path d="M31.7007 4.28806L31.8478 4.15571L31.5684 4.09198L31.7007 4.28806Z" fill="#B3AD97"></path><path d="M4.33984 29.5085L4.4869 29.6458C4.42318 29.5772 4.37906 29.5331 4.33984 29.5085Z" fill="#B3AD97"></path><path d="M3.67716 28.2584L3.57422 28.2682C3.64775 28.3025 3.69677 28.3123 3.67716 28.2584Z" fill="#B3AD97"></path><path d="M9.02587 3.31741C8.65333 3.33212 8.18274 3.288 8.3396 3.44977L8.54058 3.57722C8.71215 3.42526 8.87391 3.35663 9.02587 3.31741Z" fill="#B3AD97"></path><path d="M1.09206 16.7388L1.1705 16.6653C1.11657 16.577 1.06755 16.4986 1.02344 16.4251C1.04795 16.5231 1.05775 16.6261 1.09697 16.7388H1.09206Z" fill="#B3AD97"></path><path d="M1.92555 17.1115L1.73438 17.4645C1.7932 17.386 1.85692 17.2733 1.92555 17.1115Z" fill="#B3AD97"></path><path d="M9.70117 34.9398C9.80411 34.9251 9.90215 34.9104 10.0051 34.8859C9.71588 34.6947 9.7845 34.8614 9.70117 34.9398Z" fill="#B3AD97"></path><path d="M22.4899 0.562605C22.2252 0.440057 22.0095 0.37143 21.8184 0.332214C22.1419 0.503782 22.3772 0.724369 22.4899 0.562605Z" fill="#B3AD97"></path><path d="M2.07422 30.1211C2.17716 30.2191 2.24579 30.2436 2.285 30.2191C2.18206 30.1211 2.10363 30.0721 2.07422 30.1211Z" fill="#B3AD97"></path><path d="M21.0156 0.278271C21.0646 0.302781 21.1088 0.317486 21.1578 0.337094C21.3637 0.317486 21.5744 0.283173 21.8195 0.337094C21.5843 0.209644 21.295 0.155723 21.0156 0.283173V0.278271Z" fill="#B3AD97"></path><path d="M34.3379 30.3762C34.3379 30.3762 34.3722 30.3468 34.3918 30.337C34.3722 30.3174 34.3575 30.337 34.3379 30.3762Z" fill="#B3AD97"></path><path d="M39.3244 23.1016C39.3244 23.1947 39.2999 23.3369 39.2852 23.4741C39.3097 23.4104 39.3244 23.2976 39.3244 23.1016Z" fill="#B3AD97"></path><path d="M28.3672 2.16537C28.5633 2.2438 28.4064 2.16047 28.3672 2.16537Z" fill="#B3AD97"></path><path d="M28.8823 3.34686C28.8333 3.34686 28.7892 3.36157 28.7598 3.40078C28.799 3.36157 28.8382 3.34686 28.8823 3.34686Z" fill="#B3AD97"></path><path d="M18.9796 1.56754C18.9796 1.56754 18.9697 1.56754 18.9648 1.56754C19.0237 1.60675 19.0139 1.59695 18.9796 1.56754Z" fill="#B3AD97"></path><path d="M28.6092 2.38608C28.5504 2.32725 28.4769 2.26843 28.3984 2.21451C28.4278 2.24882 28.4965 2.30274 28.6092 2.38608Z" fill="#B3AD97"></path><path d="M28.6133 2.27817C28.677 2.31738 28.7211 2.34679 28.7701 2.37621C28.8094 2.3566 28.7996 2.32719 28.6133 2.27817Z" fill="#B3AD97"></path><path d="M28.0987 2.04791C28.2065 2.09693 28.3045 2.15576 28.3928 2.21458C28.3634 2.18517 28.3536 2.16556 28.3634 2.16556C28.3045 2.14105 28.2261 2.10674 28.0938 2.04791H28.0987Z" fill="#B3AD97"></path><path d="M22.0352 38.5918C22.0352 38.5918 22.0646 38.5967 22.0793 38.6065C22.2557 38.4888 22.1773 38.5182 22.0352 38.5918Z" fill="#B3AD97"></path><path d="M6.47664 8.24863C6.47664 8.24863 6.47664 8.23392 6.48154 8.22412C6.47174 8.22412 6.46684 8.23393 6.45703 8.23883L6.47664 8.24863Z" fill="#B3AD97"></path><path d="M6.14763 8.8468C6.13783 8.46445 6.27508 8.36151 6.45645 8.24386L5.85352 7.99387C5.94665 8.28308 6.04469 8.56739 6.14763 8.8468Z" fill="#B3AD97"></path><path d="M6.38254 32.2045L6.21588 31.7388C6.82862 31.9398 7.00019 32.2976 6.92176 31.8074C6.66195 31.9986 6.32372 31.7045 6.04921 31.3614C5.77471 31.0182 5.4953 30.6751 5.20608 30.8418L5.13745 30.5182C5.18647 30.5918 5.22569 30.582 5.26981 30.6506C5.17667 30.0035 4.61785 30.5672 4.28452 29.8565C4.18648 29.5967 4.17668 29.3908 4.33844 29.5084L3.88256 29.082C3.80903 28.9251 3.92668 28.9104 4.00511 29.0624C3.83844 28.8075 3.70609 28.5378 3.55413 28.2731H3.57374C3.42178 28.1996 3.14727 27.9986 3.01982 27.8957C3.00511 27.6457 3.13747 27.9741 3.18649 27.8859C3.06394 27.7535 2.93649 27.6261 2.82374 27.4888C2.86786 27.3565 2.9659 27.3761 3.06394 27.4692C3.17178 27.5575 3.28943 27.7143 3.35315 27.8761C3.55413 27.528 3.4708 27.4545 3.32864 27.332C3.20119 27.2045 3.01492 27.0133 3.02472 26.4741L3.26492 26.8859C3.51492 26.4692 3.26492 26.1751 3.30903 25.6212C3.2306 25.7634 3.10806 26.7977 2.76982 26.3467C2.76982 26.1849 2.711 25.9937 2.49041 25.7487C2.7159 25.6751 2.58845 25.4153 2.49041 25.0722L2.79923 25.0134C2.61786 24.6653 2.4708 24.734 2.27473 24.5477C2.1963 24.1212 2.40708 23.984 2.59825 23.8467C2.54433 23.1653 2.28453 24.3908 2.10806 23.5967C2.12277 23.3026 2.08355 23.0624 2.00512 22.8124C1.92669 22.5624 1.79434 22.3026 1.6963 21.9595C1.78453 21.5428 1.89238 22.0134 1.97571 21.8614L1.7061 21.5183C1.7061 21.43 1.78453 21.4546 1.82375 21.4644C1.71101 21.1653 1.51003 21.4595 1.40218 20.9742C1.23062 20.9153 1.32865 20.6555 1.4561 20.3516C1.59336 20.0428 1.72571 19.6899 1.54434 19.381C1.64238 19.2389 1.73061 19.4644 1.85806 19.4252C1.64238 18.5967 1.6914 18.7193 1.4561 18.0085L1.74532 17.4693C1.4512 17.8516 1.25513 17.2732 1.10317 16.7438C0.965912 16.8762 0.848265 16.9889 0.789442 17.0722C0.774737 16.7977 0.755129 16.5232 0.774737 16.2585C0.848266 16.1752 0.931598 16.2781 1.02964 16.4301C1.01983 16.3713 1.00513 16.3173 0.990422 16.2732C1.17179 16.0232 1.31395 16.2095 1.4365 16.4399L1.17669 16.6703C1.33356 16.9007 1.51493 17.1114 1.7012 17.1065C1.67179 17.0526 1.65708 16.9497 1.65708 16.8467C1.7012 16.9056 1.74042 16.9448 1.77473 16.9301C1.81395 16.9105 1.74532 16.8173 1.7061 16.685L2.08845 16.5918L1.961 16.5232L2.41688 15.6311C2.37767 15.4399 2.31884 15.2487 2.26983 15.0477C2.23551 14.8566 2.2012 14.6556 2.17669 14.4399C2.13747 14.0183 2.11296 13.5281 2.27963 12.9644C2.39237 13.3272 2.63747 13.185 2.91198 13.3174C2.49531 13.4791 2.73551 14.185 2.47571 14.6997C2.61296 14.4252 2.7257 14.5379 2.74531 14.6262L2.82374 13.5575C3.04433 13.6752 3.06884 13.4203 3.28452 13.2242C2.74531 13.2095 3.32374 12.3958 3.37276 11.9448C3.52962 11.9987 3.63746 12.1654 3.37766 12.6066C3.95609 12.2732 3.16198 11.6703 3.74531 11.3419C3.68158 11.4497 3.62766 11.4987 3.67178 11.5821C3.69629 11.2585 4.17668 10.6948 4.20609 10.9203L4.14236 11.0282C4.26491 10.8566 4.40707 10.636 4.54432 10.3958C4.69628 10.1605 4.86785 9.92522 5.0051 9.68502C5.28941 9.21444 5.46098 8.76346 5.35314 8.59189C5.39726 8.6213 5.66686 8.99385 5.70608 9.08699C5.66196 8.42032 5.66196 7.73896 5.68157 7.01837C5.85314 7.36151 6.80411 7.587 6.48549 8.23405C6.66195 8.13111 6.84333 7.97425 7.05901 7.6066C6.92176 7.65562 6.44627 7.46935 6.55901 7.31739C7.21587 7.25857 6.97568 7.22915 7.66685 7.05759C7.46587 7.13602 7.25509 6.56739 7.51489 6.35661C7.5345 6.45465 7.89724 6.75857 7.84822 6.88112C7.92175 6.56249 8.00018 6.23896 8.10802 5.94485C8.00508 6.14583 8.37273 6.3321 8.60802 6.34681C8.47567 6.31249 9.16194 5.94975 9.29429 5.77818L8.95116 5.87622C9.70605 5.40073 9.24037 4.72427 10.0492 4.25858C10.01 4.41545 10.1815 4.99878 10.6031 4.82231C10.6227 4.65074 10.6423 4.21937 10.7698 3.788C10.8972 3.36153 11.1178 2.89585 11.456 2.61154L11.6717 2.68997C11.8433 2.54291 12.01 2.38115 12.1962 2.2586C12.0786 2.5135 11.8678 2.99389 11.6423 3.45467C11.4217 3.92035 11.1913 4.36643 11.0198 4.65074C11.3776 4.61152 11.1913 4.77819 11.6325 4.5478C11.858 4.60662 11.4953 4.86642 11.3678 4.93995L12.4315 4.53799C12.3384 4.40074 12.5051 4.22917 12.6717 4.06251C12.8482 3.91545 13.0345 3.7782 12.9609 3.65565C12.5982 3.88604 12.2747 4.19976 11.9462 4.47917C11.8531 4.34192 11.9119 4.0527 12.108 3.75369C12.2943 3.43996 12.6325 3.17036 13.0492 3.05271C13.2992 3.10173 13.108 3.65565 13.1668 3.75369C13.2256 3.61153 13.8286 3.2782 13.9266 3.33212L13.657 3.62133C13.8923 3.60173 14.0296 3.43506 14.1913 3.2831C14.3531 3.13604 14.5492 3.038 14.858 3.11643C15.0492 3.08702 15.5099 3.38604 15.4952 3.18996C15.1129 2.90075 14.7452 1.79291 14.8972 1.46448C14.9364 1.46448 15.2207 1.48899 15.5246 1.52331C15.8286 1.54782 16.157 1.65566 16.2893 1.72429C16.6619 1.96448 15.9315 2.48899 16.255 2.69487C16.2501 2.60663 16.4021 2.46938 16.4707 2.42526C16.6864 2.46938 16.4364 2.71448 16.8629 2.60663C16.8874 2.2635 17.7501 2.49879 17.0295 2.29781C17.4462 2.14585 17.4903 2.2733 17.9952 2.22919C17.8089 2.0233 18.3972 1.47429 18.8531 1.35664C18.8285 1.44488 18.9364 1.54782 18.9854 1.59684C19.2158 1.59684 19.4168 1.59684 19.6031 1.60664C19.7893 1.62625 19.9658 1.66546 20.1325 1.68997C20.4756 1.7488 20.804 1.80272 21.2256 1.82723C21.2991 1.91056 21.6913 2.03311 21.505 2.16546C21.6275 2.12134 21.7501 2.02821 22.0099 2.05762C22.4658 2.42036 21.4364 2.0135 21.7697 2.41546C21.8236 2.22919 22.456 2.24879 22.8432 2.18507C22.7795 1.87134 22.0001 1.99879 21.6275 2.06252C21.6668 1.65076 22.3628 1.31743 23.3187 1.27331C24.0589 1.30272 23.5736 1.60174 23.7109 1.56252C24.3628 1.7684 24.6864 1.66546 24.9854 1.58213C25.2844 1.4988 25.5589 1.43017 26.054 1.78311C26.3971 2.18997 25.902 2.28311 25.9314 2.49879C25.6422 2.44977 25.4462 2.32722 25.2697 2.21448C25.0932 2.11154 24.9364 2.0086 24.7403 1.96448L25.1765 2.20468C24.9707 2.24389 24.5785 2.20958 24.3922 2.08213C24.6962 2.36644 26.554 2.75859 27.3873 3.41545C27.5883 3.41545 27.9118 3.46937 27.8236 3.30761L27.5148 3.19977C27.3285 2.87624 28.201 3.19977 27.8628 2.93016C28.0981 2.95957 28.353 2.97918 28.6177 3.038C28.7501 3.06742 28.8873 3.10663 29.0197 3.16545C29.1471 3.23408 29.2746 3.31741 29.3971 3.43016L29.3481 3.75369C29.3824 3.67035 29.0834 3.38114 28.8873 3.37134C29.1863 3.39094 29.5049 4.21937 29.9559 4.0331L29.6863 3.62624C30.1422 3.73898 30.8334 3.73898 31.2304 4.18015C31.1912 3.7831 31.1079 4.12623 30.9706 3.59682C31.0344 4.14094 29.7108 2.80761 29.9608 3.48898C29.804 2.93506 29.4412 2.94487 29.103 2.40075C29.0736 2.49389 29.1912 2.65565 28.7746 2.40075C28.7402 2.41546 28.6765 2.42526 28.6373 2.43016C28.6275 2.42036 28.6226 2.41546 28.6128 2.41056L28.6324 2.43507C28.6079 2.43507 28.603 2.43997 28.6373 2.44487C28.7206 2.53311 28.7844 2.62134 28.7942 2.68507C28.4755 2.7831 27.7942 2.44487 27.5148 2.44487C27.2795 2.2782 27.6667 2.39095 27.5687 2.22919C27.4314 2.22919 27.2893 2.22919 27.1471 2.23899C27.201 2.0233 26.5687 1.63605 27.255 1.7537L26.6814 1.53311C26.3824 1.29782 25.9265 1.06743 25.6079 1.06253C25.3383 0.944879 24.8285 1.11154 25.1226 1.0086L24.1569 0.900762V0.846841C23.706 0.694881 23.2011 0.734096 22.7011 0.699783C22.1962 0.675273 21.6962 0.567431 21.1668 0.36155C20.8432 0.400765 20.5148 0.449784 19.9805 0.36155L19.8776 0.165472C19.4707 0.204688 18.6325 0.0233164 18.4609 0.219394C18.3433 0.0968454 18.157 0.0380222 17.9315 0.0135126C17.706 -0.015899 17.4413 0.00370874 17.1766 0.0625319C16.6423 0.165472 16.0835 0.332138 15.7158 0.341942L15.7354 0.59194C15.2403 0.665469 14.7943 0.881154 14.2256 1.12135L14.3188 1.32233C13.858 1.59684 12.9903 1.58213 12.206 1.88605C12.2256 1.78801 12.4364 1.73409 12.5933 1.72919C12.3139 1.69978 12.059 1.7537 11.8139 1.84683C11.5786 1.95468 11.3629 2.12134 11.1521 2.2782C10.7355 2.60663 10.3335 2.90565 9.86292 2.98408C9.71096 3.17036 9.559 3.22918 9.39233 3.26349C9.41194 3.25369 9.42174 3.23898 9.43645 3.22428C9.41684 3.23408 9.38743 3.25369 9.35802 3.26839C9.25508 3.288 9.14233 3.30271 9.02959 3.33212C9.13743 3.33212 9.24037 3.31741 9.3188 3.2929C9.17174 3.38604 8.96096 3.5478 8.76979 3.72918L8.5443 3.58702C8.5443 3.58702 8.51488 3.61153 8.49528 3.62624C8.23057 3.68506 8.38253 3.82721 8.59822 3.90074C8.50508 3.99388 8.44136 4.11153 8.40214 4.20957C8.01979 4.01839 7.94136 4.71446 7.47567 4.5527C7.46587 4.68505 7.23058 4.90564 7.0198 5.14583C6.82372 5.40564 6.65705 5.68505 6.74529 5.88603C6.70117 5.85171 6.63254 5.88603 6.73058 5.78799C6.49039 5.93995 6.25019 6.09681 6.14235 6.35171L5.84333 6.21445C5.77961 6.44485 5.73059 6.68504 5.69137 6.93504C5.30902 7.0821 5.12275 7.13112 5.21098 6.68994C4.86295 7.6017 4.80412 7.32719 4.57373 8.12621L4.44628 7.97425C4.28452 8.19974 4.2306 8.70463 4.00511 8.73895C3.28943 8.98404 2.26492 11.1997 1.33846 12.5134C1.66689 12.4889 1.52473 12.6262 1.36297 12.8076C1.21101 12.9938 1.02474 13.2193 1.22081 13.3272C1.06395 13.3664 0.916893 13.5477 0.892383 13.2634C0.745325 14.0772 0.240426 14.3517 0.475719 15.0085C0.323759 15.0624 0.328661 14.783 0.230622 14.8419C0.240426 14.9154 0.279642 15.1262 0.181603 15.1899C0.0835645 15.2487 0.103172 15.0428 0.0786625 14.9007C-0.112513 15.7291 0.27474 15.9056 0.637483 16.0526C0.495327 16.2291 0.416896 16.3762 0.397288 16.5134C0.392386 16.6556 0.441405 16.7928 0.544346 16.9644C0.397288 17.082 0.230622 17.2977 0.260034 16.7879C0.201211 17.0624 -0.200747 18.5036 0.127682 18.5624C0.044349 18.6458 0.0835645 18.9595 0.117878 19.0379C0.0688587 19.6752 0.0345451 19.7291 0.0345451 20.3614L0.0933683 20.1899C0.446307 20.4399 0.176701 20.7046 0.245328 21.2095L0.206113 21.1948C0.0982702 21.7781 0.137486 21.9055 0.171799 22.0232C0.220819 22.1457 0.201211 22.2634 0.14729 22.8467L0.372778 22.7585C0.892383 22.7928 0.22572 23.7928 0.524738 24.4251L0.617875 24.1653C0.83356 24.479 0.186505 25.2928 0.211015 25.6849C0.186505 25.7732 0.112976 25.5771 0.049251 25.4741C0.0100355 26.5084 0.37768 25.5183 0.627679 26.1996C0.510032 26.3761 0.166897 26.1555 0.284544 26.6359C0.264936 26.7732 0.514934 27.0722 0.760031 27.4153C1.01493 27.7584 1.22571 28.1653 1.23552 28.5231C1.28944 28.3369 1.34336 28.1604 1.57865 28.4202C1.84336 28.8467 1.73061 29.9006 2.32375 30.1065C2.32375 30.18 2.30904 30.2192 2.28453 30.2339C2.57865 30.5182 3.09335 31.2339 3.39727 31.3123C3.15217 31.6898 3.61295 32.1212 4.02962 32.5084C4.43648 32.9006 4.86785 33.1947 4.58354 33.4398L5.42667 34.3074L5.34824 34.3368C5.84823 34.9349 6.20117 34.9594 6.50999 35.0133C6.60803 35.1702 6.46588 35.1358 6.42666 35.1555C7.14234 36.0378 7.30901 36.0476 8.26489 36.3123L8.20116 36.5672C8.34332 36.5868 8.60802 36.9152 9.00998 37.2339C9.20606 37.4005 9.43155 37.577 9.67664 37.7339C9.92174 37.8907 10.1815 38.028 10.4659 38.077C10.4413 38.0966 10.4021 38.1309 10.3041 38.1211C10.9364 38.2535 11.5149 38.7633 12.0933 39.0819C12.6717 39.3956 13.1962 39.6064 13.5443 39.2633C13.8188 39.2976 14.108 39.2731 14.3874 39.278C13.4021 38.9544 14.6423 38.9495 14.2698 38.6995C14.6668 38.7486 15.206 39.2143 14.7158 39.1358L14.6521 39.0721C14.358 39.4643 15.858 39.5623 15.7746 39.8417C17.8089 40.2191 19.8481 40.5084 21.8187 40.3515C21.7305 40.2437 21.6472 40.1407 21.5589 40.0231C21.7844 40.0084 22.005 39.9741 22.2305 39.9495C22.4168 40.0035 22.505 40.1897 22.0197 40.2486C22.304 40.4103 22.8089 39.9544 22.804 39.876C23.7697 39.876 22.505 40.3466 22.7942 40.3074L23.1864 40.2191L23.0883 40.1897C23.3824 39.9839 23.3873 39.8711 23.9511 39.7339C24.3236 39.7142 24.1864 39.9005 24.3285 39.8809C24.3334 39.9054 24.3824 39.9054 24.5491 39.8368L25.3971 39.6505L24.9854 39.4642C25.3138 39.2388 25.7648 39.2682 25.2942 39.0672C25.6373 39.229 26.402 38.979 27.1275 38.7192C27.8383 38.4201 28.4755 38.0378 28.6716 38.0378C28.7697 37.9348 28.8677 37.8417 28.9755 37.7584C29.0785 37.6652 29.1814 37.5819 29.2942 37.4986C29.5197 37.3368 29.7697 37.1898 30.054 37.0329C29.8873 37.0672 29.6373 36.8417 30.1226 36.5917C30.2108 36.9152 30.4804 36.8613 30.7794 36.6996C31.0785 36.5378 31.4265 36.3074 31.7549 36.3564C31.4951 36.3564 31.804 36.0966 32.0785 35.8466C32.353 35.5966 32.5539 35.3123 32.1814 35.3564C32.5588 35.0868 32.3628 35.5231 32.7255 35.4055C32.8922 35.1702 33.0932 34.9594 33.3186 34.7535C33.4363 34.6555 33.5539 34.5525 33.6716 34.4496C33.7892 34.3417 33.9069 34.2339 34.0245 34.1211C34.5 33.68 35.0588 33.2486 35.4216 32.6506C35.3677 32.5819 35.1226 32.6849 35.201 32.3712L35.9853 32.0427C36.1078 31.7878 35.7451 31.5721 36.25 31.3123C36.152 31.3319 36.0098 31.3614 36.0784 31.1898C36.9755 30.1702 37.5637 28.8957 38.0098 27.5918C38.2255 26.9349 38.4804 26.2928 38.6716 25.631C38.7794 25.3026 38.9019 24.979 39.0392 24.6555C39.1814 24.332 39.2843 23.9987 39.4412 23.6751C39.2206 24.0183 39.2402 23.7683 39.2794 23.484C39.2108 23.6604 39.0686 23.4447 38.951 23.4643C39.1078 23.1065 39.2892 22.7438 39.4314 22.3712C39.1176 22.1359 39.4706 21.1359 39.1667 21.0085L39.2059 21.3712C38.8627 20.8908 38.3627 21.9889 37.8971 21.8712C37.9951 22.0036 38 22.1506 37.9657 22.3124C37.9216 22.4693 37.8186 22.6359 37.7255 22.8075C37.5392 23.1555 37.3725 23.533 37.6029 23.9938C37.4804 24.1555 37.4755 23.8124 37.3578 23.8859C37.5343 24.131 37.5 24.381 37.299 24.8124L37.2647 24.7487C37.1176 25.381 37 25.832 36.7549 26.2584C36.6422 26.4741 36.5245 26.6898 36.3971 26.9398C36.2696 27.1849 36.1422 27.4594 35.9412 27.7633H36.201C36.0343 28.028 35.9412 28.0575 35.8284 28.1653C35.9902 28.6408 36.2255 27.3859 36.4412 27.8369C36.1324 27.93 35.8922 28.4251 35.652 28.9006C35.402 29.3712 35.0882 29.7927 34.799 29.7731C34.549 30.1751 35.098 29.7927 34.8481 30.2045L34.6618 30.2339L34.7549 30.4398C34.5686 30.6947 34.3039 30.7045 34.201 30.6457C34.2598 30.5918 34.299 30.4545 34.3382 30.3859C33.9559 30.6065 33.7108 31.3221 33.5834 31.4006L33.9265 31.0918C33.7549 31.3663 33.5735 31.6604 33.353 31.93C33.1177 32.1898 32.8775 32.4594 32.6422 32.7241C32.5245 32.8564 32.4069 32.9937 32.2892 33.1261C32.1618 33.2486 32.0392 33.3711 31.9167 33.4986C31.6765 33.7486 31.4608 34.0084 31.2745 34.278L31.4167 34.2976C30.7991 35.0819 30.7255 34.68 29.9412 35.4055L29.9559 35.3613C29.853 35.5868 29.6324 35.7731 29.3775 35.9153C29.5393 35.6702 28.8138 35.9643 29.0393 35.6653C28.255 36.3858 28.701 36.0917 28.2795 36.7829L28.0491 36.6947C27.9069 36.9447 27.9314 37.0329 27.4608 37.3074C27.7942 36.9741 27.0344 37.2045 27.3922 36.8025C27.0981 36.8319 26.8726 36.9152 26.6863 37.0182C26.4952 37.1113 26.3334 37.2094 26.1863 37.3025C25.8971 37.4888 25.6618 37.6358 25.3334 37.4447C25.0099 38.0966 26.3334 37.376 26.0981 37.577C26.3873 37.6456 25.8236 38.077 25.4658 38.1554C25.1177 38.2878 24.6814 37.7143 23.8334 37.9545C23.9217 37.9348 23.9167 37.8956 24.0001 37.876C23.8236 37.8564 23.6766 37.9397 23.5197 38.0133C23.3628 38.0966 23.1864 38.1554 22.9658 38.077C22.7942 38.4103 22.4413 38.1407 22.4364 38.5329L23.2403 38.3221C22.804 38.4888 22.4266 39.0084 21.6177 38.9103C21.6717 38.8221 21.8874 38.6848 22.0344 38.6064C21.7942 38.5231 21.6128 38.7633 21.3677 38.6554C21.3972 38.2878 22.353 38.425 22.7942 38.0672C22.5344 37.9397 21.9119 38.4839 22.0981 38.0329C21.9609 38.327 21.7403 38.3417 21.4903 38.3466C21.2354 38.3319 20.956 38.2927 20.6668 38.5133L20.6913 38.278C20.5981 38.3172 20.407 38.4397 20.2305 38.4397L20.5344 38.1211C20.0589 38.4005 19.608 37.9643 19.1521 38.0574C19.6325 38.0819 19.6864 38.1505 19.6717 38.2388C19.657 38.3319 19.5687 38.4495 19.7795 38.5231C18.5589 38.7976 19.0982 37.8907 17.7795 37.9348C17.956 37.925 18.4413 38.1113 18.1521 38.2045C17.9021 38.1554 17.5786 38.0182 17.4413 37.8662C16.5688 37.7829 17.5442 38.126 17.1521 38.2094C16.8923 37.8809 16.706 38.2584 16.2942 38.2878L16.3335 38.0525C16.0884 37.9839 15.9462 37.9643 15.858 37.9741C15.7648 37.9888 15.7256 38.0378 15.6815 38.0917C15.6031 38.1947 15.5344 38.2976 15.1031 38.0917L15.559 37.8711L15.0786 37.8319L15.2403 37.5966C14.6962 37.6505 14.5345 37.5966 14.0884 37.3466C14.1472 37.5476 13.8923 37.7339 13.4609 37.5819C13.2158 37.3417 13.7011 37.4299 13.0835 37.2437C13.2747 37.1554 13.4854 37.0329 13.6717 37.3368C13.7256 37.2731 13.8531 37.2437 13.907 37.1849C13.657 36.9201 13.1521 36.8711 12.9364 36.7927C13.0149 36.8319 13.108 36.876 13.1472 36.93C12.9854 36.93 12.8188 36.93 12.657 36.9201L12.1717 36.8662C12.0786 36.7241 12.2109 36.7094 12.3433 36.6947C12.1668 36.6358 12.0051 36.68 11.7453 36.577C11.8923 36.4349 11.9658 36.2486 12.3482 36.3319L11.4757 36.1505C11.4609 36.0525 11.1864 35.7535 11.3188 35.7388C10.9806 35.3907 10.1227 35.4643 9.67174 34.979C9.62272 34.9888 9.54919 34.979 9.42664 34.9202C9.19625 34.7192 9.01488 34.4937 8.79429 34.2927C8.68645 34.1898 8.5639 34.1015 8.43155 34.0133C8.3041 33.9153 8.16195 33.8319 7.98548 33.7633L7.92175 33.2388C7.45607 32.9251 8.0345 33.93 7.25509 33.3957C6.68646 33.0231 7.2747 33.0231 7.18156 32.7927C6.84333 32.68 6.19137 32.4839 5.99039 31.8516C6.17666 31.9594 6.24039 32.1065 6.38745 32.229L6.38254 32.2045ZM2.76982 26.3516C2.86296 26.4643 3.09825 26.6604 3.00021 26.8026C2.69629 26.7535 2.77472 26.5967 2.76982 26.3516ZM1.79924 15.8026C1.84826 15.9203 1.76983 16.0673 1.63748 16.2193C1.65218 16.0869 1.6963 15.9448 1.79924 15.8026ZM26.1814 1.47429C26.1814 1.47429 26.1667 1.47429 26.1618 1.47919C25.8726 1.27821 25.9756 1.35174 26.1814 1.47429ZM26.804 1.81252C26.8824 1.80762 26.8873 1.77331 26.8726 1.73409C26.804 1.77331 26.6569 1.72429 26.4952 1.64586C26.5197 1.71938 26.5883 1.79291 26.804 1.81252ZM24.3922 39.7633L24.2452 39.7388C24.5246 39.5966 24.456 39.6799 24.3922 39.7633Z" fill="#B3AD97"></path><path d="M1.83257 17.0625C1.78845 17.0919 1.74433 17.0968 1.69531 17.0968C1.72472 17.1556 1.77374 17.1654 1.83257 17.0625Z" fill="#B3AD97"></path><path d="M9.64844 34.9495L9.66314 34.9642C9.66314 34.9642 9.69256 34.9495 9.70236 34.9397L9.64844 34.9495Z" fill="#B3AD97"></path><path d="M16.5235 2.75377C16.3912 2.73907 16.3127 2.70966 16.2539 2.67044C16.2539 2.72926 16.3274 2.76848 16.5235 2.75377Z" fill="#B3AD97"></path><path d="M30.3239 3.11149L29.9023 2.93011C30.0984 3.03306 30.1376 3.12129 30.2112 3.20952C30.2308 3.1556 30.1965 3.04286 30.3239 3.11639V3.11149Z" fill="#B3AD97"></path><path d="M32.4749 6.5722C32.5386 6.59181 32.5729 6.66044 32.6415 6.68005L32.7053 6.58691C32.5043 6.41534 32.3082 6.35652 32.4798 6.5722H32.4749Z" fill="#B3AD97"></path><path d="M30.2609 3.98907C30.1776 4.18025 30.4619 4.24398 30.7217 4.40574C30.707 4.39594 30.6923 4.38613 30.6776 4.37143C30.9128 4.19496 30.5942 4.07241 30.2609 3.98907Z" fill="#B3AD97"></path><path d="M30.7793 4.44C30.8577 4.48902 30.9411 4.54294 31.0097 4.60667C31.1028 4.53804 30.9313 4.51843 30.7793 4.44Z" fill="#B3AD97"></path><path d="M27.6814 2.01347C27.7942 2.12621 27.8677 1.82229 27.9118 1.93014C28.1667 1.76347 26.8824 1.78798 27.6814 2.01347Z" fill="#B3AD97"></path><path d="M30.1082 4.66556L30.1523 4.40576L29.9023 4.48419L30.1082 4.66556Z" fill="#B3AD97"></path><path d="M28.1523 3.34203L28.5543 3.61163C28.569 3.57242 28.6327 3.57732 28.7112 3.59203C28.4514 3.45477 28.1769 3.2734 28.1572 3.34203H28.1523Z" fill="#B3AD97"></path><path d="M28.7109 3.59198C28.8433 3.66551 28.9707 3.74394 29.0639 3.75374C28.9903 3.71453 28.8384 3.62139 28.7109 3.59198Z" fill="#B3AD97"></path><path d="M29.5161 4.39083L29.4229 4.27319L29.1484 4.08691L29.5161 4.39083Z" fill="#B3AD97"></path><path d="M23.3077 1.6312L22.7783 1.6214C22.7145 1.69493 22.842 1.76846 23.0381 1.76356C23.1704 1.72434 23.3714 1.72434 23.3077 1.6312Z" fill="#B3AD97"></path><path d="M24.6621 2.65564C24.5445 2.57231 24.5494 2.51839 24.4955 2.42035L24.4023 2.70956L24.6621 2.65564Z" fill="#B3AD97"></path><path d="M23.2217 2.37128C23.1531 2.44481 22.4619 2.49873 23.0893 2.57716C23.1531 2.49383 23.6629 2.52324 23.2217 2.37128Z" fill="#B3AD97"></path><path d="M15.5977 2.07718L15.7251 2.03796L15.6026 1.55267L15.5977 2.07718Z" fill="#B3AD97"></path><path d="M9.99041 5.70459C10.5443 5.50851 9.94139 5.37616 10.4659 5.2291C10.5198 5.05753 10.0394 5.34675 10.1031 5.18989C9.86786 5.4791 9.67668 5.51341 9.99041 5.70459Z" fill="#B3AD97"></path><path d="M10.1035 5.18994C10.1427 5.14583 10.1819 5.0919 10.2163 5.03308C10.1427 5.11151 10.1182 5.15563 10.1035 5.18994Z" fill="#B3AD97"></path><path d="M39.7307 21.6115L39.8532 21.1949L39.6719 21.4596L39.7307 21.6115Z" fill="#B3AD97"></path><path d="M39.3984 20.7977L39.722 20.7046L39.4475 20.4546C39.4573 20.5477 39.4769 20.7291 39.3984 20.7977Z" fill="#B3AD97"></path><path d="M3.06459 25.1899H2.98616C2.92244 25.2634 2.93714 25.3467 2.96655 25.5134L3.06949 25.1899H3.06459Z" fill="#B3AD97"></path><path d="M4.84356 29.7437L4.80434 29.6653L4.64258 29.9545L4.84356 29.7437Z" fill="#B3AD97"></path><path d="M7.69002 32.6996C7.57238 32.5869 7.39591 32.4839 7.29297 32.3516C7.56257 32.5918 7.47434 32.9839 7.69002 32.6996Z" fill="#B3AD97"></path><path d="M20.4341 7.08943L18.9428 11.6445C18.9428 11.6445 16.6652 10.6684 14.008 10.6413C9.07315 10.6142 6.41595 14.1118 6.41595 17.4467C6.41595 20.402 8.53087 23.2218 13.1403 23.276C16.9634 23.3031 19.4851 21.7035 19.4851 21.7035C19.7833 22.083 19.9731 22.5711 19.9731 23.0862C19.9731 24.713 18.1294 26.6381 13.2488 26.6381C7.36495 26.6381 3.40625 22.5169 3.40625 16.6875C3.40625 10.9395 7.69032 5.59821 13.8182 5.59821C17.804 5.59821 20.4341 7.08943 20.4341 7.08943Z" fill="#242424"></path><path d="M24.8158 34.7237C20.0469 34.3705 20.3179 31.8712 21.1308 30.2412C21.3204 30.4857 21.6998 30.703 22.2417 30.8932C21.6456 28.7198 22.1333 22.6073 22.052 18.7497C21.6456 18.7768 21.2391 18.804 20.8869 18.8583L20.4805 14.2943C20.4805 14.2943 22.5397 13.9955 25.168 13.9955C29.693 13.9955 35.8708 14.892 35.8708 19.8363C35.8708 22.7432 33.4322 24.0743 29.3407 24.4818V24.5905C33.2154 24.672 36.5753 25.6772 36.5753 29.2903C36.5753 33.637 31.0478 35.1855 24.8158 34.7237ZM32.8632 20.8958C32.8632 19.1843 29.1511 18.5867 25.5203 18.5867C25.3848 19.9993 25.2493 21.6837 25.168 23.3408C27.3357 23.2322 32.8632 22.6345 32.8632 20.8958ZM25.3577 31.4093C29.0698 31.7353 34.0554 31.0833 34.0554 29.0458C34.0554 27.28 29.3949 26.465 25.0054 26.7367C24.9783 28.8285 25.0596 30.6215 25.3577 31.4093Z" fill="#242424"></path></svg>