<svg xmlns="http://www.w3.org/2000/svg" width="226" height="74" viewBox="0 0 226 74" fill="none"><path d="M93.3899 61.322H94.4324V65.3338C94.4324 67.0072 93.4436 67.9297 91.7993 67.9297C90.0797 67.9297 89.1125 67.0179 89.1125 65.3446V61.322H90.1442V65.2051C90.1442 66.4172 90.7568 67.0179 91.8315 67.0179C92.8096 67.0179 93.3899 66.3958 93.3899 65.2695V61.322Z" fill="#242424"></path><path d="M97.7344 61.322H98.7768V67.8225H97.7344V61.322Z" fill="#242424"></path><path d="M105.174 68.8951L108.441 60.8715H109.204L105.926 68.8951H105.174Z" fill="#242424"></path><path d="M119.929 61.322H120.971V65.3338C120.971 67.0072 119.982 67.9297 118.338 67.9297C116.619 67.9297 115.651 67.0179 115.651 65.3446V61.322H116.683V65.2051C116.683 66.4172 117.296 67.0179 118.37 67.0179C119.348 67.0179 119.929 66.3958 119.929 65.2695V61.322Z" fill="#242424"></path><path d="M129.744 67.8225H128.465L126.681 65.2909H126.595L124.789 67.8225H123.585L126.003 64.4971L123.747 61.322H125.047L126.627 63.6712H126.724L128.368 61.322H129.582L127.315 64.4328L129.744 67.8225Z" fill="#242424"></path><path d="M138.684 62.2552H137.287V66.8892H138.459C139.931 66.8892 140.855 65.9453 140.855 64.4757C140.855 63.0705 140.028 62.2552 138.684 62.2552ZM138.459 67.8225H136.245V61.322H138.792C140.716 61.322 141.941 62.3839 141.941 64.4113C141.941 65.4304 141.629 66.2563 141.006 66.8785C140.372 67.5114 139.523 67.8225 138.459 67.8225Z" fill="#242424"></path><path d="M146.872 67.9297C145.41 67.9297 144.561 67.0608 144.561 65.5269C144.561 64.7868 144.776 64.1968 145.217 63.7355C145.658 63.285 146.238 63.0597 146.958 63.0597C148.344 63.0597 149.15 63.8643 149.15 65.2802C149.15 65.3553 149.14 65.484 149.129 65.6664L145.615 65.6771C145.668 66.621 146.12 67.093 146.947 67.093C147.571 67.093 147.958 66.8356 148.097 66.31L149.065 66.4065C148.839 67.4256 148.108 67.9297 146.872 67.9297ZM146.947 63.8643C146.238 63.8643 145.808 64.2397 145.658 64.9798H148.097C148.065 64.2611 147.646 63.8643 146.947 63.8643Z" fill="#242424"></path><path d="M155.721 64.5615L154.721 64.6259C154.71 64.1002 154.388 63.8428 153.754 63.8428C153.206 63.8428 152.905 64.0788 152.905 64.3899C152.948 64.6688 152.991 64.7868 153.292 64.9048C153.507 64.9906 153.55 64.9906 153.894 65.0764C153.926 65.0871 153.958 65.0871 153.98 65.0978C154.227 65.1622 154.409 65.2051 154.506 65.2266C154.603 65.2587 154.753 65.3124 154.958 65.3875C155.162 65.4733 155.301 65.5591 155.387 65.6449C155.559 65.8165 155.753 66.1383 155.753 66.5352C155.753 67.4363 154.968 67.9297 153.851 67.9297C152.55 67.9297 151.755 67.4577 151.744 66.3958L152.754 66.3636C152.84 66.8785 153.195 67.1359 153.818 67.1359C154.345 67.1359 154.71 66.9321 154.71 66.5352C154.71 66.1491 154.442 66.0203 153.711 65.838C153.077 65.6878 152.658 65.5591 152.453 65.4411C152.056 65.1944 151.862 64.8511 151.852 64.3899C151.852 63.6175 152.593 63.0597 153.743 63.0597C154.99 63.0597 155.71 63.6068 155.721 64.5615Z" fill="#242424"></path><path d="M159.82 62.1158C159.573 62.3625 159.057 62.3625 158.81 62.1158C158.692 61.9978 158.627 61.8369 158.627 61.6331C158.627 61.2469 158.885 60.9895 159.315 60.9895C159.745 60.9895 160.003 61.2469 160.003 61.6331C160.003 61.8369 159.938 61.9978 159.82 62.1158ZM158.799 67.8225V63.1563H159.82V67.8225H158.799Z" fill="#242424"></path><path d="M164.016 64.6473C164.016 65.1944 164.425 65.5376 165.08 65.5376C165.736 65.5376 166.144 65.1944 166.144 64.6366C166.144 64.1217 165.758 63.757 165.08 63.757C164.403 63.757 164.016 64.1217 164.016 64.6473ZM167.703 68.3373C167.703 69.3778 166.65 70 164.93 70C163.608 70 162.716 69.5817 162.716 68.7771C162.716 68.2086 163.071 67.8439 163.791 67.683C163.361 67.5436 163.146 67.2754 163.146 66.8785C163.146 66.4387 163.415 66.1491 163.941 66.0203C163.339 65.8165 162.974 65.2909 162.974 64.6795C162.974 63.6819 163.823 63.0597 165.113 63.0597C165.596 63.0597 166.392 63.1563 166.961 63.1563H167.767V63.9179C167.434 63.9286 167.09 63.9072 166.725 63.8643C167.015 64.0466 167.165 64.347 167.165 64.7439C167.165 65.72 166.316 66.2671 165.07 66.2671H164.769C164.317 66.2671 164.092 66.3958 164.092 66.6532C164.135 66.9643 164.403 67.0072 164.898 66.9965H165.704C167.036 66.9965 167.703 67.447 167.703 68.3373ZM165.027 69.2598C166.026 69.2598 166.639 68.981 166.639 68.4768C166.639 68.0692 166.284 67.8654 165.564 67.8654H164.844C164.113 67.8654 163.748 68.155 163.748 68.5841C163.748 69.0131 164.242 69.2598 165.027 69.2598Z" fill="#242424"></path><path d="M172.637 63.9715C172.11 63.9715 171.734 64.2826 171.498 64.9048V67.8225H170.477V63.1563H171.433V63.6175C171.433 63.7141 171.422 63.8428 171.412 64.0144C171.723 63.3815 172.228 63.0597 172.927 63.0597C174.056 63.0597 174.625 63.6926 174.625 64.9584V67.8225H173.604V65.248C173.604 64.4006 173.282 63.9715 172.637 63.9715Z" fill="#242424"></path><path d="M179.813 67.9297C178.351 67.9297 177.502 67.0608 177.502 65.5269C177.502 64.7868 177.717 64.1968 178.158 63.7355C178.599 63.285 179.179 63.0597 179.899 63.0597C181.285 63.0597 182.091 63.8643 182.091 65.2802C182.091 65.3553 182.081 65.484 182.07 65.6664L178.556 65.6771C178.609 66.621 179.061 67.093 179.888 67.093C180.512 67.093 180.899 66.8356 181.038 66.31L182.006 66.4065C181.78 67.4256 181.049 67.9297 179.813 67.9297ZM179.888 63.8643C179.179 63.8643 178.749 64.2397 178.599 64.9798H181.038C181.006 64.2611 180.587 63.8643 179.888 63.8643Z" fill="#242424"></path><path d="M186.082 65.0013V67.8225H185.061V63.1563H186.018V63.6175C186.018 63.8428 186.007 64.0466 185.975 64.229C186.319 63.4137 186.738 63.0705 187.35 63.0705C187.49 63.0705 187.619 63.0812 187.737 63.1134L187.608 64.1753C187.501 64.1432 187.383 64.1324 187.254 64.1324C186.716 64.1324 186.329 64.422 186.082 65.0013Z" fill="#242424"></path><path d="M102.8 18.7913L100.278 18.9224C100.041 16.1429 98.5176 14.7532 95.7328 14.7532C92.6066 14.7532 90.7413 17.0345 90.7413 20.7841C90.7413 24.691 92.6591 26.815 95.8379 26.815C98.1761 26.815 99.8312 25.4515 100.225 23.144L102.8 23.3013C102.406 26.8936 99.7523 28.9913 95.7591 28.9913C90.9252 28.9913 88.0879 25.9497 88.0879 20.9152C88.0879 18.3193 88.7972 16.274 90.2159 14.7794C91.6345 13.3111 93.526 12.5769 95.8642 12.5769C97.8608 12.5769 99.5159 13.1013 100.829 14.1501C102.143 15.2252 102.8 16.7722 102.8 18.7913Z" fill="#242424"></path><path d="M115.17 28.9913C113.909 28.9913 113.016 28.362 113.016 26.815C112.254 28.2571 110.966 28.9913 109.127 28.9913C106.842 28.9913 105.134 27.9162 105.134 25.7923C105.134 23.38 106.842 22.1738 110.257 22.1738H112.779V21.2298C112.779 19.8401 111.886 19.1059 110.389 19.1059C108.839 19.1059 107.972 19.7615 107.788 21.0987L105.476 20.9414C105.791 18.4504 107.656 17.0869 110.494 17.0869C113.672 17.0869 115.249 18.4504 115.249 21.1512V25.871C115.249 26.5265 115.459 26.8674 115.879 26.8674C116.063 26.8674 116.221 26.8412 116.326 26.7625L116.641 28.598C116.194 28.8602 115.722 28.9913 115.17 28.9913ZM112.805 23.7733H110.572C108.681 23.7733 107.735 24.3502 107.735 25.4777C107.735 26.5265 108.523 27.0772 109.705 27.0509C111.387 27.0247 112.805 25.9759 112.805 23.7733Z" fill="#242424"></path><path d="M121.59 21.8329V28.7291H119.094V17.3229H121.432V18.4504C121.432 19.001 121.406 19.4992 121.327 19.945C122.168 17.9522 123.192 17.1131 124.69 17.1131C125.031 17.1131 125.347 17.1393 125.636 17.218L125.32 19.8139C125.058 19.7352 124.769 19.709 124.453 19.709C123.14 19.709 122.194 20.417 121.59 21.8329Z" fill="#242424"></path><path d="M127.955 12H130.451V28.7291H127.955V12Z" fill="#242424"></path><path d="M143.573 28.9913C142.312 28.9913 141.418 28.362 141.418 26.815C140.657 28.2571 139.369 28.9913 137.53 28.9913C135.245 28.9913 133.537 27.9162 133.537 25.7923C133.537 23.38 135.245 22.1738 138.66 22.1738H141.182V21.2298C141.182 19.8401 140.289 19.1059 138.791 19.1059C137.241 19.1059 136.374 19.7615 136.19 21.0987L133.879 20.9414C134.194 18.4504 136.059 17.0869 138.896 17.0869C142.075 17.0869 143.651 18.4504 143.651 21.1512V25.871C143.651 26.5265 143.862 26.8674 144.282 26.8674C144.466 26.8674 144.623 26.8412 144.729 26.7625L145.044 28.598C144.597 28.8602 144.124 28.9913 143.573 28.9913ZM141.208 23.7733H138.975C137.084 23.7733 136.138 24.3502 136.138 25.4777C136.138 26.5265 136.926 27.0772 138.108 27.0509C139.79 27.0247 141.208 25.9759 141.208 23.7733Z" fill="#242424"></path><path d="M95.9955 52.3281H89.0074V36.4381H95.6277C99.1744 36.4381 100.961 37.723 100.961 40.2664C100.961 42.233 99.7523 43.6227 97.4405 43.9111V43.9898C99.8837 44.016 101.434 45.4844 101.434 47.7132C101.434 50.5451 99.4634 52.3281 95.9955 52.3281ZM95.4701 38.5882H91.582V43.0721H94.8659C97.0727 43.0721 98.2549 42.1281 98.2549 40.6859C98.2549 39.4011 97.2566 38.5882 95.4701 38.5882ZM91.582 45.196V50.178H95.3125C97.493 50.178 98.6489 49.1816 98.6489 47.6083C98.6489 46.1399 97.493 45.196 95.6277 45.196H91.582Z" fill="#242424"></path><path d="M112.399 38.9029H112.137L109.72 45.7729H114.816L112.399 38.9029ZM119.913 52.3281H117.102L115.578 48.0016H108.932L107.408 52.3281H104.702L110.587 36.4381H114.107L119.913 52.3281Z" fill="#242424"></path><path d="M137.7 42.3903L135.178 42.5214C134.941 39.742 133.417 38.3523 130.633 38.3523C127.506 38.3523 125.641 40.6335 125.641 44.3831C125.641 48.2901 127.559 50.414 130.738 50.414C133.076 50.414 134.731 49.0505 135.125 46.743L137.7 46.9004C137.305 50.4927 134.652 52.5903 130.659 52.5903C125.825 52.5903 122.988 49.5487 122.988 44.5142C122.988 41.9183 123.697 39.8731 125.116 38.3785C126.534 36.9101 128.426 36.1759 130.764 36.1759C132.761 36.1759 134.416 36.7003 135.729 37.7492C137.043 38.8242 137.7 40.3713 137.7 42.3903Z" fill="#242424"></path><path d="M156.348 52.3281H153.8V45.5369H145.42V52.3281H142.871V36.4381H145.42V43.2032H153.8V36.4381H156.348V52.3281Z" fill="#242424"></path><path d="M173.437 52.3281H162.245V36.4381H173.384V38.6931H164.794V43.2032H171.966V45.432H164.794V50.0993H173.437V52.3281Z" fill="#242424"></path><path d="M188.525 52.3281H178.489V36.4381H181.038V50.0207H188.525V52.3281Z" fill="#242424"></path><path d="M192.276 44.3307C192.276 41.8397 193.012 39.8469 194.483 38.3785C195.954 36.9101 197.951 36.1759 200.447 36.1759C202.838 36.1759 204.755 36.9101 206.174 38.3523C207.593 39.8206 208.302 41.7872 208.302 44.2782C208.302 46.8217 207.566 48.8407 206.095 50.3353C204.624 51.8299 202.627 52.5903 200.132 52.5903C197.688 52.5903 195.771 51.8562 194.378 50.3615C192.986 48.8932 192.276 46.8741 192.276 44.3307ZM196.401 39.9255C195.429 41.0006 194.93 42.4952 194.93 44.3569C194.93 46.2186 195.403 47.7132 196.349 48.7883C197.294 49.8896 198.555 50.4402 200.158 50.4402C203.547 50.4402 205.649 48.0803 205.649 44.3045C205.649 40.6073 203.652 38.326 200.421 38.326C198.713 38.326 197.373 38.8505 196.401 39.9255Z" fill="#242424"></path><path d="M211.558 38.7456V36.4381H225.088V38.7456H219.597V52.3281H217.049V38.7456H211.558Z" fill="#242424"></path><path d="M35.8725 72.0111C55.0016 72.0111 70.5087 56.5039 70.5087 37.3749C70.5087 18.2459 55.0016 2.73871 35.8725 2.73871C16.7435 2.73871 1.23633 18.2459 1.23633 37.3749C1.23633 56.5039 16.7435 72.0111 35.8725 72.0111Z" fill="#B3AD97"></path><path d="M72.6674 37.1062C72.6495 37.4466 73.0168 37.3212 73.0884 37.3749C72.9809 36.8017 72.5689 37.1241 72.6674 37.1062Z" fill="#B3AD97"></path><path d="M71.3334 31.6335L71.4946 31.7141L71.002 30.9707L71.3334 31.6335Z" fill="#B3AD97"></path><path d="M70.1944 26.6178C69.7197 27.2627 70.7587 28.3913 70.7766 29.3407L70.6691 29.5198L71.2782 29.8064C70.9199 28.7316 70.2392 27.4239 70.1944 26.6178Z" fill="#B3AD97"></path><path d="M70.5362 23.5275C70.366 23.7872 70.1242 23.0259 70.6885 24.1813C70.6885 24.1097 70.6974 24.0918 70.7064 24.047C70.6616 23.9395 70.6079 23.7872 70.5362 23.5275Z" fill="#B3AD97"></path><path d="M70.7148 24.0469C70.7865 23.626 70.9298 24.5664 70.7148 24.0469V24.0469Z" fill="#B3AD97"></path><path d="M69.5684 21.7092L70.0879 22.2824C70.1595 22.0854 69.8998 21.4674 70.1058 21.6465C69.6669 21.0016 69.6042 21.2166 69.5684 21.7092Z" fill="#B3AD97"></path><path d="M68.8516 21.2883L69.1024 21.5929C69.1292 21.5033 69.1024 21.4048 68.8516 21.2883Z" fill="#B3AD97"></path><path d="M69.6224 22.2289L69.094 21.584C69.0492 21.7274 68.8611 21.8169 69.3179 21.8886C69.1208 21.9065 69.3537 21.9781 69.6224 22.2289Z" fill="#B3AD97"></path><path d="M69.7385 22.6764C69.8012 23.0974 69.8907 23.6258 69.416 23.0347C69.9893 24.2976 70.3654 23.9393 69.7385 22.6764Z" fill="#B3AD97"></path><path d="M69.4789 26.573C69.4789 26.7521 69.4789 26.9402 69.4609 27.1283L69.7834 27.5045C69.6401 27.3075 69.6849 26.4745 69.4789 26.573Z" fill="#B3AD97"></path><path d="M67.6608 17.4996C67.5175 17.5354 67.4817 17.9026 67.3652 18.0459L67.7772 18.4311C67.7146 18.1445 67.5085 17.6429 67.6608 17.5085V17.4996Z" fill="#B3AD97"></path><path d="M67.3563 18.0368L66.7383 17.4725C67.0876 18.0995 67.2488 18.1532 67.3563 18.0368Z" fill="#B3AD97"></path><path d="M68.1535 21.4856L69.1657 22.4529L68.0371 21.2617L68.1535 21.4856Z" fill="#B3AD97"></path><path d="M65.8872 14.902L66.4246 15.0901L65.5469 14.705L65.8872 14.902Z" fill="#B3AD97"></path><path d="M64.57 13.2807C65 13.3703 64.588 12.6448 64.9552 12.815C64.5342 12.4209 64.0326 12.2059 63.5938 12.0178C63.9879 12.2865 64.3013 12.6717 64.57 13.2897V13.2807Z" fill="#B3AD97"></path><path d="M62.8945 11.6776C63.0916 11.803 63.3334 11.9015 63.6021 12.018C63.3961 11.8747 63.1632 11.7582 62.8945 11.6776Z" fill="#B3AD97"></path><path d="M66.0307 16.2904C66.0576 16.1918 66.1651 15.9769 65.968 15.5559L65.8516 16.0396C65.9053 16.1202 65.968 16.2098 66.0397 16.2993L66.0307 16.2904Z" fill="#B3AD97"></path><path d="M65.8414 16.0484V16.0305C65.6443 15.7439 65.51 15.5558 65.4473 15.4662C65.492 15.5379 65.6174 15.717 65.8414 16.0484Z" fill="#B3AD97"></path><path d="M66.0844 16.3622C66.0844 16.3622 66.0575 16.3174 66.0396 16.2995C66.0306 16.3443 66.0306 16.3712 66.0844 16.3622Z" fill="#B3AD97"></path><path d="M67.4988 19.4791C67.0688 19.1836 66.3702 18.476 66.5762 19.4433C66.9703 19.5956 66.8539 19.0403 67.4988 19.4791Z" fill="#B3AD97"></path><path d="M65.9238 16.9444C66.0671 17.1862 66.1746 17.4549 66.3 17.7057C66.3806 17.6341 66.4165 17.4281 66.6314 17.5624C66.3896 17.3564 66.1746 17.1325 65.9238 16.9354V16.9444Z" fill="#B3AD97"></path><path d="M65.5742 16.6846L65.9235 16.9444L65.7623 16.6757L65.5742 16.6846Z" fill="#B3AD97"></path><path d="M63.6298 13.0123C63.2536 12.8511 62.9759 12.5555 62.6445 12.2331C62.9222 12.6451 63.2267 13.0482 63.5492 13.4064C63.6835 13.3796 63.9881 13.3975 63.6298 13.0123Z" fill="#B3AD97"></path><path d="M64.7229 14.4809C64.7229 14.4809 64.6781 14.445 64.6602 14.4271C64.6602 14.4898 64.6781 14.5256 64.7229 14.4809Z" fill="#B3AD97"></path><path d="M59.3848 9.13391L59.3937 9.23244L59.4564 9.19661L59.3848 9.13391Z" fill="#B3AD97"></path><path d="M63.5497 13.5139C63.7378 13.8364 63.9617 13.9349 64.1857 14.0155C63.9707 13.8364 63.7557 13.6393 63.5497 13.4064C63.487 13.4154 63.4602 13.4423 63.5497 13.5139Z" fill="#B3AD97"></path><path d="M61.8828 10.8803C61.9813 11.0684 62.0799 11.2744 62.1873 11.4804C62.1515 11.2475 62.0082 10.8534 61.8828 10.8803Z" fill="#B3AD97"></path><path d="M64.6602 14.2573L64.7049 14.2931C64.7049 14.1408 64.6781 14.1856 64.6602 14.2573Z" fill="#B3AD97"></path><path d="M64.6603 14.2571C64.499 14.1407 64.3378 14.078 64.1855 14.0153C64.3468 14.1765 64.499 14.3108 64.6513 14.4273C64.6513 14.3735 64.6513 14.3108 64.6513 14.2571H64.6603Z" fill="#B3AD97"></path><path d="M56.8052 10.2444C57.056 10.0115 58.0412 10.2534 58.3637 11.1043C59.1071 11.4267 59.5191 10.2176 59.4027 9.2323C59.2773 9.33978 59.2056 9.42039 58.4085 9.08899C58.5518 9.38457 59.5191 10.6296 58.7936 10.4056C57.88 9.82345 58.1845 9.76075 57.889 9.27708C57.9696 9.88615 56.3932 8.96359 56.2051 9.63536L57.0829 10.0026C57.0381 10.0922 56.6708 10.0205 56.8141 10.2444H56.8052Z" fill="#B3AD97"></path><path d="M60.5657 10.3429L60.8523 10.5399C60.6016 10.2264 60.4851 9.93087 60.2791 9.36658C59.7327 9.10684 59.5626 9.12475 59.4551 9.18745L60.6911 10.3787L60.5657 10.3339V10.3429Z" fill="#B3AD97"></path><path d="M61.9902 11.615C61.5424 11.6687 60.799 11.2567 60.8885 11.8837C61.623 12.5555 61.5961 12.1614 62.1335 12.4748C60.9691 11.3373 62.6083 12.6719 61.9634 11.6508C62.2321 11.8479 62.4381 12.0449 62.6351 12.242C62.4649 11.9912 62.3216 11.7404 62.1873 11.4896C62.1873 11.5075 62.1873 11.5165 62.1873 11.5344C62.2052 11.6239 62.1873 11.6598 62.1604 11.5792C62.1604 11.5792 62.1425 11.5612 62.1335 11.5612C62.0887 11.5881 62.035 11.5971 61.9813 11.606C61.7126 11.194 61.9992 11.4806 62.1335 11.5612C62.1514 11.5523 62.1694 11.5523 62.1873 11.5344C61.7753 11.1582 61.2826 10.8716 60.8438 10.5402C61.0587 10.8178 61.408 11.0865 61.9813 11.606L61.9902 11.615Z" fill="#B3AD97"></path><path d="M65.4308 19.1387C65.4308 19.076 65.4577 19.0671 65.4845 19.0491C65.395 18.9864 65.3412 18.9685 65.4308 19.1387Z" fill="#B3AD97"></path><path d="M65.2871 18.4667C65.3946 18.5383 65.5737 18.5383 65.735 18.8787C65.8066 19.2191 65.5737 18.9772 65.4752 19.0578C65.6812 19.1922 66.1201 19.5863 65.9141 18.8877L65.8156 18.816C65.6006 18.2069 65.5648 17.2306 65.6723 17.2933C65.4842 17.6516 65.3677 17.9293 65.2961 18.4756L65.2871 18.4667Z" fill="#B3AD97"></path><path d="M63.7367 15.0185C63.4322 14.6871 63.0739 14.4094 62.7246 14.1228L62.9217 14.8394L63.056 14.6871C63.477 15.3141 63.5486 15.0454 63.7367 15.0185Z" fill="#B3AD97"></path><path d="M59.3931 8.88289L59.7872 8.69479C59.4737 8.65001 59.1244 8.65897 58.793 8.64105L59.3841 8.88289H59.3931Z" fill="#B3AD97"></path><path d="M57.9235 7.8352L58.1922 7.59337L57.6816 7.47693L57.9235 7.8352Z" fill="#B3AD97"></path><path d="M7.92773 53.9183L8.19644 54.1691C8.08 54.0437 7.99939 53.9631 7.92773 53.9183Z" fill="#B3AD97"></path><path d="M6.71739 51.634L6.5293 51.6519C6.66365 51.7146 6.75322 51.7326 6.71739 51.634Z" fill="#B3AD97"></path><path d="M16.4903 6.06171C15.8096 6.08858 14.9497 6.00797 15.2363 6.30354L15.6036 6.53642C15.9171 6.25876 16.2126 6.13336 16.4903 6.06171Z" fill="#B3AD97"></path><path d="M1.99844 30.5853L2.14175 30.451C2.04323 30.2897 1.95366 30.1464 1.87305 30.0121C1.91783 30.1912 1.93575 30.3793 2.0074 30.5853H1.99844Z" fill="#B3AD97"></path><path d="M3.52119 31.2664L3.17188 31.9113C3.27936 31.768 3.3958 31.562 3.52119 31.2664Z" fill="#B3AD97"></path><path d="M17.7266 63.8425C17.9147 63.8156 18.0938 63.7888 18.2819 63.744C17.7534 63.3947 17.8788 63.6992 17.7266 63.8425Z" fill="#B3AD97"></path><path d="M41.0943 1.02803C40.6106 0.804107 40.2165 0.678711 39.8672 0.607056C40.4583 0.920546 40.8883 1.3236 41.0943 1.02803Z" fill="#B3AD97"></path><path d="M3.78906 55.0376C3.97716 55.2167 4.10255 55.2615 4.17421 55.2167C3.98611 55.0376 3.8428 54.948 3.78906 55.0376Z" fill="#B3AD97"></path><path d="M38.3984 0.508497C38.488 0.553281 38.5686 0.580152 38.6582 0.615979C39.0344 0.580152 39.4195 0.517453 39.8674 0.615979C39.4374 0.383101 38.909 0.284575 38.3984 0.517453V0.508497Z" fill="#B3AD97"></path><path d="M62.7422 55.5037C62.7422 55.5037 62.8049 55.4499 62.8407 55.432C62.8049 55.3962 62.778 55.432 62.7422 55.5037Z" fill="#B3AD97"></path><path d="M71.8529 42.2114C71.8529 42.3816 71.8081 42.6414 71.7812 42.8921C71.826 42.7757 71.8529 42.5697 71.8529 42.2114Z" fill="#B3AD97"></path><path d="M51.834 3.95662C51.9056 3.94766 52.1923 4.09993 51.834 3.95662V3.95662Z" fill="#B3AD97"></path><path d="M52.7747 6.11548C52.6851 6.11548 52.6045 6.14235 52.5508 6.214C52.6224 6.14235 52.6941 6.11548 52.7747 6.11548Z" fill="#B3AD97"></path><path d="M34.6812 2.86426C34.6812 2.86426 34.6633 2.86426 34.6543 2.86426C34.7618 2.93591 34.7439 2.918 34.6812 2.86426Z" fill="#B3AD97"></path><path d="M52.2719 4.35988C52.1644 4.25239 52.03 4.14491 51.8867 4.04639C51.9405 4.10908 52.0659 4.20761 52.2719 4.35988Z" fill="#B3AD97"></path><path d="M52.2812 4.16278C52.3977 4.23444 52.4783 4.28818 52.5679 4.34192C52.6395 4.30609 52.6216 4.25235 52.2812 4.16278Z" fill="#B3AD97"></path><path d="M51.341 3.74188C51.538 3.83145 51.7172 3.93893 51.8784 4.04642C51.8247 3.99267 51.8067 3.95685 51.8247 3.95685C51.7172 3.91206 51.5739 3.84936 51.332 3.74188H51.341Z" fill="#B3AD97"></path><path d="M40.2617 70.5154C40.2617 70.5154 40.3155 70.5244 40.3423 70.5423C40.6648 70.3273 40.5215 70.381 40.2617 70.5154Z" fill="#B3AD97"></path><path d="M11.8327 15.0721C11.8327 15.0721 11.8327 15.0453 11.8417 15.0273C11.8237 15.0273 11.8148 15.0453 11.7969 15.0542L11.8327 15.0721Z" fill="#B3AD97"></path><path d="M11.2327 16.1649C11.2148 15.4663 11.4656 15.2782 11.797 15.0632L10.6953 14.6064C10.8655 15.1349 11.0446 15.6544 11.2327 16.1649Z" fill="#B3AD97"></path><path d="M11.6623 58.8444L11.3577 57.9935C12.4773 58.3607 12.7908 59.0146 12.6475 58.1189C12.1728 58.4682 11.5548 57.9308 11.0532 57.3038C10.5516 56.6769 10.0411 56.0499 9.51261 56.3544L9.38722 55.7633C9.47678 55.8976 9.54844 55.8797 9.62905 56.0051C9.45887 54.8228 8.43779 55.8528 7.82872 54.5541C7.64958 54.0794 7.63167 53.7032 7.92725 53.9181L7.09426 53.1389C6.95991 52.8523 7.17487 52.8254 7.31818 53.1031C7.01365 52.6373 6.77181 52.1447 6.49415 51.661H6.52998C6.25231 51.5267 5.75073 51.1594 5.51785 50.9713C5.49098 50.5145 5.73282 51.1146 5.82238 50.9534C5.59846 50.7116 5.36558 50.4787 5.15958 50.2279C5.24019 49.9861 5.41933 50.0219 5.59846 50.1921C5.79551 50.3533 6.01048 50.6399 6.12692 50.9355C6.49415 50.2996 6.34188 50.1652 6.08213 49.9413C5.84926 49.7084 5.50889 49.3591 5.52681 48.3738L5.96569 49.1262C6.42249 48.3649 5.96569 47.8275 6.04631 46.8153C5.903 47.0751 5.67907 48.965 5.06105 48.141C5.06105 47.8454 4.95357 47.4961 4.55051 47.0482C4.96253 46.9139 4.72965 46.4392 4.55051 45.8122L5.11479 45.7047C4.78339 45.0688 4.51468 45.1942 4.15641 44.8538C4.0131 44.0746 4.39824 43.8238 4.74756 43.573C4.64904 42.328 4.17432 44.5672 3.85187 43.1162C3.87875 42.5788 3.80709 42.1399 3.66378 41.6831C3.52047 41.2263 3.27864 40.7516 3.0995 40.1246C3.26072 39.3632 3.45777 40.2231 3.61004 39.9454L3.11741 39.3185C3.11741 39.1572 3.26072 39.202 3.33238 39.2199C3.12637 38.6736 2.75914 39.211 2.56209 38.3242C2.2486 38.2168 2.42773 37.742 2.66061 37.1867C2.9114 36.6224 3.15324 35.9775 2.82184 35.4133C3.00097 35.1535 3.1622 35.5655 3.39507 35.4939C3.00097 33.9802 3.09054 34.2041 2.66061 32.9053L3.18907 31.9201C2.65165 32.6187 2.29338 31.5618 2.01572 30.5945C1.76493 30.8363 1.54996 31.0423 1.44248 31.1946C1.41561 30.693 1.37978 30.1914 1.41561 29.7077C1.54996 29.5555 1.70223 29.7436 1.88136 30.0212C1.86345 29.9137 1.83658 29.8152 1.80971 29.7346C2.14111 29.2778 2.40086 29.6182 2.62478 30.0391L2.15007 30.4601C2.43669 30.8811 2.76809 31.2662 3.10845 31.2573C3.05471 31.1588 3.02784 30.9707 3.02784 30.7826C3.10845 30.89 3.18011 30.9617 3.24281 30.9348C3.31446 30.899 3.18907 30.7288 3.11741 30.487L3.81605 30.3168L3.58317 30.1914L4.41616 28.5613C4.3445 28.2119 4.23702 27.8626 4.14745 27.4954C4.08475 27.1461 4.02206 26.7788 3.97727 26.3847C3.90562 25.6145 3.86083 24.7188 4.16536 23.6887C4.37137 24.3515 4.81922 24.0918 5.3208 24.3336C4.55947 24.6292 4.99835 25.919 4.52364 26.8595C4.77443 26.3579 4.98044 26.5639 5.01627 26.7251L5.15958 24.7725C5.56263 24.9875 5.60742 24.5217 6.00152 24.1634C5.01627 24.1366 6.07318 22.6497 6.16274 21.8257C6.44936 21.9242 6.64642 22.2288 6.1717 23.0349C7.22861 22.4258 5.7776 21.3241 6.84347 20.724C6.72703 20.9211 6.6285 21.0106 6.70911 21.1629C6.7539 20.5717 7.63167 19.5417 7.68541 19.9537L7.56897 20.1508C7.79289 19.8373 8.05264 19.4342 8.30344 18.9953C8.5811 18.5654 8.89459 18.1355 9.14538 17.6966C9.66488 16.8367 9.97837 16.0127 9.78132 15.6992C9.86193 15.7529 10.3546 16.4337 10.4262 16.6038C10.3456 15.3857 10.3456 14.1407 10.3814 12.824C10.6949 13.451 12.4325 13.863 11.8504 15.0454C12.1728 14.8573 12.5042 14.5706 12.8983 13.8989C12.6475 13.9884 11.7787 13.6481 11.9847 13.3704C13.1849 13.2629 12.746 13.2092 14.009 12.8957C13.6417 13.039 13.2566 12 13.7313 11.6149C13.7671 11.794 14.4299 12.3493 14.3404 12.5733C14.4747 11.9911 14.618 11.3999 14.8151 10.8625C14.627 11.2297 15.2987 11.5701 15.7287 11.597C15.4868 11.5343 16.7408 10.8715 16.9826 10.558L16.3557 10.7371C17.735 9.86828 16.8841 8.63224 18.362 7.78133C18.2903 8.06796 18.6038 9.13382 19.3741 8.81137C19.4099 8.49788 19.4458 7.70968 19.6787 6.92148C19.9115 6.14223 20.3146 5.29133 20.9326 4.77183L21.3267 4.91514C21.6402 4.64643 21.9447 4.35086 22.2851 4.12693C22.0701 4.59269 21.685 5.47046 21.273 6.31241C20.8699 7.16331 20.4489 7.97839 20.1355 8.49788C20.7893 8.42623 20.4489 8.73076 21.2551 8.30979C21.6671 8.41727 21.0043 8.89199 20.7714 9.02634L22.715 8.29188C22.5448 8.04108 22.8494 7.72759 23.1539 7.42306C23.4764 7.15435 23.8167 6.90356 23.6824 6.67964C23.0196 7.10061 22.4284 7.67385 21.8283 8.18439C21.6581 7.9336 21.7656 7.40515 22.1239 6.85878C22.4642 6.28554 23.0823 5.79291 23.8436 5.57795C24.3004 5.66752 23.9511 6.67964 24.0586 6.85878C24.166 6.59903 25.2677 5.98996 25.4469 6.08849L24.9542 6.61694C25.3842 6.58112 25.635 6.27658 25.9305 5.99892C26.2261 5.73021 26.5844 5.55108 27.1487 5.69439C27.498 5.64064 28.3399 6.18701 28.3131 5.82874C27.6144 5.30028 26.9427 3.27603 27.2203 2.67592C27.292 2.67592 27.8115 2.72071 28.3668 2.7834C28.9221 2.82819 29.5222 3.02524 29.7641 3.15064C30.4448 3.58952 29.1102 4.54791 29.7014 4.9241C29.6924 4.76287 29.9701 4.51208 30.0955 4.43147C30.4896 4.51208 30.0328 4.95992 30.812 4.76287C30.8568 4.13589 32.4332 4.56582 31.1166 4.19859C31.8779 3.92093 31.9585 4.1538 32.8811 4.07319C32.5407 3.697 33.6155 2.69384 34.4485 2.47887C34.4037 2.64009 34.6008 2.82819 34.6904 2.91776C35.1113 2.91776 35.4786 2.91776 35.8189 2.93567C36.1593 2.9715 36.4817 3.04315 36.7863 3.08794C37.4132 3.19542 38.0134 3.29395 38.7836 3.33873C38.918 3.491 39.6345 3.71492 39.2942 3.95675C39.5181 3.87614 39.742 3.70596 40.2167 3.7597C41.0497 4.42251 39.1688 3.67909 39.7779 4.41355C39.8764 4.07319 41.0318 4.10902 41.7394 3.99258C41.623 3.41934 40.1988 3.65222 39.5181 3.76866C39.5898 3.01628 40.8616 2.40722 42.6082 2.3266C43.9607 2.38035 43.074 2.92671 43.3248 2.85506C44.516 3.23125 45.1072 3.04315 45.6536 2.89089C46.1999 2.73862 46.7015 2.61322 47.6062 3.25812C48.2331 4.00154 47.3285 4.17172 47.3822 4.56582C46.8538 4.47625 46.4955 4.25233 46.1731 4.04632C45.8506 3.85823 45.564 3.67013 45.2057 3.58952L46.0029 4.02841C45.6267 4.10006 44.9101 4.03737 44.5698 3.80449C45.1251 4.32399 48.5198 5.04053 50.0424 6.24075C50.4096 6.24075 51.0008 6.33928 50.8396 6.0437L50.2753 5.84665C49.9349 5.2555 51.5293 5.84665 50.9112 5.35402C51.3412 5.40777 51.8069 5.44359 52.2906 5.55108C52.5324 5.60482 52.7832 5.67647 53.0251 5.78395C53.2579 5.90935 53.4908 6.06162 53.7147 6.26763L53.6252 6.85878C53.6879 6.70651 53.1415 6.17806 52.7832 6.16014C53.3296 6.19597 53.9118 7.70968 54.7358 7.36932L54.2432 6.6259C55.0762 6.83191 56.3391 6.83191 57.0646 7.63803C56.9929 6.91252 56.8407 7.5395 56.5899 6.57216C56.7063 7.56637 54.288 5.1301 54.7448 6.37511C54.4582 5.36298 53.7953 5.3809 53.1773 4.38668C53.1236 4.55686 53.3385 4.85244 52.5772 4.38668C52.5145 4.41355 52.3981 4.43147 52.3264 4.44042C52.3085 4.42251 52.2995 4.41355 52.2816 4.4046L52.3175 4.44938C52.2727 4.44938 52.2637 4.45834 52.3264 4.4673C52.4787 4.62852 52.5951 4.78974 52.613 4.90618C52.0308 5.08532 50.7858 4.4673 50.2753 4.4673C49.8454 4.16276 50.553 4.36877 50.3738 4.07319C50.123 4.07319 49.8633 4.07319 49.6035 4.09111C49.7021 3.697 48.5466 2.98941 49.8006 3.20438L48.7526 2.80132C48.2063 2.37139 47.3733 1.95042 46.7911 1.94146C46.2985 1.72649 45.3669 2.03103 45.9043 1.84293L44.1398 1.64588V1.54736C43.3158 1.26969 42.3933 1.34135 41.4797 1.27865C40.5571 1.23387 39.6435 1.03682 38.6762 0.660628C38.085 0.732283 37.4849 0.821851 36.5086 0.660628L36.3205 0.302353C35.5771 0.374008 34.0455 0.0426041 33.732 0.400879C33.517 0.176957 33.1766 0.0694747 32.7646 0.0246904C32.3526 -0.0290508 31.8689 0.00677665 31.3853 0.114259C30.409 0.302353 29.3879 0.606887 28.7161 0.6248L28.752 1.0816C27.8473 1.21595 27.0322 1.61006 25.9932 2.04894L26.1634 2.41617C25.3215 2.91776 23.7361 2.89089 22.303 3.44621C22.3388 3.26708 22.724 3.16855 23.0106 3.15959C22.5001 3.10585 22.0343 3.20438 21.5865 3.37456C21.1565 3.57161 20.7624 3.87614 20.3773 4.16276C19.616 4.76287 18.8815 5.30924 18.0216 5.45255C17.744 5.79291 17.4663 5.90039 17.1618 5.96309C17.1976 5.94518 17.2155 5.91831 17.2424 5.89144C17.2066 5.90935 17.1528 5.94518 17.0991 5.97205C16.911 6.00788 16.705 6.03475 16.499 6.08849C16.696 6.08849 16.8841 6.06162 17.0274 6.01683C16.7587 6.18701 16.3736 6.48259 16.0243 6.81399L15.6122 6.55424C15.6122 6.55424 15.5585 6.59903 15.5227 6.6259C15.039 6.73338 15.3167 6.99313 15.7108 7.12748C15.5406 7.29766 15.4241 7.51263 15.3525 7.69177C14.6539 7.34245 14.5105 8.61432 13.6596 8.31875C13.6417 8.56058 13.2118 8.96364 12.8267 9.40253C12.4684 9.87724 12.1638 10.3878 12.3251 10.755C12.2445 10.6923 12.1191 10.755 12.2982 10.5759C11.8593 10.8535 11.4204 11.1402 11.2234 11.6059L10.677 11.3551C10.5606 11.7761 10.471 12.215 10.3993 12.6718C9.70071 12.9405 9.36034 13.0301 9.52157 12.2239C8.88563 13.8899 8.77815 13.3883 8.35718 14.8483L8.1243 14.5706C7.82872 14.9827 7.7302 15.9052 7.31818 15.9679C6.01048 16.4158 4.13849 20.4643 2.44565 22.8647C3.04576 22.8199 2.78601 23.0707 2.49043 23.4021C2.21277 23.7425 1.87241 24.1545 2.23068 24.3515C1.94406 24.4232 1.67536 24.7546 1.63057 24.2351C1.36187 25.7219 0.43931 26.2235 0.869239 27.4237C0.591576 27.5223 0.600533 27.0117 0.421396 27.1192C0.43931 27.2536 0.510965 27.6387 0.331827 27.7551C0.15269 27.8626 0.188517 27.4864 0.143733 27.2267C-0.205585 28.7404 0.502008 29.0628 1.16482 29.3316C0.905066 29.654 0.761757 29.9227 0.725929 30.1735C0.716972 30.4332 0.806541 30.684 0.994635 30.9975C0.725929 31.2125 0.421396 31.6066 0.475137 30.6751C0.367655 31.1767 -0.366808 33.81 0.233302 33.9175C0.0810351 34.0697 0.15269 34.643 0.215388 34.7863C0.125819 35.9507 0.0631213 36.0492 0.0631213 37.2046L0.170604 36.8911C0.815498 37.3479 0.32287 37.8316 0.448266 38.7542L0.376612 38.7273C0.179561 39.7932 0.251215 40.026 0.313914 40.241C0.403482 40.4649 0.367655 40.6799 0.269129 41.7458L0.681145 41.5845C1.63057 41.6472 0.412439 43.4744 0.958808 44.6299L1.12899 44.1552C1.52309 44.7284 0.340784 46.2152 0.385568 46.9318C0.340784 47.093 0.206431 46.7347 0.0899919 46.5466C0.018337 48.4365 0.690102 46.6273 1.1469 47.8723C0.931937 48.1947 0.304957 47.7916 0.519921 48.6694C0.484094 48.9202 0.940894 49.4666 1.38874 50.0936C1.85449 50.7205 2.23964 51.464 2.25755 52.1178C2.35608 51.7775 2.4546 51.455 2.88453 51.9297C3.3682 52.709 3.1622 54.6347 4.24598 55.0109C4.24598 55.1452 4.21911 55.2169 4.17432 55.2438C4.71173 55.7633 5.6522 57.071 6.20753 57.2143C5.75969 57.9039 6.60163 58.6922 7.36296 59.3997C8.10638 60.1163 8.89459 60.6537 8.37509 61.1015L9.91567 62.6869L9.77236 62.7407C10.686 63.8334 11.3309 63.8782 11.8951 63.9767C12.0743 64.2633 11.8145 64.2006 11.7429 64.2365C13.0506 65.8487 13.3551 65.8666 15.1017 66.3503L14.9853 66.816C15.245 66.8519 15.7287 67.452 16.4631 68.0342C16.8214 68.3387 17.2334 68.6611 17.6813 68.9478C18.1291 69.2344 18.6038 69.4852 19.1233 69.5747C19.0785 69.6106 19.0069 69.6733 18.8278 69.6553C19.9832 69.8972 21.0401 70.8287 22.097 71.4109C23.1539 71.9841 24.1123 72.3693 24.7482 71.7423C25.2498 71.805 25.7783 71.7602 26.2888 71.7692C24.4885 71.178 26.7546 71.1691 26.0739 70.7123C26.7994 70.8018 27.7846 71.6527 26.8889 71.5094L26.7725 71.393C26.2351 72.1095 28.9759 72.2887 28.8236 72.7992C32.5407 73.4889 36.2668 74.0173 39.8674 73.7307C39.7062 73.5337 39.5539 73.3456 39.3927 73.1306C39.8047 73.1037 40.2078 73.041 40.6198 72.9963C40.9602 73.0948 41.1214 73.4352 40.2347 73.5426C40.7542 73.8382 41.6767 73.0052 41.6678 72.8619C43.4323 72.8619 41.1214 73.7218 41.6498 73.6501L42.3664 73.4889L42.1873 73.4352C42.7247 73.059 42.7336 72.853 43.7637 72.6022C44.4444 72.5663 44.1936 72.9067 44.4533 72.8709C44.4623 72.9157 44.5519 72.9156 44.8564 72.7903L46.4059 72.4499L45.6536 72.1095C46.2537 71.6975 47.0777 71.7513 46.2178 71.384C46.8448 71.6796 48.2421 71.2228 49.5677 70.7481C50.8665 70.2017 52.0308 69.5031 52.3891 69.5031C52.5683 69.315 52.7474 69.1448 52.9444 68.9925C53.1325 68.8224 53.3206 68.6701 53.5266 68.5178C53.9387 68.2223 54.3955 67.9535 54.915 67.6669C54.6104 67.7296 54.1536 67.3176 55.0403 66.8608C55.2016 67.452 55.6942 67.3534 56.2406 67.0579C56.7869 66.7623 57.4229 66.3413 58.023 66.4309C57.5483 66.4309 58.1125 65.9562 58.6141 65.4994C59.1157 65.0426 59.4829 64.5231 58.8022 64.6037C59.4919 64.1111 59.1336 64.9082 59.7964 64.6932C60.101 64.2633 60.4682 63.8782 60.8802 63.502C61.0952 63.3228 61.3101 63.1348 61.5251 62.9467C61.7401 62.7496 61.955 62.5526 62.17 62.3466C63.0388 61.5404 64.0599 60.7522 64.7227 59.6595C64.6242 59.5341 64.1763 59.7222 64.3197 59.1489L65.7528 58.5488C65.9767 58.0831 65.3139 57.689 66.2364 57.2143C66.0573 57.2501 65.7975 57.3038 65.9229 56.9903C67.562 55.1273 68.6369 52.7985 69.4519 50.416C69.846 49.2158 70.3118 48.0424 70.6611 46.8333C70.8582 46.2332 71.0821 45.642 71.3329 45.0508C71.5926 44.4597 71.7807 43.8506 72.0673 43.2595C71.6643 43.8865 71.7001 43.4297 71.7718 42.9102C71.6464 43.2326 71.3866 42.8385 71.1717 42.8743C71.4583 42.2205 71.7897 41.5577 72.0494 40.8769C71.4762 40.447 72.1211 38.6198 71.5658 38.3869L71.6374 39.0498C71.0104 38.172 70.0968 40.1783 69.2459 39.9633C69.4251 40.2052 69.434 40.4739 69.3713 40.7695C69.2907 41.0561 69.1026 41.3606 68.9324 41.6741C68.5921 42.3101 68.2876 42.9997 68.7085 43.8417C68.4846 44.1372 68.4756 43.5103 68.2607 43.6446C68.5831 44.0925 68.5204 44.5493 68.1532 45.3375L68.0905 45.221C67.8218 46.3765 67.6068 47.2005 67.159 47.9797C66.953 48.3738 66.738 48.7679 66.5051 49.2247C66.2723 49.6726 66.0394 50.1742 65.6721 50.7295H66.1469C65.8423 51.2132 65.6721 51.2669 65.4661 51.464C65.7617 52.3328 66.1916 50.0398 66.5857 50.8639C66.0215 51.034 65.5826 51.9387 65.1437 52.8075C64.6869 53.6674 64.1136 54.4376 63.5852 54.4018C63.1284 55.1363 64.1316 54.4376 63.6748 55.19L63.3344 55.2438L63.5046 55.6199C63.1642 56.0857 62.6805 56.1036 62.4925 55.9961C62.5999 55.8976 62.6716 55.6468 62.7432 55.5214C62.0446 55.9245 61.5968 57.2322 61.3639 57.3755L61.9909 56.8112C61.6774 57.3128 61.346 57.8502 60.9429 58.3428C60.513 58.8175 60.0741 59.3102 59.6442 59.7938C59.4292 60.0357 59.2142 60.2865 58.9993 60.5283C58.7664 60.7522 58.5425 60.9762 58.3186 61.209C57.8797 61.6658 57.4856 62.1405 57.1452 62.6332L57.405 62.669C56.2764 64.1021 56.142 63.3676 54.7089 64.6932L54.7358 64.6126C54.5477 65.0247 54.1447 65.365 53.6789 65.6248C53.9745 65.1769 52.6489 65.7143 53.0609 65.168C51.6278 66.4846 52.4429 65.9472 51.6726 67.2101L51.2516 67.0489C50.9918 67.5057 51.0366 67.6669 50.1768 68.1685C50.7858 67.5594 49.3975 67.9804 50.0514 67.246C49.514 67.2997 49.1019 67.452 48.7616 67.6401C48.4123 67.8102 48.1167 67.9894 47.848 68.1596C47.3195 68.4999 46.8896 68.7686 46.2895 68.4193C45.6983 69.6106 48.1167 68.2939 47.6868 68.6611C48.2152 68.7865 47.1852 69.5747 46.5313 69.718C45.8954 69.9599 45.0982 68.9119 43.5487 69.3508C43.7099 69.315 43.701 69.2433 43.8532 69.2075C43.5308 69.1717 43.2621 69.3239 42.9755 69.4583C42.6888 69.6106 42.3664 69.7181 41.9633 69.5747C41.6498 70.1838 41.0049 69.6912 40.996 70.4077L42.4649 70.0226C41.6678 70.3271 40.9781 71.2765 39.5002 71.0974C39.5987 70.9362 39.9928 70.6854 40.2615 70.5421C39.8226 70.3898 39.4912 70.8287 39.0434 70.6317C39.0971 69.9599 40.8437 70.2107 41.6498 69.5568C41.1751 69.3239 40.0376 70.3182 40.378 69.4941C40.1272 70.0315 39.7241 70.0584 39.2673 70.0674C38.8016 70.0405 38.291 69.9688 37.7626 70.3719L37.8073 69.942C37.6372 70.0136 37.2878 70.2375 36.9654 70.2375L37.5207 69.6553C36.6519 70.1659 35.8279 69.3687 34.9949 69.5389C35.8727 69.5837 35.9712 69.7091 35.9443 69.8703C35.9174 70.0405 35.7562 70.2555 36.1414 70.3898C33.9111 70.8914 34.8964 69.2344 32.487 69.315C32.8094 69.2971 33.6961 69.6374 33.1677 69.8076C32.7109 69.718 32.1197 69.4673 31.8689 69.1896C30.2746 69.0373 32.057 69.6643 31.3405 69.8166C30.8658 69.2165 30.5254 69.9062 29.773 69.9599L29.8447 69.53C29.3968 69.4046 29.1371 69.3687 28.9759 69.3866C28.8057 69.4135 28.734 69.5031 28.6534 69.6016C28.5101 69.7897 28.3847 69.9778 27.5965 69.6016L28.4295 69.1985L27.5517 69.1269L27.8473 68.697C26.8531 68.7955 26.5575 68.697 25.7424 68.2402C25.8499 68.6074 25.3842 68.9478 24.596 68.6701C24.1481 68.2312 25.0349 68.3924 23.9063 68.0521C24.2556 67.8908 24.6408 67.6669 24.9811 68.2223C25.0796 68.1058 25.3125 68.0521 25.411 67.9446C24.9542 67.4609 24.0317 67.3714 23.6376 67.228C23.7809 67.2997 23.9511 67.3803 24.0227 67.4788C23.7272 67.4788 23.4226 67.4788 23.127 67.4609L22.2403 67.3624C22.0701 67.1026 22.312 67.0758 22.5538 67.0489C22.2314 66.9414 21.9358 67.022 21.4611 66.8339C21.7298 66.5742 21.8641 66.2338 22.5628 66.3861L20.9684 66.0547C20.9416 65.8756 20.44 65.3292 20.6818 65.3023C20.0638 64.6664 18.4963 64.8007 17.6723 63.914C17.5827 63.9319 17.4484 63.914 17.2245 63.8065C16.8035 63.4393 16.4721 63.0273 16.069 62.66C15.872 62.472 15.6481 62.3107 15.4062 62.1495C15.1734 61.9704 14.9136 61.8181 14.5912 61.6927L14.4747 60.7343C13.6238 60.1611 14.6807 61.9972 13.2566 61.0209C12.2176 60.3402 13.2924 60.3402 13.1222 59.9192C12.5042 59.7132 11.3129 59.355 10.9457 58.1995C11.2861 58.3966 11.4025 58.6653 11.6712 58.8892L11.6623 58.8444ZM5.06105 48.1499C5.23123 48.3559 5.66116 48.7142 5.48202 48.974C4.9267 48.8844 5.07001 48.5978 5.06105 48.1499ZM3.28759 28.8748C3.37716 29.0897 3.23385 29.3584 2.99202 29.6361C3.01889 29.3942 3.0995 29.1345 3.28759 28.8748ZM47.839 2.69384C47.839 2.69384 47.8122 2.69384 47.8032 2.70279C47.2747 2.33556 47.4628 2.46991 47.839 2.69384ZM48.9766 3.31186C49.1199 3.3029 49.1288 3.2402 49.1019 3.16855C48.9766 3.2402 48.7078 3.15064 48.4123 3.00733C48.4571 3.14168 48.5825 3.27603 48.9766 3.31186ZM44.5698 72.6559L44.3011 72.6111C44.8116 72.3514 44.6862 72.5036 44.5698 72.6559Z" fill="#B3AD97"></path><path d="M3.3504 31.1768C3.26979 31.2305 3.18918 31.2395 3.09961 31.2395C3.15335 31.3469 3.24292 31.3649 3.3504 31.1768Z" fill="#B3AD97"></path><path d="M17.627 63.8601L17.6538 63.8869C17.6538 63.8869 17.7076 63.8601 17.7255 63.8422L17.627 63.8601Z" fill="#B3AD97"></path><path d="M30.1938 5.03178C29.952 5.00491 29.8087 4.95117 29.7012 4.87952C29.7012 4.987 29.8355 5.05865 30.1938 5.03178Z" fill="#B3AD97"></path><path d="M55.407 5.68535L54.6367 5.35394C54.995 5.54204 55.0666 5.70326 55.201 5.86448C55.2368 5.76596 55.1741 5.55995 55.407 5.6943V5.68535Z" fill="#B3AD97"></path><path d="M59.3396 12.0089C59.4561 12.0447 59.5188 12.1701 59.6442 12.206L59.7606 12.0358C59.3934 11.7223 59.0351 11.6148 59.3486 12.0089H59.3396Z" fill="#B3AD97"></path><path d="M55.2907 7.28894C55.1384 7.63826 55.6579 7.7547 56.1327 8.05027C56.1058 8.03236 56.0789 8.01445 56.052 7.98758C56.482 7.66513 55.8998 7.44121 55.2907 7.28894Z" fill="#B3AD97"></path><path d="M56.2402 8.11285C56.3835 8.20242 56.5358 8.30095 56.6612 8.41739C56.8314 8.29199 56.5179 8.25616 56.2402 8.11285Z" fill="#B3AD97"></path><path d="M50.5807 3.67909C50.7867 3.8851 50.921 3.32977 51.0016 3.52682C51.4674 3.22229 49.1207 3.26707 50.5807 3.67909Z" fill="#B3AD97"></path><path d="M55.0129 8.52501L55.0935 8.05029L54.6367 8.1936L55.0129 8.52501Z" fill="#B3AD97"></path><path d="M51.4395 6.10657L52.1739 6.5992C52.2008 6.52754 52.3172 6.5365 52.4605 6.56337C51.9858 6.31258 51.4842 5.98117 51.4484 6.10657H51.4395Z" fill="#B3AD97"></path><path d="M52.4609 6.56323C52.7028 6.69759 52.9357 6.8409 53.1058 6.85881C52.9715 6.78715 52.6938 6.61697 52.4609 6.56323Z" fill="#B3AD97"></path><path d="M53.9296 8.0231L53.7594 7.80813L53.2578 7.46777L53.9296 8.0231Z" fill="#B3AD97"></path><path d="M42.5894 2.9805L41.622 2.96259C41.5056 3.09694 41.7385 3.23129 42.0967 3.22233C42.3386 3.15068 42.7058 3.15068 42.5894 2.9805Z" fill="#B3AD97"></path><path d="M45.0626 4.85248C44.8476 4.70021 44.8566 4.60168 44.7581 4.42255L44.5879 4.951L45.0626 4.85248Z" fill="#B3AD97"></path><path d="M42.4281 4.33289C42.3027 4.46724 41.0398 4.56576 42.1863 4.70907C42.3027 4.55681 43.2342 4.61055 42.4281 4.33289Z" fill="#B3AD97"></path><path d="M28.5 3.79536L28.7329 3.7237L28.509 2.83698L28.5 3.79536Z" fill="#B3AD97"></path><path d="M18.2552 10.4235C19.2673 10.0652 18.1656 9.82335 19.124 9.55465C19.2225 9.24116 18.3447 9.76961 18.4612 9.48299C18.0312 10.0114 17.6819 10.0741 18.2552 10.4235Z" fill="#B3AD97"></path><path d="M18.4609 9.48315C18.5326 9.40254 18.6042 9.30402 18.6669 9.19653C18.5326 9.33984 18.4878 9.42046 18.4609 9.48315Z" fill="#B3AD97"></path><path d="M72.5958 39.4888L72.8197 38.7275L72.4883 39.2111L72.5958 39.4888Z" fill="#B3AD97"></path><path d="M71.9863 38.0018L72.5775 37.8316L72.0759 37.3748C72.0938 37.545 72.1296 37.8764 71.9863 38.0018Z" fill="#B3AD97"></path><path d="M5.59813 46.0273H5.45482C5.33838 46.1616 5.36525 46.3139 5.419 46.6184L5.60709 46.0273H5.59813Z" fill="#B3AD97"></path><path d="M8.84965 54.348L8.778 54.2047L8.48242 54.7332L8.84965 54.348Z" fill="#B3AD97"></path><path d="M14.0536 59.749C13.8387 59.543 13.5162 59.3549 13.3281 59.1131C13.8208 59.552 13.6595 60.2685 14.0536 59.749Z" fill="#B3AD97"></path><path d="M37.3361 12.9538L34.6112 21.2768C34.6112 21.2768 30.4495 19.4933 25.5942 19.4437C16.5773 19.3942 11.722 25.7851 11.722 31.8787C11.722 37.2787 15.5864 42.431 24.0088 42.5301C30.9945 42.5797 35.6021 39.6567 35.6021 39.6567C36.147 40.3503 36.4938 41.242 36.4938 42.1833C36.4938 45.1558 33.1249 48.6733 24.207 48.6733C13.456 48.6733 6.22266 41.143 6.22266 30.4915C6.22266 19.9887 14.0506 10.229 25.2474 10.229C32.5304 10.229 37.3361 12.9538 37.3361 12.9538Z" fill="#242424"></path><path d="M45.3434 63.4475C36.6297 62.8022 37.1248 58.2354 38.6101 55.257C38.9567 55.7038 39.6498 56.1009 40.64 56.4484C39.5508 52.4772 40.4419 41.3084 40.2934 34.2596C39.5508 34.3093 38.8081 34.3589 38.1645 34.4582L37.4219 26.1188C37.4219 26.1188 41.1846 25.5728 45.987 25.5728C54.2551 25.5728 65.5432 27.2108 65.5432 36.2452C65.5432 41.5566 61.0874 43.9889 53.6115 44.7335V44.9321C60.6913 45.081 66.8305 46.9176 66.8305 53.5197C66.8305 61.462 56.7305 64.2914 45.3434 63.4475ZM60.0477 38.1811C60.0477 35.0539 53.2649 33.9618 46.6306 33.9618C46.3831 36.543 46.1355 39.6207 45.987 42.6487C49.9478 42.4501 60.0477 41.358 60.0477 38.1811ZM46.3336 57.3915C53.1164 57.9872 62.2261 56.7959 62.2261 53.0729C62.2261 49.8464 53.7105 48.3572 45.6899 48.8536C45.6404 52.6758 45.789 55.952 46.3336 57.3915Z" fill="#242424"></path></svg>