<svg xmlns="http://www.w3.org/2000/svg" width="64" height="64" viewBox="0 0 64 64" fill="none"><circle cx="32" cy="32" r="32" fill="#B3AD97"></circle><path d="M36.5688 43.7538L35.9139 44.5096L35.9139 44.5096L36.5688 43.7538ZM41.35 49L40.5014 49.5291C40.6811 49.8172 40.9947 49.9945 41.3342 49.9999C41.6737 50.0052 41.9927 49.838 42.1814 49.5557L41.35 49ZM46.1313 43.7538L46.7861 44.5096L46.7861 44.5096L46.1313 43.7538ZM28.6 48.9998L27.7461 49.5203C27.9248 49.8134 28.2412 49.9943 28.5843 49.9997C28.9275 50.0051 29.2494 49.8341 29.4371 49.5468L28.6 48.9998ZM20.1 39.4613L19.4368 40.2097L19.4368 40.2097L20.1 39.4613ZM41.35 36.95C40.7977 36.95 40.35 37.3977 40.35 37.95C40.35 38.5023 40.7977 38.95 41.35 38.95V36.95ZM41.3653 38.95C41.9176 38.95 42.3653 38.5023 42.3653 37.95C42.3653 37.3977 41.9176 36.95 41.3653 36.95V38.95ZM41.35 29.3C36.5845 29.3 32.7 33.1187 32.7 37.8555H34.7C34.7 34.2466 37.6655 31.3 41.35 31.3V29.3ZM32.7 37.8555C32.7 40.5739 33.8164 42.6921 35.9139 44.5096L37.2236 42.998C35.4961 41.5012 34.7 39.909 34.7 37.8555H32.7ZM35.9139 44.5096C37.2374 45.6563 39.6004 48.084 40.5014 49.5291L42.1986 48.4709C41.1385 46.7707 38.5963 44.1874 37.2236 42.998L35.9139 44.5096ZM42.1814 49.5557C43.1466 48.1116 45.4808 45.6405 46.7861 44.5096L45.4764 42.998C44.0855 44.2032 41.6138 46.8057 40.5186 48.4443L42.1814 49.5557ZM46.7861 44.5096C48.8836 42.6921 50 40.5739 50 37.8555H48C48 39.909 47.2039 41.5012 45.4764 42.998L46.7861 44.5096ZM50 37.8555C50 33.1187 46.1155 29.3 41.35 29.3V31.3C45.0345 31.3 48 34.2466 48 37.8555H50ZM35.6098 28.6C35.6098 24.7616 32.4982 21.65 28.6598 21.65V23.65C31.3937 23.65 33.6098 25.8662 33.6098 28.6H35.6098ZM28.6598 21.65C24.8214 21.65 21.7098 24.7616 21.7098 28.6H23.7098C23.7098 25.8662 25.9259 23.65 28.6598 23.65V21.65ZM21.7098 28.6C21.7098 32.4384 24.8214 35.55 28.6598 35.55V33.55C25.9259 33.55 23.7098 31.3338 23.7098 28.6H21.7098ZM28.6598 35.55C29.388 35.55 30.0918 35.4376 30.7538 35.2288L30.1522 33.3214C29.6823 33.4696 29.1812 33.55 28.6598 33.55V35.55ZM31.3561 43.9103C29.9478 45.5039 28.6156 47.1477 27.7629 48.4528L29.4371 49.5468C30.2106 48.3631 31.4675 46.8045 32.8547 45.2347L31.3561 43.9103ZM29.4538 48.4793C27.633 45.4924 23.1846 40.8585 20.7632 38.7129L19.4368 40.2097C21.8085 42.3114 26.0808 46.7885 27.7461 49.5203L29.4538 48.4793ZM20.7632 38.7129C17.5474 35.8632 16 32.7513 16 28.7372H14C14 33.3992 15.8526 37.0336 19.4368 40.2097L20.7632 38.7129ZM16 28.7372C16 21.6931 21.6506 16 28.6 16V14C20.5272 14 14 20.6075 14 28.7372H16ZM28.6 16C34.8494 16 40.0487 20.6036 41.0326 26.6546L43.0067 26.3337C41.8703 19.3449 35.8605 14 28.6 14V16ZM41.35 38.95H41.3653V36.95H41.35V38.95Z" fill="#F2F2F2"></path></svg>