<svg xmlns="http://www.w3.org/2000/svg" width="26" height="26" viewBox="0 0 26 26" fill="none"><path d="M1 13C1 7.34315 1 4.51472 2.75736 2.75736C4.51472 1 7.34315 1 13 1C18.6568 1 21.4853 1 23.2427 2.75736C25 4.51472 25 7.34315 25 13C25 18.6568 25 21.4853 23.2427 23.2427C21.4853 25 18.6568 25 13 25C7.34315 25 4.51472 25 2.75736 23.2427C1 21.4853 1 18.6568 1 13Z" stroke="#6F0B15" stroke-width="1.5" stroke-linejoin="round"></path><path d="M10.0054 12.0526C9.48215 12.0526 9.058 12.4768 9.058 13C9.058 13.5232 9.48215 13.9474 10.0054 13.9474V12.0526ZM6.68372 12.0526C6.1605 12.0526 5.73635 12.4768 5.73635 13C5.73635 13.5232 6.1605 13.9474 6.68372 13.9474V12.0526ZM10.1438 13.9474C10.667 13.9474 11.0911 13.5232 11.0911 13C11.0911 12.4768 10.667 12.0526 10.1438 12.0526V13.9474ZM17.7559 10.1579C18.2791 10.1579 18.7033 9.73375 18.7033 9.21053C18.7033 8.68732 18.2791 8.26317 17.7559 8.26317V10.1579ZM15.9106 8.26317C15.3873 8.26317 14.9632 8.68732 14.9632 9.21053C14.9632 9.73375 15.3873 10.1579 15.9106 10.1579V8.26317ZM19.3153 14.2632V15.2105C19.8385 15.2105 20.2627 14.7864 20.2627 14.2632H19.3153ZM19.3198 17.4914C19.7076 17.1401 19.7371 16.541 19.3857 16.1534C19.0344 15.7656 18.4353 15.7361 18.0476 16.0875L19.3198 17.4914ZM7.63109 16.1579V9.84211H5.73635V16.1579H7.63109ZM7.91396 9.52632H10.0054V7.63159H7.91396V9.52632ZM10.0054 9.52632C10.7067 9.52632 11.2724 10.0934 11.2724 10.7895H13.1671C13.1671 9.04385 11.75 7.63159 10.0054 7.63159V9.52632ZM11.2724 10.7895C11.2724 11.4855 10.7067 12.0526 10.0054 12.0526V13.9474C11.75 13.9474 13.1671 12.5352 13.1671 10.7895H11.2724ZM10.0054 13.9474C10.7067 13.9474 11.2724 14.5145 11.2724 15.2105H13.1671C13.1671 13.4649 11.75 12.0526 10.0054 12.0526V13.9474ZM11.2724 15.2105C11.2724 15.9065 10.7067 16.4737 10.0054 16.4737V18.3684C11.75 18.3684 13.1671 16.9562 13.1671 15.2105H11.2724ZM10.0054 16.4737H7.91396V18.3684H10.0054V16.4737ZM6.68372 13.9474H10.1438V12.0526H6.68372V13.9474ZM7.63109 9.84211C7.63109 9.68981 7.63115 9.57224 7.63361 9.47173C7.6361 9.37075 7.64064 9.30992 7.64559 9.2721C7.65048 9.23474 7.65276 9.24504 7.63912 9.27907C7.62251 9.32053 7.5914 9.37478 7.54255 9.42493L6.18521 8.10295C5.89426 8.40168 5.80258 8.75354 5.76689 9.0261C5.73444 9.27392 5.73635 9.57048 5.73635 9.84211H7.63109ZM7.91396 7.63159C7.65146 7.63159 7.35678 7.62947 7.10945 7.66361C6.83225 7.70187 6.47955 7.80072 6.18521 8.10295L7.54255 9.42493C7.49345 9.47534 7.43777 9.50997 7.39106 9.5297C7.35203 9.54618 7.33624 9.54501 7.36855 9.54055C7.40163 9.53599 7.45786 9.53141 7.55509 9.5289C7.65185 9.52639 7.76536 9.52632 7.91396 9.52632V7.63159ZM5.73635 16.1579C5.73635 16.4295 5.73444 16.7261 5.76689 16.9739C5.80258 17.2465 5.89426 17.5983 6.18521 17.897L7.54255 16.5751C7.5914 16.6253 7.62251 16.6795 7.63912 16.7209C7.65276 16.755 7.65048 16.7652 7.64559 16.728C7.64064 16.6901 7.6361 16.6293 7.63361 16.5283C7.63115 16.4278 7.63109 16.3102 7.63109 16.1579H5.73635ZM7.91396 16.4737C7.76536 16.4737 7.65185 16.4736 7.55509 16.4712C7.45786 16.4686 7.40163 16.4641 7.36855 16.4594C7.33624 16.455 7.35203 16.4539 7.39106 16.4703C7.43777 16.4901 7.49345 16.5247 7.54255 16.5751L6.18521 17.897C6.47955 18.1993 6.83225 18.2982 7.10945 18.3363C7.35678 18.3706 7.65147 18.3684 7.91396 18.3684V16.4737ZM17.7559 8.26317H15.9106V10.1579H17.7559V8.26317ZM14.3943 15.2105H19.3153V13.3158H14.3943V15.2105ZM20.2627 14.2632C20.2627 12.5004 18.7853 10.7895 16.8548 10.7895V12.6842C17.6421 12.6842 18.3679 13.4474 18.3679 14.2632H20.2627ZM16.8548 10.7895C14.9243 10.7895 13.4469 12.5004 13.4469 14.2632H15.3417C15.3417 13.4474 16.0676 12.6842 16.8548 12.6842V10.7895ZM13.4469 14.2632V14.8947H15.3417V14.2632H13.4469ZM13.4469 14.8947C13.4469 16.7895 14.9493 18.3684 16.8548 18.3684V16.4737C16.0426 16.4737 15.3417 15.7905 15.3417 14.8947H13.4469ZM16.8548 18.3684C17.6492 18.3684 18.6692 18.0812 19.3198 17.4914L18.0476 16.0875C17.8307 16.284 17.3084 16.4737 16.8548 16.4737V18.3684Z" fill="#6F0B15"></path></svg>