<svg xmlns="http://www.w3.org/2000/svg" width="64" height="64" viewBox="0 0 64 64" fill="none"><circle cx="32" cy="32" r="32" fill="#B3AD97"></circle><path d="M47.5 29.75V28C47.5 21.4003 47.5 18.1005 45.3291 16.0502C43.1583 14 39.6644 14 32.6765 14H30.8236C23.8357 14 20.3417 14 18.1709 16.0502C16 18.1005 16 21.4003 16 28V35C16 41.5996 16 44.8996 18.1709 46.9497C20.3417 49 23.8356 49 30.8236 49H31.75M24.75 22.75H38.75M24.75 31.5H33.5M47.5 46.6324V40.25C47.5 37.7486 45.1496 35 42.25 35C39.3504 35 37 37.7486 37 40.25V46.375C37 47.7395 38.2821 49 39.8637 49C41.4452 49 42.7272 47.7395 42.7272 46.375V41.5882" stroke="#F2F2F2" stroke-width="2" stroke-linecap="round"></path></svg>