<svg xmlns="http://www.w3.org/2000/svg" width="23" height="27" viewBox="0 0 23 27" fill="none"><path d="M12.466 1.66666H12.7933C16.7067 1.66666 18.6634 1.66666 20.0223 2.62407C20.4117 2.89838 20.7573 3.22369 21.0488 3.59013C22.066 4.86907 22.066 6.7107 22.066 10.3939V13.4485C22.066 17.0043 22.066 18.7821 21.5033 20.2021C20.5987 22.485 18.6855 24.2856 16.2599 25.137C14.7513 25.6667 12.8623 25.6667 9.0842 25.6667C6.92531 25.6667 5.84588 25.6667 4.98375 25.364C3.59776 24.8775 2.50452 23.8485 1.98757 22.5441C1.66602 21.7327 1.66602 20.7168 1.66602 18.6848V13.6667M22.0666 13.6667C22.0666 15.8757 20.2757 17.6666 18.0666 17.6666C17.2677 17.6666 16.3258 17.5267 15.5489 17.7348C14.8588 17.9197 14.3196 18.4589 14.1347 19.149C13.9266 19.9259 14.0666 20.8677 14.0666 21.6667C14.0666 23.8758 12.2757 25.6667 10.0666 25.6667M2.8666 8.26666C3.45644 8.8735 5.02633 11.2667 5.8666 11.2667M5.8666 11.2667C6.70688 11.2667 8.27676 8.8735 8.8666 8.26666M5.8666 11.2667V1.66666" stroke="#6F0B15" stroke-width="1.5" stroke-linecap="round" stroke-linejoin="round"></path></svg>