<svg xmlns="http://www.w3.org/2000/svg" width="34" height="37" viewBox="0 0 34 37" fill="none"><path d="M33.0059 16.75V15C33.0059 8.40033 33.0059 5.10051 30.835 3.05025C28.6641 1 25.1702 1 18.1823 1H16.3294C9.34152 1 5.84757 1 3.67672 3.05025C1.50586 5.10051 1.50586 8.40033 1.50586 15V22C1.50586 28.5996 1.50586 31.8996 3.67672 33.9497C5.84757 36 9.3415 36 16.3294 36H17.2559M10.2559 9.75H24.2559M10.2559 18.5H19.0059M33.0059 33.6324V27.25C33.0059 24.7486 30.6554 22 27.7559 22C24.8563 22 22.5059 24.7486 22.5059 27.25V33.375C22.5059 34.7395 23.7879 36 25.3696 36C26.951 36 28.2331 34.7395 28.2331 33.375V28.5882" stroke="#6F0B15" stroke-width="1.5" stroke-linecap="round"></path></svg>