<svg xmlns="http://www.w3.org/2000/svg" width="64" height="64" viewBox="0 0 64 64" fill="none"><circle cx="32" cy="32" r="32" fill="#B3AD97"></circle><path d="M26.7521 26.4967L27.2651 25.6383L27.2651 25.6383L26.7521 26.4967ZM37.2479 26.4967L36.7349 25.6383L37.2479 26.4967ZM29.4362 46.421C29.9885 46.4286 30.4423 45.9871 30.4499 45.4348C30.4575 44.8826 30.016 44.4288 29.4638 44.4211L29.4362 46.421ZM27.068 45.3731L27.0945 44.3734L27.0944 44.3734L27.068 45.3731ZM17.1164 43.1277L17.8429 42.4405L17.8429 42.4405L17.1164 43.1277ZM15.0268 32.8615L16.0266 32.8412L15.0268 32.8615ZM15.0268 27.5772L14.027 27.5569L14.027 27.5569L15.0268 27.5772ZM27.068 15.0655L27.0415 14.0658L27.0415 14.0658L27.068 15.0655ZM36.932 15.0655L36.9585 14.0658H36.9585L36.932 15.0655ZM46.8835 17.3109L46.157 17.9981L46.157 17.9981L46.8835 17.3109ZM48.9731 27.5772L47.9733 27.5974V27.5975L48.9731 27.5772ZM47.9998 29.3183C48.0012 29.8706 48.4501 30.3172 49.0023 30.3158C49.5546 30.3144 50.0012 29.8656 49.9998 29.3133L47.9998 29.3183ZM41.35 50C41.9023 50 42.35 49.5523 42.35 49C42.35 48.4477 41.9023 48 41.35 48V50ZM14.487 20.3321L26.2392 27.3551L27.2651 25.6383L15.513 18.6153L14.487 20.3321ZM26.2392 27.3551C28.4145 28.655 30.1633 29.4211 32 29.4211C33.8367 29.4211 35.5856 28.655 37.7609 27.3551L36.7349 25.6383C34.6165 26.9042 33.2644 27.4211 32 27.4211C30.7356 27.4211 29.3835 26.9042 27.2651 25.6383L26.2392 27.3551ZM37.7609 27.3551L49.513 20.3321L48.487 18.6153L36.7349 25.6383L37.7609 27.3551ZM29.4638 44.4211C28.6753 44.4103 27.8858 44.3944 27.0945 44.3734L27.0415 46.3727C27.8414 46.394 28.6393 46.41 29.4362 46.421L29.4638 44.4211ZM27.0944 44.3734C24.3868 44.3018 22.4708 44.2483 20.9866 43.9761C19.5523 43.713 18.619 43.261 17.8429 42.4405L16.3899 43.8148C17.5368 45.0274 18.903 45.6273 20.6257 45.9433C22.2984 46.2501 24.3967 46.3028 27.0416 46.3727L27.0944 44.3734ZM17.8429 42.4405C17.0586 41.6113 16.6256 40.6239 16.3789 39.1278C16.1251 37.5888 16.0828 35.6145 16.0266 32.8412L14.027 32.8817C14.082 35.5972 14.123 37.7396 14.4055 39.4532C14.6951 41.2097 15.2513 42.611 16.3899 43.8148L17.8429 42.4405ZM16.0266 32.8412C15.9911 31.0897 15.9911 29.3488 16.0266 27.5974L14.027 27.5569C13.991 29.3354 13.991 31.1032 14.027 32.8817L16.0266 32.8412ZM16.0266 27.5974C16.0827 24.8241 16.1251 22.8499 16.3789 21.3108C16.6256 19.8146 17.0586 18.8273 17.8429 17.9981L16.3899 16.6237C15.2513 17.8276 14.6951 19.2289 14.4055 20.9854C14.123 22.699 14.082 24.8414 14.027 27.5569L16.0266 27.5974ZM17.8429 17.9981C18.619 17.1776 19.5523 16.7256 20.9866 16.4625C22.4708 16.1903 24.3868 16.1368 27.0944 16.0651L27.0415 14.0658C24.3967 14.1358 22.2984 14.1885 20.6257 14.4953C18.903 14.8113 17.5368 15.4112 16.3899 16.6237L17.8429 17.9981ZM27.0944 16.0651C30.3756 15.9783 33.6244 15.9783 36.9056 16.0651L36.9585 14.0658C33.642 13.9781 30.358 13.9781 27.0415 14.0658L27.0944 16.0651ZM36.9056 16.0651C39.6132 16.1368 41.5292 16.1903 43.0134 16.4625C44.4477 16.7256 45.381 17.1776 46.157 17.9981L47.61 16.6238C46.4632 15.4112 45.097 14.8113 43.3743 14.4954C41.7016 14.1885 39.6033 14.1358 36.9585 14.0658L36.9056 16.0651ZM46.157 17.9981C46.9414 18.8273 47.3745 19.8147 47.6212 21.3108C47.8749 22.8499 47.9173 24.8241 47.9733 27.5974L49.9729 27.557C49.918 24.8414 49.8771 22.6991 49.5945 20.9854C49.3049 19.2289 48.7487 17.8276 47.61 16.6238L46.157 17.9981ZM47.9733 27.5975C47.9899 28.4134 47.9985 28.7861 47.9998 29.3183L49.9998 29.3133C49.9984 28.7593 49.9894 28.3661 49.9729 27.5569L47.9733 27.5975ZM42.9 40.9474C42.9 41.9264 42.1583 42.6316 41.35 42.6316V44.6316C43.3583 44.6316 44.9 42.9331 44.9 40.9474H42.9ZM41.35 42.6316C40.5417 42.6316 39.8 41.9264 39.8 40.9474H37.8C37.8 42.9331 39.3417 44.6316 41.35 44.6316V42.6316ZM39.8 40.9474C39.8 39.9683 40.5417 39.2632 41.35 39.2632V37.2632C39.3417 37.2632 37.8 38.9616 37.8 40.9474H39.8ZM41.35 39.2632C42.1583 39.2632 42.9 39.9683 42.9 40.9474H44.9C44.9 38.9616 43.3583 37.2632 41.35 37.2632V39.2632ZM42.9 40.9474V41.8421H44.9V40.9474H42.9ZM42.9 41.8421C42.9 43.8278 44.4417 45.5263 46.45 45.5263V43.5263C45.6417 43.5263 44.9 42.8212 44.9 41.8421H42.9ZM46.45 45.5263C48.4583 45.5263 50 43.8278 50 41.8421H48C48 42.8212 47.2583 43.5263 46.45 43.5263V45.5263ZM50 41.8421V40.9474H48V41.8421H50ZM50 40.9474C50 35.9967 46.175 31.8947 41.35 31.8947V33.8947C44.975 33.8947 48 37.0033 48 40.9474H50ZM41.35 31.8947C36.525 31.8947 32.7 35.9967 32.7 40.9474H34.7C34.7 37.0033 37.725 33.8947 41.35 33.8947V31.8947ZM32.7 40.9474C32.7 45.8981 36.525 50 41.35 50V48C37.725 48 34.7 44.8914 34.7 40.9474H32.7Z" fill="#F2F2F2"></path></svg>