<svg xmlns="http://www.w3.org/2000/svg" width="26" height="26" viewBox="0 0 26 26" fill="none"><path d="M15.1314 18.6534L15.7714 18.2624L15.7714 18.2623L15.1314 18.6534ZM15.3456 18.0116L15.1408 17.2901L15.1407 17.2901L15.3456 18.0116ZM18.2601 10.8362L17.6403 11.2584L17.6403 11.2586L18.2601 10.8362ZM18.1295 10.1166L18.8586 10.2924L18.8587 10.2923L18.1295 10.1166ZM18.123 7.94326L18.8464 7.74509L18.8464 7.74506L18.123 7.94326ZM17.678 7.60319L17.599 6.85736L17.5989 6.85737L17.678 7.60319ZM15.988 8.3163L15.5814 7.68607L15.5814 7.68612L15.988 8.3163ZM14.6536 8.52824L14.4671 9.25467L14.4671 9.25469L14.6536 8.52824ZM11.3464 8.52824L11.5329 9.25469L11.5329 9.25467L11.3464 8.52824ZM10.012 8.3163L10.4186 7.68609L10.4186 7.68608L10.012 8.3163ZM8.32199 7.60319L8.401 6.85736L8.40099 6.85736L8.32199 7.60319ZM7.87697 7.94326L8.6003 8.14148L8.60031 8.14146L7.87697 7.94326ZM7.87052 10.1166L8.59964 9.94093L8.59964 9.94092L7.87052 10.1166ZM7.73985 10.8362L7.12011 10.4138L7.1201 10.4138L7.73985 10.8362ZM10.6544 18.0116L10.8593 17.2901L10.8592 17.2901L10.6544 18.0116ZM10.8686 18.6534L10.2286 18.2623L10.2286 18.2624L10.8686 18.6534ZM10.0047 21.2931C10.0047 20.5431 10.0051 20.5431 10.0056 20.5431C10.0058 20.5431 10.0062 20.5431 10.0065 20.5431C10.0071 20.5431 10.0077 20.5431 10.0082 20.5431C10.0093 20.5431 10.0103 20.5431 10.0112 20.5431C10.013 20.5431 10.0143 20.5432 10.0153 20.5432C10.0171 20.5432 10.0174 20.5432 10.0161 20.5432C10.0135 20.5431 10.0046 20.5426 9.98983 20.5413C9.96032 20.5387 9.90746 20.5326 9.83454 20.5188C9.6889 20.4911 9.46264 20.4323 9.1814 20.3076C8.62401 20.0604 7.82413 19.5424 6.99991 18.4439L5.80009 19.3442C6.77587 20.6447 7.77833 21.3262 8.57327 21.6788C8.9682 21.8539 9.3056 21.9451 9.55458 21.9924C9.67898 22.016 9.78118 22.0287 9.85739 22.0355C9.8955 22.0388 9.92713 22.0407 9.95183 22.0418C9.96417 22.0423 9.97479 22.0427 9.98361 22.0428C9.98803 22.0429 9.99199 22.043 9.9955 22.043C9.99726 22.043 9.9989 22.0431 10.0004 22.0431C10.0012 22.0431 10.0019 22.0431 10.0026 22.0431C10.003 22.0431 10.0035 22.0431 10.0037 22.0431C10.0042 22.0431 10.0047 22.0431 10.0047 21.2931ZM16.2206 25V19.8111H14.7206V25H16.2206ZM16.2206 19.8111C16.2206 19.2151 16.0403 18.7024 15.7714 18.2624L14.4915 19.0445C14.6411 19.2894 14.7206 19.5349 14.7206 19.8111H16.2206ZM15.7714 18.2623C15.8212 18.3438 15.8244 18.43 15.8017 18.5009C15.7775 18.5765 15.7016 18.6901 15.5505 18.733L15.1407 17.2901C14.3066 17.527 14.1445 18.4767 14.4915 19.0445L15.7714 18.2623ZM15.5505 18.733C16.6645 18.4167 17.7493 17.9703 18.5396 17.0786C19.3451 16.1696 19.75 14.9097 19.75 13.1687H18.25C18.25 14.6802 17.9017 15.5368 17.417 16.0837C16.9171 16.6478 16.1747 16.9965 15.1408 17.2901L15.5505 18.733ZM19.75 13.1687C19.75 12.1593 19.4286 11.219 18.8798 10.4138L17.6403 11.2586C18.0347 11.8372 18.25 12.4868 18.25 13.1687H19.75ZM18.8799 10.4139C18.8478 10.3667 18.826 10.3351 18.8055 10.3047C18.7858 10.2752 18.776 10.2598 18.771 10.2514C18.7612 10.235 18.7929 10.2828 18.808 10.3661C18.823 10.449 18.8102 10.5045 18.8138 10.4847C18.8155 10.4747 18.8193 10.4565 18.8275 10.4217C18.8359 10.3857 18.8452 10.3482 18.8586 10.2924L17.4004 9.94081C17.3801 10.025 17.3531 10.1318 17.3373 10.22C17.3195 10.3194 17.3014 10.4648 17.332 10.6337C17.3627 10.8029 17.4308 10.9329 17.4828 11.02C17.5288 11.097 17.5918 11.1874 17.6403 11.2584L18.8799 10.4139ZM18.8587 10.2923C19.0562 9.47206 19.0773 8.58795 18.8464 7.74509L17.3997 8.14143C17.5542 8.70545 17.5477 9.32955 17.4004 9.94098L18.8587 10.2923ZM18.8464 7.74506C18.7913 7.54418 18.6802 7.28947 18.4437 7.0961C18.1879 6.88704 17.882 6.82739 17.599 6.85736L17.7569 8.34902C17.7439 8.3504 17.7061 8.35238 17.6531 8.33856C17.5975 8.32407 17.5421 8.29648 17.4942 8.25739C17.4029 8.18275 17.3914 8.1111 17.3997 8.14146L18.8464 7.74506ZM17.5989 6.85737C17.1359 6.90642 16.4729 7.11099 15.5814 7.68607L16.3946 8.94654C17.1411 8.46492 17.5824 8.36752 17.757 8.34902L17.5989 6.85737ZM15.5814 7.68612C15.4122 7.79529 15.315 7.85754 15.2427 7.8979C15.1704 7.93829 15.1849 7.92021 15.2424 7.91079L15.4849 9.39105C15.6841 9.35842 15.8499 9.27683 15.9739 9.20761C16.0979 9.13837 16.2421 9.04491 16.3946 8.94649L15.5814 7.68612ZM15.2424 7.91079C15.3024 7.90096 15.3229 7.9142 15.2379 7.89801C15.1543 7.88207 15.0392 7.85289 14.8401 7.80179L14.4671 9.25469C14.647 9.30085 14.8161 9.34462 14.9572 9.37152C15.0971 9.39816 15.2832 9.4241 15.4849 9.39105L15.2424 7.91079ZM14.8401 7.8018C14.2609 7.65307 13.6644 7.57382 13 7.57382V9.07382C13.539 9.07382 14.0102 9.13736 14.4671 9.25467L14.8401 7.8018ZM13 7.57382C12.3356 7.57382 11.7391 7.65307 11.1599 7.8018L11.5329 9.25467C11.9898 9.13736 12.461 9.07382 13 9.07382V7.57382ZM11.1599 7.80179C10.9608 7.85289 10.8458 7.88207 10.7621 7.89801C10.6771 7.9142 10.6976 7.90096 10.7576 7.91079L10.5151 9.39105C10.7168 9.4241 10.9029 9.39816 11.0428 9.37152C11.1839 9.34462 11.353 9.30085 11.5329 9.25469L11.1599 7.80179ZM10.7576 7.91079C10.8151 7.92021 10.8297 7.9383 10.7573 7.89791C10.685 7.85753 10.5878 7.79528 10.4186 7.68609L9.60538 8.94652C9.75791 9.04492 9.90209 9.13838 10.0261 9.20761C10.15 9.27682 10.3159 9.35841 10.5151 9.39105L10.7576 7.91079ZM10.4186 7.68608C9.52717 7.11098 8.8641 6.90642 8.401 6.85736L8.24299 8.34902C8.41766 8.36752 8.85891 8.46493 9.6054 8.94653L10.4186 7.68608ZM8.40099 6.85736C8.11792 6.82738 7.81201 6.88705 7.55631 7.09613C7.31981 7.2895 7.20867 7.54419 7.15363 7.74506L8.60031 8.14146C8.60863 8.11109 8.59709 8.18272 8.5058 8.25736C8.45799 8.29646 8.40248 8.32406 8.34693 8.33855C8.2939 8.35238 8.25602 8.3504 8.24299 8.34902L8.40099 6.85736ZM7.15364 7.74504C6.92266 8.58793 6.94371 9.47211 7.14139 10.2924L8.59964 9.94092C8.4523 9.32955 8.44575 8.70547 8.6003 8.14148L7.15364 7.74504ZM7.14139 10.2924C7.15484 10.3482 7.16408 10.3856 7.17252 10.4216C7.18069 10.4564 7.18445 10.4746 7.18625 10.4846C7.18981 10.5045 7.17698 10.449 7.19203 10.3661C7.20714 10.2828 7.23889 10.2349 7.22908 10.2513C7.22405 10.2597 7.21429 10.2751 7.19449 10.3046C7.17407 10.3349 7.15227 10.3666 7.12011 10.4138L8.35958 11.2586C8.40804 11.1875 8.47108 11.0972 8.51708 11.0201C8.5691 10.933 8.63724 10.803 8.66794 10.6338C8.69858 10.4649 8.68054 10.3195 8.66273 10.2201C8.64694 10.1319 8.61992 10.0251 8.59964 9.94093L7.14139 10.2924ZM7.1201 10.4138C6.5713 11.219 6.25 12.1594 6.25 13.1687H7.75C7.75 12.4868 7.96524 11.8372 8.3596 11.2585L7.1201 10.4138ZM6.25 13.1687C6.25 14.9097 6.65486 16.1696 7.46036 17.0786C8.25066 17.9704 9.33543 18.4168 10.4495 18.733L10.8592 17.2901C9.82524 16.9965 9.08283 16.6478 8.58297 16.0837C8.0983 15.5368 7.75 14.6802 7.75 13.1687H6.25ZM10.4495 18.733C10.2984 18.6901 10.2225 18.5765 10.1983 18.5009C10.1756 18.43 10.1788 18.3438 10.2286 18.2623L11.5085 19.0445C11.8555 18.4767 11.6934 17.527 10.8593 17.2901L10.4495 18.733ZM10.2286 18.2624C9.95971 18.7024 9.77942 19.2151 9.77942 19.8111H11.2794C11.2794 19.5349 11.3588 19.2895 11.5085 19.0445L10.2286 18.2624ZM9.77942 19.8111V25H11.2794V19.8111H9.77942ZM24.25 13C24.25 19.2132 19.2132 24.25 13 24.25V25.75C20.0416 25.75 25.75 20.0416 25.75 13H24.25ZM13 24.25C6.7868 24.25 1.75 19.2132 1.75 13H0.25C0.25 20.0416 5.95837 25.75 13 25.75V24.25ZM1.75 13C1.75 6.7868 6.7868 1.75 13 1.75V0.25C5.95837 0.25 0.25 5.95837 0.25 13H1.75ZM13 1.75C19.2132 1.75 24.25 6.7868 24.25 13H25.75C25.75 5.95837 20.0416 0.25 13 0.25V1.75Z" fill="#6F0B15"></path></svg>