<svg xmlns="http://www.w3.org/2000/svg" width="20" height="30" viewBox="0 0 20 30" fill="none"><path d="M19.9609 4.36436V5.67335C19.7137 6.67596 19.3481 7.61623 18.6266 8.38958C17.7254 9.35627 16.5993 9.85071 15.3083 10.0176C14.8741 10.0229 14.4388 10.0293 14.0036 10.0345C12.6788 10.0208 11.354 10.0071 10.0303 9.99439C9.99118 9.97009 9.95315 9.94579 9.91406 9.92044C9.92463 9.88663 9.9278 9.85282 9.92146 9.81796C9.92146 6.54495 9.92357 3.273 9.92357 0C11.8146 0 13.7046 0 15.5956 0C15.6601 0.0602199 15.7266 0.176434 15.79 0.174321C17.0461 0.137344 17.8606 0.933937 18.6657 1.71574C19.4073 2.43521 19.7411 3.37654 19.9587 4.36436H19.9609Z" fill="#EE7265"></path><path d="M4.47299 0.00105631C6.25416 0.00105631 8.03638 0.00105631 9.81755 0.00105631C9.81755 3.27406 9.81755 6.54601 9.81755 9.81902C8.26563 9.81902 6.71371 9.81584 5.16179 9.82324C4.97163 9.82324 4.78147 9.87923 4.59131 9.90882C4.55645 9.92255 4.52159 9.93734 4.48567 9.95108C3.36161 9.87395 2.41926 9.39219 1.59735 8.64631C0.683521 7.81802 0.231362 6.7478 0 5.56347C0 5.20004 0 4.83661 0 4.47212C0.0401449 4.28195 0.0686688 4.08756 0.123604 3.90162C0.661335 2.10664 1.6639 0.761729 3.59508 0.307438C3.89511 0.236654 4.18036 0.104592 4.47193 0L4.47299 0.00105631Z" fill="#E95025"></path><path d="M0.00105667 15.6C0.00105667 15.1996 0.00105667 14.8002 0.00105667 14.3998C0.0274678 14.3555 0.073951 14.3121 0.0781767 14.2657C0.2377 12.2161 2.40024 10.1633 4.46876 10.0249L4.48989 10.0524C4.679 10.083 4.86704 10.1401 5.05615 10.1411C6.64399 10.1485 8.23077 10.1453 9.8186 10.1453C9.8186 13.3814 9.8186 16.6174 9.8186 19.8545C8.26669 19.8545 6.71477 19.8513 5.16285 19.8587C4.97269 19.8587 4.78253 19.9136 4.59131 19.9422C4.548 19.9527 4.50574 19.9633 4.46243 19.9739C2.26502 19.6294 0.848325 18.3796 0.17537 16.2719C0.104588 16.0522 0.0581045 15.824 0 15.6H0.00105667Z" fill="#765FA6"></path><path d="M9.90946 25.7412C9.73726 27.6788 7.89904 29.5562 6.02913 29.8943C5.90764 29.9165 5.79143 29.964 5.67206 30H4.25431C4.17719 29.9651 4.10429 29.9123 4.02294 29.8985C2.72246 29.6809 1.71567 28.9646 1.00151 27.9123C0.560972 27.2626 0.326442 26.4723 0 25.7455C0 25.2732 0 24.7999 0 24.3277C0.22291 23.4392 0.494416 22.5686 1.11878 21.865C1.96076 20.9152 2.9422 20.2021 4.25853 20.0869C4.43073 20.1186 4.60188 20.1778 4.77408 20.1788C6.45699 20.1852 8.13886 20.1809 9.82177 20.1799H9.82072C9.82072 21.8608 9.81649 23.5427 9.82283 25.2246C9.82283 25.3968 9.87988 25.569 9.91051 25.7412H9.90946Z" fill="#4CB37D"></path><path d="M14.0062 10.0355C14.4404 10.0302 14.8756 10.0238 15.3098 10.0186C16.7846 10.158 17.9668 10.7982 18.9028 11.9678C19.4627 12.6672 19.712 13.4712 19.9624 14.2921V15.7099C19.7226 16.6396 19.3856 17.5196 18.7454 18.2623C17.1005 20.1683 14.2914 20.557 12.2577 19.1868C10.9742 18.3226 10.2262 17.1076 9.97899 15.5831C9.97688 15.188 9.97477 14.7928 9.97266 14.3977C10.0561 14.085 10.1121 13.7606 10.2283 13.4617C10.8939 11.7586 11.9704 10.5098 13.8889 10.2087C13.9354 10.2013 13.9671 10.0957 14.0051 10.0355H14.0062Z" fill="#46B7EA"></path><path d="M9.82031 9.81894C9.82031 6.54593 9.82031 3.27398 9.82031 0.000976562H9.92913C9.92913 3.27398 9.92701 6.54593 9.92701 9.81894C9.8911 9.81894 9.85623 9.81894 9.82031 9.81894Z" fill="#E94F21"></path><path d="M4.4733 20.0527C4.4733 20.0263 4.47118 20.0009 4.46484 19.9755C4.50816 19.965 4.55042 19.9544 4.59373 19.9438C6.37595 19.9502 8.15923 19.9565 9.94146 19.9629C9.96681 20.1023 10.0154 20.2407 10.0154 20.3802C10.0207 21.9015 10.0207 23.4229 10.0154 24.9442C10.0154 25.1027 9.97209 25.2622 9.94885 25.4207C9.94251 23.8613 9.93829 22.3019 9.9235 20.7426C9.92138 20.5545 9.85694 20.3664 9.82102 20.1794L9.82208 20.1805C9.63403 20.1446 9.44704 20.0801 9.25899 20.078C7.66376 20.0632 6.06747 20.0601 4.47224 20.0527H4.4733Z" fill="#58AFB3"></path><path d="M9.97561 14.3979C9.97772 14.793 9.97984 15.1882 9.98195 15.5833C9.96716 17.0074 9.95237 18.4316 9.93758 19.8557C9.89849 19.8557 9.8594 19.8557 9.82031 19.8557C9.82031 16.6197 9.82031 13.3837 9.82031 10.1466C9.82031 10.116 9.82031 10.0853 9.82031 10.0547C9.86363 10.0547 9.908 10.0547 9.95131 10.0547C9.95976 11.5031 9.96716 12.9505 9.97561 14.399V14.3979Z" fill="#6F58A1"></path><path d="M9.82169 20.1772C9.85761 20.3653 9.92205 20.5523 9.92417 20.7404C9.93896 22.2997 9.94213 23.8591 9.94952 25.4185C9.93685 25.5252 9.92417 25.633 9.91149 25.7397C9.88085 25.5675 9.82486 25.3952 9.82381 25.223C9.81747 23.5411 9.82169 21.8592 9.82169 20.1772Z" fill="#4CB377"></path><path d="M9.81998 19.8545C9.85907 19.8545 9.89816 19.8545 9.93725 19.8545C9.93831 19.8904 9.94042 19.9263 9.94148 19.9623C8.15925 19.9559 6.37597 19.9496 4.59375 19.9432C4.78391 19.9137 4.97407 19.8598 5.16529 19.8598C6.7172 19.8524 8.26912 19.8555 9.82104 19.8555L9.81998 19.8545Z" fill="#765AA3"></path><path d="M10.0302 9.99427C10.0101 10.0249 9.98266 10.0439 9.94674 10.0534C9.90342 10.0534 9.85905 10.0534 9.81574 10.0534C8.0388 10.0534 6.26291 10.0534 4.48597 10.0524L4.46484 10.0249C4.46801 9.99955 4.4733 9.97525 4.48386 9.95095C4.51872 9.93722 4.55464 9.92243 4.5895 9.90869C6.36433 9.91292 8.14022 9.91714 9.91505 9.92137C9.95413 9.94567 9.99217 9.96997 10.0313 9.99532L10.0302 9.99427Z" fill="#DD567F"></path><path d="M9.91929 9.92151C8.14446 9.91729 6.36858 9.91306 4.59375 9.90884C4.78391 9.87925 4.97407 9.82432 5.16423 9.82326C6.71615 9.81587 8.26807 9.81903 9.81999 9.81903C9.8559 9.81903 9.89077 9.81903 9.92669 9.81903C9.93303 9.8539 9.92986 9.88771 9.91929 9.92151Z" fill="#E9501A"></path><path d="M4.48828 10.0527C6.26522 10.0527 8.04111 10.0527 9.81805 10.0538C9.81805 10.0844 9.81805 10.1151 9.81805 10.1457C8.23021 10.1457 6.64343 10.1489 5.05559 10.1415C4.86649 10.1415 4.67739 10.0834 4.48934 10.0527H4.48828Z" fill="#725EA5"></path><path d="M4.47121 20.0522C6.06645 20.0596 7.66274 20.0628 9.25797 20.0776C9.44602 20.0797 9.63406 20.1442 9.82105 20.1801C8.13814 20.1801 6.45628 20.1843 4.77336 20.178C4.60116 20.178 4.43001 20.1188 4.25781 20.0861C4.32859 20.0744 4.39938 20.0628 4.47016 20.0522H4.47121Z" fill="#4EB379"></path></svg>