<svg xmlns="http://www.w3.org/2000/svg" width="37" height="37" viewBox="0 0 37 37" fill="none"><path d="M18.6855 36.8933C28.6267 36.8933 36.6855 28.8344 36.6855 18.8933C36.6855 8.95214 28.6267 0.893265 18.6855 0.893265C8.74442 0.893265 0.685547 8.95214 0.685547 18.8933C0.685547 28.8344 8.74442 36.8933 18.6855 36.8933Z" fill="#193C65" fill-opacity="0.2"></path><path d="M12.4299 11.1719H10.3771L8.82031 14.9813H13.8407L12.4299 11.1719Z" fill="#1557A5"></path><path d="M23.8319 17.5951H23.7546V15.6368L18.833 17.5908V15.6368L13.9006 17.5951H13.8469V15.9138H8.82227V26.7791H28.7664V15.6389L23.8341 17.5972L23.8319 17.5951ZM18.0234 23.6076H14.6543V21.5934H18.0234V23.6076ZM22.8871 23.6076H19.518V21.5934H22.8871V23.6076ZM27.7507 23.6076H24.3816V21.5934H27.7507V23.6076Z" fill="#1557A5"></path></svg>