<svg xmlns="http://www.w3.org/2000/svg" width="37" height="37" viewBox="0 0 37 37" fill="none"><path d="M18.457 36.8933C28.3982 36.8933 36.457 28.8344 36.457 18.8933C36.457 8.95214 28.3982 0.893265 18.457 0.893265C8.51591 0.893265 0.457031 8.95214 0.457031 18.8933C0.457031 28.8344 8.51591 36.8933 18.457 36.8933Z" fill="#193C65" fill-opacity="0.2"></path><path d="M24.9839 17.947C26.3717 17.2386 27.1011 15.4265 26.008 13.6668C25.891 13.4787 25.7342 13.3135 25.5503 13.1881C24.5785 12.5235 23.6066 12.4483 22.7936 12.7221C23.1573 13.2676 23.3851 13.9009 23.4185 14.5989C23.5084 16.5217 23.1469 17.7172 21.5605 18.526C23.2158 19.339 24.01 21.105 24.5283 23.3455H27.1199C27.4271 23.3455 27.6759 23.0863 27.6549 22.7812C27.5003 20.5261 26.4302 18.6576 24.9839 17.947Z" fill="#1557A5"></path><path d="M15.3187 18.526C13.7951 17.7485 13.5213 16.6994 13.5213 14.8727C13.5213 14.0012 13.7742 13.2467 14.2068 12.626L13.4816 12.58C11.8284 12.4755 10.4553 13.7859 10.4553 15.4161C10.4553 16.5217 11.0865 17.4789 12.0082 17.9492C10.5619 18.6598 9.49181 20.5282 9.33717 22.7833C9.31629 23.0884 9.5629 23.3476 9.87013 23.3476C10.773 23.3476 12.4701 23.3476 12.4701 23.3476C12.9508 21.1071 13.6614 19.3411 15.3166 18.5281L15.3187 18.526Z" fill="#1557A5"></path><path d="M23.7226 23.3448C23.2378 21.491 22.2827 19.9674 21.0663 19.0687C21.0642 19.0708 21.0621 19.075 21.0579 19.0771C20.8155 18.8973 20.5668 18.7385 20.3055 18.611C20.8573 18.331 21.3317 17.9234 21.6954 17.4281C21.6995 17.4323 21.7058 17.4365 21.71 17.4406C22.2346 16.7342 22.5314 15.8502 22.4875 14.8951C22.4582 14.266 22.2764 13.6703 21.9796 13.1478C21.3777 12.084 20.2951 11.3191 19.0369 11.1581C19.0264 11.1581 19.016 11.1561 19.0056 11.154C18.9449 11.1456 18.8864 11.1414 18.8258 11.1373C18.8133 11.1373 18.8007 11.1352 18.7861 11.1331C18.7234 11.1289 18.6607 11.1268 18.5959 11.1268C18.5855 11.1268 18.575 11.1268 18.5646 11.1268C18.4893 11.1268 18.4162 11.1268 18.343 11.131C18.2824 11.1331 18.2218 11.1373 18.1612 11.1435H18.1528C16.1423 11.3337 14.5706 13.0266 14.5706 15.0852C14.5706 16.6255 15.4505 17.959 16.7338 18.6131C14.951 19.4888 13.5779 21.6289 13.1369 24.2874C12.9864 25.1903 13.6385 26.0137 14.5225 26.1203C14.5852 26.1287 14.65 26.1329 14.7148 26.1329H22.3412C23.3214 26.1329 24.08 25.2551 23.9191 24.2895C23.8647 23.9656 23.7979 23.6521 23.7185 23.3448H23.7226Z" fill="#1557A5"></path></svg>