<svg xmlns="http://www.w3.org/2000/svg" width="66" height="53" viewBox="0 0 66 53" fill="none"><path d="M29.0324 2.139C24.9198 3.24619 21.1148 5.20069 17.7642 7.78116C16.0997 9.06315 13.6748 10.1401 10.6326 9.31868C4.54879 7.67723 -2.53462 11.047 1.90243 17.3564C6.3215 23.6417 7.61851 25.5339 6.98917 32.0476C6.35983 38.5612 11.3162 47.8177 19.0563 46.4171C26.7965 45.0164 31.0311 44.9173 32.7094 48.9419C34.8281 54.0246 44.81 54.3962 49.9292 45.0216C56.2375 33.4648 64.7388 37.2098 65.4628 29.9828C66.0085 24.5389 54.5307 26.1102 51.5966 24.5355C46.9084 22.0184 61.2473 -6.49844 29.0324 2.139Z" fill="#080808"></path><path d="M13.9896 46.3241C13.0125 45.8859 12.1133 45.2981 11.3262 44.5826C9.68408 43.1165 8.34923 41.0901 7.46473 38.7273C6.62301 36.4799 6.26662 34.0886 6.47317 32.0009C7.08747 25.6292 5.78737 23.7765 1.47454 17.6444C-0.838064 14.3567 0.0763875 12.139 0.827757 11.1108C2.55377 8.74675 6.82836 7.76537 10.7714 8.83016C13.1267 9.46542 15.3721 8.97901 17.4439 7.38256C20.9619 4.67278 24.8158 2.74359 28.897 1.64977C37.8844 -0.759924 44.0068 -0.531206 47.6156 2.34467C52.0206 5.8597 51.5753 12.4049 51.2146 17.6703C51.0087 20.6892 50.8148 23.54 51.8467 24.0935C52.7123 24.5578 54.573 24.7363 56.543 24.9245C58.6659 25.1268 61.0708 25.3569 62.8893 26.0094C65.1253 26.8124 66.165 28.1667 65.9788 30.0355C65.6087 33.7321 63.2451 34.8324 60.5126 36.1094C57.4493 37.5352 53.6399 39.3107 50.3893 45.2663C47.1386 51.2219 42.0921 53.1667 38.4599 52.989C35.5478 52.8462 33.1603 51.3724 32.2304 49.1406C30.7188 45.5162 26.8116 45.5392 19.1524 46.9235C17.4084 47.2506 15.6047 47.0412 13.9896 46.3241ZM29.168 2.62825C25.2223 3.68641 21.4902 5.55171 18.0852 8.17877C15.7718 9.96096 13.1454 10.5246 10.4925 9.80777C6.94875 8.85078 3.15545 9.66415 1.67148 11.6991C0.633685 13.1222 0.860482 14.9787 2.33091 17.0648C6.68921 23.2627 8.15716 25.3515 7.50538 32.0942C7.10811 36.1997 9.01466 41.1394 12.0267 43.834C14.058 45.6511 16.457 46.3724 18.9619 45.9186C22.2962 45.3153 25.7271 44.804 28.2272 45.1428C30.7272 45.4816 32.3035 46.6278 33.1882 48.7493C33.9767 50.6414 35.9672 51.8439 38.5104 51.9689C41.8234 52.1311 46.4424 50.3285 49.4702 44.7835C52.8806 38.5344 57.0319 36.6024 60.0641 35.1889C62.8151 33.9077 64.6326 33.0607 64.9447 29.9352C65.2378 27.0068 61.4377 26.4098 56.4399 25.9325C54.2722 25.7203 52.3978 25.5469 51.3453 24.9805C49.7358 24.1168 49.9308 21.2418 50.1782 17.6025C50.521 12.5755 50.9467 6.31875 46.9555 3.13453C43.6749 0.514633 37.689 0.343584 29.168 2.62825Z" fill="white"></path><path d="M21.1369 20.831C22.8521 21.5866 25.1997 20.1296 26.3805 17.5768C27.5613 15.0239 27.1281 12.3419 25.4129 11.5863C23.6977 10.8308 21.35 12.2878 20.1692 14.8406C18.9884 17.3935 19.4217 20.0755 21.1369 20.831Z" fill="white"></path><path d="M21.0416 21.0366C19.2129 20.2311 18.7275 17.4103 19.9589 14.7479C21.1903 12.0856 23.6816 10.5699 25.5103 11.3755C27.339 12.181 27.8244 15.0018 26.5906 17.6693C25.3567 20.3368 22.8703 21.8422 21.0416 21.0366ZM25.3176 11.7919C23.7212 11.0887 21.5056 12.498 20.3769 14.9383C19.2482 17.3785 19.633 19.9272 21.2295 20.6304C22.8259 21.3337 25.041 19.9254 26.1678 17.4893C27.2946 15.0531 26.9141 12.4952 25.3176 11.7919Z" fill="#1D1D1B"></path><path d="M32.9826 26.0492C34.6978 26.8048 37.0454 25.3478 38.2262 22.795C39.407 20.2421 38.9738 17.5601 37.2586 16.8045C35.5434 16.049 33.1957 17.5059 32.0149 20.0588C30.8341 22.6116 31.2674 25.2937 32.9826 26.0492Z" fill="white"></path><path d="M32.8876 26.255C31.0589 25.4494 30.5734 22.6286 31.8049 19.9663C33.0363 17.3039 35.5275 15.7882 37.3562 16.5938C39.1849 17.3994 39.6703 20.2201 38.4365 22.8876C37.2027 25.5551 34.7163 27.0606 32.8876 26.255ZM37.1636 17.0103C35.5672 16.307 33.3516 17.7164 32.2229 20.1566C31.0942 22.5968 31.479 25.1455 33.0754 25.8488C34.6719 26.552 36.887 25.1437 38.0138 22.7076C39.1406 20.2715 38.7632 17.7149 37.1636 17.0103Z" fill="#1D1D1B"></path></svg>