<svg xmlns="http://www.w3.org/2000/svg" width="37" height="37" viewBox="0 0 37 37" fill="none"><path d="M18.457 36.8933C28.3982 36.8933 36.457 28.8344 36.457 18.8933C36.457 8.95214 28.3982 0.893265 18.457 0.893265C8.51591 0.893265 0.457031 8.95214 0.457031 18.8933C0.457031 28.8344 8.51591 36.8933 18.457 36.8933Z" fill="#E66826" fill-opacity="0.2"></path><path d="M23.2126 9.87922H21.5938L21.6422 12.7116C21.6231 13.0362 21.9537 13.3903 22.3503 13.4197L25.1488 13.2889V11.814C25.1488 11.5128 25.0298 11.2249 24.8169 11.0119L24.0162 10.2112C23.8032 9.99821 23.5153 9.87922 23.2141 9.87922H23.2126Z" stroke="#E66826" stroke-width="2" stroke-miterlimit="10"></path><path d="M24.2011 10.1053C23.988 9.89229 23.7001 9.7733 23.3989 9.7733H12.7467C12.0578 9.7733 11.498 10.333 11.498 11.022V26.544C11.498 27.2331 12.0578 27.7927 12.7467 27.7927H24.085C24.7739 27.7927 25.3338 27.2331 25.3338 26.544V11.7081C25.3338 11.4069 25.2148 11.119 25.0016 10.906L24.2011 10.1053Z" stroke="#E66826" stroke-width="2" stroke-miterlimit="10"></path><path d="M21.3026 14.9196H13.1802C12.9879 14.9196 12.832 15.0755 12.832 15.2678V15.472C12.832 15.6643 12.9879 15.8202 13.1802 15.8202H21.3026C21.4949 15.8202 21.6508 15.6643 21.6508 15.472V15.2678C21.6508 15.0755 21.4949 14.9196 21.3026 14.9196Z" fill="#E66826"></path><path d="M18.341 17.2273H13.2287C13.0096 17.2273 12.832 17.4049 12.832 17.624V17.8208C12.832 18.0399 13.0096 18.2175 13.2287 18.2175H18.341C18.5601 18.2175 18.7377 18.0399 18.7377 17.8208V17.624C18.7377 17.4049 18.5601 17.2273 18.341 17.2273Z" fill="#E66826"></path><path d="M18.341 19.6255H13.2287C13.0096 19.6255 12.832 19.8031 12.832 20.0222V20.219C12.832 20.4381 13.0096 20.6157 13.2287 20.6157H18.341C18.5601 20.6157 18.7377 20.4381 18.7377 20.219V20.0222C18.7377 19.8031 18.5601 19.6255 18.341 19.6255Z" fill="#E66826"></path><path d="M16.1578 21.9388H13.0302C12.8549 21.9388 12.7129 22.0809 12.7129 22.2561V22.6117C12.7129 22.7869 12.8549 22.929 13.0302 22.929H16.1578C16.3331 22.929 16.4752 22.7869 16.4752 22.6117V22.2561C16.4752 22.0809 16.3331 21.9388 16.1578 21.9388Z" fill="#E66725"></path><path d="M29.551 13.0418L29.5201 13.0109C29.047 12.5379 28.2802 12.5379 27.8072 13.0109L24.2755 16.5425C24.1756 16.6424 24.0978 16.7555 24.0405 16.876C23.9876 16.9172 23.9406 16.97 23.9039 17.0347L22.7712 19.0576C22.5112 19.5233 23.0254 20.0374 23.4911 19.7774L25.514 18.6448C25.5668 18.6154 25.6109 18.5787 25.6477 18.5375C25.7813 18.4788 25.9076 18.395 26.0177 18.2863L29.5496 14.7547C30.0226 14.2816 30.0226 13.5148 29.5496 13.0418H29.551ZM24.8456 18.4068L23.9582 18.9033C23.754 19.0179 23.5278 18.7917 23.6424 18.5875L24.1389 17.7002C24.2138 17.5665 24.396 17.54 24.5062 17.6487L24.8969 18.0395C25.0057 18.1482 24.9807 18.3304 24.8456 18.4068ZM29.0117 14.2111L25.4331 17.7898L24.8029 17.1595L28.3815 13.5809C28.555 13.4076 28.837 13.4076 29.0117 13.5809C29.1853 13.7542 29.1853 14.0363 29.0117 14.2111Z" fill="#E66826"></path></svg>