<svg xmlns="http://www.w3.org/2000/svg" width="36" height="37" viewBox="0 0 36 37" fill="none"><path d="M18 36.8933C27.9411 36.8933 36 28.8344 36 18.8933C36 8.95214 27.9411 0.893265 18 0.893265C8.05887 0.893265 0 8.95214 0 18.8933C0 28.8344 8.05887 36.8933 18 36.8933Z" fill="#E66826" fill-opacity="0.2"></path><path d="M6.056 11.3683H6.01205C5.8123 11.3683 5.69245 11.1486 5.80033 10.9808L6.49544 9.89015C6.59533 9.73434 6.82105 9.73434 6.92091 9.89015L7.60405 10.9628C7.70991 11.1286 7.58806 11.3483 7.39033 11.3483C7.2505 11.3483 7.13864 11.4602 7.13864 11.6V26.4593C7.13864 26.5992 7.2505 26.7111 7.39033 26.7111H28.4398C28.5797 26.7111 28.6915 26.5992 28.6915 26.4593V26.4394C28.6915 26.2397 28.9114 26.1197 29.0791 26.2277L30.1558 26.9167C30.3115 27.0166 30.3115 27.2424 30.1558 27.3423C29.7941 27.5739 29.4425 27.7997 29.0791 28.0332C28.9152 28.1371 28.7016 28.0275 28.6915 27.8335V27.8136C28.6836 27.6797 28.5737 27.5739 28.4398 27.5739H28.3001C21.1191 27.5739 13.9381 27.5739 6.75711 27.5739C6.24776 27.5739 6.30968 27.6339 6.30968 27.1385C6.30968 22.0009 6.30968 16.8654 6.30968 11.7278V11.624C6.30968 11.4841 6.19781 11.3723 6.05799 11.3723L6.056 11.3683Z" fill="#E66826"></path><path d="M22.7605 16.1842H26.0763C26.0804 16.2821 26.0883 16.374 26.0883 16.4659C26.0883 19.3063 26.0864 22.1467 26.0943 24.9872C26.0943 25.2409 26.0204 25.3047 25.7746 25.3006C24.788 25.2867 23.8012 25.2908 22.8124 25.2987C22.6327 25.2987 22.5508 25.2668 22.5508 25.059C22.5568 22.1667 22.5548 19.2743 22.5548 16.382C22.5548 16.2701 22.6487 16.1842 22.7585 16.1842H22.7605Z" fill="#E66725"></path><path d="M17.4549 25.2791H13.9633C13.9593 25.1692 13.9514 25.0773 13.9514 24.9856C13.9514 22.5186 13.9554 20.0517 13.9434 17.5828C13.9434 17.3111 14.0252 17.2532 14.279 17.2572C15.2397 17.2712 16.2005 17.2632 17.1613 17.2632C17.2532 17.2632 17.3471 17.2712 17.453 17.2752V25.2772L17.4549 25.2791Z" fill="#E66725"></path><path d="M15.9388 12.4591L19.0469 15.4972C19.2886 15.7349 19.6761 15.731 19.9158 15.4912C21.4139 13.9891 22.914 12.483 24.4063 10.9849C24.6499 10.7412 25.0435 10.7432 25.2851 10.9889L25.2931 10.9969C25.5307 11.2386 25.5287 11.6241 25.289 11.8638C23.5173 13.6416 21.7255 15.4413 19.9358 17.239C19.6941 17.4808 19.3026 17.4827 19.0609 17.239C18.0442 16.2184 17.0194 15.1896 15.9887 14.1549C15.7471 13.9132 15.3536 13.9132 15.1118 14.1549C13.5978 15.673 12.1216 17.1552 10.6495 18.6313C10.4058 18.875 10.0083 18.873 9.76856 18.6253L9.75659 18.6113C9.52088 18.3676 9.52486 17.9821 9.76258 17.7444C11.5204 15.9926 13.2961 14.2248 15.0679 12.4591C15.3076 12.2214 15.6931 12.2174 15.9348 12.4551L15.9388 12.4591Z" fill="#E66826"></path><path d="M18.2482 25.2727C18.2482 25.159 18.2482 25.0651 18.2482 24.971C18.2482 23.0735 18.2522 21.1759 18.2422 19.2803C18.2422 19.0326 18.3021 18.9527 18.5578 18.9567C19.5286 18.9707 20.4973 18.9627 21.4681 18.9627C21.562 18.9627 21.6559 18.9727 21.7618 18.9767V25.2727H18.2462H18.2482Z" fill="#E66725"></path><path d="M13.2284 25.2392H9.73278C9.72678 25.1454 9.71879 25.0616 9.71879 24.9776C9.71879 23.879 9.72078 22.7824 9.7168 21.6838C9.7168 21.2124 10.0963 20.8269 10.5677 20.8289C11.3727 20.8329 12.1777 20.8289 12.9807 20.8289C13.0566 20.8289 13.1325 20.8389 13.2284 20.8449V25.2373V25.2392Z" fill="#E66725"></path></svg>