<svg xmlns="http://www.w3.org/2000/svg" width="37" height="37" viewBox="0 0 37 37" fill="none"><path d="M18.9141 36.8933C28.8552 36.8933 36.9141 28.8344 36.9141 18.8933C36.9141 8.95214 28.8552 0.893265 18.9141 0.893265C8.97294 0.893265 0.914062 8.95214 0.914062 18.8933C0.914062 28.8344 8.97294 36.8933 18.9141 36.8933Z" fill="#193C65" fill-opacity="0.2"></path><path d="M21.6128 15.4703L19.8824 12.4751C19.4648 11.7527 18.4208 11.7527 18.0032 12.4751L16.2728 15.4703C16.208 15.5807 16.2896 15.7199 16.4167 15.7199H21.4664C21.5936 15.7199 21.6752 15.5807 21.6104 15.4703H21.6128Z" fill="#1557A5"></path><path d="M24.1177 19.8117L22.4569 16.9365C22.3945 16.8285 22.2769 16.7613 22.1521 16.7613H15.7297C15.6049 16.7613 15.4873 16.8285 15.4249 16.9365L13.7641 19.8117C13.6297 20.0469 13.7977 20.3397 14.0689 20.3397H23.8105C24.0817 20.3397 24.2521 20.0469 24.1153 19.8117H24.1177Z" fill="#1557A5"></path><path d="M25.0613 22.0945H12.8237C12.5909 22.0945 12.3773 22.2193 12.2621 22.4185L11.1413 24.3601C10.7237 25.0825 11.2445 25.9873 12.0797 25.9873H25.8053C26.6405 25.9873 27.1613 25.0825 26.7437 24.3601L25.6229 22.4185C25.5077 22.2169 25.2917 22.0945 25.0613 22.0945Z" fill="#1557A5"></path></svg>