<svg xmlns="http://www.w3.org/2000/svg" width="37" height="37" viewBox="0 0 37 37" fill="none"><path d="M18.2285 36.8933C28.1696 36.8933 36.2285 28.8344 36.2285 18.8933C36.2285 8.95214 28.1696 0.893265 18.2285 0.893265C8.28739 0.893265 0.228516 8.95214 0.228516 18.8933C0.228516 28.8344 8.28739 36.8933 18.2285 36.8933Z" fill="#E66826" fill-opacity="0.2"></path><path d="M23.25 28.97C23.3862 28.8498 23.4037 28.9805 23.4439 29.0607L23.25 28.97Z" fill="#F39335"></path><path d="M23.7028 29.054L23.689 29.0592L23.6855 29.0384C23.6855 29.0384 23.6959 29.0384 23.7011 29.0419C23.7028 29.0436 23.7028 29.0505 23.7046 29.054H23.7028Z" fill="#F39335"></path><path d="M14.9012 12.67C15.9491 11.6222 15.9839 9.95812 14.9791 8.95327C13.9742 7.94843 12.3102 7.98328 11.2624 9.0311C10.2145 10.0789 10.1797 11.743 11.1846 12.7478C12.1894 13.7526 13.8534 13.7178 14.9012 12.67Z" fill="#E66826"></path><path d="M18.2426 10.7238V12.5492C18.2426 12.6995 18.3649 12.8217 18.5151 12.8217H20.0733C20.2235 12.8217 20.3458 12.9423 20.3458 13.0925L20.3598 15.0018C20.3598 15.1537 20.2375 15.276 20.0873 15.276H18.5273C18.3771 15.276 18.2548 15.3983 18.2548 15.5485V18.1199C18.2548 18.2701 18.1343 18.3924 17.9841 18.3924L15.5001 18.4133C15.3498 18.4133 15.2258 18.2928 15.2241 18.1426L15.2101 16.5669C15.2101 16.4167 15.0861 16.2962 14.9376 16.2962H11.6972C11.547 16.2962 11.4247 16.4167 11.4247 16.5669L11.416 18.1373C11.416 18.2876 11.2937 18.4081 11.1435 18.4081H10.0605C9.89976 18.4081 9.77572 18.2718 9.78794 18.1111C9.84559 17.4211 10.1303 15.6271 11.5435 13.7947C11.6116 13.7056 11.7304 13.6689 11.837 13.7021C12.6021 13.9397 15.6521 14.6402 16.1971 10.9299C16.2145 10.8129 16.3054 10.722 16.4207 10.7028L17.9229 10.4495C18.0889 10.4216 18.2409 10.5491 18.2409 10.7185L18.2426 10.7238Z" fill="#E66826"></path><path d="M17.6741 27.2782V26.1778C17.6741 26.0275 17.5518 25.9051 17.4015 25.9051H15.8521C15.7019 25.9051 15.5796 25.783 15.5796 25.6327V22.3888C15.5796 22.2386 15.7019 22.1163 15.8521 22.1163H17.4103C17.5605 22.1163 17.6828 21.994 17.6828 21.8438V19.3825C17.6828 19.2323 17.5605 19.11 17.4103 19.11H14.8057C14.6555 19.11 14.5332 18.9877 14.5332 18.8375V17.2252C14.5332 17.0749 14.411 16.9527 14.2607 16.9527H12.4283C12.2781 16.9527 12.1541 17.0749 12.1558 17.2269C12.1558 17.6304 12.1593 18.3798 12.1593 18.7833C12.1593 18.9336 12.037 19.0576 11.8868 19.0576H10.0229C9.86745 19.0576 9.74169 19.1886 9.75043 19.3441C9.79584 20.1756 9.90065 20.6856 9.96528 20.9319C9.99324 21.0367 10.0806 21.1171 10.1889 21.1328C14.0179 21.6866 13.2301 24.7575 12.9698 25.5262C12.9331 25.6361 12.9681 25.7566 13.0589 25.8283C13.5393 26.2073 15.1149 27.3202 17.3788 27.5542C17.5395 27.5717 17.681 27.444 17.681 27.2818L17.6741 27.2782Z" fill="#E66725"></path><path d="M11.4334 26.5811C12.6652 25.9345 13.1056 24.3469 12.417 23.0347C11.7285 21.7226 10.1716 21.1829 8.93977 21.8294C7.70793 22.4759 7.26755 24.0636 7.95616 25.3758C8.64474 26.6879 10.2016 27.2274 11.4334 26.5811Z" fill="#E66725"></path><path d="M26.5995 18.9664H24.8002C24.65 18.9664 24.5276 19.0887 24.5276 19.239V20.8146C24.5276 20.9648 24.4054 21.0871 24.2552 21.0871H22.3301C22.1799 21.0871 22.0577 20.9648 22.0577 20.8146V19.2407C22.0577 19.0905 21.9354 18.9682 21.7851 18.9682H19.1981C19.0479 18.9682 18.9256 18.8442 18.9256 18.6939V16.217C18.9256 16.0667 19.0479 15.9444 19.1981 15.9444H20.7737C20.924 15.9444 21.0462 15.8222 21.0462 15.6719L21.0427 12.4735C21.0427 12.3267 20.9274 12.2062 20.7807 12.201L19.1859 12.1346C19.0391 12.1294 18.9238 12.0088 18.9238 11.8621V10.7808C18.9238 10.6184 19.0636 10.4926 19.2243 10.5083C19.937 10.5834 21.7991 10.8996 23.5285 12.2219C23.6158 12.2883 23.6543 12.4036 23.6228 12.5102C23.4079 13.2665 22.7983 16.2833 26.4509 16.9192C26.568 16.9401 26.6571 17.0345 26.6727 17.1515L26.8702 18.6573C26.8911 18.8215 26.7636 18.9664 26.5995 18.9664Z" fill="#E66725"></path><path d="M27.6483 16.2045C28.8802 15.5581 29.3206 13.9703 28.6318 12.6581C27.9432 11.346 26.3864 10.8064 25.1547 11.4528C23.9228 12.0993 23.4824 13.687 24.171 14.9992C24.8595 16.3113 26.4164 16.851 27.6483 16.2045Z" fill="#E66725"></path><path d="M18.3347 27.3462V25.5453C18.3347 25.397 18.2159 25.2746 18.0674 25.2729L16.476 25.2467C16.3258 25.2448 16.2053 25.121 16.2071 24.9707L16.228 23.0823C16.228 22.9321 16.352 22.8116 16.5005 22.8116H18.0709C18.2211 22.8116 18.3434 22.6911 18.3434 22.5408L18.3679 19.9223C18.3679 19.7738 18.4901 19.6533 18.6404 19.6516L21.0597 19.6411C21.2082 19.6411 21.3287 19.7581 21.334 19.9049L21.3846 21.4805C21.3899 21.6272 21.5104 21.7443 21.6571 21.7443H24.894C25.0443 21.7443 25.1664 21.622 25.1664 21.4718V19.9206C25.1664 19.7704 25.2888 19.6481 25.4391 19.6481H26.5464C26.7089 19.6481 26.8347 19.7878 26.8191 19.9485C26.7423 20.6717 26.4154 22.5775 25.0476 24.2824C24.9778 24.3698 24.859 24.403 24.7524 24.368C23.9857 24.1165 20.9305 23.3618 20.3977 27.1403C20.3802 27.2572 20.2894 27.3515 20.1706 27.369L18.6526 27.6136C18.4866 27.6398 18.3364 27.5123 18.3364 27.3446L18.3347 27.3462Z" fill="#E66826"></path><path d="M24.6536 29.3827C25.9657 28.6942 26.5054 27.1373 25.8589 25.9056C25.2125 24.6737 23.6248 24.2333 22.3126 24.9218C21.0004 25.6106 20.4608 27.1673 21.1073 28.3992C21.7537 29.6311 23.3415 30.0715 24.6536 29.3827Z" fill="#E66826"></path></svg>