<svg xmlns="http://www.w3.org/2000/svg" width="36" height="37" viewBox="0 0 36 37" fill="none"><path d="M3.68272 3.56281L3.13897 3.04625L3.13897 3.04625L3.68272 3.56281ZM32.0635 3.56281L32.6072 3.04626L32.6072 3.04624L32.0635 3.56281ZM32.0635 33.4373L32.6072 33.9538L32.6072 33.9538L32.0635 33.4373ZM3.68272 33.4373L3.13896 33.9538L3.13898 33.9538L3.68272 33.4373ZM27.5117 9.11842C27.9259 9.11842 28.2617 8.78264 28.2617 8.36842C28.2617 7.95421 27.9259 7.61842 27.5117 7.61842V9.11842ZM27.4959 7.61842C27.0817 7.61842 26.7459 7.95421 26.7459 8.36842C26.7459 8.78264 27.0817 9.11842 27.4959 9.11842V7.61842ZM1.99805 18.5C1.99805 14.355 1.99949 11.3181 2.29634 8.9939C2.59091 6.68754 3.16472 5.197 4.22647 4.07937L3.13897 3.04625C1.76604 4.49145 1.12251 6.34472 0.808424 8.80385C0.496607 11.2452 0.498047 14.3954 0.498047 18.5H1.99805ZM4.22646 4.07937C5.28307 2.96717 6.68388 2.37051 8.85707 2.06295C11.056 1.75176 13.9322 1.75 17.873 1.75V0.25C13.9768 0.25 10.9752 0.248239 8.64689 0.577751C6.29286 0.910899 4.51706 1.59564 3.13897 3.04625L4.22646 4.07937ZM17.873 1.75C21.8138 1.75 24.6901 1.75176 26.889 2.06295C29.0622 2.37051 30.4631 2.96717 31.5197 4.07938L32.6072 3.04624C31.2291 1.59564 29.4532 0.910898 27.0992 0.577751C24.7708 0.248239 21.7693 0.25 17.873 0.25V1.75ZM31.5197 4.07936C32.5814 5.197 33.1552 6.68753 33.4498 8.99389C33.7466 11.318 33.7481 14.355 33.7481 18.5H35.2481C35.2481 14.3954 35.2495 11.2452 34.9377 8.80386C34.6236 6.34472 33.9801 4.49145 32.6072 3.04626L31.5197 4.07936ZM33.7481 18.5C33.7481 22.6449 33.7466 25.6819 33.4498 28.0061C33.1552 30.3125 32.5814 31.803 31.5197 32.9207L32.6072 33.9538C33.9801 32.5086 34.6236 30.6553 34.9377 28.1961C35.2495 25.7548 35.2481 22.6046 35.2481 18.5H33.7481ZM31.5197 32.9207C30.4631 34.0329 29.0622 34.6295 26.889 34.9371C24.6901 35.2482 21.8138 35.25 17.873 35.25V36.75C21.7693 36.75 24.7708 36.7518 27.0992 36.4223C29.4532 36.0891 31.2291 35.4044 32.6072 33.9538L31.5197 32.9207ZM17.873 35.25C13.9322 35.25 11.056 35.2482 8.85707 34.9371C6.68388 34.6295 5.28306 34.0329 4.22646 32.9207L3.13898 33.9538C4.51706 35.4044 6.29286 36.0891 8.64689 36.4223C10.9752 36.7518 13.9768 36.75 17.873 36.75V35.25ZM4.22648 32.9207C3.16473 31.803 2.59091 30.3125 2.29634 28.0061C1.99949 25.6819 1.99805 22.6449 1.99805 18.5H0.498047C0.498047 22.6046 0.496607 25.7548 0.808424 28.1961C1.12251 30.6553 1.76604 32.5086 3.13896 33.9538L4.22648 32.9207ZM24.9981 18.5C24.9981 22.7007 21.7723 26.0395 17.873 26.0395V27.5395C22.6723 27.5395 26.4981 23.4557 26.4981 18.5H24.9981ZM17.873 26.0395C13.9738 26.0395 10.748 22.7007 10.748 18.5H9.24805C9.24805 23.4557 13.0738 27.5395 17.873 27.5395V26.0395ZM10.748 18.5C10.748 14.2994 13.9738 10.9605 17.873 10.9605V9.46053C13.0738 9.46053 9.24805 13.5444 9.24805 18.5H10.748ZM17.873 10.9605C21.7723 10.9605 24.9981 14.2993 24.9981 18.5H26.4981C26.4981 13.5444 22.6723 9.46053 17.873 9.46053V10.9605ZM27.5117 7.61842H27.4959V9.11842H27.5117V7.61842Z" fill="#6F0B15"></path></svg>