<svg xmlns="http://www.w3.org/2000/svg" width="26" height="26" viewBox="0 0 26 26" fill="none"><path d="M2.75736 2.75736L2.22703 2.22702L2.22702 2.22703L2.75736 2.75736ZM23.2427 2.75736L23.773 2.22704L23.773 2.22701L23.2427 2.75736ZM23.2427 23.2427L23.773 23.773L23.773 23.773L23.2427 23.2427ZM2.75736 23.2427L2.22701 23.773L2.22704 23.773L2.75736 23.2427ZM19.9572 6.80263C20.3714 6.80263 20.7072 6.46685 20.7072 6.05263C20.7072 5.63842 20.3714 5.30263 19.9572 5.30263V6.80263ZM19.9459 5.30263C19.5316 5.30263 19.1959 5.63842 19.1959 6.05263C19.1959 6.46685 19.5316 6.80263 19.9459 6.80263V5.30263ZM1.75 13C1.75 10.1504 1.75159 8.0886 1.96298 6.51631C2.17147 4.96559 2.57158 4.00379 3.28769 3.28768L2.22702 2.22703C1.18577 3.26829 0.707208 4.59939 0.476357 6.31644C0.248407 8.01191 0.25 10.1928 0.25 13H1.75ZM3.28768 3.28769C4.00379 2.57158 4.96559 2.17147 6.51631 1.96298C8.0886 1.75159 10.1504 1.75 13 1.75V0.25C10.1928 0.25 8.01191 0.248407 6.31644 0.476357C4.59939 0.707208 3.26829 1.18577 2.22703 2.22702L3.28768 3.28769ZM13 1.75C15.8496 1.75 17.9114 1.75159 19.4837 1.96298C21.0344 2.17147 21.9962 2.57159 22.7124 3.2877L23.773 2.22701C22.7317 1.18577 21.4006 0.707208 19.6835 0.476357C17.9881 0.248407 15.8072 0.25 13 0.25V1.75ZM22.7124 3.28768C23.4284 4.00378 23.8285 4.96558 24.037 6.5163C24.2484 8.0886 24.25 10.1504 24.25 13H25.75C25.75 10.1928 25.7516 8.01191 25.5236 6.31644C25.2928 4.59939 24.8143 3.2683 23.773 2.22704L22.7124 3.28768ZM24.25 13C24.25 15.8496 24.2484 17.9114 24.037 19.4837C23.8285 21.0344 23.4284 21.9962 22.7123 22.7124L23.773 23.773C24.8143 22.7317 25.2928 21.4006 25.5236 19.6835C25.7516 17.9881 25.75 15.8072 25.75 13H24.25ZM22.7124 22.7123C21.9962 23.4284 21.0344 23.8285 19.4837 24.037C17.9114 24.2484 15.8496 24.25 13 24.25V25.75C15.8072 25.75 17.9881 25.7516 19.6835 25.5236C21.4006 25.2928 22.7317 24.8143 23.773 23.773L22.7124 22.7123ZM13 24.25C10.1504 24.25 8.0886 24.2484 6.5163 24.037C4.96558 23.8285 4.00378 23.4284 3.28768 22.7124L2.22704 23.773C3.2683 24.8143 4.59939 25.2928 6.31644 25.5236C8.01191 25.7516 10.1928 25.75 13 25.75V24.25ZM3.2877 22.7124C2.57159 21.9962 2.17147 21.0344 1.96298 19.4837C1.75159 17.9114 1.75 15.8496 1.75 13H0.25C0.25 15.8072 0.248407 17.9881 0.476357 19.6835C0.707208 21.4006 1.18577 22.7317 2.22701 23.773L3.2877 22.7124ZM17.9342 13C17.9342 15.7251 15.7251 17.9342 13 17.9342V19.4342C16.5535 19.4342 19.4342 16.5535 19.4342 13H17.9342ZM13 17.9342C10.2749 17.9342 8.06579 15.7251 8.06579 13H6.56579C6.56579 16.5535 9.44649 19.4342 13 19.4342V17.9342ZM8.06579 13C8.06579 10.2749 10.2749 8.06579 13 8.06579V6.56579C9.44649 6.56579 6.56579 9.44649 6.56579 13H8.06579ZM13 8.06579C15.7251 8.06579 17.9342 10.2749 17.9342 13H19.4342C19.4342 9.44649 16.5535 6.56579 13 6.56579V8.06579ZM19.9572 5.30263H19.9459V6.80263H19.9572V5.30263Z" fill="#6F0B15"></path></svg>