<svg xmlns="http://www.w3.org/2000/svg" width="36" height="37" viewBox="0 0 36 37" fill="none"><path d="M3.68272 3.56281L2.95772 2.87406L2.95772 2.87406L3.68272 3.56281ZM32.0635 3.56281L32.7885 2.87407L32.7884 2.87405L32.0635 3.56281ZM32.0635 33.4373L32.7884 34.126L32.7885 34.126L32.0635 33.4373ZM3.68272 33.4373L2.9577 34.126L2.95773 34.126L3.68272 33.4373ZM27.5117 9.36842C28.064 9.36842 28.5117 8.92071 28.5117 8.36842C28.5117 7.81614 28.064 7.36842 27.5117 7.36842V9.36842ZM27.4959 7.36842C26.9437 7.36842 26.4959 7.81614 26.4959 8.36842C26.4959 8.92071 26.9437 9.36842 27.4959 9.36842V7.36842ZM2.24805 18.5C2.24805 14.3483 2.24997 11.3302 2.54432 9.02557C2.83565 6.74468 3.39784 5.3146 4.40772 4.25156L2.95772 2.87406C1.53292 4.37385 0.877782 6.28758 0.560439 8.77218C0.246127 11.2331 0.248047 14.4021 0.248047 18.5H2.24805ZM4.40771 4.25156C5.41073 3.19576 6.74906 2.61377 8.89211 2.31048C11.0694 2.00235 13.9248 2 17.873 2V0C13.9842 0 10.9618 -0.00234854 8.61185 0.330218C6.22768 0.667631 4.38939 1.36705 2.95772 2.87406L4.40771 4.25156ZM17.873 2C21.8213 2 24.6767 2.00235 26.854 2.31049C28.997 2.61377 30.3354 3.19576 31.3385 4.25158L32.7884 2.87405C31.3567 1.36705 29.5184 0.66763 27.1342 0.330217C24.7843 -0.00234842 21.7618 0 17.873 0V2ZM31.3384 4.25155C32.3483 5.31459 32.9105 6.74467 33.2018 9.02557C33.4961 11.3302 33.4981 14.3483 33.4981 18.5H35.4981C35.4981 14.4021 35.5 11.2331 35.1857 8.77218C34.8683 6.28759 34.2132 4.37386 32.7885 2.87407L31.3384 4.25155ZM33.4981 18.5C33.4981 22.6516 33.4961 25.6698 33.2018 27.9744C32.9105 30.2553 32.3483 31.6855 31.3384 32.7485L32.7885 34.126C34.2132 32.6262 34.8683 30.7124 35.1857 28.2278C35.5 25.7669 35.4981 22.5979 35.4981 18.5H33.4981ZM31.3385 32.7485C30.3354 33.8043 28.997 34.3862 26.854 34.6895C24.6767 34.9977 21.8213 35 17.873 35V37C21.7618 37 24.7843 37.0023 27.1342 36.6698C29.5184 36.3324 31.3567 35.633 32.7884 34.126L31.3385 32.7485ZM17.873 35C13.9248 35 11.0694 34.9977 8.8921 34.6895C6.74905 34.3862 5.41072 33.8043 4.4077 32.7485L2.95773 34.126C4.3894 35.633 6.22769 36.3324 8.61186 36.6698C10.9618 37.0023 13.9842 37 17.873 37V35ZM4.40773 32.7485C3.39784 31.6854 2.83565 30.2553 2.54432 27.9744C2.24997 25.6698 2.24805 22.6516 2.24805 18.5H0.248047C0.248047 22.5979 0.246127 25.7669 0.560439 28.2278C0.877781 30.7124 1.53292 32.6262 2.9577 34.126L4.40773 32.7485ZM24.7481 18.5C24.7481 22.5749 21.6223 25.7895 17.873 25.7895V27.7895C22.8223 27.7895 26.7481 23.5815 26.7481 18.5H24.7481ZM17.873 25.7895C14.1238 25.7895 10.998 22.5749 10.998 18.5H8.99805C8.99805 23.5815 12.9238 27.7895 17.873 27.7895V25.7895ZM10.998 18.5C10.998 14.4252 14.1238 11.2105 17.873 11.2105V9.21053C12.9238 9.21053 8.99805 13.4185 8.99805 18.5H10.998ZM17.873 11.2105C21.6223 11.2105 24.7481 14.4252 24.7481 18.5H26.7481C26.7481 13.4185 22.8223 9.21053 17.873 9.21053V11.2105ZM27.5117 7.36842H27.4959V9.36842H27.5117V7.36842Z" fill="#6F0B15"></path></svg>