<svg width="29" height="29" viewBox="0 0 29 29" fill="none" xmlns="http://www.w3.org/2000/svg">
<path d="M1.75 14.3333C1.75 13.9191 1.41421 13.5833 1 13.5833C0.585786 13.5833 0.25 13.9191 0.25 14.3333H1.75ZM15.6849 9.58333C15.2707 9.58333 14.9349 9.91912 14.9349 10.3333C14.9349 10.7475 15.2707 11.0833 15.6849 11.0833V9.58333ZM13 19.0833C13.4142 19.0833 13.75 18.7475 13.75 18.3333C13.75 17.9191 13.4142 17.5833 13 17.5833V19.0833ZM15.6849 1.58333C15.2707 1.58333 14.9349 1.91912 14.9349 2.33333C14.9349 2.74755 15.2707 3.08333 15.6849 3.08333V1.58333ZM18.9289 13.6804C18.9365 14.0945 19.2783 14.4241 19.6925 14.4165C20.1066 14.409 20.4362 14.0671 20.4287 13.653L18.9289 13.6804ZM26.9178 13.7077C26.9405 14.1213 27.2941 14.4382 27.7077 14.4155C28.1213 14.3929 28.4382 14.0392 28.4155 13.6256L26.9178 13.7077ZM13 27.0833C13.4142 27.0833 13.75 26.7475 13.75 26.3333C13.75 25.9191 13.4142 25.5833 13 25.5833V27.0833ZM9.7739 15.6391C9.75865 15.2251 9.41073 14.9019 8.9968 14.9172C8.58286 14.9324 8.25967 15.2804 8.27492 15.6943L9.7739 15.6391ZM1.24984 2.63185L0.563348 2.32981L0.563344 2.32982L1.24984 2.63185ZM2.53968 1.2648L2.20739 0.592431L2.20738 0.592431L2.53968 1.2648ZM10.8856 1.8278L10.3401 2.3425L10.3401 2.3425L10.8856 1.8278ZM11.3146 11.6079L11.6846 12.2603L11.6846 12.2603L11.3146 11.6079ZM9.59373 10.8405L10.0265 10.228L10.0265 10.2279L9.59373 10.8405ZM9.45471 10.7423L9.02192 11.3548L9.02193 11.3548L9.45471 10.7423ZM2.53968 9.52811L2.20738 10.2005H2.20739L2.53968 9.52811ZM1.24984 8.16105L0.563344 8.46309L0.563348 8.46309L1.24984 8.16105ZM27.4168 18.6319L26.7303 18.9339L26.7303 18.9339L27.4168 18.6319ZM26.1269 17.2648L25.7946 17.9372L25.7947 17.9372L26.1269 17.2648ZM17.7811 17.8279L18.3266 18.3426L18.3266 18.3426L17.7811 17.8279ZM17.3521 27.6079L17.7223 26.9556L17.7222 26.9555L17.3521 27.6079ZM19.0729 26.8405L19.5057 27.4531L19.5057 27.453L19.0729 26.8405ZM19.212 26.7423L19.6448 27.3548L19.6448 27.3548L19.212 26.7423ZM20.5901 25.9141L20.3611 25.1999L20.3608 25.2L20.5901 25.9141ZM26.1269 25.5281L25.7947 24.8557L25.7946 24.8558L26.1269 25.5281ZM27.4168 24.1611L26.7303 23.859L26.7303 23.8591L27.4168 24.1611ZM0.25 14.3333C0.25 15.8222 0.505503 17.253 0.975701 18.5833L2.38995 18.0834C1.97572 16.9115 1.75 15.6496 1.75 14.3333H0.25ZM15.6849 11.0833H27.002V9.58333H15.6849V11.0833ZM13 17.5833H1.68283V19.0833H13V17.5833ZM27.7091 10.0834C25.9592 5.13234 21.2375 1.58333 15.6849 1.58333V3.08333C20.582 3.08333 24.7501 6.21278 26.2949 10.5833L27.7091 10.0834ZM15.6849 3.08333C15.9013 3.08333 16.2187 3.20898 16.6128 3.6907C17.0021 4.16657 17.3882 4.90158 17.7314 5.87937C18.4152 7.82771 18.8723 10.5775 18.9289 13.6804L20.4287 13.653C20.37 10.4385 19.8974 7.52164 19.1467 5.38264C18.7727 4.31677 18.3154 3.40293 17.7738 2.74089C17.2369 2.08469 16.5358 1.58333 15.6849 1.58333V3.08333ZM26.2949 10.5833C26.6431 11.5684 26.858 12.6169 26.9178 13.7077L28.4155 13.6256C28.3479 12.3905 28.1043 11.2014 27.7091 10.0834L26.2949 10.5833ZM0.975696 18.5833C2.72564 23.5344 7.44739 27.0833 13 27.0833V25.5833C8.10284 25.5833 3.9347 22.4539 2.38996 18.0834L0.975696 18.5833ZM13 25.5833C12.7911 25.5833 12.4892 25.4671 12.1126 25.0244C11.7389 24.5852 11.3645 23.9037 11.0264 22.9898C10.3529 21.1687 9.88247 18.5855 9.7739 15.6391L8.27492 15.6943C8.38743 18.7479 8.87537 21.498 9.61959 23.5102C9.99049 24.513 10.4398 25.3731 10.9701 25.9964C11.4973 26.6162 12.1794 27.0833 13 27.0833V25.5833ZM1.75 5.39645C1.75 4.65341 1.75045 4.13554 1.77932 3.73137C1.80771 3.33401 1.86073 3.10574 1.93634 2.93389L0.563344 2.32982C0.389114 2.72583 0.317207 3.14762 0.283137 3.62447C0.249554 4.09451 0.25 4.675 0.25 5.39645H1.75ZM1.93633 2.93389C2.13331 2.4862 2.46808 2.13678 2.87198 1.93717L2.20738 0.592431C1.47488 0.954446 0.896293 1.57308 0.563348 2.32981L1.93633 2.93389ZM2.87197 1.93717C3.0197 1.86416 3.22017 1.81011 3.58667 1.7807C3.96214 1.75056 4.44515 1.75 5.14815 1.75V0.25C4.46937 0.25 3.91605 0.249438 3.46667 0.285504C3.00833 0.322289 2.59546 0.40064 2.20739 0.592431L2.87197 1.93717ZM5.14815 1.75H6.33333V0.25H5.14815V1.75ZM6.33333 1.75C7.61285 1.75 8.49258 1.75179 9.15359 1.84597C9.78834 1.93642 10.11 2.09866 10.3401 2.3425L11.4311 1.3131C10.8802 0.729144 10.1828 0.477478 9.3652 0.360975C8.57386 0.248215 7.56798 0.25 6.33333 0.25V1.75ZM10.3401 2.3425C10.576 2.59251 10.7369 2.95164 10.825 3.64576C10.9152 4.35719 10.9167 5.30023 10.9167 6.65259H12.4167C12.4167 5.34029 12.4181 4.28483 12.3131 3.45699C12.2059 2.61183 11.9763 1.89089 11.4311 1.3131L10.3401 2.3425ZM10.9167 6.65259V9.66468H12.4167V6.65259H10.9167ZM10.9167 9.66468C10.9167 10.2699 10.9149 10.6424 10.8798 10.8937C10.8435 11.1541 10.8018 11.0365 10.9445 10.9555L11.6846 12.2603C12.1794 11.9796 12.3138 11.4715 12.3655 11.1009C12.4184 10.721 12.4167 10.2218 12.4167 9.66468H10.9167ZM10.9446 10.9555C11.1055 10.8642 11.2087 10.9746 11 10.8702C10.7912 10.7657 10.5044 10.5656 10.0265 10.228L9.16094 11.453C9.59554 11.7601 9.99312 12.0436 10.3286 12.2115C10.6642 12.3795 11.1715 12.5513 11.6846 12.2603L10.9446 10.9555ZM10.0265 10.2279L9.88748 10.1297L9.02193 11.3548L9.16096 11.453L10.0265 10.2279ZM9.8875 10.1297C9.25857 9.68535 8.8186 9.36465 8.30563 9.20004L7.84731 10.6283C8.09014 10.7062 8.31705 10.8568 9.02192 11.3548L9.8875 10.1297ZM8.30563 9.20004C7.79034 9.03469 7.25186 9.04291 6.49631 9.04291V10.5429C7.34377 10.5429 7.60679 10.5511 7.84731 10.6283L8.30563 9.20004ZM6.49631 9.04291H5.14815V10.5429H6.49631V9.04291ZM5.14815 9.04291C4.44515 9.04291 3.96214 9.04235 3.58667 9.01221C3.22017 8.9828 3.0197 8.92875 2.87197 8.85574L2.20739 10.2005C2.59546 10.3923 3.00833 10.4706 3.46667 10.5074C3.91605 10.5435 4.46937 10.5429 5.14815 10.5429V9.04291ZM2.87198 8.85574C2.46808 8.65613 2.13331 8.30671 1.93633 7.85901L0.563348 8.46309C0.896293 9.21983 1.47488 9.83846 2.20738 10.2005L2.87198 8.85574ZM1.93634 7.85902C1.86073 7.68717 1.80771 7.4589 1.77932 7.06154C1.75045 6.65737 1.75 6.13949 1.75 5.39645H0.25C0.25 6.11791 0.249554 6.6984 0.283137 7.16844C0.317207 7.64529 0.389114 8.06707 0.563344 8.46309L1.93634 7.85902ZM28.4167 21.3964C28.4167 20.675 28.4171 20.0945 28.3835 19.6245C28.3495 19.1476 28.2775 18.7258 28.1033 18.3298L26.7303 18.9339C26.8059 19.1058 26.8589 19.334 26.8873 19.7314C26.9162 20.1356 26.9167 20.6534 26.9167 21.3964H28.4167ZM28.1033 18.3299C27.7704 17.573 27.1918 16.9544 26.4592 16.5924L25.7947 17.9372C26.1986 18.1368 26.5333 18.4862 26.7303 18.9339L28.1033 18.3299ZM26.4593 16.5924C26.0712 16.4006 25.6583 16.3223 25.2 16.2855C24.7506 16.2494 24.1973 16.25 23.5185 16.25V17.75C24.2215 17.75 24.7045 17.7506 25.08 17.7807C25.4465 17.8101 25.6469 17.8642 25.7946 17.9372L26.4593 16.5924ZM23.5185 16.25H22.3333V17.75H23.5185V16.25ZM22.3333 16.25C21.0987 16.25 20.0928 16.2482 19.3015 16.361C18.4839 16.4775 17.7865 16.7292 17.2355 17.3132L18.3266 18.3426C18.5567 18.0987 18.8784 17.9364 19.5131 17.846C20.1741 17.7518 21.0538 17.75 22.3333 17.75V16.25ZM17.2356 17.3131C16.6904 17.8909 16.4608 18.6118 16.3536 19.457C16.2486 20.2848 16.25 21.3402 16.25 22.6525H17.75C17.75 21.3002 17.7514 20.3571 17.8417 19.6457C17.9297 18.9517 18.0907 18.5926 18.3266 18.3426L17.2356 17.3131ZM16.25 22.6525V25.6647H17.75V22.6525H16.25ZM16.25 25.6647C16.25 26.2218 16.2482 26.721 16.3012 27.1009C16.3529 27.4716 16.4873 27.9796 16.9821 28.2602L17.7222 26.9555C17.8648 27.0364 17.8231 27.154 17.7868 26.8936C17.7518 26.6424 17.75 26.27 17.75 25.6647H16.25ZM16.982 28.2602C17.4951 28.5513 18.0025 28.3795 18.338 28.2115C18.6735 28.0436 19.0711 27.7601 19.5057 27.4531L18.6402 26.228C18.1623 26.5656 17.8755 26.7656 17.6666 26.8702C17.4579 26.9746 17.5612 26.8642 17.7223 26.9556L16.982 28.2602ZM19.5057 27.453L19.6448 27.3548L18.7792 26.1298L18.6401 26.228L19.5057 27.453ZM19.6448 27.3548C20.3495 26.8568 20.5765 26.7062 20.8194 26.6282L20.3608 25.2C19.848 25.3647 19.4081 25.6853 18.7792 26.1298L19.6448 27.3548ZM20.8191 26.6283C21.0598 26.5511 21.3229 26.5429 22.1704 26.5429V25.0429C21.4147 25.0429 20.8764 25.0347 20.3611 25.1999L20.8191 26.6283ZM22.1704 26.5429H23.5185V25.0429H22.1704V26.5429ZM23.5185 26.5429C24.1973 26.5429 24.7506 26.5435 25.2 26.5074C25.6583 26.4706 26.0712 26.3923 26.4593 26.2005L25.7946 24.8558C25.6469 24.9288 25.4465 24.9828 25.08 25.0122C24.7045 25.0424 24.2215 25.0429 23.5185 25.0429V26.5429ZM26.4592 26.2005C27.1918 25.8385 27.7704 25.2199 28.1033 24.4631L26.7303 23.8591C26.5333 24.3068 26.1986 24.6561 25.7947 24.8557L26.4592 26.2005ZM28.1033 24.4631C28.2775 24.0671 28.3495 23.6453 28.3835 23.1684C28.4171 22.6984 28.4167 22.1179 28.4167 21.3964H26.9167C26.9167 22.1395 26.9162 22.6573 26.8873 23.0615C26.8589 23.4589 26.8059 23.6872 26.7303 23.859L28.1033 24.4631Z" fill="#6F0B15"/>
</svg>
