<svg xmlns="http://www.w3.org/2000/svg" width="35" height="37" viewBox="0 0 35 37" fill="none"><path d="M8.875 14.8158V27.7105M15.875 20.3421V27.7105M15.875 20.3421C15.875 17.2899 18.2254 14.8158 21.125 14.8158C24.0246 14.8158 26.375 17.2899 26.375 20.3421V27.7105M15.875 20.3421V14.8158M8.88902 9.28947H8.87329M1 18.5C1 10.2504 1 6.12564 3.43467 3.56281C5.86936 1 9.78791 1 17.625 1C25.462 1 29.3806 1 31.8154 3.56281C34.25 6.12564 34.25 10.2504 34.25 18.5C34.25 26.7495 34.25 30.8743 31.8154 33.4373C29.3806 36 25.462 36 17.625 36C9.78791 36 5.86936 36 3.43467 33.4373C1 30.8743 1 26.7495 1 18.5Z" stroke="#6F0B15" stroke-width="1.5" stroke-linecap="round" stroke-linejoin="round"></path></svg>