<svg xmlns="http://www.w3.org/2000/svg" width="26" height="26" viewBox="0 0 26 26" fill="none"><path d="M6.68421 10.4737V19.3158M11.7368 14.2632V19.3158M11.7368 14.2632C11.7368 12.1702 13.4334 10.4737 15.5263 10.4737C17.6192 10.4737 19.3158 12.1702 19.3158 14.2632V19.3158M11.7368 14.2632V10.4737M6.69433 6.68421H6.68297M1 13C1 7.34315 1 4.51472 2.75736 2.75736C4.51472 1 7.34315 1 13 1C18.6568 1 21.4853 1 23.2427 2.75736C25 4.51472 25 7.34315 25 13C25 18.6568 25 21.4853 23.2427 23.2427C21.4853 25 18.6568 25 13 25C7.34315 25 4.51472 25 2.75736 23.2427C1 21.4853 1 18.6568 1 13Z" stroke="#6F0B15" stroke-width="1.5" stroke-linecap="round" stroke-linejoin="round"></path></svg>