<svg xmlns="http://www.w3.org/2000/svg" width="38" height="37" viewBox="0 0 38 37" fill="none"><path d="M13.6036 12.8348L13.9884 12.191L13.9884 12.191L13.6036 12.8348ZM24.4081 12.8348L24.0234 12.191L24.4081 12.8348ZM16.3705 33.0657C16.7847 33.0714 17.1251 32.7403 17.1308 32.3261C17.1365 31.9119 16.8054 31.5716 16.3912 31.5659L16.3705 33.0657ZM13.9288 32.2664L13.9487 31.5167L13.9486 31.5167L13.9288 32.2664ZM3.68454 29.9549L4.22942 29.4396L4.22942 29.4396L3.68454 29.9549ZM1.53346 19.3868L2.2833 19.3716L1.53346 19.3868ZM1.53344 13.9471L0.783593 13.9319V13.9319L1.53344 13.9471ZM13.9288 1.06738L13.909 0.317647L13.9288 1.06738ZM24.083 1.0674L24.1028 0.317665V0.317665L24.083 1.0674ZM34.3271 3.37891L33.7822 3.89428L33.7823 3.8943L34.3271 3.37891ZM36.4782 13.9471L35.7284 13.9623V13.9623L36.4782 13.9471ZM35.7557 15.7387C35.7567 16.1529 36.0934 16.4879 36.5076 16.4868C36.9218 16.4858 37.2567 16.1492 37.2557 15.735L35.7557 15.7387ZM28.6309 36.75C29.0451 36.75 29.3809 36.4142 29.3809 36C29.3809 35.5858 29.0451 35.25 28.6309 35.25V36.75ZM1.12113 6.24906L13.2189 13.4786L13.9884 12.191L1.89059 4.96146L1.12113 6.24906ZM13.2189 13.4786C15.4502 14.8121 17.1951 15.5658 19.0059 15.5658C20.8166 15.5658 22.5615 14.8121 24.7928 13.4786L24.0234 12.191C21.8347 13.4989 20.3874 14.0658 19.0059 14.0658C17.6243 14.0658 16.177 13.4989 13.9884 12.191L13.2189 13.4786ZM24.7928 13.4786L36.8906 6.24906L36.1211 4.96146L24.0234 12.191L24.7928 13.4786ZM16.3912 31.5659C15.5783 31.5547 14.7645 31.5383 13.9487 31.5167L13.9089 33.0162C14.7311 33.038 15.5514 33.0544 16.3705 33.0657L16.3912 31.5659ZM13.9486 31.5167C11.1702 31.4432 9.17232 31.3882 7.61808 31.1032C6.10135 30.8249 5.08008 30.339 4.22942 29.4396L3.13966 30.4703C4.26846 31.6638 5.61439 32.2606 7.34746 32.5785C9.04302 32.8896 11.1776 32.9439 13.909 33.0162L13.9486 31.5167ZM4.22942 29.4396C3.37255 28.5336 2.90954 27.4594 2.6496 25.8829C2.38436 24.2742 2.34094 22.2184 2.2833 19.3716L0.783611 19.402C0.840371 22.2055 0.882756 24.3873 1.16958 26.1269C1.46172 27.8987 2.01705 29.2834 3.13966 30.4703L4.22942 29.4396ZM2.2833 19.3716C2.24672 17.5649 2.24671 15.769 2.28329 13.9623L0.783593 13.9319C0.746603 15.7589 0.746621 17.575 0.783611 19.402L2.2833 19.3716ZM2.28329 13.9623C2.34093 11.1155 2.38435 9.05966 2.64959 7.45094C2.90953 5.8744 3.37254 4.80016 4.2294 3.89425L3.13965 2.8635C2.01703 4.05039 1.4617 5.43512 1.16957 7.20692C0.882748 8.94654 0.840362 11.1284 0.783593 13.9319L2.28329 13.9623ZM4.2294 3.89425C5.08007 2.99488 6.10134 2.50891 7.61808 2.2307C9.17232 1.94561 11.1702 1.89065 13.9486 1.81712L13.909 0.317647C11.1776 0.389925 9.04301 0.444306 7.34746 0.755314C5.61439 1.0732 4.26845 1.67007 3.13965 2.8635L4.2294 3.89425ZM13.9486 1.81712C17.3312 1.72761 20.6805 1.72763 24.0631 1.81714L24.1028 0.317665C20.6937 0.227457 17.318 0.227439 13.909 0.317647L13.9486 1.81712ZM24.0631 1.81714C26.8416 1.89066 28.8394 1.94564 30.3936 2.23073C31.9104 2.50894 32.9316 2.99491 33.7822 3.89428L34.872 2.86355C33.7432 1.67012 32.3973 1.07324 30.6643 0.755343C28.9687 0.444329 26.8342 0.389943 24.1028 0.317665L24.0631 1.81714ZM33.7823 3.8943C34.6392 4.80021 35.1022 5.87444 35.3621 7.45097C35.6274 9.05968 35.6708 11.1155 35.7284 13.9623L37.2281 13.932C37.1714 11.1285 37.129 8.94657 36.8422 7.20694C36.55 5.43512 35.9947 4.0504 34.872 2.86352L33.7823 3.8943ZM35.7284 13.9623C35.7454 14.8013 35.7543 15.1878 35.7557 15.7387L37.2557 15.735C37.2543 15.1677 37.245 14.7658 37.2281 13.9319L35.7284 13.9623ZM30.5059 27.7105C30.5059 28.859 29.6306 29.7237 28.6309 29.7237V31.2237C30.5306 31.2237 32.0059 29.614 32.0059 27.7105H30.5059ZM28.6309 29.7237C27.6312 29.7237 26.7559 28.859 26.7559 27.7105H25.2559C25.2559 29.614 26.7312 31.2237 28.6309 31.2237V29.7237ZM26.7559 27.7105C26.7559 26.562 27.6312 25.6974 28.6309 25.6974V24.1974C26.7312 24.1974 25.2559 25.807 25.2559 27.7105H26.7559ZM28.6309 25.6974C29.6306 25.6974 30.5059 26.562 30.5059 27.7105H32.0059C32.0059 25.807 30.5306 24.1974 28.6309 24.1974V25.6974ZM30.5059 27.7105V28.6316H32.0059V27.7105H30.5059ZM30.5059 28.6316C30.5059 30.5351 31.9812 32.1447 33.8809 32.1447V30.6447C32.8812 30.6447 32.0059 29.7801 32.0059 28.6316H30.5059ZM33.8809 32.1447C35.7806 32.1447 37.2559 30.5351 37.2559 28.6316H35.7559C35.7559 29.7801 34.8806 30.6447 33.8809 30.6447V32.1447ZM37.2559 28.6316V27.7105H35.7559V28.6316H37.2559ZM37.2559 27.7105C37.2559 22.7548 33.4301 18.6711 28.6309 18.6711V20.1711C32.5301 20.1711 35.7559 23.5098 35.7559 27.7105H37.2559ZM28.6309 18.6711C23.8316 18.6711 20.0059 22.7548 20.0059 27.7105H21.5059C21.5059 23.5098 24.7316 20.1711 28.6309 20.1711V18.6711ZM20.0059 27.7105C20.0059 32.6662 23.8316 36.75 28.6309 36.75V35.25C24.7316 35.25 21.5059 31.9112 21.5059 27.7105H20.0059Z" fill="#6F0B15"></path></svg>