<svg xmlns="http://www.w3.org/2000/svg" width="304" height="99" viewBox="0 0 304 99" fill="none"><path d="M74.6191 95.1156C74.6191 94.7666 74.6191 95.1156 74.6191 95.1156V84.6438C74.6191 84.6438 74.6191 84.6438 74.6191 84.2947H74.9464H79.1999C80.5087 84.2947 81.4902 84.6437 82.1446 84.9928C82.799 85.6909 83.1262 86.3891 83.1262 87.4363C83.1262 88.4835 82.799 89.1816 82.1446 89.8797C81.4902 90.5778 80.5087 90.5778 79.1999 90.5778H75.2736V95.1156V95.4647C75.2736 95.4647 74.9463 95.1156 74.6191 95.1156C74.9463 95.1156 74.6191 95.1156 74.6191 95.1156ZM79.1999 89.8797C80.1815 89.8797 81.1631 89.5306 81.8175 89.1816C82.4719 88.8325 82.799 88.1344 82.799 87.4363C82.799 86.7382 82.4719 86.04 81.8175 85.691C81.1631 85.3419 80.5087 84.9928 79.1999 84.9928H75.2736V89.8797H79.1999Z" fill="#242424"></path><path d="M74.6191 95.1156C74.6191 95.1156 74.6191 94.7666 74.6191 95.1156V84.6438C74.6191 84.6438 74.6191 84.6438 74.6191 84.2947H74.9464H79.1999C80.5087 84.2947 81.4902 84.6437 82.1446 84.9928C82.799 85.6909 83.1262 86.3891 83.1262 87.4363C83.1262 88.4835 82.799 89.1816 82.1446 89.8797C81.4902 90.5778 80.5087 90.5778 79.1999 90.5778H75.2736V95.1156V95.4646C75.2736 95.4646 74.9463 95.1156 74.6191 95.1156ZM74.6191 95.1156C74.9463 95.1156 74.6191 95.1156 74.6191 95.1156ZM79.1999 89.8797C80.1815 89.8797 81.1631 89.5306 81.8175 89.1816C82.4719 88.8325 82.799 88.1344 82.799 87.4363C82.799 86.7382 82.4719 86.04 81.8175 85.691C81.1631 85.3419 80.5087 84.9928 79.1999 84.9928H75.2736V89.8797H79.1999V89.8797Z" stroke="#242424" stroke-width="0.5" stroke-miterlimit="10"></path><path d="M96.5419 88.1345C97.1963 88.4836 97.1963 89.1816 97.1963 90.2288V94.7666V95.1157C97.1963 95.1157 97.1963 95.1157 96.8691 95.1157H96.5419C96.5419 95.1157 96.5419 95.1157 96.5419 94.7666V90.2288C96.5419 89.5307 96.2147 88.8326 95.8875 88.4835C95.5603 88.1345 94.906 87.7854 93.9244 87.7854C92.9428 87.7854 92.2884 88.1345 91.634 88.4835C90.9796 88.8326 90.6524 89.5307 90.6524 90.5779V94.7666V95.1157C90.6524 95.1157 90.6524 95.1157 90.3252 95.1157H89.998C89.998 95.1157 89.998 95.1157 89.998 94.7666V84.2948V83.9458C89.998 83.9458 89.998 83.9458 90.3252 83.9458C90.6524 83.9458 90.6524 83.9458 90.6524 83.9458C90.6524 83.9458 90.6524 83.9457 90.6524 84.2948V88.8326C90.9796 88.4835 91.3068 88.1345 91.9612 87.7854C92.6156 87.4363 92.9428 87.4364 93.9244 87.4364C95.2332 87.4364 95.8876 87.7854 96.5419 88.1345Z" fill="#242424" stroke="#242424" stroke-width="0.5" stroke-miterlimit="10"></path><path d="M106.357 94.7669C105.702 94.4178 105.375 94.0688 105.048 93.3706C104.721 92.6725 104.721 91.9744 104.721 91.2763C104.721 90.5781 104.721 89.88 105.048 89.1819C105.375 88.4838 105.702 88.1347 106.357 87.7856C107.011 87.4366 107.665 87.4366 108.32 87.4366C108.974 87.4366 109.629 87.4366 110.283 87.7856C110.937 88.1347 111.265 88.4838 111.592 89.1819C111.919 89.88 111.919 90.5781 111.919 91.2763C111.919 91.9744 111.919 92.6725 111.592 93.3706C111.265 94.0688 110.937 94.4178 110.283 94.7669C109.629 95.1159 108.974 95.1159 108.32 95.1159C107.338 95.1159 106.684 95.1159 106.357 94.7669ZM110.61 93.7197C111.265 93.0215 111.265 92.3234 111.265 91.2763C111.265 90.2291 110.937 89.531 110.283 88.8328C109.629 88.1347 108.974 88.1347 107.993 88.1347C107.011 88.1347 106.357 88.4838 105.702 88.8328C105.048 89.531 104.721 90.2291 104.721 91.2763C104.721 92.3234 105.048 93.0215 105.375 93.7197C106.029 94.4178 106.684 94.4178 107.665 94.4178C109.301 94.4178 109.956 94.4178 110.61 93.7197Z" fill="#242424" stroke="#242424" stroke-width="0.5" stroke-miterlimit="10"></path><path d="M123.043 94.7661C123.043 95.1152 122.716 95.1152 122.388 95.1152H122.061C121.08 95.1152 120.425 94.7662 120.098 94.4171C119.771 94.0681 119.444 93.3699 119.444 92.3227V88.134H117.808C117.808 88.134 117.808 88.134 117.48 88.134C117.48 88.134 117.48 88.134 117.48 87.7849C117.48 87.7849 117.48 87.7849 117.48 87.4359C117.48 87.4359 117.48 87.4359 117.808 87.4359H119.444V85.3415V84.9924C119.444 84.9924 119.444 84.9924 119.771 84.9924H120.098C120.098 84.9924 120.098 84.9924 120.098 85.3415V87.4359H122.388C122.388 87.4359 122.388 87.4359 122.716 87.4359C122.716 87.4359 122.716 87.4358 122.716 87.7849C122.716 87.7849 122.716 87.7849 122.716 88.134C122.716 88.134 122.716 88.134 122.388 88.134H120.098V92.3227C120.098 93.0208 120.098 93.3699 120.425 93.7189C120.752 94.068 121.407 94.0681 122.061 94.4171H122.388C123.043 94.4171 123.043 94.7661 123.043 94.7661Z" fill="#242424" stroke="#242424" stroke-width="0.5" stroke-miterlimit="10"></path><path d="M130.568 94.7669C129.913 94.4178 129.586 94.0688 129.259 93.3706C128.932 92.6725 128.932 91.9744 128.932 91.2763C128.932 90.5781 128.932 89.88 129.259 89.1819C129.586 88.4838 129.913 88.1347 130.568 87.7856C131.222 87.4366 131.876 87.4366 132.531 87.4366C133.185 87.4366 133.84 87.4366 134.494 87.7856C135.148 88.1347 135.476 88.4838 135.803 89.1819C136.13 89.88 136.13 90.5781 136.13 91.2763C136.13 91.9744 136.13 92.6725 135.803 93.3706C135.476 94.0688 135.148 94.4178 134.494 94.7669C133.84 95.1159 133.185 95.1159 132.531 95.1159C131.876 95.1159 131.222 95.1159 130.568 94.7669ZM135.148 93.7197C135.803 93.0215 135.803 92.3234 135.803 91.2763C135.803 90.2291 135.476 89.531 134.821 88.8328C134.167 88.1347 133.512 88.1347 132.531 88.1347C131.549 88.1347 130.895 88.4838 130.24 88.8328C129.586 89.531 129.259 90.2291 129.259 91.2763C129.259 92.3234 129.586 93.0215 129.913 93.7197C130.568 94.4178 131.222 94.4178 132.204 94.4178C133.84 94.4178 134.494 94.4178 135.148 93.7197Z" fill="#242424" stroke="#242424" stroke-width="0.5" stroke-miterlimit="10"></path><path d="M150.857 87.4366C150.857 87.4366 150.857 87.7857 150.857 87.4366V94.7669C150.857 95.8141 150.529 96.5122 149.875 97.2103C149.221 97.9084 148.239 97.9085 147.258 97.9085C146.603 97.9085 145.949 97.9085 145.622 97.9085C144.967 97.9085 144.64 97.5594 144.313 97.5594C143.986 97.5594 143.986 97.2103 143.986 97.2103V96.8613C143.986 96.8613 143.986 96.8612 143.986 96.5122C143.986 96.5122 143.986 96.5122 144.313 96.5122C144.313 96.5122 144.64 96.5122 144.64 96.8613C144.967 97.2103 145.622 97.2103 145.949 97.5594C146.276 97.5594 146.93 97.9085 147.585 97.9085C148.566 97.9085 149.221 97.5593 149.548 97.2103C149.875 96.8612 150.202 96.1631 150.202 95.465V93.7197C149.875 94.4178 149.548 94.7669 148.893 95.1159C148.239 95.465 147.585 95.465 146.93 95.465C146.276 95.465 145.621 95.465 144.967 95.1159C144.313 94.7669 143.986 94.4178 143.658 93.7197C143.331 93.0215 143.004 92.6725 143.004 91.6253C143.004 90.5781 143.331 90.2291 143.658 89.5309C143.986 88.8328 144.313 88.4838 144.967 88.1347C145.621 87.7857 146.276 87.7856 146.93 87.7856C147.585 87.7856 148.239 87.7857 148.893 88.1347C149.548 88.4838 149.875 88.8329 150.202 89.1819V87.7856C150.202 87.4366 150.202 87.4366 150.857 87.4366C150.857 87.4366 150.529 87.4366 150.857 87.4366ZM149.221 93.3706C149.875 92.6725 150.202 91.9744 150.202 91.2763C150.202 90.5781 149.875 89.531 149.221 89.1819C148.566 88.4838 147.912 88.4837 146.93 88.4837C145.949 88.4837 145.294 88.8329 144.64 89.1819C143.985 89.88 143.658 90.5781 143.658 91.2763C143.658 92.3234 143.985 93.0215 144.64 93.7197C145.294 94.4178 145.949 94.4178 146.93 94.4178C147.912 94.0688 148.893 94.0688 149.221 93.3706Z" fill="#242424"></path><path d="M150.857 87.4366C150.857 87.4366 150.857 87.7857 150.857 87.4366V94.7669C150.857 95.8141 150.529 96.5122 149.875 97.2103C149.221 97.9084 148.239 97.9085 147.258 97.9085C146.603 97.9085 145.949 97.9085 145.622 97.9085C144.967 97.9085 144.64 97.5594 144.313 97.5594C143.986 97.5594 143.986 97.2103 143.986 97.2103V96.8613C143.986 96.8613 143.986 96.8612 143.986 96.5122C143.986 96.5122 143.986 96.5122 144.313 96.5122C144.313 96.5122 144.64 96.5122 144.64 96.8613C144.967 97.2103 145.622 97.2103 145.949 97.5594C146.276 97.5594 146.93 97.9085 147.585 97.9085C148.566 97.9085 149.221 97.5593 149.548 97.2103C149.875 96.8612 150.202 96.1631 150.202 95.465V93.7197C149.875 94.4178 149.548 94.7669 148.893 95.1159C148.239 95.465 147.585 95.465 146.93 95.465C146.276 95.465 145.621 95.465 144.967 95.1159C144.313 94.7669 143.986 94.4178 143.658 93.7197C143.331 93.0215 143.004 92.6725 143.004 91.6253C143.004 90.5781 143.331 90.2291 143.658 89.5309C143.986 88.8328 144.313 88.4838 144.967 88.1347C145.621 87.7857 146.276 87.7856 146.93 87.7856C147.585 87.7856 148.239 87.7857 148.893 88.1347C149.548 88.4838 149.875 88.8329 150.202 89.1819V87.7856C150.202 87.4366 150.202 87.4366 150.857 87.4366ZM150.857 87.4366C150.529 87.4366 150.857 87.4366 150.857 87.4366ZM149.221 93.3706C149.875 92.6725 150.202 91.9744 150.202 91.2763C150.202 90.5781 149.875 89.531 149.221 89.1819C148.566 88.4838 147.912 88.4837 146.93 88.4837C145.949 88.4837 145.294 88.8329 144.64 89.1819C143.985 89.88 143.658 90.5781 143.658 91.2763C143.658 92.3234 143.985 93.0215 144.64 93.7197C145.294 94.4178 145.949 94.4178 146.93 94.4178C147.912 94.0688 148.893 94.0688 149.221 93.3706Z" stroke="#242424" stroke-width="0.5" stroke-miterlimit="10"></path><path d="M162.635 87.4366C162.962 87.4366 162.962 87.7856 162.962 87.7856C162.962 88.1347 162.962 88.1347 162.635 88.1347H161.981C160.999 88.1347 160.345 88.4838 160.018 88.8328C159.691 89.1819 159.363 89.88 159.363 90.5781V94.7669V95.1159C159.363 95.1159 159.363 95.1159 159.036 95.1159H158.709C158.709 95.1159 158.709 95.1159 158.709 94.7669V87.7856C158.709 87.4366 158.709 87.4366 159.036 87.4366H159.363C159.363 87.4366 159.363 87.4366 159.363 87.7856V88.8328C160.018 87.7856 160.672 87.4366 162.308 87.4366H162.635Z" fill="#242424" stroke="#242424" stroke-width="0.5" stroke-miterlimit="10"></path><path d="M175.394 90.2291V94.7669V95.1159C175.394 95.1159 175.393 95.1159 175.066 95.1159C174.739 95.1159 174.739 95.1159 174.739 95.1159C174.739 95.1159 174.739 95.1159 174.739 94.7669V93.7197C174.412 94.0687 174.085 94.4178 173.43 94.7669C172.776 95.1159 172.449 95.1159 171.794 95.1159C171.14 95.1159 170.813 95.1159 170.158 94.7669C169.831 94.4178 169.177 94.4178 169.177 94.0688C168.85 93.7197 168.85 93.3706 168.85 93.0216C168.85 92.3234 169.177 91.9744 169.504 91.6253C169.831 91.2763 170.486 91.2763 171.14 90.9272C171.794 90.9272 173.103 90.5781 174.412 90.5781H174.739V89.88C174.739 89.1819 174.412 88.4838 174.085 88.1347C173.757 87.7857 173.103 87.7856 172.449 87.7856C171.794 87.7856 171.467 87.7857 170.813 88.1347C170.486 88.1347 170.158 88.4837 169.831 88.4837C169.831 88.4837 169.831 88.4838 169.504 88.8328H169.177C169.177 88.8328 169.177 88.8328 168.85 88.8328C168.85 88.8328 168.85 88.8328 168.85 88.4837C168.85 88.1347 169.177 88.1347 169.504 87.7856C169.831 87.4366 170.486 87.4366 170.813 87.4366C171.467 87.4366 171.794 87.4366 172.449 87.4366C174.412 87.4366 175.394 88.4837 175.394 90.2291ZM173.103 94.0688C173.43 93.7197 173.757 93.3706 174.085 93.0216C174.412 92.6725 174.412 92.3235 174.412 91.6253V90.9272H174.085C172.776 90.9272 171.794 90.9272 171.14 90.9272C170.486 90.9272 170.158 91.2763 169.831 91.2763C169.504 91.6253 169.504 91.9744 169.504 92.3234C169.504 92.6725 169.831 93.0216 170.158 93.3706C170.486 93.7197 171.14 93.7197 171.794 93.7197C172.122 94.4178 172.776 94.4178 173.103 94.0688Z" fill="#242424" stroke="#242424" stroke-width="0.5" stroke-miterlimit="10"></path><path d="M188.809 87.7851C189.464 88.1341 189.791 88.4832 190.118 89.1814C190.445 89.8795 190.445 90.5776 190.445 91.2757C190.445 91.9738 190.445 92.672 190.118 93.3701C189.791 94.0682 189.464 94.4172 188.809 94.7663C188.155 95.1154 187.501 95.1154 186.846 95.1154C186.192 95.1154 185.538 95.1154 184.883 94.7663C184.229 94.4172 183.902 94.0682 183.574 93.7191V97.9079V98.2569C183.574 98.2569 183.574 98.2569 183.247 98.2569C182.92 98.2569 182.92 98.257 182.92 97.9079V88.1342V87.7851C182.92 87.7851 182.92 87.7851 183.247 87.7851H183.574C183.574 87.7851 183.574 87.7851 183.574 88.1342V89.5304C183.902 89.1813 184.229 88.4832 184.883 88.4832C185.538 88.1341 186.192 88.1342 186.846 88.1342C187.501 87.436 188.155 87.436 188.809 87.7851ZM188.809 93.7191C189.464 93.021 189.464 92.3229 189.464 91.2757C189.464 90.2285 189.137 89.5304 188.809 88.8323C188.155 88.1341 187.501 88.1342 186.519 88.1342C185.538 88.1342 184.883 88.4832 184.229 88.8323C183.574 89.5304 183.574 90.2285 183.574 91.2757C183.574 92.3229 183.901 93.021 184.229 93.7191C184.883 94.4172 185.538 94.4173 186.519 94.4173C187.501 94.4173 188.482 94.4172 188.809 93.7191Z" fill="#242424" stroke="#242424" stroke-width="0.5" stroke-miterlimit="10"></path><path d="M203.86 88.1345C204.515 88.4836 204.515 89.1816 204.515 90.2288V94.7666V95.1157C204.515 95.1157 204.515 95.1157 204.188 95.1157H203.86C203.86 95.1157 203.86 95.1157 203.86 94.7666V90.2288C203.86 89.5307 203.533 88.8326 203.206 88.4835C202.879 88.1345 202.224 87.7854 201.243 87.7854C200.261 87.7854 199.607 88.1345 198.952 88.4835C198.298 88.8326 197.971 89.5307 197.971 90.5779V94.7666V95.1157C197.971 95.1157 197.971 95.1157 197.644 95.1157H197.316C197.316 95.1157 197.316 95.1157 197.316 94.7666V84.2948V83.9458C197.316 83.9458 197.316 83.9458 197.644 83.9458H197.971C197.971 83.9458 197.971 83.9457 197.971 84.2948V88.8326C198.298 88.4835 198.625 88.1345 199.28 87.7854C199.934 87.4363 200.261 87.4364 201.243 87.4364C202.552 87.4364 203.206 87.7854 203.86 88.1345Z" fill="#242424" stroke="#242424" stroke-width="0.5" stroke-miterlimit="10"></path><path d="M218.91 87.4366C219.238 87.4366 219.238 87.4366 218.91 87.4366C219.238 87.4366 219.238 87.7856 219.238 87.7856L214.002 97.5594L213.675 97.9085H213.348C213.348 97.9085 213.348 97.9084 213.348 97.5594L214.657 95.1159L210.73 87.7856C210.73 87.7856 210.73 87.7857 210.73 87.4366H211.058C211.058 87.4366 211.385 87.4366 211.385 87.7856L214.984 94.4178L218.583 87.7856C218.91 87.4366 218.91 87.4366 218.91 87.4366Z" fill="#242424" stroke="#242424" stroke-width="0.5" stroke-miterlimit="10"></path><path d="M1.32722 72.6127C1.00002 72.6127 1 72.2636 1 72.2636V48.8765C1 48.5274 1.00002 48.5274 1.32722 48.1784C1.32722 48.1784 1.6544 47.8293 1.9816 47.8293C2.30879 47.8293 2.63598 48.1784 2.63598 48.5274V71.5655H15.7238C16.051 71.5655 16.051 71.5655 16.051 71.9145L16.3782 72.2636C16.3782 72.6126 16.3782 72.6127 16.051 72.6127L15.7238 72.9617H1.9816C1.6544 72.9617 1.65441 72.9617 1.32722 72.6127Z" fill="#EAA720" stroke="#EAA720"></path><path d="M32.4111 61.7917V72.2636C32.4111 72.6127 32.4111 72.6127 32.0839 72.9618C32.0839 72.9618 31.7567 73.3108 31.4295 73.3108C31.1023 73.3108 31.1023 73.3108 30.7751 72.9618C30.7751 72.9618 30.4479 72.6127 30.4479 72.2636V69.8202C29.7935 70.8674 29.1392 71.5655 28.1576 72.2636C27.176 72.9617 25.8672 73.3108 24.8856 73.3108C23.904 73.3108 22.5953 72.9617 21.9409 72.6127C20.9593 72.2636 20.3049 71.5655 19.6505 70.8674C18.9961 70.1692 18.9961 69.1221 18.9961 68.4239C18.9961 67.0277 19.3233 66.3296 19.9777 65.6314C20.6321 64.9333 21.9409 64.5843 23.2496 64.2352C24.8856 63.8862 27.176 63.8861 29.7935 63.8861H30.4479V62.4899C30.4479 60.7446 30.1208 59.6974 29.4664 58.9993C28.812 58.3012 27.8304 57.9521 26.1944 57.9521C24.8856 57.9521 23.904 57.9521 23.2496 58.3011C22.5953 58.6502 21.6137 58.9993 20.9593 59.3483C20.9593 59.3483 20.6321 59.6974 20.3049 59.6974C19.9777 60.0465 19.6505 60.0464 19.6505 60.0464C19.3233 60.0464 19.3233 60.0465 19.3233 59.6974L18.9961 59.3483C18.9961 58.9993 19.3233 58.3012 20.3049 57.9521C21.2865 57.603 21.9409 57.254 22.9225 56.9049C23.9041 56.5559 24.8856 56.5558 25.8672 56.5558C30.4479 55.5086 32.4111 57.603 32.4111 61.7917ZM28.1576 70.8674C29.1392 70.5183 29.7936 69.8202 30.1208 68.773C30.7751 67.7258 30.7751 67.0277 30.7751 65.6314V64.2352H30.1208C27.5032 64.2352 25.54 64.2352 24.2312 64.5843C22.9225 64.9333 21.9409 65.2824 21.2865 65.6314C20.6321 65.9805 20.6321 66.6786 20.6321 67.7258C20.6321 68.773 20.9593 69.8202 21.9409 70.5183C22.9225 71.2164 23.904 71.5655 24.8856 71.5655C26.1944 71.5655 27.176 71.5655 28.1576 70.8674Z" fill="#EAA720" stroke="#EAA720"></path><path d="M52.042 55.8575C52.042 55.8575 52.3692 56.2065 52.3692 56.5556V72.6125C52.3692 73.3106 52.042 73.3106 51.7148 73.3106C51.3876 73.3106 51.3876 73.3106 51.0604 72.9615C51.0604 72.9615 50.7332 72.6124 50.7332 72.2634V69.82C50.0788 70.8671 49.4244 71.9143 48.4428 72.2634C47.4612 72.9615 46.1525 73.3106 44.8437 73.3106C42.8805 73.3106 41.2445 72.6124 40.2629 71.5653C39.2813 70.5181 38.627 68.7728 38.627 66.6784V56.2066C38.627 55.8575 38.627 55.8575 38.9542 55.5085C38.9542 55.5085 39.2814 55.1594 39.6085 55.1594C39.9357 55.1594 39.9357 55.1594 40.2629 55.5085C40.2629 55.5085 40.5901 55.8575 40.5901 56.2066V66.3293C40.5901 68.0746 40.9173 69.4709 41.5717 70.169C42.2261 70.8672 43.5349 71.5653 45.1709 71.5653C47.134 71.5653 48.4428 70.8671 49.4244 69.82C50.406 68.7728 51.0604 67.3765 51.0604 65.2821V55.8575C51.0604 55.5084 51.0604 55.5084 51.3876 55.1594C51.3876 55.1594 51.7148 54.8103 52.042 54.8103C51.7148 55.5084 51.7148 55.5084 52.042 55.8575Z" fill="#EAA720" stroke="#EAA720"></path><path d="M66.1135 55.5089C66.4407 55.5089 66.4407 55.5089 66.7678 55.5089V55.858C66.7678 56.207 66.4407 56.5561 66.1135 56.5561H65.1319C63.4959 56.5561 62.1871 57.2542 61.2055 58.3014C60.224 59.3486 59.8967 60.7448 59.8967 62.1411V71.9148C59.8967 72.2639 59.8968 72.2639 59.5696 72.6129C59.5696 72.6129 59.2424 72.962 58.9152 72.962C58.588 72.962 58.588 72.962 58.2608 72.6129C58.2608 72.6129 57.9336 72.2639 57.9336 71.9148V55.858C57.9336 55.1598 58.2608 55.1599 58.588 55.1599C58.9152 55.1599 58.9152 55.1599 59.2424 55.5089C59.2424 55.5089 59.5696 55.858 59.5696 56.2071V58.6505C60.5512 56.5561 62.5143 55.5089 65.1319 55.5089H66.1135Z" fill="#EAA720" stroke="#EAA720"></path><path d="M83.4542 69.8204L83.7814 70.1695C83.7814 70.5186 83.7814 70.5186 83.4542 70.8676C83.1271 71.2167 82.7998 71.2167 82.4727 71.5657C80.8367 72.6129 78.8735 72.962 77.2375 72.962C74.62 72.962 72.6568 72.2638 71.0208 70.5185C69.3848 68.7732 68.7305 66.6789 68.7305 63.8864C68.7305 62.1411 69.0576 60.7448 69.712 59.3486C70.3664 57.9523 71.348 56.9052 72.6568 56.2071C73.9656 55.5089 75.2744 55.1599 76.9103 55.1599C79.2007 55.1599 80.8367 55.858 82.1454 57.2542C83.4542 58.6505 84.1086 60.7449 84.1086 63.1883C84.1086 63.5373 84.1086 63.8864 83.7814 64.2355C83.4542 64.5845 83.4542 64.5845 82.7998 64.5845H70.0392C70.0392 67.0279 70.6936 68.7732 71.6752 69.8204C72.984 71.2167 74.62 71.5657 76.5831 71.5657C77.8919 71.5657 78.5463 71.5658 79.5279 71.2167C80.1823 70.8676 81.1639 70.5186 81.8183 70.1695C82.4727 69.8204 82.7998 69.8204 82.7998 69.8204C83.127 69.4714 83.1271 69.8204 83.4542 69.8204ZM72.0024 58.6505C71.0208 59.6977 70.3664 61.443 70.0392 63.1883H82.1454C82.1454 61.0939 81.491 59.6977 80.5095 58.6505C79.5279 57.6033 78.2191 56.9052 76.2559 56.9052C74.6199 56.9052 73.3112 57.2542 72.0024 58.6505Z" fill="#EAA720" stroke="#EAA720"></path><path d="M102.43 62.1406V72.6125C102.43 73.3106 102.103 73.3106 101.775 73.3106C101.448 73.3106 101.448 73.3106 101.121 72.9616C101.121 72.9616 100.794 72.6125 100.794 72.2634V62.1406C100.794 60.3953 100.467 58.9991 99.8123 58.3009C99.1579 57.6028 97.8491 56.9047 96.2131 56.9047C94.2499 56.9047 92.9412 57.6028 91.6324 58.65C90.6508 59.6972 89.9964 61.0935 89.9964 63.1878V72.6125C89.9964 72.9615 89.9964 72.9615 89.6692 73.3106C89.6692 73.3106 89.342 73.6597 89.0148 73.6597C88.6876 73.6597 88.6876 73.6596 88.3604 73.3106C88.3604 73.3106 88.0332 72.9615 88.0332 72.6125V56.5556C88.0332 55.8575 88.3604 55.8575 88.6876 55.8575C89.0148 55.8575 89.0148 55.8575 89.342 56.2066C89.342 56.2066 89.6692 56.5557 89.6692 56.9047V59.3481C90.3236 58.301 90.9779 57.2538 91.9595 56.9047C92.9411 56.2066 94.2499 55.8575 95.5587 55.8575C100.467 55.5085 102.43 57.6028 102.43 62.1406Z" fill="#EAA720" stroke="#EAA720"></path><path d="M116.501 72.6126C116.501 72.9617 116.173 73.3108 115.519 73.3108H114.537C112.574 73.3108 111.265 72.6126 110.611 71.5655C109.629 70.5183 109.302 69.122 109.302 67.0276V57.254H106.358C106.03 57.254 106.03 57.2539 106.03 56.9049L105.703 56.5558C105.703 56.2067 105.703 56.2068 106.03 56.2068L106.358 55.8577H109.302V51.3199C109.302 50.9708 109.302 50.9708 109.63 50.6218C109.63 50.6218 109.957 50.2727 110.284 50.2727C110.611 50.2727 110.611 50.2727 110.938 50.6218C110.938 50.6218 111.265 50.9708 111.265 51.3199V55.8577H116.173C116.501 55.8577 116.501 55.8577 116.501 56.2068L116.828 56.5558V56.9049L116.501 57.254H111.593V67.0276C111.593 68.773 111.92 69.8201 112.574 70.5183C113.229 71.2164 114.21 71.5655 115.519 71.5655H116.501C116.173 71.9145 116.501 71.9145 116.501 72.6126Z" fill="#EAA720" stroke="#EAA720"></path><path d="M200.262 61.7917C201.244 62.8389 201.571 64.2352 201.571 65.9805C201.571 68.4239 200.917 70.1692 199.281 71.2164C197.645 72.2636 195.682 72.9617 192.737 72.9617H183.575C183.248 72.9617 183.248 72.9617 182.921 72.6126C182.594 72.6126 182.594 72.2636 182.594 71.9145V47.4802C182.594 47.1312 182.594 47.1312 182.921 46.7821C183.248 46.7821 183.248 46.433 183.575 46.433H192.41C195.027 46.433 197.318 47.1312 198.626 48.1783C199.935 49.2255 200.917 50.9708 200.917 53.4143C200.917 54.8105 200.59 56.2068 199.935 56.9049C199.281 57.9521 198.299 58.6502 196.663 58.9993C198.299 60.0465 199.608 60.7445 200.262 61.7917ZM184.557 58.9993H192.737C195.027 58.9993 196.663 58.6502 197.972 57.603C199.281 56.5558 199.608 55.1596 199.608 53.4143C199.608 49.9237 197.318 48.1783 192.737 48.1783H184.557V58.9993ZM198.299 70.1692C199.608 69.122 199.935 68.0749 199.935 65.9805C199.935 64.2352 199.281 62.8389 198.299 61.7917C196.99 60.7445 195.354 60.3955 193.064 60.3955H184.557V71.5654H193.064C195.354 71.5654 196.99 71.2164 198.299 70.1692Z" fill="#EAA720" stroke="#EAA720"></path><path d="M220.875 61.4428V72.2637C220.875 72.6128 220.875 72.6128 220.548 72.9619C220.548 72.9619 220.221 73.3109 219.893 73.3109C219.566 73.3109 219.566 73.3109 219.239 72.9619C219.239 72.9619 218.912 72.6128 218.912 72.2637V69.8203C218.257 70.8675 217.603 71.9146 216.621 72.2637C215.64 72.9618 214.331 73.3109 213.022 73.3109C211.714 73.3109 210.732 72.9619 209.75 72.6128C208.769 72.2637 208.114 71.5656 207.46 70.5184C206.806 69.8203 206.479 68.7731 206.479 67.726C206.479 66.3297 206.806 65.2825 207.46 64.5844C208.114 63.8862 209.423 63.1881 211.059 63.1881C212.695 62.8391 214.986 62.8391 217.93 62.8391H218.585V61.4428C218.585 59.6975 218.258 58.3013 217.603 57.6031C216.949 56.905 215.64 56.5559 214.331 56.5559C213.022 56.5559 212.041 56.556 211.059 56.905C210.078 57.2541 209.423 57.6032 208.769 57.9522C208.769 57.9522 208.442 58.3013 208.114 58.3013C207.787 58.6503 207.46 58.6503 207.46 58.6503C207.133 58.6503 207.133 58.6503 207.133 58.3013C207.133 57.9522 206.806 57.9522 206.806 57.9522C206.806 57.6032 207.133 56.905 208.114 56.5559C209.096 56.2069 210.078 55.5088 211.059 55.5088C212.041 55.1597 213.022 55.1597 214.331 55.1597C218.912 54.8107 220.875 56.905 220.875 61.4428ZM216.294 70.8675C217.276 70.1694 217.93 69.4712 218.585 68.7731C219.239 67.7259 219.239 66.6787 219.239 65.6316V64.2353H218.585C215.967 64.2353 214.004 64.2353 212.695 64.5844C211.386 64.9334 210.405 65.2825 209.75 65.6316C209.096 65.9806 208.769 67.0278 208.769 67.726C208.769 68.7731 209.096 69.8203 210.078 70.5184C211.059 71.2165 212.041 71.5656 213.35 71.5656C214.331 71.5656 215.313 71.5656 216.294 70.8675Z" fill="#EAA720" stroke="#EAA720"></path><path d="M240.182 56.5558C241.163 57.603 241.818 59.3483 241.818 61.7917V72.6126C241.818 72.9617 241.818 72.9617 241.49 73.3107C241.49 73.3107 241.163 73.6598 240.836 73.6598C240.509 73.6598 240.509 73.6598 240.182 73.3107C240.182 73.3107 239.854 72.9617 239.854 72.6126V61.7917C239.854 60.0464 239.527 58.6502 238.546 57.603C237.891 56.9049 236.583 56.2068 234.619 56.2068C232.656 56.2068 231.02 56.9049 230.039 57.9521C228.73 58.9992 228.403 60.7446 228.403 62.4899V72.2635C228.403 72.6126 228.403 72.6126 228.075 72.9617C228.075 72.9617 227.748 73.3107 227.421 73.3107C227.094 73.3107 227.094 73.3108 226.767 72.9617C226.767 72.9617 226.439 72.6126 226.439 72.2635V47.4802C226.439 47.1312 226.439 47.1312 226.767 46.7821C226.767 46.7821 227.094 46.433 227.421 46.433C227.748 46.433 227.748 46.433 228.075 46.7821C228.075 46.7821 228.403 47.1312 228.403 47.4802V57.9521C229.057 56.9049 229.711 55.8577 231.02 55.1596C232.002 54.4614 233.311 54.1124 234.947 54.1124C237.237 54.8105 238.873 55.1595 240.182 56.5558Z" fill="#EAA720" stroke="#EAA720"></path><path d="M262.431 69.8204L262.758 70.1695C262.758 70.5185 262.758 70.5185 262.431 70.8676C262.104 71.2166 261.776 71.2166 261.449 71.5657C259.486 72.6129 257.85 73.311 255.887 73.311C253.269 73.311 250.979 72.6129 249.343 70.8676C247.707 69.1223 247.053 67.0279 247.053 64.2354C247.053 62.4901 247.38 60.7448 248.034 59.3485C248.689 57.9523 249.67 56.9051 250.979 56.207C252.288 55.5089 253.597 55.1598 255.56 55.1598C257.85 55.1598 259.813 55.858 261.122 57.2542C262.431 58.6505 263.085 60.7448 263.085 63.1882C263.085 63.5373 263.085 63.8864 262.758 64.2354C262.431 64.5845 262.104 64.5845 261.777 64.5845H248.689C248.689 67.0279 249.343 68.7732 250.652 70.1695C251.961 71.5657 253.597 72.2638 255.887 72.2638C257.196 72.2638 258.177 72.2638 258.832 71.9148C259.486 71.5657 260.468 71.2166 261.122 70.5185C261.776 70.1694 262.104 70.1695 262.104 70.1695C262.104 69.4713 262.431 69.4713 262.431 69.8204ZM250.652 57.9523C249.343 58.9995 248.689 60.7448 248.689 62.8392H261.449C261.449 60.7448 260.795 58.9995 259.813 57.9523C258.832 56.9051 257.196 56.207 255.56 56.207C253.597 56.207 251.961 56.5561 250.652 57.9523Z" fill="#EAA720" stroke="#EAA720"></path><path d="M282.06 54.8105C282.06 54.8105 282.387 55.1596 282.387 55.5086V72.2635C282.387 72.9617 282.06 72.9617 281.732 72.9617C281.405 72.9617 281.405 72.9617 281.078 72.6126C281.078 72.6126 280.751 72.2636 280.751 71.9145V69.122C280.096 70.1692 279.442 71.2164 278.133 71.9145C277.152 72.6126 275.843 72.9617 274.534 72.9617C272.571 72.9617 270.935 72.2636 269.626 71.2164C268.645 70.1692 267.99 68.4239 267.99 65.9805V55.1595C267.99 54.8105 267.99 54.8105 268.317 54.4614C268.317 54.4614 268.645 54.1124 268.972 54.1124C269.299 54.1124 269.299 54.1124 269.626 54.4614C269.626 54.4614 269.953 54.8105 269.953 55.1595V65.9805C269.953 67.7258 270.281 69.122 271.262 70.1692C271.917 71.2164 273.225 71.5654 274.861 71.5654C276.825 71.5654 278.133 70.8673 279.442 69.8201C280.751 68.7729 281.078 67.0276 281.078 65.2823V55.5086C281.078 55.1596 281.078 55.1595 281.405 54.8105C281.405 54.8105 281.732 54.4614 282.06 54.4614C281.732 54.8105 281.732 54.8105 282.06 54.8105Z" fill="#EAA720" stroke="#EAA720"></path><path d="M303.001 72.2635C303.001 72.6126 303.001 72.6126 302.673 72.9617C302.673 72.9617 302.346 73.3107 302.019 73.3107C301.692 73.3107 301.692 73.3108 301.365 72.9617L294.493 65.2823L287.622 72.9617C287.295 73.3108 287.295 73.3107 286.968 73.3107C286.641 73.3107 286.641 73.3108 286.314 72.9617C286.314 72.9617 285.986 72.6126 285.986 72.2635C285.986 71.9145 285.986 71.9145 286.314 71.5654L293.185 63.8861L286.641 56.2068C286.314 55.8577 286.314 55.8577 286.314 55.5086C286.314 55.1596 286.314 55.1595 286.641 54.8105C286.641 54.8105 286.968 54.4614 287.295 54.4614C287.622 54.4614 287.622 54.4614 287.95 54.8105L294.493 62.4899L301.037 54.8105C301.365 54.4614 301.364 54.4614 301.692 54.4614C302.019 54.4614 302.019 54.4614 302.346 54.8105C302.673 54.8105 302.673 55.1596 302.673 55.5086C302.673 55.8577 302.673 55.8577 302.346 56.2068L295.475 63.8861L302.346 71.5654C303 71.9145 303.001 71.9145 303.001 72.2635Z" fill="#EAA720" stroke="#EAA720"></path><path d="M128.277 42.9427C128.277 42.9427 135.475 42.9427 131.549 30.0275C131.549 30.0275 129.913 19.9047 124.35 20.9518C124.35 20.9518 119.77 20.9519 119.115 33.5181C119.115 33.5181 120.424 43.2918 128.277 42.9427Z" fill="#EAA720"></path><path d="M138.746 23.3953C138.746 23.3953 132.857 24.0934 129.912 12.5744C129.912 12.5744 129.912 -0.340888 135.802 0.00817377C135.802 0.00817377 142.345 -0.689928 143 10.8291C143 11.1782 143.654 21.3009 138.746 23.3953Z" fill="#EAA720"></path><path d="M153.471 24.0931C151.835 23.395 146.927 21.3006 146.6 13.9703C146.6 13.9703 143.982 2.10225 149.544 1.05506C149.544 1.05506 154.452 -1.38837 159.033 9.7816C159.033 9.7816 161.651 19.5553 154.452 23.7441C154.125 24.4422 153.798 24.4422 153.471 24.0931Z" fill="#EAA720"></path><path d="M167.213 40.8483C167.213 40.8483 161.323 39.4521 160.669 30.7256C160.669 30.7256 159.687 20.2537 164.922 19.5556C164.922 19.5556 169.83 18.8575 172.775 29.3294C173.102 29.3294 174.084 38.754 167.213 40.8483Z" fill="#EAA720"></path><path d="M164.595 43.2918C162.959 42.2446 160.996 41.5465 159.033 41.8955C155.761 42.2446 151.835 43.2918 147.908 45.3862C149.217 46.0843 150.199 48.1787 150.199 50.273C150.199 53.0655 148.563 55.509 146.6 55.509C144.636 55.509 143 53.0655 143 50.273C143 49.2259 143.328 48.5277 143.655 47.4805C142.346 48.1787 141.364 48.8768 140.056 49.924C140.056 49.924 132.203 58.3015 141.692 65.9808C141.692 65.9808 135.802 66.3298 134.82 60.0467C134.82 62.8392 134.166 66.6789 133.512 71.9148C133.839 72.2639 134.493 72.613 134.493 72.962C140.383 75.7545 143.655 70.5186 143.655 70.5186C143.655 70.1695 143.982 70.1695 143.982 70.5186C144.964 70.8676 145.945 71.2167 147.254 71.5658C151.18 68.7733 155.761 65.2826 158.706 61.0939C158.706 61.0939 166.231 51.3202 159.033 44.688C159.033 44.688 165.904 47.1314 165.25 56.5561C165.25 56.5561 165.25 64.9336 153.798 71.2167C154.779 70.8677 155.434 70.8676 155.761 70.5186H156.088C171.139 72.962 170.158 57.9524 170.158 56.9052C171.139 46.4333 164.595 43.2918 164.595 43.2918ZM156.415 49.2258C155.107 48.8768 155.434 47.1315 155.434 47.1315C155.761 46.0843 152.816 45.0371 152.816 45.0371C155.761 43.9899 157.724 47.4805 157.724 47.4805C158.051 49.2258 156.415 49.2258 156.415 49.2258Z" fill="#EAA720"></path><path d="M131.548 48.5277C124.677 55.1599 128.603 64.5846 132.202 69.4714C131.548 61.443 131.875 49.5749 136.456 45.7352C136.456 45.7352 145.945 37.0087 159.032 38.4049C153.143 34.2162 144.636 34.9143 139.728 40.8483L136.129 44.339" fill="#EAA720"></path></svg>