<svg xmlns="http://www.w3.org/2000/svg" width="310" height="96" viewBox="0 0 310 96" fill="none"><path d="M65.9157 72.5762H59.1086V61.752H60.8371V71.0044H65.9157V72.5762Z" fill="#E66725"></path><path d="M66.1017 65.7173L65.7631 64.9314C66.761 64.5563 67.26 64.074 67.26 63.4488V63.3059C67.1174 63.431 66.8858 63.5024 66.5472 63.5024C66.0482 63.5024 65.6562 63.1273 65.6562 62.5736C65.6562 61.9127 66.2264 61.5198 66.9214 61.5198C67.848 61.5198 68.4539 62.2342 68.4539 63.1631C68.4539 64.4848 67.6698 65.3422 66.1017 65.7173Z" fill="#E66725"></path><path d="M75.9256 72.7549C75.0702 72.7549 74.4643 72.3262 74.4643 71.2723C73.9476 72.2547 73.0744 72.7549 71.827 72.7549C70.2767 72.7549 69.1184 72.0225 69.1184 70.5757C69.1184 68.9324 70.2767 68.1108 72.5933 68.1108H74.304V67.4678C74.304 66.5211 73.6981 66.0209 72.6824 66.0209C71.631 66.0209 71.0429 66.4675 70.9182 67.3784L69.3501 67.2713C69.5639 65.5744 70.8291 64.6456 72.7536 64.6456C74.9098 64.6456 75.979 65.5744 75.979 67.4142V70.6293C75.979 71.0758 76.1216 71.308 76.4067 71.308C76.5314 71.308 76.6384 71.2902 76.7096 71.2366L76.9235 72.4869C76.6205 72.6655 76.2998 72.7549 75.9256 72.7549ZM74.3218 69.2003H72.8071C71.5241 69.2003 70.8826 69.5933 70.8826 70.3614C70.8826 71.0758 71.4172 71.4509 72.219 71.4331C73.3595 71.4152 74.3218 70.7007 74.3218 69.2003Z" fill="#E66725"></path><path d="M79.9773 68.8431C79.9773 70.4328 80.797 71.3616 82.0979 71.3616C83.4522 71.3616 84.2897 70.415 84.2897 68.7002C84.2897 67.0033 83.47 66.0924 82.187 66.0924C80.708 66.0924 79.9773 67.2891 79.9773 68.8431ZM82.3474 72.7549C81.2782 72.7549 80.4941 72.3798 80.013 71.6296V76.0236H78.3201V64.8063H79.9239V65.5208L79.8704 66.2174C80.4228 65.1636 81.3138 64.6456 82.579 64.6456C84.7174 64.6456 86.0895 66.0567 86.0895 68.6109C86.0895 71.183 84.5748 72.7549 82.3474 72.7549Z" fill="#E66725"></path><path d="M89.4615 68.8431C89.4615 70.4328 90.2812 71.3616 91.5821 71.3616C92.9364 71.3616 93.7739 70.415 93.7739 68.7002C93.7739 67.0033 92.9542 66.0924 91.6712 66.0924C90.1921 66.0924 89.4615 67.2891 89.4615 68.8431ZM91.8315 72.7549C90.7624 72.7549 89.9783 72.3798 89.4971 71.6296V76.0236H87.8043V64.8063H89.408V65.5208L89.3546 66.2174C89.907 65.1636 90.798 64.6456 92.0632 64.6456C94.2016 64.6456 95.5737 66.0567 95.5737 68.6109C95.5737 71.183 94.059 72.7549 91.8315 72.7549Z" fill="#E66725"></path><path d="M97.3063 61.1804H98.9991V72.5762H97.3063V61.1804Z" fill="#E66725"></path><path d="M103.106 63.0737C102.696 63.4846 101.841 63.4846 101.431 63.0737C101.235 62.8773 101.128 62.6093 101.128 62.27C101.128 61.6269 101.556 61.1983 102.269 61.1983C102.981 61.1983 103.409 61.6269 103.409 62.27C103.409 62.6093 103.302 62.8773 103.106 63.0737ZM101.413 72.5762V64.8063H103.106V72.5762H101.413Z" fill="#E66725"></path><path d="M112.256 67.7178L110.617 67.7535C110.492 66.6104 109.85 66.0388 108.728 66.0388C107.373 66.0388 106.607 67.0748 106.607 68.7002C106.607 70.3614 107.409 71.3438 108.71 71.3438C109.726 71.3438 110.349 70.8615 110.563 69.8791L112.22 70.0041C111.9 71.8439 110.688 72.7549 108.603 72.7549C106.233 72.7549 104.843 71.1294 104.843 68.6824C104.843 67.5035 105.199 66.5389 105.912 65.7709C106.625 65.0207 107.552 64.6456 108.692 64.6456C110.991 64.6456 112.202 65.8602 112.256 67.7178Z" fill="#E66725"></path><path d="M120.144 72.7549C119.289 72.7549 118.683 72.3262 118.683 71.2723C118.166 72.2547 117.293 72.7549 116.046 72.7549C114.496 72.7549 113.337 72.0225 113.337 70.5757C113.337 68.9324 114.496 68.1108 116.812 68.1108H118.523V67.4678C118.523 66.5211 117.917 66.0209 116.901 66.0209C115.85 66.0209 115.262 66.4675 115.137 67.3784L113.569 67.2713C113.783 65.5744 115.048 64.6456 116.972 64.6456C119.129 64.6456 120.198 65.5744 120.198 67.4142V70.6293C120.198 71.0758 120.34 71.308 120.626 71.308C120.75 71.308 120.857 71.2902 120.928 71.2366L121.142 72.4869C120.839 72.6655 120.519 72.7549 120.144 72.7549ZM118.541 69.2003H117.026C115.743 69.2003 115.101 69.5933 115.101 70.3614C115.101 71.0758 115.636 71.4509 116.438 71.4331C117.578 71.4152 118.541 70.7007 118.541 69.2003Z" fill="#E66725"></path><path d="M125.141 72.737C123.59 72.737 122.824 71.8796 122.824 70.1649V66.271H121.577V64.8063H122.557C122.717 64.8063 122.806 64.7349 122.824 64.5741L123.02 62.2521H124.517V64.8063H126.905V66.271H124.517V69.897C124.517 70.7543 124.856 71.183 125.515 71.183C125.925 71.183 126.245 71.058 126.513 70.8079L127.083 72.0582C126.637 72.5048 125.996 72.737 125.141 72.737Z" fill="#E66725"></path><path d="M130.323 63.0737C129.913 63.4846 129.058 63.4846 128.648 63.0737C128.452 62.8773 128.345 62.6093 128.345 62.27C128.345 61.6269 128.773 61.1983 129.485 61.1983C130.198 61.1983 130.626 61.6269 130.626 62.27C130.626 62.6093 130.519 62.8773 130.323 63.0737ZM128.63 72.5762V64.8063H130.323V72.5762H128.63Z" fill="#E66725"></path><path d="M132.06 68.7717C132.06 66.271 133.592 64.6456 136.176 64.6456C138.582 64.6456 140.007 66.2353 140.007 68.6824C140.007 71.1651 138.493 72.7549 135.927 72.7549C133.485 72.7549 132.06 71.2545 132.06 68.7717ZM133.842 68.7359C133.842 70.3256 134.679 71.3616 136.016 71.3616C137.37 71.3616 138.226 70.3256 138.226 68.7359C138.226 67.0927 137.388 66.0567 136.087 66.0567C134.715 66.0567 133.842 67.0748 133.842 68.7359Z" fill="#E66725"></path><path d="M145.298 66.1638C144.425 66.1638 143.801 66.6818 143.409 67.7178V72.5762H141.717V64.8063H143.302V65.5744C143.302 65.7352 143.285 65.9495 143.267 66.2353C143.784 65.1814 144.621 64.6456 145.779 64.6456C147.651 64.6456 148.595 65.6994 148.595 67.8071V72.5762H146.902V68.2894C146.902 66.8783 146.367 66.1638 145.298 66.1638Z" fill="#E66725"></path><path d="M159.902 67.1462L158.245 67.2534C158.227 66.3782 157.692 65.9495 156.641 65.9495C155.732 65.9495 155.233 66.3425 155.233 66.8605C155.305 67.3249 155.376 67.5213 155.875 67.7178C156.231 67.8607 156.302 67.8607 156.873 68.0036C156.926 68.0215 156.98 68.0215 157.015 68.0393C157.425 68.1465 157.728 68.2179 157.888 68.2537C158.049 68.3073 158.298 68.3966 158.637 68.5216C158.975 68.6645 159.207 68.8074 159.35 68.9503C159.635 69.2361 159.955 69.7719 159.955 70.4328C159.955 71.9332 158.655 72.7549 156.801 72.7549C154.645 72.7549 153.327 71.9689 153.309 70.2006L154.984 70.147C155.126 71.0044 155.714 71.4331 156.748 71.4331C157.621 71.4331 158.227 71.0937 158.227 70.4328C158.227 69.7898 157.781 69.5754 156.57 69.2718C155.518 69.0217 154.823 68.8074 154.485 68.6109C153.825 68.2001 153.505 67.6285 153.487 66.8605C153.487 65.5744 154.716 64.6456 156.623 64.6456C158.69 64.6456 159.884 65.5565 159.902 67.1462Z" fill="#E66725"></path><path d="M163.438 68.8431C163.438 70.4328 164.258 71.3616 165.559 71.3616C166.913 71.3616 167.75 70.415 167.75 68.7002C167.75 67.0033 166.931 66.0924 165.648 66.0924C164.169 66.0924 163.438 67.2891 163.438 68.8431ZM165.808 72.7549C164.739 72.7549 163.955 72.3798 163.474 71.6296V76.0236H161.781V64.8063H163.385V65.5208L163.331 66.2174C163.884 65.1636 164.774 64.6456 166.04 64.6456C168.178 64.6456 169.55 66.0567 169.55 68.6109C169.55 71.183 168.036 72.7549 165.808 72.7549Z" fill="#E66725"></path><path d="M173.849 63.9133L173.118 63.2166L176.041 60.2873L177.074 61.4126L173.849 63.9133ZM174.437 72.7549C172.013 72.7549 170.606 71.308 170.606 68.7538C170.606 67.5213 170.962 66.5389 171.693 65.7709C172.423 65.0207 173.385 64.6456 174.579 64.6456C176.878 64.6456 178.215 65.9852 178.215 68.343C178.215 68.468 178.197 68.6824 178.179 68.986L172.352 69.0039C172.441 70.5757 173.189 71.3616 174.562 71.3616C175.595 71.3616 176.237 70.9329 176.468 70.0577L178.072 70.2185C177.698 71.9153 176.486 72.7549 174.437 72.7549ZM174.562 65.9852C173.385 65.9852 172.673 66.6104 172.423 67.8429H176.468C176.415 66.6461 175.72 65.9852 174.562 65.9852Z" fill="#E66725"></path><path d="M186.685 67.7178L185.045 67.7535C184.921 66.6104 184.279 66.0388 183.157 66.0388C181.802 66.0388 181.036 67.0748 181.036 68.7002C181.036 70.3614 181.838 71.3438 183.139 71.3438C184.155 71.3438 184.778 70.8615 184.992 69.8791L186.649 70.0041C186.329 71.8439 185.117 72.7549 183.032 72.7549C180.662 72.7549 179.272 71.1294 179.272 68.6824C179.272 67.5035 179.628 66.5389 180.341 65.7709C181.054 65.0207 181.98 64.6456 183.121 64.6456C185.42 64.6456 186.631 65.8602 186.685 67.7178Z" fill="#E66725"></path><path d="M190.047 63.0737C189.637 63.4846 188.782 63.4846 188.372 63.0737C188.176 62.8773 188.069 62.6093 188.069 62.27C188.069 61.6269 188.497 61.1983 189.21 61.1983C189.922 61.1983 190.35 61.6269 190.35 62.27C190.35 62.6093 190.243 62.8773 190.047 63.0737ZM188.354 72.5762V64.8063H190.047V72.5762H188.354Z" fill="#E66725"></path><path d="M198.68 72.7549C197.825 72.7549 197.219 72.3262 197.219 71.2723C196.702 72.2547 195.829 72.7549 194.582 72.7549C193.031 72.7549 191.873 72.0225 191.873 70.5757C191.873 68.9324 193.031 68.1108 195.348 68.1108H197.059V67.4678C197.059 66.5211 196.453 66.0209 195.437 66.0209C194.386 66.0209 193.798 66.4675 193.673 67.3784L192.105 67.2713C192.319 65.5744 193.584 64.6456 195.508 64.6456C197.665 64.6456 198.734 65.5744 198.734 67.4142V70.6293C198.734 71.0758 198.876 71.308 199.161 71.308C199.286 71.308 199.393 71.2902 199.464 71.2366L199.678 72.4869C199.375 72.6655 199.054 72.7549 198.68 72.7549ZM197.076 69.2003H195.562C194.279 69.2003 193.637 69.5933 193.637 70.3614C193.637 71.0758 194.172 71.4509 194.974 71.4331C196.114 71.4152 197.076 70.7007 197.076 69.2003Z" fill="#E66725"></path><path d="M201.093 61.1804H202.786V72.5762H201.093V61.1804Z" fill="#E66725"></path><path d="M206.892 63.0737C206.483 63.4846 205.627 63.4846 205.217 63.0737C205.021 62.8773 204.914 62.6093 204.914 62.27C204.914 61.6269 205.342 61.1983 206.055 61.1983C206.768 61.1983 207.195 61.6269 207.195 62.27C207.195 62.6093 207.088 62.8773 206.892 63.0737ZM205.2 72.5762V64.8063H206.892V72.5762H205.2Z" fill="#E66725"></path><path d="M215.258 67.1462L213.601 67.2534C213.583 66.3782 213.049 65.9495 211.997 65.9495C211.088 65.9495 210.589 66.3425 210.589 66.8605C210.661 67.3249 210.732 67.5213 211.231 67.7178C211.587 67.8607 211.659 67.8607 212.229 68.0036C212.282 68.0215 212.336 68.0215 212.371 68.0393C212.781 68.1465 213.084 68.2179 213.245 68.2537C213.405 68.3073 213.654 68.3966 213.993 68.5216C214.332 68.6645 214.563 68.8074 214.706 68.9503C214.991 69.2361 215.312 69.7719 215.312 70.4328C215.312 71.9332 214.011 72.7549 212.158 72.7549C210.001 72.7549 208.683 71.9689 208.665 70.2006L210.34 70.147C210.483 71.0044 211.071 71.4331 212.104 71.4331C212.977 71.4331 213.583 71.0937 213.583 70.4328C213.583 69.7898 213.138 69.5754 211.926 69.2718C210.875 69.0217 210.18 68.8074 209.841 68.6109C209.182 68.2001 208.861 67.6285 208.843 66.8605C208.843 65.5744 210.073 64.6456 211.979 64.6456C214.047 64.6456 215.24 65.5565 215.258 67.1462Z" fill="#E66725"></path><path d="M219.721 63.9133L218.99 63.2166L221.913 60.2873L222.946 61.4126L219.721 63.9133ZM220.309 72.7549C217.885 72.7549 216.478 71.308 216.478 68.7538C216.478 67.5213 216.834 66.5389 217.565 65.7709C218.295 65.0207 219.258 64.6456 220.451 64.6456C222.75 64.6456 224.087 65.9852 224.087 68.343C224.087 68.468 224.069 68.6824 224.051 68.986L218.224 69.0039C218.313 70.5757 219.062 71.3616 220.434 71.3616C221.467 71.3616 222.109 70.9329 222.34 70.0577L223.944 70.2185C223.57 71.9153 222.358 72.7549 220.309 72.7549ZM220.434 65.9852C219.258 65.9852 218.545 66.6104 218.295 67.8429H222.34C222.287 66.6461 221.592 65.9852 220.434 65.9852Z" fill="#E66725"></path><path d="M232.09 72.7549C229.667 72.7549 228.259 71.308 228.259 68.7538C228.259 67.5213 228.615 66.5389 229.346 65.7709C230.077 65.0207 231.039 64.6456 232.233 64.6456C234.531 64.6456 235.868 65.9852 235.868 68.343C235.868 68.468 235.85 68.6824 235.832 68.986L230.005 69.0039C230.094 70.5757 230.843 71.3616 232.215 71.3616C233.248 71.3616 233.89 70.9329 234.122 70.0577L235.725 70.2185C235.351 71.9153 234.139 72.7549 232.09 72.7549ZM232.215 65.9852C231.039 65.9852 230.326 66.6104 230.077 67.8429H234.122C234.068 66.6461 233.373 65.9852 232.215 65.9852Z" fill="#E66725"></path><path d="M241.184 66.1638C240.311 66.1638 239.687 66.6818 239.295 67.7178V72.5762H237.602V64.8063H239.188V65.5744C239.188 65.7352 239.17 65.9495 239.153 66.2353C239.669 65.1814 240.507 64.6456 241.665 64.6456C243.536 64.6456 244.481 65.6994 244.481 67.8071V72.5762H242.788V68.2894C242.788 66.8783 242.253 66.1638 241.184 66.1638Z" fill="#E66725"></path><path d="M251.475 68.8431C251.475 70.4328 252.295 71.3616 253.596 71.3616C254.95 71.3616 255.788 70.415 255.788 68.7002C255.788 67.0033 254.968 66.0924 253.685 66.0924C252.206 66.0924 251.475 67.2891 251.475 68.8431ZM253.845 72.7549C252.776 72.7549 251.992 72.3798 251.511 71.6296V76.0236H249.818V64.8063H251.422V65.5208L251.369 66.2174C251.921 65.1636 252.812 64.6456 254.077 64.6456C256.216 64.6456 257.588 66.0567 257.588 68.6109C257.588 71.183 256.073 72.7549 253.845 72.7549Z" fill="#E66725"></path><path d="M261.013 63.0737C260.603 63.4846 259.748 63.4846 259.338 63.0737C259.142 62.8773 259.035 62.6093 259.035 62.27C259.035 61.6269 259.463 61.1983 260.176 61.1983C260.888 61.1983 261.316 61.6269 261.316 62.27C261.316 62.6093 261.209 62.8773 261.013 63.0737ZM259.32 72.5762V64.8063H261.013V72.5762H259.32Z" fill="#E66725"></path><path d="M263.427 61.1804H265.12V72.5762H263.427V61.1804Z" fill="#E66725"></path><path d="M266.857 68.7717C266.857 66.271 268.389 64.6456 270.973 64.6456C273.379 64.6456 274.804 66.2353 274.804 68.6824C274.804 71.1651 273.29 72.7549 270.724 72.7549C268.282 72.7549 266.857 71.2545 266.857 68.7717ZM268.639 68.7359C268.639 70.3256 269.476 71.3616 270.813 71.3616C272.167 71.3616 273.022 70.3256 273.022 68.7359C273.022 67.0927 272.185 66.0567 270.884 66.0567C269.512 66.0567 268.639 67.0748 268.639 68.7359Z" fill="#E66725"></path><path d="M279.097 72.737C277.547 72.737 276.781 71.8796 276.781 70.1649V66.271H275.533V64.8063H276.514C276.674 64.8063 276.763 64.7349 276.781 64.5741L276.977 62.2521H278.474V64.8063H280.862V66.271H278.474V69.897C278.474 70.7543 278.812 71.183 279.472 71.183C279.881 71.183 280.202 71.058 280.469 70.8079L281.04 72.0582C280.594 72.5048 279.953 72.737 279.097 72.737Z" fill="#E66725"></path><path d="M288.806 72.7549C287.951 72.7549 287.345 72.3262 287.345 71.2723C286.828 72.2547 285.955 72.7549 284.707 72.7549C283.157 72.7549 281.999 72.0225 281.999 70.5757C281.999 68.9324 283.157 68.1108 285.474 68.1108H287.184V67.4678C287.184 66.5211 286.578 66.0209 285.563 66.0209C284.511 66.0209 283.923 66.4675 283.799 67.3784L282.23 67.2713C282.444 65.5744 283.71 64.6456 285.634 64.6456C287.79 64.6456 288.859 65.5744 288.859 67.4142V70.6293C288.859 71.0758 289.002 71.308 289.287 71.308C289.412 71.308 289.519 71.2902 289.59 71.2366L289.804 72.4869C289.501 72.6655 289.18 72.7549 288.806 72.7549ZM287.202 69.2003H285.688C284.404 69.2003 283.763 69.5933 283.763 70.3614C283.763 71.0758 284.298 71.4509 285.099 71.4331C286.24 71.4152 287.202 70.7007 287.202 69.2003Z" fill="#E66725"></path><path d="M292.555 67.2891C292.555 68.2001 293.232 68.7717 294.319 68.7717C295.406 68.7717 296.083 68.2001 296.083 67.2713C296.083 66.4139 295.442 65.8066 294.319 65.8066C293.196 65.8066 292.555 66.4139 292.555 67.2891ZM298.667 73.4336C298.667 75.1662 296.921 76.2022 294.069 76.2022C291.878 76.2022 290.399 75.5056 290.399 74.1659C290.399 73.2193 290.987 72.612 292.181 72.344C291.468 72.1118 291.111 71.6653 291.111 71.0044C291.111 70.2721 291.557 69.7898 292.43 69.5754C291.432 69.2361 290.826 68.3608 290.826 67.3427C290.826 65.6816 292.234 64.6456 294.372 64.6456C295.174 64.6456 296.493 64.8063 297.437 64.8063H298.774V66.0745C298.221 66.0924 297.651 66.0567 297.045 65.9852C297.527 66.2889 297.776 66.789 297.776 67.4499C297.776 69.0753 296.368 69.9863 294.301 69.9863H293.802C293.054 69.9863 292.68 70.2006 292.68 70.6293C292.751 71.1473 293.196 71.2187 294.016 71.2009H295.353C297.562 71.2009 298.667 71.9511 298.667 73.4336ZM294.23 74.9697C295.887 74.9697 296.903 74.5053 296.903 73.6658C296.903 72.9871 296.315 72.6477 295.121 72.6477H293.927C292.715 72.6477 292.109 73.1299 292.109 73.8444C292.109 74.5589 292.929 74.9697 294.23 74.9697Z" fill="#E66725"></path><path d="M303.213 72.7549C300.789 72.7549 299.381 71.308 299.381 68.7538C299.381 67.5213 299.738 66.5389 300.468 65.7709C301.199 65.0207 302.161 64.6456 303.355 64.6456C305.654 64.6456 306.99 65.9852 306.99 68.343C306.99 68.468 306.973 68.6824 306.955 68.986L301.128 69.0039C301.217 70.5757 301.965 71.3616 303.337 71.3616C304.371 71.3616 305.013 70.9329 305.244 70.0577L306.848 70.2185C306.474 71.9153 305.262 72.7549 303.213 72.7549ZM303.337 65.9852C302.161 65.9852 301.449 66.6104 301.199 67.8429H305.244C305.191 66.6461 304.496 65.9852 303.337 65.9852Z" fill="#E66725"></path><path d="M64.5436 88.2232C64.5436 86.5978 63.7417 85.7047 62.4052 85.7047C61.7459 85.7047 61.2113 85.9369 60.8371 86.3834C60.445 86.8478 60.249 87.5087 60.249 88.3482C60.249 89.1877 60.445 89.8486 60.8371 90.2952C61.2113 90.7417 61.7281 90.9739 62.3518 90.9739C63.8308 90.9739 64.5436 89.7772 64.5436 88.2232ZM66.2543 92.2242H64.7218C64.704 91.9206 64.6505 91.4919 64.5792 90.9739C64.0268 91.9206 63.1358 92.4029 61.9241 92.4029C59.7857 92.4029 58.4492 90.9918 58.4492 88.4375C58.4492 85.8833 59.9104 84.2936 62.0666 84.2936C63.1893 84.2936 64.0268 84.6508 64.5436 85.3832V80.8284H66.2543V92.2242Z" fill="#E66725"></path><path d="M71.799 92.4029C69.3755 92.4029 67.9678 90.956 67.9678 88.4018C67.9678 87.1693 68.3242 86.1869 69.0548 85.4189C69.7854 84.6687 70.7477 84.2936 71.9416 84.2936C74.2403 84.2936 75.5768 85.6332 75.5768 87.991C75.5768 88.116 75.559 88.3304 75.5412 88.634L69.7141 88.6519C69.8032 90.2237 70.5516 91.0096 71.9238 91.0096C72.9573 91.0096 73.5988 90.5809 73.8305 89.7057L75.4343 89.8665C75.0601 91.5633 73.8483 92.4029 71.799 92.4029ZM71.9238 85.6332C70.7477 85.6332 70.0349 86.2584 69.7854 87.4909H73.8305C73.777 86.2941 73.0821 85.6332 71.9238 85.6332Z" fill="#E66725"></path><path d="M80.4262 80.8284H82.1191V92.2242H80.4262V80.8284Z" fill="#E66725"></path><path d="M90.7522 92.4029C89.8968 92.4029 89.291 91.9742 89.291 90.9203C88.7742 91.9027 87.901 92.4029 86.6536 92.4029C85.1033 92.4029 83.945 91.6705 83.945 90.2237C83.945 88.5804 85.1033 87.7588 87.4199 87.7588H89.1306V87.1158C89.1306 86.1691 88.5247 85.6689 87.509 85.6689C86.4576 85.6689 85.8696 86.1155 85.7448 87.0264L84.1767 86.9193C84.3905 85.2224 85.6557 84.2936 87.5803 84.2936C89.7365 84.2936 90.8056 85.2224 90.8056 87.0622V90.2773C90.8056 90.7238 90.9482 90.956 91.2333 90.956C91.3581 90.956 91.465 90.9382 91.5363 90.8846L91.7501 92.1349C91.4472 92.3135 91.1264 92.4029 90.7522 92.4029ZM89.1484 88.8484H87.6337C86.3507 88.8484 85.7092 89.2413 85.7092 90.0094C85.7092 90.7238 86.2438 91.0989 87.0457 91.0811C88.1861 91.0632 89.1484 90.3487 89.1484 88.8484Z" fill="#E66725"></path><path d="M97.9189 88.4911C97.9189 90.0808 98.7387 91.0096 100.04 91.0096C101.394 91.0096 102.231 90.063 102.231 88.3482C102.231 86.6513 101.412 85.7404 100.129 85.7404C98.6496 85.7404 97.9189 86.9371 97.9189 88.4911ZM100.289 92.4029C99.2198 92.4029 98.4357 92.0278 97.9546 91.2776V95.6716H96.2617V84.4543H97.8655V85.1688L97.812 85.8654C98.3644 84.8116 99.2554 84.2936 100.521 84.2936C102.659 84.2936 104.031 85.7047 104.031 88.2589C104.031 90.831 102.516 92.4029 100.289 92.4029Z" fill="#E66725"></path><path d="M108.918 92.4029C106.494 92.4029 105.087 90.956 105.087 88.4018C105.087 87.1693 105.443 86.1869 106.174 85.4189C106.904 84.6687 107.866 84.2936 109.06 84.2936C111.359 84.2936 112.696 85.6332 112.696 87.991C112.696 88.116 112.678 88.3304 112.66 88.634L106.833 88.6519C106.922 90.2237 107.67 91.0096 109.043 91.0096C110.076 91.0096 110.718 90.5809 110.949 89.7057L112.553 89.8665C112.179 91.5633 110.967 92.4029 108.918 92.4029ZM109.043 85.6332C107.866 85.6332 107.154 86.2584 106.904 87.4909H110.949C110.896 86.2941 110.201 85.6332 109.043 85.6332Z" fill="#E66725"></path><path d="M116.105 87.5266V92.2242H114.412V84.4543H115.998V85.2224C115.998 85.5975 115.98 85.9369 115.927 86.2405C116.497 84.883 117.192 84.3114 118.208 84.3114C118.439 84.3114 118.653 84.3293 118.849 84.3829L118.635 86.1512C118.457 86.0976 118.261 86.0798 118.047 86.0798C117.156 86.0798 116.515 86.562 116.105 87.5266Z" fill="#E66725"></path><path d="M123.951 84.4543V85.919H122.133V92.2242H120.44V85.919H119.229V84.4543H120.173C120.351 84.4543 120.44 84.365 120.44 84.2043V83.6148C120.44 81.6143 121.492 80.7391 123.113 80.7391C123.737 80.7391 124.254 80.882 124.646 81.1499L124.129 82.436C123.897 82.2752 123.612 82.2038 123.274 82.2038C122.472 82.2038 122.133 82.6682 122.133 83.722V84.4543H123.951Z" fill="#E66725"></path><path d="M124.768 88.4197C124.768 85.919 126.301 84.2936 128.885 84.2936C131.29 84.2936 132.716 85.8833 132.716 88.3304C132.716 90.8132 131.201 92.4029 128.635 92.4029C126.194 92.4029 124.768 90.9025 124.768 88.4197ZM126.55 88.3839C126.55 89.9736 127.388 91.0096 128.724 91.0096C130.079 91.0096 130.934 89.9736 130.934 88.3839C130.934 86.7407 130.096 85.7047 128.796 85.7047C127.424 85.7047 126.55 86.7228 126.55 88.3839Z" fill="#E66725"></path><path d="M136.1 87.5266V92.2242H134.407V84.4543H135.993V85.2224C135.993 85.5975 135.975 85.9369 135.922 86.2405C136.492 84.883 137.187 84.3114 138.203 84.3114C138.434 84.3114 138.648 84.3293 138.844 84.3829L138.63 86.1512C138.452 86.0976 138.256 86.0798 138.042 86.0798C137.151 86.0798 136.51 86.562 136.1 87.5266Z" fill="#E66725"></path><path d="M143.643 85.8297C142.841 85.8297 142.253 86.3298 141.843 87.3301V92.2242H140.15V84.4543H141.754V85.2224C141.754 85.3653 141.736 85.5618 141.718 85.8297C142.235 84.8116 143.055 84.2936 144.213 84.2936C145.443 84.2936 146.227 84.7937 146.601 85.8118C147.189 84.7937 148.08 84.2936 149.238 84.2936C151.092 84.2936 152.018 85.3474 152.018 87.473V92.2242H150.325V87.866C150.325 86.5085 149.791 85.8297 148.739 85.8297C147.902 85.8297 147.314 86.3298 146.94 87.3122V92.2242H145.247V87.866C145.247 86.5085 144.712 85.8297 143.643 85.8297Z" fill="#E66725"></path><path d="M160.465 92.4029C159.61 92.4029 159.004 91.9742 159.004 90.9203C158.487 91.9027 157.614 92.4029 156.367 92.4029C154.816 92.4029 153.658 91.6705 153.658 90.2237C153.658 88.5804 154.816 87.7588 157.133 87.7588H158.844V87.1158C158.844 86.1691 158.238 85.6689 157.222 85.6689C156.171 85.6689 155.583 86.1155 155.458 87.0264L153.89 86.9193C154.103 85.2224 155.369 84.2936 157.293 84.2936C159.449 84.2936 160.519 85.2224 160.519 87.0622V90.2773C160.519 90.7238 160.661 90.956 160.946 90.956C161.071 90.956 161.178 90.9382 161.249 90.8846L161.463 92.1349C161.16 92.3135 160.839 92.4029 160.465 92.4029ZM158.861 88.8484H157.347C156.064 88.8484 155.422 89.2413 155.422 90.0094C155.422 90.7238 155.957 91.0989 156.759 91.0811C157.899 91.0632 158.861 90.3487 158.861 88.8484Z" fill="#E66725"></path><path d="M166.459 85.8118C165.586 85.8118 164.962 86.3298 164.57 87.3658V92.2242H162.878V84.4543H164.463V85.2224C164.463 85.3832 164.446 85.5975 164.428 85.8833C164.945 84.8294 165.782 84.2936 166.94 84.2936C168.812 84.2936 169.756 85.3474 169.756 87.4551V92.2242H168.063V87.9374C168.063 86.5263 167.528 85.8118 166.459 85.8118Z" fill="#E66725"></path><path d="M178.732 87.3658L177.093 87.4015C176.968 86.2584 176.326 85.6868 175.204 85.6868C173.85 85.6868 173.083 86.7228 173.083 88.3482C173.083 90.0094 173.885 90.9918 175.186 90.9918C176.202 90.9918 176.825 90.5095 177.039 89.5271L178.696 89.6521C178.376 91.4919 177.164 92.4029 175.079 92.4029C172.709 92.4029 171.319 90.7774 171.319 88.3304C171.319 87.1515 171.675 86.1869 172.388 85.4189C173.101 84.6687 174.028 84.2936 175.168 84.2936C177.467 84.2936 178.679 85.5082 178.732 87.3658Z" fill="#E66725"></path><path d="M183.556 92.4029C181.132 92.4029 179.724 90.956 179.724 88.4018C179.724 87.1693 180.081 86.1869 180.811 85.4189C181.542 84.6687 182.504 84.2936 183.698 84.2936C185.997 84.2936 187.333 85.6332 187.333 87.991C187.333 88.116 187.316 88.3304 187.298 88.634L181.471 88.6519C181.56 90.2237 182.308 91.0096 183.68 91.0096C184.714 91.0096 185.355 90.5809 185.587 89.7057L187.191 89.8665C186.817 91.5633 185.605 92.4029 183.556 92.4029ZM183.68 85.6332C182.504 85.6332 181.791 86.2584 181.542 87.4909H185.587C185.534 86.2941 184.839 85.6332 183.68 85.6332Z" fill="#E66725"></path><path d="M195.337 92.4029C192.913 92.4029 191.506 90.956 191.506 88.4018C191.506 87.1693 191.862 86.1869 192.593 85.4189C193.323 84.6687 194.285 84.2936 195.479 84.2936C197.778 84.2936 199.115 85.6332 199.115 87.991C199.115 88.116 199.097 88.3304 199.079 88.634L193.252 88.6519C193.341 90.2237 194.089 91.0096 195.462 91.0096C196.495 91.0096 197.137 90.5809 197.368 89.7057L198.972 89.8665C198.598 91.5633 197.386 92.4029 195.337 92.4029ZM195.462 85.6332C194.285 85.6332 193.573 86.2584 193.323 87.4909H197.368C197.315 86.2941 196.62 85.6332 195.462 85.6332Z" fill="#E66725"></path><path d="M203.433 92.385C201.883 92.385 201.116 91.5276 201.116 89.8129V85.919H199.869V84.4543H200.849C201.009 84.4543 201.098 84.3829 201.116 84.2221L201.312 81.9001H202.809V84.4543H205.197V85.919H202.809V89.545C202.809 90.4023 203.148 90.831 203.807 90.831C204.217 90.831 204.538 90.706 204.805 90.4559L205.375 91.7062C204.93 92.1528 204.288 92.385 203.433 92.385Z" fill="#E66725"></path><path d="M215.989 86.7942L214.332 86.9014C214.314 86.0262 213.779 85.5975 212.728 85.5975C211.819 85.5975 211.32 85.9905 211.32 86.5085C211.392 86.9729 211.463 87.1693 211.962 87.3658C212.318 87.5087 212.39 87.5087 212.96 87.6516C213.013 87.6695 213.067 87.6695 213.102 87.6873C213.512 87.7945 213.815 87.866 213.976 87.9017C214.136 87.9553 214.385 88.0446 214.724 88.1696C215.063 88.3125 215.294 88.4554 215.437 88.5983C215.722 88.8841 216.043 89.4199 216.043 90.0808C216.043 91.5812 214.742 92.4029 212.888 92.4029C210.732 92.4029 209.414 91.6169 209.396 89.8486L211.071 89.795C211.213 90.6524 211.801 91.0811 212.835 91.0811C213.708 91.0811 214.314 90.7417 214.314 90.0808C214.314 89.4378 213.869 89.2235 212.657 88.9198C211.605 88.6697 210.91 88.4554 210.572 88.2589C209.913 87.8481 209.592 87.2765 209.574 86.5085C209.574 85.2224 210.804 84.2936 212.71 84.2936C214.777 84.2936 215.971 85.2045 215.989 86.7942Z" fill="#E66725"></path><path d="M222.893 92.2242V91.474C222.911 91.2776 222.964 90.8489 222.982 90.6524C222.501 91.8134 221.663 92.385 220.487 92.385C218.634 92.385 217.707 91.3133 217.707 89.1699V84.4543H219.4V88.7055C219.4 90.1701 219.917 90.9025 220.969 90.9025C221.788 90.9025 222.394 90.4023 222.786 89.3842V84.4543H224.479V92.2242H222.893Z" fill="#E66725"></path><path d="M228.575 82.7217C228.166 83.1326 227.31 83.1326 226.9 82.7217C226.704 82.5253 226.597 82.2573 226.597 81.918C226.597 81.2749 227.025 80.8463 227.738 80.8463C228.451 80.8463 228.878 81.2749 228.878 81.918C228.878 82.2573 228.771 82.5253 228.575 82.7217ZM226.883 92.2242V84.4543H228.575V92.2242H226.883Z" fill="#E66725"></path><path d="M233.93 90.5452L235.872 84.4543H237.69L234.999 92.2242H232.665L229.974 84.4543H231.827L233.752 90.5452H233.93Z" fill="#E66725"></path><path d="M240.722 82.7217C240.312 83.1326 239.457 83.1326 239.047 82.7217C238.851 82.5253 238.744 82.2573 238.744 81.918C238.744 81.2749 239.172 80.8463 239.885 80.8463C240.597 80.8463 241.025 81.2749 241.025 81.918C241.025 82.2573 240.918 82.5253 240.722 82.7217ZM239.029 92.2242V84.4543H240.722V92.2242H239.029Z" fill="#E66725"></path><path d="M251.686 88.2232C251.686 86.5978 250.884 85.7047 249.548 85.7047C248.889 85.7047 248.354 85.9369 247.98 86.3834C247.588 86.8478 247.392 87.5087 247.392 88.3482C247.392 89.1877 247.588 89.8486 247.98 90.2952C248.354 90.7417 248.871 90.9739 249.494 90.9739C250.973 90.9739 251.686 89.7772 251.686 88.2232ZM253.397 92.2242H251.864C251.847 91.9206 251.793 91.4919 251.722 90.9739C251.169 91.9206 250.278 92.4029 249.067 92.4029C246.928 92.4029 245.592 90.9918 245.592 88.4375C245.592 85.8833 247.053 84.2936 249.209 84.2936C250.332 84.2936 251.169 84.6508 251.686 85.3832V80.8284H253.397V92.2242Z" fill="#E66725"></path><path d="M258.942 92.4029C256.518 92.4029 255.11 90.956 255.11 88.4018C255.11 87.1693 255.467 86.1869 256.197 85.4189C256.928 84.6687 257.89 84.2936 259.084 84.2936C261.383 84.2936 262.719 85.6332 262.719 87.991C262.719 88.116 262.702 88.3304 262.684 88.634L256.857 88.6519C256.946 90.2237 257.694 91.0096 259.066 91.0096C260.1 91.0096 260.741 90.5809 260.973 89.7057L262.577 89.8665C262.203 91.5633 260.991 92.4029 258.942 92.4029ZM259.066 85.6332C257.89 85.6332 257.178 86.2584 256.928 87.4909H260.973C260.92 86.2941 260.225 85.6332 259.066 85.6332Z" fill="#E66725"></path><path d="M269.208 88.4911C269.208 90.0808 270.028 91.0096 271.329 91.0096C272.683 91.0096 273.521 90.063 273.521 88.3482C273.521 86.6513 272.701 85.7404 271.418 85.7404C269.939 85.7404 269.208 86.9371 269.208 88.4911ZM271.578 92.4029C270.509 92.4029 269.725 92.0278 269.244 91.2776V95.6716H267.551V84.4543H269.155V85.1688L269.101 85.8654C269.654 84.8116 270.545 84.2936 271.81 84.2936C273.948 84.2936 275.32 85.7047 275.32 88.2589C275.32 90.831 273.806 92.4029 271.578 92.4029Z" fill="#E66725"></path><path d="M278.728 87.5266V92.2242H277.035V84.4543H278.621V85.2224C278.621 85.5975 278.603 85.9369 278.55 86.2405C279.12 84.883 279.815 84.3114 280.831 84.3114C281.062 84.3114 281.276 84.3293 281.472 84.3829L281.258 86.1512C281.08 86.0976 280.884 86.0798 280.67 86.0798C279.779 86.0798 279.138 86.562 278.728 87.5266Z" fill="#E66725"></path><path d="M282.101 88.4197C282.101 85.919 283.634 84.2936 286.218 84.2936C288.623 84.2936 290.049 85.8833 290.049 88.3304C290.049 90.8132 288.534 92.4029 285.968 92.4029C283.527 92.4029 282.101 90.9025 282.101 88.4197ZM283.883 88.3839C283.883 89.9736 284.721 91.0096 286.057 91.0096C287.411 91.0096 288.267 89.9736 288.267 88.3839C288.267 86.7407 287.429 85.7047 286.128 85.7047C284.756 85.7047 283.883 86.7228 283.883 88.3839Z" fill="#E66725"></path><path d="M293.522 82.7217C293.112 83.1326 292.257 83.1326 291.847 82.7217C291.651 82.5253 291.544 82.2573 291.544 81.918C291.544 81.2749 291.972 80.8463 292.684 80.8463C293.397 80.8463 293.825 81.2749 293.825 81.918C293.825 82.2573 293.718 82.5253 293.522 82.7217ZM291.811 93.0816V84.4543H293.504V93.0102C293.504 94.7428 292.738 95.618 291.205 95.618C290.831 95.618 290.421 95.5287 289.994 95.3679L290.386 93.939C290.617 94.0461 290.831 94.0997 291.027 94.0997C291.544 94.0997 291.811 93.7604 291.811 93.0816Z" fill="#E66725"></path><path d="M299.054 92.4029C296.63 92.4029 295.222 90.956 295.222 88.4018C295.222 87.1693 295.579 86.1869 296.309 85.4189C297.04 84.6687 298.002 84.2936 299.196 84.2936C301.495 84.2936 302.831 85.6332 302.831 87.991C302.831 88.116 302.814 88.3304 302.796 88.634L296.969 88.6519C297.058 90.2237 297.806 91.0096 299.178 91.0096C300.212 91.0096 300.853 90.5809 301.085 89.7057L302.689 89.8665C302.315 91.5633 301.103 92.4029 299.054 92.4029ZM299.178 85.6332C298.002 85.6332 297.289 86.2584 297.04 87.4909H301.085C301.032 86.2941 300.337 85.6332 299.178 85.6332Z" fill="#E66725"></path><path d="M307.15 92.385C305.599 92.385 304.833 91.5276 304.833 89.8129V85.919H303.586V84.4543H304.566C304.726 84.4543 304.815 84.3829 304.833 84.2221L305.029 81.9001H306.526V84.4543H308.914V85.919H306.526V89.545C306.526 90.4023 306.865 90.831 307.524 90.831C307.934 90.831 308.254 90.706 308.522 90.4559L309.092 91.7062C308.647 92.1528 308.005 92.385 307.15 92.385Z" fill="#E66725"></path><path d="M47.1012 63.943C44.9597 63.943 42.8401 63.746 40.7424 63.3519C38.6446 62.9577 36.6123 62.4213 34.6457 61.7427C32.6791 61.0639 30.7889 60.2647 28.9753 59.3452C27.1835 58.4475 25.5227 57.495 23.9931 56.4879C22.4635 55.5027 21.0868 54.4846 19.8632 53.4336C18.6613 52.4045 17.6561 51.4084 16.8476 50.445C14.3783 49.832 12.1058 48.781 10.0299 47.2922C7.97584 45.8033 6.20587 44.0518 4.71995 42.0374C3.23405 40.0232 2.07591 37.8336 1.24554 35.4691C0.415182 33.0825 0 30.696 0 28.3096C0 25.2005 0.600926 22.2775 1.80277 19.5408C3.0046 16.8039 4.66532 14.4173 6.78494 12.3812C8.90454 10.345 11.4066 8.7357 14.2909 7.55339C17.1754 6.37108 20.3111 5.77993 23.6981 5.77993C27.0632 5.77993 30.188 6.37108 33.0725 7.55339C35.9568 8.7357 38.4588 10.345 40.5785 12.3812C42.6981 14.4173 44.3588 16.8039 45.5607 19.5408C46.7625 22.2775 47.3634 25.2005 47.3634 28.3096C47.3634 30.8274 46.9155 33.3125 46.0195 35.7646C45.1236 38.1949 43.8781 40.4282 42.2829 42.4644C40.7095 44.5006 38.8194 46.2521 36.6123 47.7191C34.4272 49.1642 32.0236 50.1494 29.4014 50.6749C29.8821 52.1199 30.6797 53.5649 31.7941 55.01C32.9304 56.4551 34.2742 57.7469 35.8258 58.8854C37.399 60.0458 39.1472 60.9763 41.0701 61.6769C42.9931 62.3995 45.0034 62.7607 47.1012 62.7607V63.943ZM23.6981 49.1642C26.1455 48.9014 28.3196 48.2337 30.2208 47.1609C32.1437 46.066 33.7607 44.6319 35.0718 42.8586C36.383 41.0631 37.3772 38.9503 38.0547 36.5201C38.7538 34.0678 39.1034 31.3309 39.1034 28.3096C39.1034 25.3099 38.7647 22.5621 38.0874 20.0661C37.4099 17.5702 36.4157 15.4246 35.1047 13.6292C33.7936 11.8119 32.1766 10.4107 30.2536 9.4254C28.3525 8.41825 26.1673 7.91466 23.6981 7.91466C21.1633 7.91466 18.9344 8.41825 17.0115 9.4254C15.0885 10.4107 13.4824 11.8119 12.1932 13.6292C10.904 15.4246 9.93156 17.5702 9.27602 20.0661C8.62046 22.5621 8.2927 25.3099 8.2927 28.3096C8.2927 31.3309 8.62046 34.1116 9.27602 36.6514C9.93156 39.1911 10.904 41.3916 12.1932 43.2526C13.4824 45.1137 15.0885 46.5697 17.0115 47.6206C18.9344 48.6496 21.1633 49.1642 23.6981 49.1642Z" fill="#193C65"></path><path d="M63.9321 16.6839V40.6257C63.9321 41.4576 64.1178 42.2459 64.4892 42.9902C64.8825 43.7346 65.4179 44.3806 66.0953 44.928C66.7727 45.4753 67.5484 45.9132 68.4225 46.2415C69.3184 46.5481 70.2799 46.7013 71.3069 46.7013C71.9624 46.7013 72.6617 46.5591 73.4047 46.2745C74.1694 45.9897 74.9125 45.6066 75.6336 45.125C76.3547 44.6213 77.0211 44.0412 77.633 43.3843C78.2666 42.7056 78.802 41.994 79.239 41.2497V16.6839H85.8601V50.314H79.239V44.0083C78.649 44.9717 77.9061 45.8803 77.0102 46.7342C76.1361 47.588 75.1856 48.3326 74.1585 48.9675C73.1316 49.6024 72.0718 50.106 70.9791 50.4782C69.8865 50.8504 68.8487 51.0365 67.8653 51.0365C66.4012 51.0365 65.0246 50.7628 63.7353 50.2155C62.4461 49.6681 61.3207 48.9236 60.3592 47.9822C59.3978 47.0407 58.633 45.9351 58.0649 44.6652C57.5186 43.3953 57.2455 42.0487 57.2455 40.6257V16.6839H63.9321Z" fill="#193C65"></path><path d="M98.2173 17.9646L102.905 16.0598H104.838V50.3139H98.2173V17.9646ZM97.6929 3.80968C97.6929 3.2842 97.7912 2.79156 97.9879 2.33178C98.1846 1.872 98.4577 1.46694 98.8074 1.11663C99.157 0.766312 99.5612 0.492641 100.02 0.295589C100.479 0.0985371 100.971 0 101.495 0C102.02 0 102.511 0.0985371 102.97 0.295589C103.429 0.492641 103.833 0.766312 104.183 1.11663C104.532 1.46694 104.806 1.872 105.002 2.33178C105.199 2.79156 105.297 3.2842 105.297 3.80968C105.297 4.33515 105.199 4.82778 105.002 5.28758C104.806 5.74736 104.532 6.15242 104.183 6.50273C103.833 6.85304 103.429 7.12672 102.97 7.32377C102.511 7.52082 102.02 7.61936 101.495 7.61936C100.971 7.61936 100.479 7.52082 100.02 7.32377C99.5612 7.12672 99.157 6.85304 98.8074 6.50273C98.4577 6.15242 98.1846 5.74736 97.9879 5.28758C97.7912 4.82778 97.6929 4.33515 97.6929 3.80968Z" fill="#193C65"></path><path d="M121.837 16.0588H123.738V23.0212C124.59 22.1016 125.552 21.2258 126.623 20.3939C127.693 19.54 128.797 18.7955 129.933 18.1606C131.07 17.5038 132.206 16.9893 133.342 16.6171C134.479 16.2449 135.56 16.0588 136.587 16.0588C137.57 16.0588 138.565 16.234 139.569 16.5841C140.597 16.9345 141.537 17.4272 142.389 18.0621C143.263 18.697 144.006 19.4525 144.618 20.3281C145.252 21.1821 145.667 22.1235 145.863 23.1526C146.41 22.1673 147.163 21.2478 148.125 20.3939C149.108 19.5181 150.19 18.7627 151.37 18.1278C152.549 17.4929 153.795 16.9893 155.106 16.6171C156.439 16.2449 157.74 16.0588 159.007 16.0588C160.274 16.0588 161.455 16.3434 162.547 16.9126C163.661 17.46 164.634 18.2154 165.464 19.1788C166.294 20.1202 166.95 21.2369 167.431 22.5286C167.911 23.7985 168.152 25.1559 168.152 26.6009V50.3129H161.498V27.5206C161.498 26.5791 161.334 25.6923 161.006 24.8604C160.7 24.0066 160.274 23.2621 159.727 22.6271C159.182 21.9922 158.536 21.4886 157.794 21.1164C157.074 20.7442 156.309 20.5581 155.5 20.5581C154.581 20.5581 153.642 20.6894 152.681 20.9521C151.741 21.193 150.846 21.5324 149.993 21.9703C149.141 22.4082 148.365 22.9227 147.666 23.5139C146.967 24.0831 146.41 24.6961 145.994 25.3531V50.3129H139.341V27.5206C139.341 26.5791 139.176 25.6923 138.849 24.8604C138.52 24.0066 138.084 23.2621 137.537 22.6271C136.992 21.9922 136.346 21.4886 135.604 21.1164C134.861 20.7442 134.086 20.5581 133.276 20.5581C132.424 20.5581 131.54 20.6894 130.622 20.9521C129.726 21.2149 128.841 21.5652 127.967 22.0031C127.114 22.441 126.317 22.9556 125.574 23.5467C124.831 24.116 124.219 24.7181 123.738 25.3531V50.3129H117.052V17.9307L121.837 16.0588Z" fill="#193C65"></path><path d="M194.161 51.0354C191.89 51.0354 189.748 50.6085 187.738 49.7547C185.749 48.9007 184.011 47.7403 182.526 46.2734C181.039 44.8064 179.86 43.0877 178.986 41.1172C178.133 39.1248 177.707 37.0119 177.707 34.7787C177.707 32.0856 178.1 29.6006 178.888 27.3236C179.674 25.0246 180.788 23.0432 182.232 21.3791C183.674 19.7152 185.399 18.4124 187.41 17.4709C189.443 16.5295 191.703 16.0588 194.194 16.0588C196.38 16.0588 198.39 16.4528 200.226 17.2411C202.061 18.0073 203.634 19.0474 204.946 20.3611C206.279 21.6528 207.306 23.1526 208.027 24.8604C208.77 26.5681 209.142 28.3526 209.142 30.2136H184.132C184.132 32.4687 184.416 34.5598 184.984 36.4864C185.574 38.4132 186.393 40.0771 187.442 41.4784C188.491 42.8797 189.737 43.9744 191.179 44.7626C192.621 45.5509 194.206 45.9449 195.932 45.9449C197.374 45.9449 198.762 45.715 200.095 45.2552C201.427 44.7736 202.629 44.1496 203.7 43.3832C204.792 42.617 205.722 41.7412 206.487 40.7559C207.252 39.7707 207.787 38.7526 208.093 37.7016L210.026 38.5554C209.545 40.2852 208.77 41.9054 207.699 43.4161C206.629 44.9269 205.372 46.2514 203.93 47.39C202.509 48.5067 200.958 49.3934 199.276 50.0502C197.593 50.707 195.889 51.0354 194.161 51.0354ZM200.783 27.5206C200.783 26.2507 200.553 25.0683 200.095 23.9736C199.658 22.8789 199.046 21.9374 198.26 21.1493C197.472 20.3392 196.555 19.7041 195.506 19.2444C194.457 18.7846 193.332 18.5548 192.129 18.5548C191.125 18.5548 190.163 18.7846 189.245 19.2444C188.328 19.6823 187.508 20.3063 186.787 21.1164C186.066 21.9046 185.465 22.8461 184.984 23.9408C184.525 25.0355 184.252 26.2178 184.165 27.4877L200.783 27.5206Z" fill="#193C65"></path><path d="M241.521 51.3317C238.157 51.3317 235.01 50.7296 232.081 49.5254C229.175 48.3213 226.641 46.6791 224.477 44.5991C222.336 42.4973 220.642 40.056 219.397 37.2754C218.173 34.4729 217.561 31.4842 217.561 28.3096C217.561 26.2295 217.834 24.2262 218.38 22.2995C218.949 20.3727 219.747 18.5774 220.773 16.9133C221.8 15.2494 223.034 13.7387 224.477 12.3812C225.942 11.0018 227.558 9.83044 229.328 8.86707C231.098 7.88181 233.011 7.12647 235.064 6.60099C237.14 6.05363 239.292 5.77993 241.521 5.77993C243.772 5.77993 245.925 6.05363 247.978 6.60099C250.032 7.12647 251.945 7.88181 253.714 8.86707C255.507 9.83044 257.124 11.0018 258.566 12.3812C260.008 13.7387 261.242 15.2494 262.27 16.9133C263.319 18.5774 264.116 20.3727 264.662 22.2995C265.23 24.2262 265.515 26.2295 265.515 28.3096C265.515 30.4332 265.23 32.4695 264.662 34.4181C264.116 36.3668 263.319 38.1949 262.27 39.9027C261.242 41.6104 260.008 43.165 258.566 44.5663C257.124 45.9675 255.507 47.1718 253.714 48.1789C251.945 49.186 250.032 49.9633 247.978 50.5107C245.925 51.058 243.772 51.3317 241.521 51.3317ZM241.521 49.1642C244.012 49.1642 246.209 48.6496 248.109 47.6206C250.032 46.5697 251.649 45.1137 252.961 43.2526C254.271 41.3916 255.255 39.1911 255.91 36.6514C256.587 34.1116 256.926 31.3309 256.926 28.3096C256.926 25.3099 256.587 22.5621 255.91 20.0661C255.255 17.5702 254.271 15.4246 252.961 13.6292C251.649 11.8119 250.032 10.4107 248.109 9.4254C246.209 8.41825 244.012 7.91466 241.521 7.91466C238.986 7.91466 236.758 8.41825 234.835 9.4254C232.933 10.4107 231.328 11.8119 230.016 13.6292C228.727 15.4246 227.754 17.5702 227.1 20.0661C226.444 22.5621 226.116 25.3099 226.116 28.3096C226.116 31.3309 226.444 34.1116 227.1 36.6514C227.754 39.1911 228.727 41.3916 230.016 43.2526C231.328 45.1137 232.933 46.5697 234.835 47.6206C236.758 48.6496 238.986 49.1642 241.521 49.1642Z" fill="#E66826"></path></svg>