<svg xmlns="http://www.w3.org/2000/svg" width="253" height="95" viewBox="0 0 253 95" fill="none"><path d="M6.46159 7.11477C6.58125 7.11477 7.11972 6.87761 8.07699 6.4033C9.0941 5.92898 9.72231 5.69182 9.96163 5.69182C10.3206 5.69182 10.9787 5.42502 11.936 4.89141C13.3121 4.17993 16.6925 2.96449 22.0771 1.24509C24.9489 0.415029 27.4019 0 29.4362 0C31.4105 0 32.9063 0.35574 33.9234 1.06722C35.5986 2.07514 36.4362 4.29851 36.4362 7.73732C36.4362 9.16027 36.2567 10.6722 35.8977 12.273C34.8806 16.9569 34.043 19.6249 33.3849 20.2771C33.1456 20.6328 33.0259 21.0182 33.0259 21.4333C33.0259 22.9155 29.4362 29.8524 22.2566 42.244C18.7865 48.1729 16.6326 53.0051 15.795 56.7403C15.3762 58.6969 15.1668 60.4163 15.1668 61.8985C15.1668 63.2622 15.3164 64.2405 15.6155 64.8334C16.2138 66.0785 18.0087 66.701 21.0002 66.701C23.3335 66.701 26.1156 66.2563 29.3464 65.367C33.2353 64.2998 36.7952 63.0843 40.026 61.7207C43.2568 60.357 45.0816 59.2898 45.5004 58.519C46.3978 56.7996 47.2055 55.9399 47.9235 55.9399C48.4021 55.9399 48.6415 56.1474 48.6415 56.5624C48.6415 56.8589 48.3423 57.6593 47.744 58.9637C47.1457 60.1495 46.5175 60.9795 45.8594 61.4539C45.2012 61.9282 43.4363 62.7879 40.5645 64.033C33.1456 67.3532 26.4746 69.0133 20.5515 69.0133C18.5771 69.0133 17.0514 68.7465 15.9745 68.2129C13.8805 67.1457 12.8334 64.9223 12.8334 61.5428C12.8334 55.9696 15.4959 48.7955 20.8207 40.0206C22.7951 36.7597 25.0985 32.6094 27.731 27.5697C31.9789 19.447 34.1029 12.6584 34.1029 7.20371C34.1029 5.89933 33.9234 4.80247 33.5644 3.91313C33.4447 3.55739 32.9362 3.14236 32.0387 2.66804C31.5601 2.43088 30.8421 2.3123 29.8849 2.3123C28.2695 2.3123 26.3549 2.60875 24.1412 3.20165C23.8421 3.26094 23.513 3.34987 23.154 3.46845C22.7951 3.52774 22.466 3.61668 22.1669 3.73526C21.8677 3.79454 21.6882 3.82419 21.6284 3.82419C21.0301 3.94277 18.7267 4.77283 14.7181 6.31436C10.7095 7.8559 7.71802 9.07134 5.74364 9.96068C3.29063 11.0872 1.70514 11.6504 0.987188 11.6504C0.329063 11.6504 0 11.4429 0 11.0279C0 10.6129 0.299148 10.1978 0.897444 9.78282C3.17097 8.30057 5.02568 7.41122 6.46159 7.11477Z" fill="#242424"></path><path d="M81.5113 40.0206C82.289 38.5384 82.6779 36.8486 82.6779 34.9513C82.6779 32.1054 81.8104 29.4374 80.0753 26.9472C78.4001 24.3977 76.2762 22.8562 73.7035 22.3226C72.8061 22.204 72.3274 22.1744 72.2676 22.2337C72.2676 22.293 72.477 22.5005 72.8958 22.8562C74.0326 23.7456 74.6009 24.6349 74.6009 25.5243C74.6009 25.6428 74.571 25.7318 74.5112 25.7911C74.3317 26.0282 74.0924 26.1468 73.7932 26.1468C73.3146 26.1468 72.7462 25.8207 72.0881 25.1685C71.43 24.5163 70.8616 24.1902 70.3829 24.1902C69.9641 24.1902 69.3659 24.3681 68.5881 24.7238C66.3744 25.6132 64.2803 27.6587 62.306 30.8603C60.3316 34.0027 59.3444 36.7893 59.3444 39.2202C59.3444 39.8131 59.4341 40.3467 59.6136 40.821C59.8529 41.5918 60.4512 42.4218 61.4085 43.3112C62.4256 44.2005 63.2034 44.6452 63.7419 44.6452C64.1607 44.6452 64.5496 44.8231 64.9085 45.1788C65.2675 45.5346 66.8829 45.7124 69.7547 45.7124C71.7291 45.7124 73.0753 45.6531 73.7932 45.5345C74.5112 45.416 75.4086 45.0899 76.4856 44.5563C78.7591 43.4891 80.4343 41.9772 81.5113 40.0206ZM71.3701 20.366C72.0881 20.0696 72.7462 19.9214 73.3445 19.9214C75.3189 19.9214 77.383 20.87 79.5369 22.7673C81.6907 24.6053 83.1865 26.799 84.0241 29.3484C84.6224 31.1864 84.9215 33.0244 84.9215 34.8624C84.9215 39.7242 82.8873 43.4594 78.8189 46.0682C76.5454 47.5504 73.7035 48.2915 70.2932 48.2915C67.6607 48.2915 65.1778 47.8172 62.8444 46.8686C60.5709 45.9199 58.9854 44.6156 58.088 42.9554C57.4897 41.9475 57.1905 40.6728 57.1905 39.1313C57.1905 35.811 58.3273 32.4612 60.6008 29.0816C61.7376 27.5401 63.0239 26.1171 64.4598 24.8128C65.8957 23.5084 67.1522 22.6783 68.2291 22.3226C69.6052 21.8483 70.2932 21.5222 70.2932 21.3443C70.2932 21.1072 70.6522 20.7811 71.3701 20.366Z" fill="#242424"></path><path d="M118.238 40.821C117.7 38.7459 115.695 37.7083 112.225 37.7083H111.148C110.011 37.7083 108.934 38.0344 107.917 38.6866C105.405 40.2281 104.148 42.8962 104.148 46.6907C104.148 49.6552 104.986 51.76 106.661 53.0051C107.678 53.7165 108.815 54.0723 110.071 54.0723C112.943 54.0723 115.635 52.6493 118.148 49.8034L120.033 47.58L119.315 44.912C119.195 44.3784 118.986 43.6373 118.687 42.6886C118.447 41.6807 118.298 41.0582 118.238 40.821ZM114.379 13.4291C114.558 13.0734 114.798 12.8955 115.097 12.8955C115.695 12.8955 116.084 13.3106 116.264 14.1406C116.383 14.4963 116.623 16.0675 116.982 18.8541C117.4 21.6408 117.64 23.2119 117.699 23.5677C117.819 24.2792 118.088 26.1468 118.507 29.1706C118.926 32.1351 119.225 34.0916 119.405 35.0403C120.123 38.8348 120.721 41.4732 121.2 42.9554C121.439 43.6669 121.588 44.082 121.648 44.2005C121.768 44.2598 122.037 44.1116 122.456 43.7559C122.875 43.3408 123.114 43.2815 123.174 43.578C123.174 43.7559 123.114 44.3191 122.994 45.2677C122.935 45.6235 122.905 46.0978 122.905 46.6907C122.905 47.3429 123.264 48.1137 123.982 49.003C124.819 50.0702 125.088 50.752 124.789 51.0485C124.43 51.4042 124.161 51.5821 123.982 51.5821C123.623 51.5821 123.114 51.2857 122.456 50.6928L121.289 49.7145L119.405 51.8489C117.909 53.509 116.533 54.6652 115.276 55.3174C114.02 55.9695 112.464 56.2956 110.61 56.2956C108.635 56.2956 107.05 55.9103 105.853 55.1395C104.716 54.3687 103.789 53.4201 103.071 52.2936C102.533 51.5228 102.204 50.8706 102.084 50.337C101.964 49.7441 101.904 48.588 101.904 46.8686C101.904 44.2598 102.263 42.3033 102.981 40.9989C103.759 39.5759 104.447 38.5976 105.046 38.064C105.644 37.4711 106.541 36.8486 107.738 36.1964C109.054 35.5442 110.191 35.2181 111.148 35.2181C111.268 35.2181 111.477 35.2478 111.776 35.3071C112.076 35.3071 112.315 35.3071 112.494 35.3071C113.99 35.4256 115.246 35.6332 116.264 35.9296L117.341 36.3743L116.353 30.6825C114.977 22.2633 114.289 16.7197 114.289 14.0517C114.289 13.9331 114.289 13.7849 114.289 13.607L114.379 13.4291Z" fill="#242424"></path><path d="M147.16 30.0599C147.399 29.7042 147.669 29.5263 147.968 29.5263C148.566 29.5263 149.015 30.4453 149.314 32.2833C149.852 36.0185 150.75 43.993 150.75 48.5583C150.75 49.8034 150.69 50.5445 150.57 50.7817C150.511 51.0189 153.149 51.1374 152.671 51.1374C152.192 51.1374 148.985 51.0189 148.865 50.7817C148.746 50.5445 148.656 49.9813 148.596 49.0919C148.596 47.669 148.387 44.8824 147.968 40.7321C147.728 38.3012 146.981 32.639 146.981 31.3939C146.981 30.6232 147.04 30.1785 147.16 30.0599Z" fill="#242424"></path><path d="M198.232 29.4374C197.694 28.9038 196.707 28.637 195.271 28.637C193.895 28.637 192.638 28.9334 191.502 29.5263C190.126 30.1785 188.749 31.2457 187.373 32.728C186.057 34.2102 185.01 35.7814 184.232 37.4415C183.155 39.6945 182.617 42.1254 182.617 44.7341C182.617 46.6907 182.916 48.084 183.514 48.9141C183.933 49.6255 184.591 49.8923 185.489 49.7145C186.745 49.418 188.39 47.9358 190.425 45.2677C192.519 42.5404 194.732 38.9534 197.066 34.5067C198.442 32.0165 199.13 30.6528 199.13 30.4157C199.13 30.3564 198.831 30.0303 198.232 29.4374ZM195.091 42.3329C195.091 42.5108 194.732 43.1037 194.014 44.1116C193.356 45.0602 193.027 45.5938 193.027 45.7124C193.027 45.9496 192.13 47.0464 190.335 49.003C188.361 51.256 186.596 52.3825 185.04 52.3825C184.023 52.3825 183.066 51.9378 182.168 51.0485C180.852 49.7441 180.194 47.7283 180.194 45.0009C180.194 43.1037 180.493 41.236 181.091 39.3981C182.049 36.315 183.155 34.0323 184.412 32.5501C185.429 31.2457 186.745 30.0006 188.361 28.8148C189.976 27.629 191.262 26.9472 192.22 26.7693C192.878 26.6508 193.267 26.5322 193.386 26.4136C193.506 26.295 194.044 26.2357 195.002 26.2357C196.378 26.2357 197.156 26.3543 197.335 26.5915C197.455 26.8286 197.784 26.9472 198.322 26.9472C198.801 26.9472 199.429 27.4512 200.207 28.4591C200.745 29.1706 201.074 29.8228 201.194 30.4157C201.314 30.9493 201.403 32.0758 201.463 33.7952C201.643 40.7321 202.391 45.3863 203.707 47.7579C204.305 48.8251 205.143 49.922 206.22 51.0485C207.356 52.175 208.344 52.9458 209.181 53.3608C210.079 53.7758 210.527 54.2798 210.527 54.8727C210.527 55.4063 210.109 55.7324 209.271 55.851H209.092C208.374 55.851 207.117 54.9913 205.322 53.2719C203.168 51.1967 201.732 49.2994 201.015 47.58C200.356 45.8606 199.788 42.9554 199.309 38.8645C199.19 37.145 199.04 36.2853 198.861 36.2853C198.741 36.2853 198.532 36.6411 198.232 37.3526C197.873 38.2419 197.634 38.6866 197.514 38.6866C197.455 38.6866 197.126 39.2202 196.527 40.2874C195.929 41.3546 195.57 41.8882 195.45 41.8882C195.211 41.8882 195.091 42.0365 195.091 42.3329Z" fill="#242424"></path><path d="M235.859 27.9255C236.936 27.4512 237.803 27.214 238.461 27.214C239.239 27.214 240.107 27.4512 241.064 27.9255C242.021 28.3405 242.739 28.8741 243.218 29.5263C243.697 30.0599 243.936 30.5935 243.936 31.1271C243.936 31.6607 243.667 31.9275 243.128 31.9275C242.53 31.9275 241.872 31.5718 241.154 30.8603C240.316 30.0303 239.479 29.6152 238.641 29.6152C237.564 29.6152 236.248 30.2674 234.692 31.5718C233.496 32.5204 232.658 33.3209 232.179 33.973C231.701 34.6252 230.983 35.8703 230.025 37.7083C229.188 39.3091 228.769 41.0582 228.769 42.9554C228.769 45.8606 229.696 48.2322 231.551 50.0702C233.466 51.9675 235.53 52.9161 237.743 52.9161C239.957 52.9161 242.59 51.9082 245.641 49.8923C247.974 48.2915 249.919 47.3132 251.474 46.9575C251.714 46.8982 251.983 46.8686 252.282 46.8686C252.761 46.8686 253 46.9871 253 47.2243C253 47.6986 252.162 48.499 250.487 49.6255C248.872 50.6928 248.004 51.2264 247.885 51.2264C247.705 51.2264 247.047 51.6414 245.91 52.4715C243.098 54.3687 240.346 55.3174 237.654 55.3174C235.021 55.3174 232.688 54.3984 230.654 52.5604C227.782 50.0109 226.346 46.8982 226.346 43.2222C226.346 42.155 226.466 41.236 226.705 40.4653C227.303 37.8565 228.5 35.3367 230.295 32.9058C232.149 30.4157 234.004 28.7555 235.859 27.9255Z" fill="#242424"></path><path d="M82.6487 79.2052L79.5256 91.1936L73.064 95L68.146 91.1936L66.1357 77.3909L74.6076 68.4263L82.6487 79.2052ZM78.2333 87.7074L74.1409 71.4145L68.9358 79.2052L71.2691 90.411L78.2333 87.7074Z" fill="#242424"></path><path d="M103.554 81.4819L97.164 91.6205L91.3127 95V68.6042H99.3179L103.554 81.4819ZM100.108 79.0273L94.005 70.3829H94.2204V92.7233L100.108 79.0273Z" fill="#242424"></path><path d="M115.295 68.4975V94.3241L111.741 95V68.4975H115.295Z" fill="#242424"></path><path d="M136.814 95H124.681V91.8339L132.686 89.2726L124.286 75.6478L129.312 68.4263L136.312 69.5291L136.491 69.8493V73.4067H129.312L136.814 95Z" fill="#242424"></path><path d="M157.845 95H145.712V91.8339L153.717 89.2726L145.317 75.6478L150.343 68.4263L157.343 69.5291L157.522 69.8493V73.4067H150.343L157.845 95Z" fill="#242424"></path><path d="M166.851 68.9244V68.8176L166.671 68.4263H176.292L176.615 70.3117L169.974 71.4857V78.4582L174.497 81.0551L174.281 82.6559L169.686 81.8377V91.4071H174.892L177.512 94.8933H166.851V68.9244Z" fill="#242424"></path><path d="M193.164 85.1816L191.784 93.2925L189.215 94.8933L191.584 84.5769L185.554 69.3868H190.507L193.631 81.3396L197.543 68.4975L200.2 69.6003L193.164 85.1816Z" fill="#242424"></path></svg>