<svg xmlns="http://www.w3.org/2000/svg" width="64" height="64" viewBox="0 0 64 64" fill="none"><circle cx="32" cy="32" r="32" fill="#B3AD97"></circle><path d="M25.457 29.5L38.457 23.501M25.457 34.501L38.457 40.5M50 21C50 24.3137 47.3138 27 44 27C40.6862 27 38 24.3137 38 21C38 17.6863 40.6862 15 44 15C47.3138 15 50 17.6863 50 21ZM26 32C26 35.3138 23.3137 38 20 38C16.6863 38 14 35.3138 14 32C14 28.6862 16.6863 26 20 26C23.3137 26 26 28.6862 26 32ZM50 43C50 46.3138 47.3138 49 44 49C40.6862 49 38 46.3138 38 43C38 39.6862 40.6862 37 44 37C47.3138 37 50 39.6862 50 43Z" stroke="#F2F2F2" stroke-width="2" stroke-linejoin="round"></path></svg>