<svg xmlns="http://www.w3.org/2000/svg" width="64" height="64" viewBox="0 0 64 64" fill="none"><circle cx="32" cy="32" r="32" fill="#B3AD97"></circle><path d="M32.85 50C33.4023 50 33.85 49.5523 33.85 49C33.85 48.4477 33.4023 48 32.85 48V50ZM16.2115 45.9342L15.5217 46.6582L15.5218 46.6583L16.2115 45.9342ZM21.0819 37.9187L21.5935 38.7779L21.5935 38.7779L21.0819 37.9187ZM32.85 35.5788L32.7103 36.569L32.7104 36.569L32.85 35.5788ZM36.7222 37.6534C37.2335 37.8621 37.8172 37.6167 38.0259 37.1054C38.2346 36.594 37.9892 36.0103 37.4778 35.8017L36.7222 37.6534ZM42.05 49C42.05 49.5523 42.4977 50 43.05 50C43.6023 50 44.05 49.5523 44.05 49H42.05ZM44.05 37.1C44.05 36.5477 43.6023 36.1 43.05 36.1C42.4977 36.1 42.05 36.5477 42.05 37.1H44.05ZM37.1 42.05C36.5477 42.05 36.1 42.4977 36.1 43.05C36.1 43.6023 36.5477 44.05 37.1 44.05V42.05ZM49 44.05C49.5523 44.05 50 43.6023 50 43.05C50 42.4977 49.5523 42.05 49 42.05V44.05ZM32.85 48H22.8045V50H32.85V48ZM22.8045 48C20.5412 48 18.6871 46.9115 16.9013 45.2102L15.5218 46.6583C17.4884 48.5317 19.8134 50 22.8045 50V48ZM16.9013 45.2102C16.0934 44.4405 15.9629 43.8609 16.008 43.4481C16.0599 42.9736 16.3732 42.4234 17.004 41.8059C18.2879 40.5492 20.2824 39.5586 21.5935 38.7779L20.5703 37.0595C19.4762 37.7109 17.1151 38.8985 15.605 40.3766C14.8388 41.1266 14.1453 42.0831 14.0199 43.2308C13.8877 44.4402 14.4093 45.5984 15.5217 46.6582L16.9013 45.2102ZM21.5935 38.7779C24.9627 36.7718 28.9111 36.0332 32.7103 36.569L32.9897 34.5886C28.754 33.9913 24.3438 34.8126 20.5703 37.0595L21.5935 38.7779ZM32.7104 36.569C34.0863 36.763 35.4259 37.1244 36.7222 37.6534L37.4778 35.8017C36.0289 35.2104 34.5292 34.8057 32.9896 34.5886L32.7104 36.569ZM38.65 22.65C38.65 26.3227 35.6727 29.3 32 29.3V31.3C36.7773 31.3 40.65 27.4273 40.65 22.65H38.65ZM32 29.3C28.3273 29.3 25.35 26.3227 25.35 22.65H23.35C23.35 27.4273 27.2227 31.3 32 31.3V29.3ZM25.35 22.65C25.35 18.9773 28.3273 16 32 16V14C27.2227 14 23.35 17.8727 23.35 22.65H25.35ZM32 16C35.6727 16 38.65 18.9773 38.65 22.65H40.65C40.65 17.8727 36.7773 14 32 14V16ZM44.05 49V37.1H42.05V49H44.05ZM37.1 44.05H49V42.05H37.1V44.05Z" fill="#F2F2F2"></path></svg>