<svg xmlns="http://www.w3.org/2000/svg" width="26" height="26" viewBox="0 0 26 26" fill="none"><path d="M16.0316 6.68421C14.3573 6.68421 13 8.09805 13 9.8421C13 10.109 13.0318 10.3682 13.0917 10.6158C12.9361 10.6263 12.7792 10.6316 12.6211 10.6316C10.0688 10.6316 7.82662 8.85348 6.54799 6.76729C6.30781 7.61709 6.17895 8.51655 6.17895 9.44737C6.17895 12.0576 7.19232 14.8159 8.83158 16.5294C8.83158 17.4582 6.55789 17.929 5.42105 18.0483C6.75876 18.8545 8.31188 19.3158 9.96842 19.3158C14.8802 19.3158 18.8825 15.2599 19.0572 10.1879L20.5789 7.07895L18.0368 7.47368C17.5024 6.98234 16.8005 6.68421 16.0316 6.68421Z" stroke="#6F0B15" stroke-width="1.5" stroke-linejoin="round"></path><path d="M1 13C1 7.34315 1 4.51472 2.75736 2.75736C4.51472 1 7.34315 1 13 1C18.6568 1 21.4853 1 23.2427 2.75736C25 4.51472 25 7.34315 25 13C25 18.6568 25 21.4853 23.2427 23.2427C21.4853 25 18.6568 25 13 25C7.34315 25 4.51472 25 2.75736 23.2427C1 21.4853 1 18.6568 1 13Z" stroke="#6F0B15" stroke-width="1.5" stroke-linejoin="round"></path></svg>