<svg width="28" height="28" viewBox="0 0 28 28" fill="none" xmlns="http://www.w3.org/2000/svg">
<path d="M2.85499 3.18848L2.32466 2.65815L2.32465 2.65815L2.85499 3.18848ZM24.4784 3.18848L25.0087 2.65816L25.0087 2.65814L24.4784 3.18848ZM24.4784 24.8119L25.0087 25.3422L25.0088 25.3422L24.4784 24.8119ZM2.85499 24.8119L2.32465 25.3422L2.32467 25.3422L2.85499 24.8119ZM15 14.5835C14.5858 14.5835 14.25 14.9193 14.25 15.3335C14.25 15.7477 14.5858 16.0835 15 16.0835V14.5835ZM20.3333 16.0835C20.7475 16.0835 21.0833 15.7477 21.0833 15.3335C21.0833 14.9193 20.7475 14.5835 20.3333 14.5835V16.0835ZM15 19.9168C14.5858 19.9168 14.25 20.2526 14.25 20.6668C14.25 21.081 14.5858 21.4168 15 21.4168V19.9168ZM17.6667 21.4168C18.0809 21.4168 18.4167 21.081 18.4167 20.6668C18.4167 20.2526 18.0809 19.9168 17.6667 19.9168V21.4168ZM6.99975 5.25016C6.58553 5.25016 6.24975 5.58595 6.24975 6.00016C6.24975 6.41438 6.58553 6.75016 6.99975 6.75016V5.25016ZM7.01172 6.75016C7.42593 6.75016 7.76172 6.41438 7.76172 6.00016C7.76172 5.58595 7.42593 5.25016 7.01172 5.25016V6.75016ZM12.3331 5.25016C11.9189 5.25016 11.5831 5.58595 11.5831 6.00016C11.5831 6.41438 11.9189 6.75016 12.3331 6.75016V5.25016ZM12.3451 6.75016C12.7593 6.75016 13.0951 6.41438 13.0951 6.00016C13.0951 5.58595 12.7593 5.25016 12.3451 5.25016V6.75016ZM10.4167 10.0002C10.4167 9.58595 10.0809 9.25016 9.66667 9.25016C9.25245 9.25016 8.91667 9.58595 8.91667 10.0002H10.4167ZM8.91667 26.6668C8.91667 27.081 9.25245 27.4168 9.66667 27.4168C10.0809 27.4168 10.4167 27.081 10.4167 26.6668H8.91667ZM1.75 14.0002C1.75 10.9934 1.75159 8.81378 1.97519 7.15071C2.19588 5.50922 2.6204 4.48373 3.38532 3.71881L2.32465 2.65815C1.23459 3.74823 0.731616 5.14302 0.488561 6.95084C0.248407 8.73709 0.25 11.0358 0.25 14.0002H1.75ZM3.38531 3.71881C4.15024 2.9539 5.17573 2.52937 6.81722 2.30868C8.48028 2.08509 10.6599 2.0835 13.6667 2.0835V0.583496C10.7023 0.583496 8.40359 0.581903 6.61735 0.822057C4.80952 1.06511 3.41473 1.56808 2.32466 2.65815L3.38531 3.71881ZM13.6667 2.0835C16.6734 2.0835 18.853 2.08509 20.5161 2.30868C22.1576 2.52937 23.1831 2.9539 23.9481 3.71882L25.0087 2.65814C23.9186 1.56808 22.5238 1.06511 20.716 0.822057C18.9297 0.581903 16.631 0.583496 13.6667 0.583496V2.0835ZM23.9481 3.7188C24.713 4.48373 25.1375 5.50922 25.3582 7.15071C25.5817 8.81378 25.5833 10.9934 25.5833 14.0002H27.0833C27.0833 11.0358 27.0849 8.73709 26.8448 6.95085C26.6017 5.14303 26.0988 3.74824 25.0087 2.65816L23.9481 3.7188ZM25.5833 14.0002C25.5833 17.0069 25.5817 19.1865 25.3582 20.8496C25.1375 22.4911 24.713 23.5166 23.9481 24.2816L25.0088 25.3422C26.0988 24.2521 26.6017 22.8573 26.8448 21.0495C27.0849 19.2632 27.0833 16.9645 27.0833 14.0002H25.5833ZM23.9481 24.2815C23.1831 25.0465 22.1576 25.471 20.5161 25.6917C18.853 25.9152 16.6734 25.9168 13.6667 25.9168V27.4168C16.631 27.4168 18.9297 27.4184 20.716 27.1783C22.5238 26.9352 23.9186 26.4323 25.0087 25.3422L23.9481 24.2815ZM13.6667 25.9168C10.6599 25.9168 8.48028 25.9152 6.81721 25.6917C5.17572 25.471 4.15023 25.0465 3.38531 24.2816L2.32467 25.3422C3.41474 26.4323 4.80953 26.9352 6.61735 27.1783C8.40359 27.4184 10.7023 27.4168 13.6667 27.4168V25.9168ZM3.38533 24.2816C2.6204 23.5166 2.19588 22.4911 1.97519 20.8496C1.75159 19.1865 1.75 17.0069 1.75 14.0002H0.25C0.25 16.9645 0.248407 19.2632 0.488561 21.0495C0.731616 22.8573 1.23458 24.2521 2.32465 25.3422L3.38533 24.2816ZM1 10.7502H26.3333V9.25016H1V10.7502ZM15 16.0835H20.3333V14.5835H15V16.0835ZM15 21.4168H17.6667V19.9168H15V21.4168ZM6.99975 6.75016H7.01172V5.25016H6.99975V6.75016ZM12.3331 6.75016H12.3451V5.25016H12.3331V6.75016ZM8.91667 10.0002V26.6668H10.4167V10.0002H8.91667Z" fill="#6F0B15"/>
</svg>
